<svg width="1264" height="645" viewBox="0 0 1264 645" fill="none" xmlns="http://www.w3.org/2000/svg">
<path opacity="0.2" d="M1002.34 124.958C944.877 81.0879 865.695 62.0492 795.104 57.6591C677.864 50.3685 560.248 57.9504 443.549 69.429C370.23 76.6377 294.384 86.2694 231.734 124.999C171.378 162.314 144.288 224.165 135.816 290.71C130.496 332.512 132.528 376.159 138.277 416.743L49.2983 410.413C44.7948 410.093 40.3484 411.574 36.9374 414.532C33.5264 417.49 31.43 421.682 31.1097 426.186C30.7893 430.689 32.2712 435.136 35.2291 438.547C38.187 441.958 42.3789 444.054 46.8824 444.374L144.597 451.325C146.816 460.773 149.573 470.086 152.853 479.219L90.7718 474.803C86.2683 474.483 81.822 475.964 78.411 478.922C74.9999 481.88 72.9036 486.072 72.5832 490.576C72.2629 495.079 73.7447 499.526 76.7027 502.937C79.6606 506.348 83.8524 508.444 88.3559 508.764L169.574 514.542C181.662 534.611 197.475 552.184 216.161 566.316C311.291 638.995 407.463 543.112 475.206 476.576C510.921 441.511 548.411 405.351 595.966 389.773C635.037 376.979 677.245 379.342 718.253 382.259C835.551 390.552 1022.27 438.975 1050.44 275.331C1058.81 226.698 1042.7 155.801 1002.34 124.958Z" fill="url(#paint0_linear)"/>
<path opacity="0.2" d="M1151.64 508.483L1222.11 513.496C1240.35 472.289 1241.09 423.779 1229.44 379.84C1204.98 287.647 1145.42 220.673 1070.28 171.604L1128.38 175.737C1132.88 176.057 1137.33 174.576 1140.74 171.618C1144.15 168.66 1146.25 164.468 1146.57 159.964C1146.89 155.461 1145.41 151.015 1142.45 147.604C1139.49 144.192 1135.3 142.096 1130.8 141.776L999.758 132.454C994.65 130.037 989.499 127.68 984.303 125.381L1031.85 128.764C1036.35 129.084 1040.8 127.602 1044.21 124.644C1047.62 121.686 1049.72 117.495 1050.04 112.991C1050.36 108.487 1048.88 104.041 1045.92 100.63C1042.96 97.2191 1038.77 95.1228 1034.27 94.8024L899.269 85.1992C897.008 85.0321 894.736 85.3204 892.589 86.0471C890.441 86.7738 888.461 87.924 886.766 89.4297C844.711 76.6333 802.382 66.7357 761.951 58.9444C660.095 39.3084 528.758 9.92951 426.33 29.8983C347.946 45.2033 294.833 99.579 259.469 166.302C235.165 212.146 219.252 263.818 209.25 312.66C196.573 374.631 199.958 432.966 234.57 488.488C305.858 602.786 445.25 540.041 543.019 496.922C594.564 474.196 648.42 451.011 704.691 453.503C750.923 455.555 794.479 474.832 836.469 494.178C936.547 540.251 1110.72 665.861 1202.54 546.211L1149.2 542.416C1144.69 542.096 1140.5 540 1137.54 536.589C1134.58 533.178 1133.1 528.731 1133.42 524.228C1133.74 519.724 1135.84 515.532 1139.25 512.574C1142.66 509.616 1147.11 508.135 1151.61 508.455L1151.64 508.483Z" fill="url(#paint1_linear)"/>
<path opacity="0.2" d="M25.4964 467.625C13.5393 466.775 3.15656 475.778 2.30596 487.735C1.45537 499.692 10.459 510.075 22.4161 510.926C34.3732 511.776 44.7559 502.773 45.6065 490.816C46.4571 478.858 37.4535 468.476 25.4964 467.625Z" fill="url(#paint2_linear)"/>
<path opacity="0.2" d="M1201.89 148.54C1189.94 147.69 1179.55 156.693 1178.7 168.65C1177.85 180.607 1186.86 190.99 1198.81 191.841C1210.77 192.691 1221.15 183.688 1222 171.731C1222.86 159.773 1213.85 149.391 1201.89 148.54Z" fill="url(#paint3_linear)"/>
<path opacity="0.35" d="M1066.3 8.20873C1110.73 25.0666 1065.14 91.0234 1014.26 60.9573C997.565 51.0954 972.085 35.269 979.668 16.9005C981.234 13.1096 986.142 10.5339 990.982 9.00973C1003.68 5.01205 1014.74 8.45728 1027.38 7.38749C1040.46 6.27727 1054.42 3.70534 1066.3 8.20873Z" fill="#6CAE3B" fill-opacity="0.2"/>
<defs>
<linearGradient id="paint0_linear" x1="522.733" y1="609.282" x2="563.149" y2="41.1372" gradientUnits="userSpaceOnUse">
<stop stop-color="#FC8F1A"/>
<stop offset="1" stop-color="#7EC24C"/>
</linearGradient>
<linearGradient id="paint1_linear" x1="290.74" y1="529.587" x2="1168.57" y2="269.049" gradientUnits="userSpaceOnUse">
<stop offset="0.690625" stop-color="#67BB5C"/>
<stop offset="1" stop-color="#30C0D8" stop-opacity="0"/>
</linearGradient>
<linearGradient id="paint2_linear" x1="-138981" y1="-86037.3" x2="-141189" y2="-86194.4" gradientUnits="userSpaceOnUse">
<stop stop-color="#FC8F1A"/>
<stop offset="0.06" stop-color="#F4921D"/>
<stop offset="1" stop-color="#7EC24C"/>
</linearGradient>
<linearGradient id="paint3_linear" x1="-77808.1" y1="-102630" x2="-80016.4" y2="-102787" gradientUnits="userSpaceOnUse">
<stop stop-color="#FC8F1A"/>
<stop offset="0.06" stop-color="#F4921D"/>
<stop offset="1" stop-color="#7EC24C"/>
</linearGradient>
</defs>
</svg>
