<svg width="1444" height="752" viewBox="0 0 1444 752" fill="none" xmlns="http://www.w3.org/2000/svg">
<path opacity="0.2" d="M302.322 608C373.322 654.62 467.702 670.33 550.792 669.59C688.792 668.36 825.992 649.67 961.792 626.49C1047.11 611.93 1135.19 594.32 1205.38 543.71C1273 494.95 1299.59 420.21 1303.97 341.52C1306.72 292.09 1300.7 241.11 1290.58 194.03H1395.38C1400.69 194.03 1405.77 191.923 1409.52 188.172C1413.28 184.422 1415.38 179.335 1415.38 174.03C1415.38 168.726 1413.28 163.639 1409.52 159.888C1405.77 156.137 1400.69 154.03 1395.38 154.03H1280.29C1276.9 143.144 1272.9 132.46 1268.29 122.03H1341.41C1346.72 122.03 1351.8 119.923 1355.55 116.172C1359.31 112.422 1361.41 107.335 1361.41 102.03C1361.41 96.7258 1359.31 91.6387 1355.55 87.888C1351.8 84.1372 1346.72 82.0302 1341.41 82.0302H1245.75C1229.91 59.5197 1209.92 40.2438 1186.84 25.2401C1069.3 -51.9999 964.592 68.3801 890.752 152C851.822 196.07 810.902 241.57 756.472 263.79C711.752 282.04 662.092 282.79 613.792 282.79C475.642 282.85 252.792 241.67 233.422 435.79C227.672 493.48 252.452 575.22 302.322 608Z" fill="url(#paint0_linear)"/>
<path opacity="0.2" d="M95.3812 171H12.3812C-5.5588 220.81 -2.3788 277.72 14.9412 328.24C51.2912 434.24 126.671 507.76 218.811 559H150.381C145.077 559 139.99 561.107 136.239 564.858C132.488 568.609 130.381 573.696 130.381 579C130.381 584.304 132.488 589.391 136.239 593.142C139.99 596.893 145.077 599 150.381 599H304.721C310.908 601.407 317.141 603.74 323.421 606H267.421C262.117 606 257.03 608.107 253.279 611.858C249.528 615.609 247.421 620.696 247.421 626C247.421 631.304 249.528 636.391 253.279 640.142C257.03 643.893 262.117 646 267.421 646H426.421C429.085 646.007 431.723 645.48 434.179 644.45C436.636 643.419 438.86 641.906 440.721 640C491.071 651.49 541.501 659.56 589.531 665.32C710.531 679.84 866.891 703.32 985.261 671.38C1075.84 646.91 1133.55 578.76 1169.43 497.62C1194.09 441.87 1208.43 379.99 1216.08 321.92C1225.77 248.24 1216.94 180.16 1171.75 117.98C1078.68 -10.0199 920.561 75.1301 809.581 133.81C751.071 164.74 689.891 196.4 623.741 198.17C569.391 199.62 516.741 180.66 465.921 161.49C344.801 115.84 130.221 -16.8399 32.5912 131.03H95.4212C100.726 131.03 105.813 133.137 109.563 136.888C113.314 140.639 115.421 145.726 115.421 151.03C115.421 156.334 113.314 161.421 109.563 165.172C105.813 168.923 100.726 171.03 95.4212 171.03L95.3812 171Z" fill="url(#paint1_linear)"/>
<path opacity="0.2" d="M1418.5 125C1432.58 125 1444 113.583 1444 99.5001C1444 85.4169 1432.58 74.0001 1418.5 74.0001C1404.42 74.0001 1393 85.4169 1393 99.5001C1393 113.583 1404.42 125 1418.5 125Z" fill="url(#paint2_linear)"/>
<path opacity="0.2" d="M66.5 597C80.5833 597 92 585.583 92 571.5C92 557.417 80.5833 546 66.5 546C52.4167 546 41 557.417 41 571.5C41 585.583 52.4167 597 66.5 597Z" fill="url(#paint3_linear)" fill-opacity="0.2"/>
<path opacity="0.35" d="M237.101 750.148C183.635 734.096 231.556 653.002 293.689 683.995C314.076 694.16 345.254 710.582 337.9 732.74C336.381 737.313 330.844 740.741 325.299 742.931C310.747 748.674 297.507 745.558 282.781 747.866C267.541 750.258 251.404 754.435 237.101 750.148Z" fill="#6CAE3B" fill-opacity="0.2"/>
<defs>
<linearGradient id="paint0_linear" x1="823.994" y1="0.446777" x2="823.994" y2="669.615" gradientUnits="userSpaceOnUse">
<stop stop-color="#FC8F1A"/>
<stop offset="1" stop-color="#7EC24C"/>
</linearGradient>
<linearGradient id="paint1_linear" x1="1102.5" y1="74.5001" x2="95.5" y2="453" gradientUnits="userSpaceOnUse">
<stop offset="0.690625" stop-color="#67BB5C"/>
<stop offset="1" stop-color="#30C0D8" stop-opacity="0"/>
</linearGradient>
<linearGradient id="paint2_linear" x1="171529" y1="89910.5" x2="174130" y2="89910.5" gradientUnits="userSpaceOnUse">
<stop stop-color="#FC8F1A"/>
<stop offset="0.06" stop-color="#F4921D"/>
<stop offset="1" stop-color="#7EC24C"/>
</linearGradient>
<linearGradient id="paint3_linear" x1="101225" y1="114454" x2="103826" y2="114454" gradientUnits="userSpaceOnUse">
<stop stop-color="#FC8F1A"/>
<stop offset="0.06" stop-color="#F4921D"/>
<stop offset="1" stop-color="#7EC24C"/>
</linearGradient>
</defs>
</svg>
