<svg width="428" height="257" viewBox="0 0 428 257" fill="none" xmlns="http://www.w3.org/2000/svg">
<g opacity="0.5">
<path opacity="0.2" d="M77.9066 227.353C104.489 244.799 139.825 250.678 170.934 250.401C222.601 249.941 273.968 242.947 324.812 234.272C356.755 228.824 389.733 222.234 416.012 203.295C441.329 185.049 451.284 157.08 452.924 127.633C453.953 109.136 451.699 90.0589 447.91 72.4411H487.147C489.133 72.4411 491.038 71.6525 492.442 70.249C493.847 68.8454 494.635 66.9418 494.635 64.9568C494.635 62.9719 493.847 61.0682 492.442 59.6647C491.038 58.2611 489.133 57.4726 487.147 57.4726H444.058C442.789 53.3989 441.289 49.4008 439.565 45.4979H466.941C468.927 45.4979 470.832 44.7093 472.236 43.3058C473.64 41.9022 474.429 39.9986 474.429 38.0136C474.429 36.0287 473.64 34.125 472.236 32.7215C470.832 31.3179 468.927 30.5294 466.941 30.5294H431.126C425.196 22.1057 417.71 14.8925 409.07 9.27795C365.063 -19.6261 325.86 25.4214 298.214 56.713C283.639 73.2045 268.319 90.2311 247.94 98.5461C231.197 105.375 212.604 105.656 194.521 105.656C142.797 105.679 59.3626 90.2685 52.1105 162.91C49.9577 184.499 59.2353 215.087 77.9066 227.353Z" fill="url(#paint0_linear)"/>
<path opacity="0.2" d="M0.361908 63.362H-30.6805C-37.3902 82.0419 -36.2009 103.385 -29.7231 122.331C-16.128 162.083 12.0645 189.655 46.5254 208.871H20.9322C18.9484 208.871 17.0458 209.662 15.643 211.068C14.2402 212.475 13.4521 214.383 13.4521 216.372C13.4521 218.361 14.2402 220.269 15.643 221.675C17.0458 223.082 18.9484 223.872 20.9322 223.872H78.6562C80.97 224.775 83.3013 225.65 85.6501 226.497H64.7058C62.7219 226.497 60.8194 227.288 59.4166 228.694C58.0138 230.101 57.2257 232.009 57.2257 233.998C57.2257 235.987 58.0138 237.895 59.4166 239.302C60.8194 240.708 62.7219 241.498 64.7058 241.498H124.173C125.169 241.501 126.156 241.303 127.074 240.917C127.993 240.53 128.825 239.963 129.521 239.248C148.352 243.557 167.213 246.584 185.177 248.744C230.431 254.189 288.911 262.995 333.182 251.016C367.059 241.84 388.643 216.282 402.062 185.852C411.285 164.945 416.649 141.738 419.51 119.961C423.134 92.3289 419.831 66.7972 402.93 43.4782C368.121 -4.5249 308.984 27.4084 267.477 49.4148C245.593 61.0143 222.712 72.8876 197.971 73.5514C177.644 74.0952 157.953 66.9847 138.946 59.7955C93.6463 42.6756 13.3923 -7.08254 -23.1219 48.3723H0.376873C2.36072 48.3723 4.26331 49.1625 5.6661 50.5691C7.06889 51.9757 7.85698 53.8835 7.85698 55.8728C7.85698 57.862 7.06889 59.7698 5.6661 61.1764C4.26331 62.583 2.36072 63.3732 0.376873 63.3732L0.361908 63.362Z" fill="url(#paint1_linear)"/>
</g>
<defs>
<linearGradient id="paint0_linear" x1="273.22" y1="0" x2="273.22" y2="250.41" gradientUnits="userSpaceOnUse">
<stop stop-color="#FC8F1A"/>
<stop offset="1" stop-color="#7EC24C"/>
</linearGradient>
<linearGradient id="paint1_linear" x1="377.03" y1="27.1722" x2="0.153233" y2="168.444" gradientUnits="userSpaceOnUse">
<stop offset="0.690625" stop-color="#67BB5C"/>
<stop offset="1" stop-color="#30C0D8" stop-opacity="0"/>
</linearGradient>
</defs>
</svg>
