<svg width="410" height="195" viewBox="0 0 410 195" fill="none" xmlns="http://www.w3.org/2000/svg">
<g opacity="0.5">
<path opacity="0.2" d="M85.805 172.505C105.974 185.742 132.786 190.203 156.39 189.993C195.592 189.644 234.568 184.337 273.145 177.755C297.383 173.621 322.404 168.621 342.344 154.251C361.553 140.407 369.107 119.185 370.351 96.8425C371.132 82.8076 369.422 68.3327 366.547 54.965H396.318C397.825 54.965 399.27 54.3667 400.336 53.3018C401.401 52.2368 402 50.7924 402 49.2863C402 47.7802 401.401 46.3358 400.336 45.2709C399.27 44.2059 397.825 43.6076 396.318 43.6076H363.624C362.661 40.5167 361.523 37.4831 360.215 34.5217H380.987C382.494 34.5217 383.939 33.9234 385.004 32.8585C386.07 31.7935 386.668 30.3491 386.668 28.843C386.668 27.337 386.07 25.8925 385.004 24.8276C383.939 23.7626 382.494 23.1643 380.987 23.1643H353.812C349.312 16.7728 343.632 11.2998 337.077 7.03969C303.687 -14.8914 273.941 19.2886 252.965 43.0312C241.905 55.5442 230.281 68.4633 214.819 74.7723C202.115 79.9541 188.007 80.1671 174.286 80.1671C135.041 80.1841 71.7346 68.4917 66.232 123.609C64.5986 139.989 71.638 163.198 85.805 172.505Z" fill="url(#paint0_linear)"/>
<path opacity="0.2" d="M26.9674 48.0762H3.41375C-1.67723 62.2497 -0.774818 78.4435 4.14022 92.819C14.4556 122.981 35.8468 143.902 61.9941 158.482H42.5752C41.0699 158.482 39.6263 159.082 38.5619 160.149C37.4976 161.216 36.8996 162.664 36.8996 164.173C36.8996 165.682 37.4976 167.13 38.5619 168.197C39.6263 169.265 41.0699 169.864 42.5752 169.864H86.3735C88.1292 170.549 89.898 171.213 91.6802 171.856H75.7886C74.2833 171.856 72.8397 172.456 71.7754 173.523C70.711 174.59 70.113 176.038 70.113 177.547C70.113 179.056 70.711 180.504 71.7754 181.571C72.8397 182.638 74.2833 183.238 75.7886 183.238H120.909C121.665 183.24 122.414 183.09 123.111 182.797C123.808 182.504 124.439 182.073 124.967 181.531C139.256 184.8 153.567 187.097 167.196 188.736C201.534 192.867 245.905 199.549 279.496 190.46C305.201 183.497 321.578 164.105 331.76 141.016C338.758 125.153 342.827 107.545 344.998 91.0207C347.748 70.055 345.242 50.6827 332.418 32.9893C306.007 -3.4333 261.136 20.7963 229.642 37.4937C213.038 46.2949 195.676 55.3038 176.905 55.8075C161.481 56.2201 146.54 50.825 132.119 45.3701C97.7474 32.3803 36.8542 -5.37392 9.14891 36.7027H26.9787C28.484 36.7027 29.9276 37.3023 30.9919 38.3695C32.0563 39.4368 32.6543 40.8844 32.6543 42.3937C32.6543 43.9031 32.0563 45.3506 30.9919 46.4179C29.9276 47.4851 28.484 48.0847 26.9787 48.0847L26.9674 48.0762Z" fill="url(#paint1_linear)"/>
<path opacity="0.2" d="M403 35C406.866 35 410 31.866 410 28C410 24.134 406.866 21 403 21C399.134 21 396 24.134 396 28C396 31.866 399.134 35 403 35Z" fill="url(#paint2_linear)"/>
<path opacity="0.2" d="M18.5 169C22.6421 169 26 165.866 26 162C26 158.134 22.6421 155 18.5 155C14.3579 155 11 158.134 11 162C11 165.866 14.3579 169 18.5 169Z" fill="url(#paint3_linear)" fill-opacity="0.2"/>
</g>
<defs>
<linearGradient id="paint0_linear" x1="234" y1="0" x2="234" y2="190" gradientUnits="userSpaceOnUse">
<stop stop-color="#FC8F1A"/>
<stop offset="1" stop-color="#7EC24C"/>
</linearGradient>
<linearGradient id="paint1_linear" x1="312.766" y1="20.617" x2="26.809" y2="127.807" gradientUnits="userSpaceOnUse">
<stop offset="0.690625" stop-color="#67BB5C"/>
<stop offset="1" stop-color="#30C0D8" stop-opacity="0"/>
</linearGradient>
<linearGradient id="paint2_linear" x1="47100" y1="24682" x2="47814" y2="24682" gradientUnits="userSpaceOnUse">
<stop stop-color="#FC8F1A"/>
<stop offset="0.06" stop-color="#F4921D"/>
<stop offset="1" stop-color="#7EC24C"/>
</linearGradient>
<linearGradient id="paint3_linear" x1="29771" y1="31424" x2="30536" y2="31424" gradientUnits="userSpaceOnUse">
<stop stop-color="#FC8F1A"/>
<stop offset="0.06" stop-color="#F4921D"/>
<stop offset="1" stop-color="#7EC24C"/>
</linearGradient>
</defs>
</svg>
