<svg width="1927" height="1030" viewBox="0 0 1927 1030" fill="none" xmlns="http://www.w3.org/2000/svg">
<g opacity="0.25">
<path d="M3 0H1927C1927 0 1927 105.028 1927 116.864C1927 212.992 1926 427.503 1926 427.612C1926.56 438.34 1909.51 442.445 1898.81 448.828C1870.78 465.568 1839.28 475.597 1810 490.07C1777.8 505.988 1748.49 527.155 1723.28 552.697C1653.03 623.904 1611.83 718.624 1541.09 789.981C1468.52 863.256 1362.41 893.9 1263.14 914.226C1211.76 924.744 1168.13 931.266 1121.18 953.491C1071.13 977.203 1052.58 1012.02 996.052 1011.82C943.518 1011.63 858.7 961.571 810.86 939.906C647.67 865.992 536.435 731.749 380.613 687.52C304.934 666.035 221.938 684.074 146.83 660.681C56.0551 632.424 3.52054 569.338 5.00208 491.688C5.00208 491.428 3 305.015 3 222.801V0Z" fill="url(#paint0_linear)"/>
<path d="M3 0H1927C1927 0 1927 105.028 1927 116.864C1927 212.992 1926 427.503 1926 427.612C1926.56 438.34 1909.51 442.445 1898.81 448.828C1870.78 465.568 1839.28 475.597 1810 490.07C1777.8 505.988 1748.49 527.155 1723.28 552.697C1653.03 623.904 1611.83 718.624 1541.09 789.981C1468.52 863.256 1362.41 893.9 1263.14 914.226C1211.76 924.744 1168.13 931.266 1121.18 953.491C1071.13 977.203 1052.58 1012.02 996.052 1011.82C943.518 1011.63 858.7 961.571 810.86 939.906C647.67 865.992 536.435 731.749 380.613 687.52C304.934 666.035 221.938 684.074 146.83 660.681C56.0551 632.424 3.52054 569.338 5.00208 491.688C5.00208 491.428 3 305.015 3 222.801V0Z" fill="url(#paint1_linear)"/>
</g>
<path d="M1453.93 757.489C1431.35 787.115 1403.65 812.972 1373.48 834.314C1312.25 877.584 1237.42 899.752 1168.51 927.342C1107.08 951.94 1061.85 1007.41 997.763 1026.76C990.957 1028.77 983.881 1030.47 976.795 1029.88C969.708 1029.3 963.274 1026.63 956.831 1023.97C916.581 1007.38 875.428 985.959 833.371 975.6C798.17 966.924 763.652 959.306 732.938 938.145C685.68 905.538 646.598 862.374 618.763 812.045C601.9 781.482 588.811 748.702 568.817 720.105C515.057 643.209 497.351 592.684 411.532 555.229C294.868 525.946 166.5 524.294 78.5729 427.094C55.4971 401.59 -0.210188 335.879 0.000596511 300.288C0.000596511 299.371 1 1.00983 1 1.00983H1927C1927 66.045 1926.34 259.73 1926.34 259.891C1924.16 347.024 1825.19 415.072 1752.57 441.776C1700.14 461.042 1644.58 473.92 1597.23 503.637C1505.83 560.963 1515.32 676.996 1453.93 757.489Z" fill="url(#paint2_linear)"/>
<path opacity="0.35" d="M1765.43 701.268C1701.32 721.464 1695.65 608.276 1778.3 597.046C1805.43 593.361 1847.49 588.594 1854.78 615.637C1856.28 621.221 1853.01 628.391 1848.91 634.328C1838.14 649.91 1822.83 655.767 1809.63 668.046C1796 680.759 1782.57 695.856 1765.43 701.268Z" fill="#6CAE3B"/>
<path opacity="0.35" d="M418.789 874.49C351.849 868.906 388.739 761.826 469.519 782.8C495.999 789.667 536.769 801.209 533.459 829.049C532.779 834.795 527.069 840.157 521.069 844.136C505.289 854.486 488.919 854.112 472.069 860.474C454.709 867.048 436.689 875.965 418.789 874.49Z" fill="#6CAE3B"/>
<defs>
<linearGradient id="paint0_linear" x1="3.85412e+06" y1="1.04307e+06" x2="2.15458e+06" y2="-1.29715e+06" gradientUnits="userSpaceOnUse">
<stop stop-color="#FC8F1A"/>
<stop offset="0.06" stop-color="#F4921D"/>
<stop offset="1" stop-color="#7EC24C"/>
</linearGradient>
<linearGradient id="paint1_linear" x1="1927" y1="-5.42765e-05" x2="4.84514" y2="1015.32" gradientUnits="userSpaceOnUse">
<stop stop-color="#FFC444"/>
<stop offset="1" stop-color="#7EC24C"/>
</linearGradient>
<linearGradient id="paint2_linear" x1="963.5" y1="1.00983" x2="963.5" y2="1030" gradientUnits="userSpaceOnUse">
<stop stop-color="#7EC24C"/>
<stop offset="1" stop-color="#019C9C"/>
</linearGradient>
</defs>
</svg>
