<svg width="839" height="811" viewBox="0 0 839 811" fill="none" xmlns="http://www.w3.org/2000/svg">
<path d="M816.29 94.3799H768.1V39.9999C768.097 29.6308 763.977 19.6871 756.645 12.355C749.312 5.02287 739.369 0.902553 729 0.899902H160.759C150.391 0.902554 140.449 5.02319 133.118 12.3556C125.788 19.688 121.669 29.6317 121.669 39.9999V583.54H77.1094C71.1181 583.54 65.3722 585.92 61.1357 590.156C56.8993 594.393 54.5195 600.139 54.5195 606.13C54.5222 612.119 56.9035 617.863 61.1396 622.097C65.3758 626.331 71.1199 628.71 77.1094 628.71H141C146.991 628.71 152.737 631.09 156.973 635.326C161.21 639.563 163.589 645.309 163.589 651.3C163.589 657.291 161.21 663.037 156.973 667.273C152.737 671.51 146.991 673.89 141 673.89H101.279C95.2881 673.89 89.5426 676.27 85.3062 680.506C81.0697 684.743 78.6895 690.489 78.6895 696.48C78.6895 702.471 81.0697 708.217 85.3062 712.453C89.5426 716.69 95.2881 719.07 101.279 719.07H121.689V771.81C121.689 782.177 125.808 792.12 133.139 799.451C140.469 806.781 150.412 810.9 160.779 810.9H729C739.368 810.9 749.312 806.782 756.644 799.451C763.976 792.121 768.097 782.178 768.1 771.81V229.91H784.359C787.365 229.973 790.354 229.436 793.149 228.329C795.945 227.223 798.491 225.569 800.639 223.466C802.787 221.362 804.495 218.851 805.66 216.079C806.825 213.308 807.425 210.331 807.425 207.325C807.425 204.318 806.825 201.342 805.66 198.57C804.495 195.799 802.787 193.288 800.639 191.184C798.491 189.081 795.945 187.427 793.149 186.321C790.354 185.214 787.365 184.677 784.359 184.74H729.06C723.068 184.74 717.322 182.36 713.086 178.123C708.849 173.887 706.47 168.141 706.47 162.15C706.47 156.159 708.849 150.413 713.086 146.176C717.322 141.94 723.068 139.56 729.06 139.56H816.29C819.256 139.56 822.194 138.976 824.935 137.84C827.675 136.705 830.166 135.041 832.263 132.943C834.361 130.846 836.025 128.355 837.16 125.615C838.295 122.874 838.879 119.936 838.879 116.97C838.879 114.003 838.295 111.066 837.16 108.325C836.025 105.584 834.361 103.094 832.263 100.996C830.166 98.8987 827.675 97.2347 824.935 96.0995C822.194 94.9642 819.256 94.3799 816.29 94.3799Z" fill="white"/>
<path d="M22.5898 629.49C35.066 629.49 45.1802 619.376 45.1802 606.9C45.1802 594.424 35.066 584.31 22.5898 584.31C10.1137 584.31 0 594.424 0 606.9C0 619.376 10.1137 629.49 22.5898 629.49Z" fill="white"/>
</svg>
