<svg width="276" height="204" viewBox="0 0 276 204" fill="none" xmlns="http://www.w3.org/2000/svg">
<path opacity="0.2" d="M249.484 74.5775C253.899 92.0732 253.196 110.223 241.751 125.494C229.87 141.354 211.83 151.217 194.188 160.224C166.104 174.568 137.404 188.029 107.341 197.712C89.2358 203.551 67.5555 206.561 48.8562 201.223C35.7216 197.472 24.7287 181.301 22.0473 168.304C13.0165 124.546 64.5198 118.325 94.6968 108.876C105.248 105.605 116.045 102.023 124.569 94.9791C134.924 86.4084 140.777 73.667 146.271 61.3781C156.697 38.0706 171.341 4.60588 202.298 13.4546C217.324 17.7562 227.27 27.559 234.944 40.5785C241.02 50.8393 246.471 62.5558 249.484 74.5775Z" fill="url(#paint0_linear_394:3)"/>
<g opacity="0.8">
<path opacity="0.8" d="M204.325 166.45C204.325 166.373 204.282 166.303 204.26 166.221C204.145 165.856 204.036 165.485 203.927 165.131C201.748 157.586 200.593 148.406 202.043 136.05L208.313 135.538L202.963 129.208C202.963 129.208 204.636 125.536 207.18 120.448C207.262 120.284 207.343 120.121 207.42 119.957C207.964 118.868 208.509 117.778 209.119 116.618C209.424 116.018 209.735 115.414 210.056 114.804C213.156 108.876 216.861 102.273 220.315 97.3704L220.495 97.1089L220.821 96.6512L222.848 93.7311C222.968 93.5623 223.088 93.3934 223.197 93.2299C226.324 88.6809 226.934 87.5315 227.01 87.2754L234.844 89.4164L230.355 84.2573C236.033 79.6826 241.971 75.439 248.137 71.5474C249.417 74.2713 256.02 89.4546 250.049 107.226L244.008 107.536L248.366 110.336C248.366 110.336 247.505 112.308 246.018 115.321C245.713 115.937 245.38 116.596 245.026 117.299C242.177 122.899 237.764 130.842 232.839 137.026C232.54 137.401 232.218 137.794 231.891 138.197L230.835 139.45C221.519 150.313 204.325 166.45 204.325 166.45Z" fill="url(#paint1_linear_394:3)"/>
<path opacity="0.52" d="M195.889 178.571C198.587 174.093 201.268 169.606 203.93 165.109C211.47 152.398 218.87 139.597 226.13 126.707C226.795 125.525 227.459 124.337 228.113 123.155C224.485 122.578 220.916 121.548 217.25 121.112C213.909 120.704 210.548 120.475 207.182 120.426V119.957C210.563 119.666 213.962 119.666 217.342 119.957C221.074 120.306 225.171 120.725 228.729 122.098L229.012 121.597C225.805 119.921 222.401 118.652 218.879 117.822C216.7 117.33 214.491 116.989 212.265 116.803C211.257 116.716 210.086 116.863 209.138 116.607C209.443 116.008 209.754 115.403 210.075 114.793C211.023 114.716 212.036 114.831 212.843 114.836C215.321 114.834 217.795 115.034 220.241 115.436C223.945 116.073 227.377 117.222 230.161 119.516C232.188 115.828 234.155 112.118 236.023 108.37C233.49 106.299 231.12 104.011 228.505 102.05C226 100.156 223.325 98.4977 220.513 97.098L220.84 96.6403C226.706 99.1967 232.016 102.876 236.47 107.471L236.535 107.345C232.308 102.442 228.195 97.3758 222.867 93.7257C222.986 93.5568 223.106 93.388 223.215 93.2245C228.663 96.4442 233.403 101.396 236.955 106.496C241.956 96.1936 246.042 85.543 247.998 74.0098C247.995 74.0032 247.995 73.9961 247.995 73.9891C247.996 73.9822 247.999 73.9755 248.003 73.9697C248.007 73.9639 248.012 73.9593 248.018 73.956C248.025 73.9528 248.032 73.951 248.039 73.951C248.046 73.951 248.053 73.9528 248.059 73.956C248.065 73.9593 248.07 73.9639 248.074 73.9697C248.078 73.9755 248.081 73.9822 248.082 73.9891C248.083 73.9961 248.082 74.0032 248.079 74.0098C246.919 89.2639 233.795 114.504 232.281 117.217C236.805 116.221 241.401 115.583 246.026 115.31C245.721 115.926 245.388 116.585 245.034 117.288C240.774 117.413 236.514 117.664 232.215 118.154C232.146 118.164 232.075 118.157 232.009 118.134C231.943 118.111 231.883 118.073 231.834 118.023C231.463 118.688 228.097 124.642 227.71 125.323C225.32 129.58 222.93 133.842 220.54 138.11C223.673 137.26 227.378 137.565 230.51 137.979C230.973 138.044 231.436 138.11 231.899 138.186L230.842 139.439L230.003 139.308C226.68 138.834 223.379 139.205 220.077 138.932C214.929 148.096 209.726 157.243 204.278 166.232C201.696 170.485 199.052 174.699 196.346 178.876C196.139 179.159 195.714 178.865 195.889 178.571Z" fill="#004D39"/>
<path opacity="0.8" d="M100.663 120.415C100.287 116.95 100.271 113.333 101.486 110.064C102.701 106.795 105.348 103.897 108.753 103.145C112.899 102.224 117.208 104.681 119.731 108.097C122.253 111.513 123.359 115.724 124.416 119.859C123.141 114.199 121.855 108.419 122.564 102.649C123.272 96.88 126.377 91.0781 131.678 88.73C136.979 86.382 144.366 88.8607 145.902 94.4557C146.212 95.8005 146.357 97.1782 146.333 98.558L146.616 111.306C147.339 106.948 149.132 102.838 151.834 99.3441C154.536 95.8498 158.063 93.0807 162.099 91.2851C166.272 89.4818 171.905 89.1495 174.629 92.7669C176.901 95.7578 176.138 100.023 174.82 103.537C173.501 107.051 171.703 110.62 172.232 114.357C172.809 109.672 177.903 106.082 182.507 107.111L182.883 119.195C183.613 113.147 189.333 108.119 195.413 108.163C201.493 108.206 207.147 113.316 207.796 119.38C208.34 124.283 205.927 129.044 203.481 133.359C197.968 143.084 191.403 152.863 181.515 158.087C171.251 163.535 159.026 163.208 147.422 162.772C136.047 162.342 123.637 161.508 115.247 153.816C111.009 149.932 109.178 144.871 106.71 139.869C103.676 133.67 101.415 127.356 100.663 120.415Z" fill="url(#paint2_linear_394:3)"/>
<path opacity="0.8" d="M158.662 158.398C155.44 147.911 154.863 136.79 156.984 126.026C157.671 122.556 158.662 119.091 160.558 116.111C162.454 113.131 165.352 110.663 168.806 109.895C172.26 109.127 176.226 110.38 178.155 113.338C179.026 108.293 179.936 103.134 182.464 98.6832C184.992 94.2323 189.514 90.5604 194.635 90.5114C199.756 90.4624 204.882 95.0495 204.13 100.111C204.898 96.2044 207.868 92.6198 211.757 91.8298C216.301 90.9091 221.019 94.009 222.887 98.2746C224.756 102.54 224.179 107.536 222.375 111.791C220.572 116.046 217.657 119.75 214.781 123.384C217.625 120.268 222.953 120.262 226.292 122.839C229.632 125.416 231.081 129.921 230.651 134.149C230.22 138.377 228.112 142.212 225.502 145.535C219.251 153.417 210.189 158.57 200.219 159.912C200.219 159.912 159.305 158.31 158.662 158.398Z" fill="url(#paint3_linear_394:3)"/>
<path opacity="0.52" d="M154.71 163.29C166.905 154.274 178.27 144.188 188.673 133.152C185.633 123.253 186.205 113.028 186.869 102.802C186.869 102.649 187.114 102.649 187.109 102.802C186.826 112.75 186.815 122.649 189.452 132.297C199.216 121.786 207.802 110.238 215.057 97.8606C215.089 97.8057 215.142 97.766 215.204 97.7502C215.266 97.7343 215.331 97.7437 215.386 97.7762C215.441 97.8087 215.481 97.8617 215.497 97.9235C215.513 97.9853 215.503 98.0509 215.471 98.1058C212.714 103.009 209.718 107.847 206.542 112.581C208.176 112.101 209.908 111.884 211.548 111.328C213.601 110.627 215.594 109.764 217.508 108.746C217.554 108.722 217.608 108.716 217.658 108.731C217.707 108.745 217.75 108.779 217.776 108.824C217.802 108.868 217.809 108.922 217.797 108.972C217.785 109.022 217.754 109.066 217.71 109.094C216.116 110.285 214.379 111.272 212.54 112.031C211.574 112.411 210.588 112.739 209.587 113.011C208.623 113.273 207.086 113.295 206.318 113.927C206.275 113.965 206.224 113.993 206.168 114.01C206.113 114.027 206.055 114.032 205.997 114.024C205.94 114.016 205.885 113.996 205.836 113.965C205.787 113.934 205.745 113.893 205.714 113.845C199.324 123.249 192.141 132.089 184.243 140.267C196.147 141.008 208.797 140.016 219.11 133.73C219.273 133.632 219.426 133.855 219.306 133.986C215.171 138.486 208.743 139.902 202.924 140.861C196.468 141.923 189.735 142.37 183.263 141.237C174.798 149.899 165.399 157.596 155.239 164.189C154.64 164.575 154.187 163.677 154.71 163.29Z" fill="#003F55"/>
<path opacity="0.8" d="M158.652 145.268C168.134 146.237 177.64 143.67 185.346 138.061C186.926 136.906 188.452 135.582 189.312 133.828C190.173 132.073 190.222 129.802 188.985 128.293C187.94 127.012 186.169 126.5 184.518 126.582C182.87 126.75 181.259 127.173 179.74 127.835C184.453 125.731 188.773 122.84 192.516 119.287C194.352 117.544 196.177 114.989 194.842 112.679C194.561 112.221 194.187 111.827 193.745 111.521C193.304 111.216 192.803 111.005 192.276 110.903C190.097 110.429 188.076 111.295 186.136 112.134C190.677 108.952 194.807 105.221 198.432 101.026C199.712 99.544 201.004 97.7953 200.867 95.8395C200.731 93.8837 198.754 90.8219 192.941 95.5453C197.036 88.6152 200.479 81.3201 203.226 73.7537C203.561 72.8875 203.657 71.9473 203.505 71.0313C203.352 70.1153 202.957 69.2569 202.36 68.5456C199.832 65.6636 195.899 67.8428 193.485 70.2235C189.16 74.4946 183.619 84.2028 181.456 89.8795C181.642 86.3384 181.751 75.2029 176.39 75.4698C168.605 75.8621 167.641 89.825 167.199 100.655C166.17 96.2154 165.02 91.5574 161.152 88.67C160.345 88.0448 159.417 87.5929 158.427 87.3426C157.438 87.0923 156.407 87.0491 155.399 87.2155C151.085 88.0163 149.684 92.2493 149.145 96.0574C148.134 103.277 148.941 110.634 151.493 117.462C150.137 115.512 148.72 113.496 146.677 112.287C144.634 111.077 141.638 110.778 140.036 112.537C130.159 123.422 156.62 145.938 158.652 145.268Z" fill="url(#paint4_linear_394:3)"/>
<path opacity="0.8" d="M187.624 117.843C181.26 120.889 174.619 123.411 168.267 126.457C170.893 121.815 173.499 117.166 176.085 112.51C182.159 108.985 187.809 104.6 193.387 100.361C193.622 100.181 193.387 99.8164 193.142 99.9744C187.825 103.788 182.247 107.253 176.908 111.028C184.262 97.7898 191.541 84.5079 199.048 71.3621C199.124 71.2368 198.923 71.1333 198.846 71.2586C191.35 83.7887 183.783 96.3461 176.45 109.029C176.45 102.072 175.573 95.0713 175.562 88.098C175.562 87.9891 175.393 88 175.388 88.098C175.055 95.2783 174.549 102.938 175.851 110.053C172.756 115.421 169.713 120.813 166.72 126.228C163.844 119.037 160.041 112.712 159.175 104.779C159.175 104.742 159.16 104.706 159.133 104.679C159.107 104.653 159.071 104.638 159.033 104.638C158.996 104.638 158.959 104.653 158.933 104.679C158.906 104.706 158.891 104.742 158.891 104.779C159.558 112.645 162.114 120.233 166.344 126.898C163.406 132.248 160.542 137.634 157.753 143.056C157.513 143.514 158.205 143.863 158.466 143.421C161.601 138.111 164.688 132.773 167.728 127.405C174.685 125.296 181.478 121.575 187.689 117.914C187.692 117.905 187.693 117.895 187.691 117.885C187.689 117.875 187.684 117.866 187.678 117.859C187.671 117.852 187.662 117.847 187.653 117.844C187.643 117.841 187.633 117.841 187.624 117.843Z" fill="#00706D"/>
<path opacity="0.8" d="M134.381 172.453C132.06 164.412 131.456 155.646 134.245 147.752C138.995 134.274 152.381 125.961 165.401 120.072C169.019 118.437 173.028 116.863 176.842 117.947C180.83 119.08 183.483 122.807 185.373 126.495C190.599 136.796 192.335 148.517 190.32 159.89C188.243 171.255 182.526 181.636 174.031 189.467C170.174 193.008 165.674 196.004 160.596 197.306C155.519 198.608 147.826 198.069 143.991 194.038C139.3 189.02 136.255 178.931 134.381 172.453Z" fill="url(#paint5_linear_394:3)"/>
<path opacity="0.52" d="M146.361 196.549C147.161 196.729 147.962 196.92 148.758 197.127C149.026 191.854 149.805 186.619 151.084 181.497C157.387 177.1 166.338 175.635 173.535 173.957C173.614 173.928 173.682 173.873 173.725 173.8C173.768 173.727 173.785 173.641 173.772 173.558C173.759 173.474 173.718 173.397 173.654 173.341C173.591 173.285 173.51 173.252 173.426 173.248C168.828 173.73 164.311 174.802 159.986 176.436C157.017 177.498 153.939 178.615 151.351 180.434C151.574 179.59 151.803 178.751 152.043 177.912C159.948 172.497 169.089 170.476 178.193 167.67C178.271 167.641 178.335 167.583 178.372 167.509C178.41 167.434 178.418 167.349 178.396 167.269C178.373 167.188 178.321 167.12 178.25 167.076C178.179 167.032 178.095 167.017 178.013 167.032C168.948 168.667 159.632 171.511 152.277 177.215C153.305 173.799 154.512 170.44 155.894 167.152C157.981 162.184 160.296 157.292 162.748 152.443C168.138 150.836 173.729 150.007 179.353 149.981C179.375 149.981 179.395 149.972 179.411 149.957C179.426 149.941 179.435 149.921 179.435 149.899C179.435 149.877 179.426 149.856 179.411 149.841C179.395 149.826 179.375 149.817 179.353 149.817C174.417 148.728 168.021 149.588 163.216 151.506C163.946 150.079 164.687 148.651 165.445 147.235C167.994 146.189 170.299 145.056 173.072 144.707C175.773 144.392 178.491 144.243 181.211 144.26C181.576 144.26 181.549 143.716 181.211 143.716C176.515 143.329 170.315 142.844 166.213 145.84C167.967 142.571 169.787 139.357 171.622 136.143C171.664 136.106 171.693 136.056 171.704 136.001C174.281 131.501 176.912 127.034 179.544 122.599C179.691 122.354 179.309 122.158 179.157 122.392C177.185 125.414 175.225 128.469 173.279 131.556C173.298 128.518 172.995 125.486 172.374 122.512C172.374 122.392 172.14 122.42 172.156 122.545C172.598 125.95 172.451 129.284 172.565 132.684C172.358 133.01 172.151 133.332 171.949 133.659C172.107 129.796 171.154 126.032 170.141 122.284C170.141 122.213 170.021 122.245 170.032 122.284C170.909 126.451 171.622 130.619 171.17 134.868C166.621 142.185 162.263 149.665 158.433 157.362C155.595 150.084 152.479 143.198 150.697 135.516C150.664 135.375 150.457 135.44 150.485 135.576C151.923 143.236 153.96 151.468 158.014 158.218C157.098 160.092 156.21 161.971 155.36 163.873C151.825 156.055 148.365 148.515 145.996 140.191C145.983 140.16 145.96 140.135 145.93 140.119C145.901 140.104 145.867 140.099 145.834 140.107C145.802 140.114 145.773 140.132 145.753 140.158C145.732 140.185 145.722 140.217 145.723 140.251C147.45 148.63 150.294 157.613 154.892 164.935C154.189 166.531 153.508 168.133 152.865 169.746C150.697 175.086 148.992 180.603 147.772 186.236C146.333 182.722 144.53 179.328 143.244 175.733C141.702 171.41 140.542 166.96 139.78 162.434C139.78 162.342 139.611 162.364 139.622 162.434C140.515 170.781 142.389 180.903 147.428 187.936C146.889 190.781 146.532 193.658 146.361 196.549Z" fill="#003F55"/>
<path opacity="0.8" d="M261.028 143.519C240.68 136.334 183.967 130.543 161.996 179.475C161.996 179.475 188.375 192.91 216.758 176.703C235.75 165.856 254.398 151.179 261.028 143.519Z" fill="url(#paint6_linear_394:3)"/>
<path opacity="0.66" d="M151.149 191.651C159.321 182.935 168.506 176.256 178.58 170.781C178.599 170.798 178.621 170.813 178.645 170.824C186.757 174.322 194.161 178.811 201.755 183.273C201.77 183.281 201.788 183.283 201.805 183.279C201.821 183.276 201.836 183.266 201.846 183.252C201.856 183.238 201.861 183.22 201.859 183.203C201.857 183.186 201.849 183.17 201.837 183.158C195.446 177.531 187.906 173.39 180.159 169.92C180.323 169.838 180.475 169.746 180.639 169.664C184.856 171.652 189.176 173.363 193.305 175.558C197.217 177.64 200.796 180.255 204.664 182.379C204.827 182.472 205.067 182.265 204.904 182.112C198.911 176.441 190.194 171.554 182.099 168.917C186.735 166.569 191.54 164.445 196.503 162.484C197.091 162.249 197.685 162.031 198.274 161.803C207.039 165.071 215.375 169.135 223.933 172.878C224.124 172.96 224.26 172.666 224.091 172.551C216.786 167.648 208.445 164.036 200.121 161.078C201.21 160.653 202.3 160.223 203.427 159.803C211.795 163.17 220.272 166.128 228.52 169.822C228.564 169.822 228.608 169.767 228.559 169.74C220.893 165.763 212.89 161.922 204.588 159.389C206.723 158.594 208.864 157.826 211.011 157.068C211.098 157.091 211.191 157.088 211.277 157.058C211.362 157.027 211.436 156.972 211.49 156.899C224.293 152.405 237.346 148.624 250.715 146.173C250.734 146.169 250.751 146.162 250.767 146.151C250.783 146.141 250.797 146.128 250.807 146.112C250.818 146.096 250.825 146.079 250.829 146.06C250.833 146.041 250.833 146.022 250.829 146.004C250.826 145.985 250.819 145.967 250.808 145.952C250.798 145.936 250.784 145.922 250.769 145.911C250.753 145.901 250.735 145.893 250.717 145.89C250.698 145.886 250.679 145.886 250.661 145.889C239.562 147.66 228.606 150.225 217.875 153.565C221.22 149.904 223.487 144.358 224.298 139.711C224.298 139.581 224.135 139.57 224.086 139.673C222.865 142.348 221.732 145.121 220.272 147.676C219.003 149.915 217.309 151.882 216.067 154.121C214.879 154.497 213.697 154.884 212.514 155.27C215.783 149.981 219.362 145.034 221.057 138.927C221.057 138.923 221.056 138.918 221.054 138.914C221.053 138.91 221.05 138.907 221.047 138.904C221.044 138.901 221.041 138.898 221.037 138.897C221.033 138.895 221.028 138.894 221.024 138.894C221.02 138.894 221.016 138.895 221.012 138.897C221.008 138.898 221.004 138.901 221.001 138.904C220.998 138.907 220.996 138.91 220.994 138.914C220.992 138.918 220.991 138.923 220.991 138.927C218.605 145.083 214.454 150.291 210.94 155.815C205.612 157.591 200.328 159.514 195.076 161.546C191.691 162.854 188.369 164.243 185.112 165.714C186.081 163.301 186.201 160.588 186.844 158.054C187.618 155.164 188.547 152.318 189.628 149.528C189.68 149.39 189.685 149.238 189.641 149.097C189.597 148.956 189.507 148.834 189.385 148.75C189.263 148.667 189.116 148.627 188.969 148.636C188.821 148.646 188.681 148.705 188.571 148.804C186.577 150.623 185.493 154.154 184.812 156.665C184 159.672 183.014 163.263 183.548 166.335C183.556 166.365 183.567 166.395 183.581 166.422C170.931 172.333 159.43 179.84 150.153 190.84C149.706 191.352 150.643 192.196 151.149 191.651Z" fill="#047B53"/>
<path opacity="0.8" d="M141.29 188.366C135.133 171.478 121.802 151.321 112.481 133.119C100.349 109.437 106.952 86.3329 121.198 83.7779C135.444 81.2228 151.199 98.4872 151.434 121.826C151.75 151.855 141.29 188.366 141.29 188.366Z" fill="url(#paint7_linear_394:3)"/>
<path opacity="0.8" d="M141.383 193.422C138.539 161.361 133.358 129.437 127.915 97.8444C127.872 97.5883 127.496 97.7027 127.534 97.9478C132.056 129.872 136.735 161.748 139.579 193.776C140.179 193.64 140.778 193.536 141.383 193.422Z" fill="#008280"/>
</g>
<g opacity="0.8">
<path opacity="0.8" d="M77.6258 162.222C77.6258 162.146 77.6694 162.075 77.6912 161.993C77.8056 161.628 77.92 161.258 78.029 160.904C80.2081 153.358 81.3631 144.179 79.9085 131.823L73.638 131.311L78.9933 124.98C78.9933 124.98 77.3153 121.308 74.7766 116.22L74.5315 115.73C73.9867 114.64 73.4419 113.551 72.8372 112.39C72.5321 111.791 72.2161 111.186 71.9001 110.576C68.8002 104.649 65.0957 98.0458 61.6417 93.1427L61.4565 92.8812L61.1351 92.4236C60.3669 91.334 59.6968 90.3643 59.1085 89.5035C58.9832 89.3346 58.8687 89.1658 58.7543 89.0024C55.6272 84.4534 55.0171 83.3038 54.9681 83.0478L47.134 85.1888L51.6176 80.0296C45.9419 75.4542 40.0065 71.2105 33.8411 67.3197C32.5609 70.0437 25.958 85.2269 31.9235 102.998L37.9707 103.309L33.6124 106.109C33.6124 106.109 34.4731 108.081 35.9549 111.094C36.26 111.709 36.5924 112.368 36.9465 113.071C39.7957 118.672 44.2085 126.615 49.1334 132.798C49.433 133.174 49.7545 133.566 50.0813 133.969C50.4082 134.372 50.7786 134.797 51.1436 135.222C60.4323 146.085 77.6258 162.222 77.6258 162.222Z" fill="url(#paint8_linear_394:3)"/>
<path opacity="0.52" d="M86.0646 174.344C83.3661 169.865 80.6875 165.378 78.0289 160.882C70.4891 148.17 63.089 135.369 55.8288 122.48C55.1587 121.297 54.4996 120.11 53.8404 118.928C57.4687 118.35 61.037 117.32 64.7361 116.885C68.0774 116.476 71.4381 116.247 74.8038 116.198V115.73C71.4233 115.438 68.024 115.438 64.6435 115.73C60.9063 116.078 56.8149 116.498 53.252 117.871L52.9687 117.369C56.1759 115.694 59.58 114.426 63.1018 113.594C65.2802 113.102 67.49 112.762 69.7155 112.575C70.7288 112.488 71.8946 112.635 72.848 112.379C72.5429 111.78 72.227 111.175 71.911 110.565C70.963 110.489 69.9443 110.603 69.138 110.609C66.6597 110.606 64.1854 110.807 61.7398 111.208C58.0352 111.845 54.603 112.995 51.8192 115.288C49.7925 111.6 47.8259 107.89 45.9627 104.142C48.4959 102.072 50.8658 99.7837 53.4808 97.8225C55.9838 95.9279 58.6575 94.2701 61.4674 92.8703L61.1459 92.4127C55.2791 94.9683 49.9693 98.6476 45.516 103.243C45.491 103.203 45.4691 103.161 45.4506 103.118C49.6727 98.2147 53.7859 93.1482 59.1193 89.4981C58.994 89.3292 58.8796 89.1603 58.7652 88.9969C53.3173 92.2166 48.5831 97.1687 45.0257 102.268C40.0299 91.966 35.9386 81.3154 33.9882 69.7822C33.9882 69.7277 33.901 69.7332 33.9065 69.7822C35.0614 85.0363 48.1909 110.276 49.7054 112.989C45.181 111.993 40.585 111.356 35.9604 111.083C36.2654 111.698 36.5978 112.357 36.9519 113.06C41.2176 113.185 45.4724 113.436 49.7762 113.926C49.8455 113.936 49.9161 113.929 49.9823 113.906C50.0485 113.883 50.1085 113.846 50.1576 113.796C50.5226 114.46 53.8894 120.415 54.2762 121.096C56.6732 125.349 59.0649 129.611 61.4511 133.882C58.3185 133.032 54.6085 133.337 51.4814 133.751C51.0183 133.817 50.5498 133.882 50.0868 133.958C50.43 134.361 50.7841 134.786 51.1491 135.211C51.4251 135.16 51.703 135.117 51.9826 135.081C55.3058 134.607 58.6127 134.977 61.9087 134.705C67.0624 143.868 72.2596 153.015 77.7075 162.004C80.2898 166.257 82.9339 170.472 85.6397 174.649C85.6848 174.69 85.743 174.715 85.8044 174.719C85.8658 174.723 85.9267 174.705 85.9767 174.67C86.0266 174.634 86.0627 174.582 86.0787 174.522C86.0948 174.463 86.0897 174.4 86.0646 174.344Z" fill="#004D39"/>
<path opacity="0.8" d="M181.296 116.187C181.672 112.722 181.689 109.105 180.468 105.836C179.248 102.568 176.611 99.6693 173.206 98.9175C169.06 97.9968 164.751 100.454 162.229 103.87C159.706 107.285 158.595 111.497 157.538 115.632C158.813 109.971 160.099 104.191 159.39 98.4217C158.682 92.6524 155.577 86.8504 150.276 84.5024C144.975 82.1544 137.588 84.6332 136.057 90.2281C135.745 91.5725 135.6 92.9504 135.627 94.3304L135.338 107.078C134.615 102.721 132.822 98.6106 130.12 95.1164C127.418 91.6222 123.891 88.8531 119.855 87.0574C115.682 85.2542 110.049 84.9219 107.325 88.5393C105.053 91.5302 105.816 95.7958 107.134 99.3097C108.453 102.824 110.25 106.392 109.727 110.129C109.145 105.444 104.056 101.854 99.4473 102.884C99.3202 106.908 99.1967 110.936 99.0768 114.967C98.3414 108.92 92.6265 103.891 86.5467 103.935C80.4668 103.979 74.8065 109.089 74.1636 115.152C73.6189 120.055 76.0323 124.817 78.4784 129.131C83.9862 138.856 90.5563 148.635 100.439 153.859C110.703 159.307 122.928 158.981 134.532 158.545C145.907 158.114 158.317 157.281 166.712 149.588C170.951 145.704 172.776 140.643 175.249 135.642C178.295 129.442 180.545 123.128 181.296 116.187Z" fill="url(#paint9_linear_394:3)"/>
<path opacity="0.8" d="M123.268 154.154C126.49 143.667 127.067 132.546 124.946 121.782C124.26 118.312 123.268 114.847 121.378 111.867C119.487 108.887 116.578 106.419 113.13 105.651C109.681 104.883 105.704 106.136 103.776 109.094C102.909 104.049 102 98.8903 99.4663 94.4394C96.9331 89.9884 92.4167 86.3165 87.3012 86.2403C82.1856 86.164 77.0537 90.7783 77.8001 95.8394C77.0374 91.9333 74.0683 88.3486 70.173 87.5587C65.6295 86.638 60.9116 89.7378 59.043 94.0035C57.1743 98.2692 57.7573 103.265 59.5551 107.52C61.3529 111.775 64.273 115.479 67.1822 119.113C64.3329 115.997 59.0103 115.991 55.6653 118.568C52.3203 121.145 50.8821 125.65 51.307 129.878C51.7319 134.105 53.8402 137.941 56.4498 141.264C62.7015 149.145 71.7635 154.298 81.7334 155.641C81.7334 155.641 122.653 154.083 123.268 154.154Z" fill="url(#paint10_linear_394:3)"/>
<path opacity="0.52" d="M127.241 159.057C115.048 150.041 103.684 139.955 93.2843 128.919C96.3242 119.02 95.7522 108.795 95.0876 98.5688C95.0876 98.4163 94.8369 98.4163 94.8424 98.5688C95.1257 108.517 95.1366 118.416 92.5053 128.064C82.7391 117.554 74.1529 106.006 66.9002 93.6276C66.8677 93.5727 66.8147 93.5329 66.7529 93.5171C66.6911 93.5013 66.6255 93.5107 66.5706 93.5432C66.5157 93.5757 66.4759 93.6287 66.4601 93.6905C66.4442 93.7523 66.4536 93.8179 66.4862 93.8728C69.2482 98.7759 72.2446 103.614 75.4207 108.348C73.7863 107.868 72.0539 107.65 70.4141 107.089C68.361 106.393 66.3678 105.531 64.4541 104.513C64.4081 104.489 64.3546 104.483 64.3047 104.498C64.2549 104.512 64.2126 104.546 64.1866 104.59C64.1607 104.635 64.153 104.689 64.1653 104.739C64.1776 104.789 64.2088 104.833 64.2525 104.861C65.8448 106.055 67.582 107.041 69.4226 107.798C70.3879 108.179 71.3736 108.506 72.3753 108.778C73.3396 109.04 74.8759 109.061 75.644 109.693C75.6874 109.732 75.7385 109.76 75.7939 109.777C75.8493 109.794 75.9077 109.799 75.9651 109.791C76.0225 109.783 76.0775 109.763 76.1265 109.732C76.1754 109.701 76.2171 109.66 76.2487 109.612C82.6361 119.016 89.8173 127.856 97.7134 136.034C85.8152 136.775 73.1598 135.783 62.8469 129.497C62.6889 129.398 62.5364 129.622 62.6563 129.753C66.7912 134.253 73.2198 135.669 79.0327 136.628C85.4884 137.717 92.222 138.137 98.6941 137.004C107.161 145.664 116.559 153.362 126.718 159.956C127.301 160.348 127.769 159.454 127.241 159.057Z" fill="#003F55"/>
<path opacity="0.8" d="M123.302 141.041C113.82 142.006 104.315 139.44 96.6075 133.833C95.033 132.678 93.5021 131.354 92.6468 129.6C91.7915 127.846 91.737 125.574 92.9737 124.065C94.0197 122.785 95.7848 122.273 97.4355 122.354C99.0852 122.522 100.699 122.944 102.219 123.607C97.5054 121.502 93.1837 118.612 89.438 115.06C87.6021 113.316 85.777 110.761 87.1172 108.451C87.397 107.993 87.7692 107.599 88.2101 107.293C88.651 106.987 89.1508 106.777 89.6777 106.675C91.8568 106.201 93.878 107.067 95.8229 107.906C91.2806 104.725 87.1488 100.994 83.5216 96.7982C82.2414 95.3164 80.9556 93.5676 81.0918 91.6118C81.228 89.656 83.2056 86.5944 89.0131 91.3177C84.9178 84.3876 81.4745 77.0925 78.7274 69.5261C78.3953 68.6591 78.301 67.7191 78.4543 66.8034C78.6075 65.8877 79.0028 65.0295 79.5991 64.3179C82.1215 61.436 86.0549 63.6152 88.4737 65.9959C92.7994 70.267 98.3344 79.9752 100.503 85.6519C100.317 82.1107 100.203 70.9753 105.564 71.2422C113.349 71.6345 114.319 85.5974 114.76 96.4278C115.789 91.9878 116.939 87.3298 120.801 84.4424C121.609 83.8175 122.537 83.3657 123.526 83.1155C124.516 82.8652 125.547 82.8217 126.554 82.9878C130.869 83.7887 132.275 88.0217 132.809 91.8297C133.821 99.0484 133.016 106.406 130.466 113.235C131.817 111.284 133.234 109.268 135.282 108.059C137.33 106.85 140.321 106.55 141.918 108.31C151.8 119.194 125.34 141.711 123.302 141.041Z" fill="url(#paint11_linear_394:3)"/>
<path opacity="0.8" d="M94.3351 113.616C100.693 116.661 107.339 119.184 113.692 122.229C111.066 117.587 108.458 112.939 105.868 108.282C99.7939 104.758 94.1445 100.372 88.5658 96.1336C88.3316 95.9538 88.5658 95.5888 88.811 95.7468C94.1336 99.5603 99.7068 103.025 105.046 106.801C97.6911 93.5622 90.4127 80.2803 82.9055 67.1345C82.8347 67.0092 83.0362 66.9057 83.1071 67.031C90.6088 79.5611 98.1759 92.1185 105.509 104.801C105.482 97.8443 106.38 90.8437 106.397 83.8704C106.397 83.7614 106.56 83.7723 106.566 83.8704C106.898 91.0507 107.405 98.7105 106.108 105.825C109.202 111.193 112.244 116.585 115.233 122C118.115 114.809 121.918 108.484 122.779 100.552C122.785 100.518 122.803 100.488 122.829 100.467C122.856 100.445 122.889 100.433 122.923 100.433C122.957 100.433 122.99 100.445 123.016 100.467C123.043 100.488 123.061 100.518 123.067 100.552C122.399 108.418 119.841 116.006 115.609 122.67C118.551 128.02 121.415 133.406 124.2 138.829C124.44 139.286 123.748 139.635 123.487 139.194C120.36 133.884 117.273 128.545 114.225 123.177C107.268 121.069 100.475 117.348 94.2643 113.687C94.2559 113.683 94.2486 113.678 94.2428 113.671C94.237 113.664 94.233 113.656 94.2312 113.647C94.2294 113.638 94.2298 113.629 94.2324 113.62C94.235 113.612 94.2397 113.604 94.246 113.598C94.2524 113.591 94.2603 113.587 94.2689 113.584C94.2775 113.581 94.2867 113.581 94.2955 113.583C94.3043 113.585 94.3126 113.589 94.3195 113.594C94.3264 113.6 94.3318 113.607 94.3351 113.616Z" fill="#00706D"/>
<path opacity="0.8" d="M147.571 168.225C149.891 160.184 150.496 151.419 147.712 143.525C142.956 130.047 129.571 121.733 116.556 115.844C112.933 114.21 108.929 112.635 105.082 113.719C101.1 114.853 98.4415 118.579 96.5565 122.267C91.3294 132.568 89.5914 144.288 91.6044 155.663C93.6836 167.027 99.4006 177.407 107.894 185.239C111.756 188.78 116.251 191.777 121.328 193.079C126.405 194.381 134.098 193.841 137.933 189.81C142.651 184.792 145.702 174.703 147.571 168.225Z" fill="url(#paint12_linear_394:3)"/>
<path opacity="0.52" d="M135.594 192.322C134.793 192.501 133.998 192.692 133.197 192.899C132.931 187.626 132.152 182.391 130.871 177.269C124.573 172.873 115.617 171.407 108.425 169.729C108.033 169.637 108.12 168.983 108.529 169.021C113.129 169.503 117.648 170.574 121.974 172.208C124.943 173.27 128.016 174.387 130.604 176.207C130.386 175.362 130.157 174.523 129.912 173.684C122.012 168.269 112.865 166.248 103.762 163.442C103.682 163.414 103.615 163.357 103.576 163.281C103.537 163.205 103.528 163.117 103.552 163.036C103.576 162.954 103.63 162.884 103.703 162.841C103.777 162.798 103.864 162.785 103.947 162.805C113.013 164.439 122.328 167.283 129.683 172.987C128.654 169.572 127.446 166.213 126.066 162.925C123.974 157.956 121.664 153.064 119.207 148.215C113.819 146.608 108.229 145.779 102.607 145.753C102.585 145.753 102.565 145.744 102.549 145.729C102.534 145.714 102.525 145.693 102.525 145.671C102.525 145.65 102.534 145.629 102.549 145.614C102.565 145.598 102.585 145.59 102.607 145.59C107.537 144.5 113.933 145.361 118.744 147.278C118.008 145.851 117.267 144.424 116.516 143.007C113.96 141.961 111.656 140.828 108.888 140.479C106.185 140.164 103.465 140.015 100.744 140.033C100.384 140.033 100.412 139.488 100.744 139.488C105.44 139.101 111.64 138.616 115.747 141.613C113.988 138.344 112.174 135.13 110.332 131.915C110.292 131.878 110.265 131.828 110.256 131.774C107.674 127.274 105.042 122.806 102.411 118.372C102.264 118.127 102.651 117.931 102.803 118.165C104.768 121.19 106.726 124.245 108.676 127.328C108.659 124.29 108.962 121.259 109.58 118.285C109.58 118.165 109.815 118.192 109.798 118.317C109.362 121.722 109.504 125.056 109.395 128.456C109.597 128.783 109.804 129.104 110.011 129.431C109.847 125.569 110.801 121.804 111.814 118.056C111.814 118.041 111.82 118.028 111.83 118.017C111.84 118.007 111.854 118.001 111.868 118.001C111.883 118.001 111.897 118.007 111.907 118.017C111.917 118.028 111.923 118.041 111.923 118.056C111.051 122.224 110.332 126.391 110.784 130.641C115.333 137.957 119.697 145.437 123.527 153.135C126.36 145.857 129.476 138.97 131.258 131.289C131.29 131.147 131.497 131.213 131.47 131.349C130.032 139.009 128 147.24 123.941 153.99C124.862 155.864 125.744 157.744 126.6 159.645C130.13 151.827 133.589 144.288 135.965 135.963C135.972 135.928 135.994 135.897 136.025 135.878C136.04 135.868 136.057 135.861 136.075 135.858C136.092 135.855 136.11 135.856 136.128 135.86C136.145 135.864 136.162 135.871 136.177 135.881C136.191 135.892 136.204 135.905 136.214 135.92C136.223 135.935 136.23 135.952 136.233 135.97C136.236 135.987 136.235 136.006 136.231 136.023C134.505 144.402 131.666 153.386 127.063 160.707C127.765 162.304 128.446 163.905 129.089 165.518C131.26 170.858 132.966 176.375 134.189 182.009C135.627 178.495 137.425 175.101 138.716 171.505C140.257 167.182 141.414 162.732 142.175 158.207C142.175 158.114 142.349 158.136 142.339 158.207C141.44 166.553 139.566 176.675 134.526 183.708C135.069 186.553 135.425 189.43 135.594 192.322Z" fill="#003F55"/>
<path opacity="0.8" d="M20.9258 139.27C41.2791 132.084 97.9916 126.293 119.958 175.226C119.958 175.226 93.5788 188.661 65.2008 172.453C46.2094 161.639 27.5559 146.952 20.9258 139.27Z" fill="url(#paint13_linear_394:3)"/>
<path opacity="0.66" d="M130.805 187.424C122.66 178.707 113.448 172.028 103.38 166.553L103.315 166.597C95.1974 170.094 87.7937 174.583 80.2048 179.045C80.1285 179.089 80.0523 178.985 80.1177 178.931C86.508 173.303 94.0479 169.163 101.795 165.692C101.637 165.611 101.479 165.518 101.315 165.436C97.1041 167.425 92.7785 169.135 88.649 171.331C84.7429 173.412 81.1636 176.027 77.2956 178.152C77.1268 178.244 76.8925 178.037 77.056 177.885C83.0486 172.213 91.7652 167.327 99.8554 164.69C95.2192 162.342 90.4196 160.217 85.4511 158.256C84.8627 158.022 84.2689 157.804 83.6805 157.575C74.9149 160.844 66.5851 164.908 58.0265 168.65C57.8358 168.732 57.6996 168.438 57.863 168.324C65.1686 163.42 73.5148 159.809 81.8337 156.85C80.7441 156.425 79.6273 155.995 78.5214 155.576C70.1589 158.942 61.682 161.901 53.4611 165.594C53.4121 165.594 53.374 165.54 53.4176 165.512C61.0827 161.536 69.0911 157.695 77.3883 155.161C75.2581 154.366 73.1171 153.598 70.9706 152.841C70.8822 152.863 70.7889 152.86 70.7026 152.83C70.6164 152.8 70.5409 152.745 70.4858 152.672C57.6832 148.177 44.6301 144.396 31.261 141.945C31.0757 141.912 31.1357 141.634 31.3209 141.662C42.4188 143.433 53.3754 145.998 64.1063 149.338C60.7613 145.677 58.4895 140.131 57.6778 135.484C57.6778 135.353 57.8467 135.342 57.8903 135.446C59.1106 138.121 60.2492 140.893 61.7038 143.449C62.9677 145.688 64.662 147.654 65.9041 149.893C67.0917 150.269 68.2739 150.656 69.4561 151.043C66.1874 145.753 62.6082 140.806 60.9139 134.699C60.9167 134.692 60.9216 134.686 60.9279 134.682C60.9342 134.678 60.9416 134.675 60.9492 134.675C60.9569 134.675 60.9643 134.678 60.9707 134.682C60.977 134.686 60.9819 134.692 60.9847 134.699C63.3709 140.855 67.5221 146.064 71.0306 151.588C76.3586 153.364 81.6485 155.287 86.8948 157.319C90.2761 158.626 93.5976 160.016 96.859 161.486C95.8893 159.073 95.7694 156.36 95.1266 153.827C94.3574 150.935 93.428 148.089 92.3427 145.301C92.2934 145.162 92.2913 145.012 92.3368 144.872C92.3823 144.732 92.4729 144.611 92.5943 144.529C92.7157 144.446 92.8611 144.406 93.0078 144.414C93.1545 144.423 93.2942 144.48 93.4051 144.576C95.399 146.396 96.4831 149.926 97.1586 152.438C97.9704 155.445 98.9565 159.035 98.4226 162.108C98.415 162.138 98.404 162.167 98.3898 162.195C111.045 168.106 122.54 175.613 131.824 186.612C132.254 187.124 131.311 187.969 130.805 187.424Z" fill="#047B53"/>
<path opacity="0.8" d="M140.669 184.117C146.82 167.229 160.156 147.071 169.472 128.87C181.605 105.188 175.002 82.0835 160.756 79.5285C146.509 76.9734 130.754 94.2378 130.514 117.577C130.209 147.616 140.669 184.117 140.669 184.117Z" fill="url(#paint14_linear_394:3)"/>
<path opacity="0.8" d="M140.578 189.194C143.422 157.134 148.597 125.209 154.04 93.6167C154.089 93.3607 154.459 93.4751 154.427 93.7202C149.899 125.645 145.22 157.52 142.381 189.549C141.793 189.418 141.177 189.309 140.578 189.194Z" fill="#008280"/>
</g>
<path opacity="0.2" d="M275.189 112.597C272.89 132.754 264.936 151.588 246.827 163.115C223.156 178.173 187.407 183.708 159.993 188.797C109.813 198.107 45.1626 200.205 11.5328 154.399C3.05047 142.849 -1.78725 128.047 0.980273 113.986C9.57704 70.2562 68.1146 85.4503 98.6173 87.2046C111.033 87.9182 123.814 88.4739 135.581 84.448C149.909 79.5449 161.11 68.4584 171.772 57.7097C192.005 37.3182 220.721 7.92688 249.785 29.5332C263.895 40.0313 270.487 54.2938 273.38 71.0461C275.679 84.2463 276.769 98.7432 275.189 112.597Z" fill="url(#paint15_linear_394:3)"/>
<path opacity="0.3" d="M164 158C164 158.394 163.924 158.784 163.777 159.148C163.63 159.512 163.413 159.843 163.141 160.121C162.869 160.4 162.546 160.621 162.191 160.772C161.835 160.922 161.453 161 161.068 161H81.9315C81.154 161 80.4086 160.684 79.8588 160.121C79.3091 159.559 79 158.796 79 158C79 157.204 79.3091 156.441 79.8588 155.879C80.4086 155.316 81.154 155 81.9315 155H161.068C161.454 154.998 161.836 155.075 162.192 155.225C162.549 155.375 162.873 155.596 163.145 155.875C163.418 156.154 163.633 156.485 163.78 156.85C163.927 157.215 164.001 157.606 164 158Z" fill="#333333"/>
<path d="M209.829 0H136.171C133.315 0 131 2.31522 131 5.17118V78.8288C131 81.6848 133.315 84 136.171 84H209.829C212.685 84 215 81.6848 215 78.8288V5.17118C215 2.31522 212.685 0 209.829 0Z" fill="#E2E3E5"/>
<path d="M215 8V5.31371C215 3.90443 214.455 2.55287 213.486 1.55636C212.516 0.559852 211.201 1.30639e-05 209.829 1.30639e-05H136.183C135.503 -0.00153637 134.829 0.134756 134.2 0.4011C133.571 0.667444 133 1.05861 132.518 1.55219C132.037 2.04576 131.655 2.63204 131.395 3.27749C131.134 3.92295 131 4.61491 131 5.31371V8H215Z" fill="#639E30"/>
<path d="M197 3.98615C197.002 4.38288 196.916 4.77148 196.752 5.1025C196.588 5.43351 196.353 5.692 196.079 5.84509C195.804 5.99818 195.502 6.03897 195.21 5.96224C194.918 5.88552 194.65 5.69478 194.439 5.41424C194.229 5.1337 194.086 4.77603 194.028 4.38678C193.971 3.99752 194.001 3.59427 194.116 3.22825C194.231 2.86224 194.425 2.55004 194.673 2.33133C194.921 2.11263 195.213 1.9973 195.51 2.00005C195.904 2.00369 196.282 2.21413 196.56 2.58582C196.839 2.9575 196.997 3.46052 197 3.98615Z" fill="#C03413"/>
<path d="M203 3.98615C203.002 4.38288 202.915 4.77148 202.751 5.1025C202.587 5.43351 202.353 5.692 202.079 5.84509C201.804 5.99818 201.502 6.03897 201.21 5.96224C200.918 5.88552 200.65 5.69478 200.439 5.41424C200.229 5.1337 200.086 4.77603 200.028 4.38678C199.971 3.99752 200.001 3.59427 200.116 3.22825C200.231 2.86224 200.425 2.55004 200.673 2.33133C200.921 2.11263 201.213 1.9973 201.51 2.00005C201.904 2.00369 202.282 2.21413 202.561 2.58582C202.839 2.9575 202.997 3.46052 203 3.98615Z" fill="#C03413"/>
<path d="M208 3.98615C208.003 4.38288 207.888 4.77148 207.669 5.1025C207.45 5.43351 207.138 5.692 206.772 5.84509C206.406 5.99818 206.003 6.03897 205.613 5.96224C205.224 5.88552 204.866 5.69478 204.586 5.41424C204.305 5.1337 204.114 4.77603 204.038 4.38678C203.961 3.99752 204.002 3.59427 204.155 3.22825C204.308 2.86224 204.567 2.55004 204.898 2.33133C205.229 2.11263 205.617 1.9973 206.014 2.00005C206.54 2.00369 207.043 2.21413 207.415 2.58582C207.786 2.9575 207.996 3.46052 208 3.98615Z" fill="#C03413"/>
<path d="M159 13H141V15H159V13Z" fill="#C03413"/>
<path d="M181 13H160V15H181V13Z" fill="#48A1AF"/>
<path d="M206 13H183V15H206V13Z" fill="#108398"/>
<path d="M206 17H189V19H206V17Z" fill="#48A1AF"/>
<path d="M187 17H169V19H187V17Z" fill="#48A1AF"/>
<path d="M167 17H141V19H167V17Z" fill="#48A1AF"/>
<path d="M158 21H141V22H158V21Z" fill="#DF613B"/>
<path d="M175 21H160V22H175V21Z" fill="#48A1AF"/>
<path d="M206 21H177V22H206V21Z" fill="#48A1AF"/>
<path d="M182 25H154V26H182V25Z" fill="#48A1AF"/>
<path d="M152 25H141V26H152V25Z" fill="#48A1AF"/>
<path d="M206 25H184V26H206V25Z" fill="#48A1AF"/>
<path d="M206 33H197V34H206V33Z" fill="#48A1AF"/>
<path d="M180 33H154V34H180V33Z" fill="#48A1AF"/>
<path d="M152 33H141V34H152V33Z" fill="#C03413"/>
<path d="M195 33H182V34H195V33Z" fill="#108398"/>
<path d="M197 37H168V38H197V37Z" fill="#48A1AF"/>
<path d="M154 37H141V38H154V37Z" fill="#DF613B"/>
<path d="M166 37H155V38H166V37Z" fill="#48A1AF"/>
<path d="M206 37H200V38H206V37Z" fill="#48A1AF"/>
<path d="M161 40H141V42H161V40Z" fill="#48A1AF"/>
<path d="M189 40H163V42H189V40Z" fill="#48A1AF"/>
<path d="M206 40H190V42H206V40Z" fill="#108398"/>
<path d="M178 45H157V46H178V45Z" fill="#48A1AF"/>
<path d="M155 45H141V46H155V45Z" fill="#C03413"/>
<path d="M206 45H200V46H206V45Z" fill="#108398"/>
<path d="M197 45H180V46H197V45Z" fill="#48A1AF"/>
<path d="M154 49H141V50H154V49Z" fill="#DF613B"/>
<path d="M206 49H181V50H206V49Z" fill="#48A1AF"/>
<path d="M179 49H155V50H179V49Z" fill="#48A1AF"/>
<path d="M206 52H200V54H206V52Z" fill="#108398"/>
<path d="M198 52H188V54H198V52Z" fill="#48A1AF"/>
<path d="M165 52H141V54H165V52Z" fill="#DF613B"/>
<path d="M187 52H166V54H187V52Z" fill="#48A1AF"/>
<path d="M155 60H141V62H155V60Z" fill="#C03413"/>
<path d="M179 60H157V62H179V60Z" fill="#48A1AF"/>
<path d="M206 60H182V62H206V60Z" fill="#48A1AF"/>
<path d="M160 64H141V66H160V64Z" fill="#48A1AF"/>
<path d="M184 64H162V66H184V64Z" fill="#48A1AF"/>
<path d="M206 64H186V66H206V64Z" fill="#48A1AF"/>
<path d="M206 68H194V69H206V68Z" fill="#48A1AF"/>
<path d="M192 68H174V69H192V68Z" fill="#48A1AF"/>
<path d="M172 68H141V69H172V68Z" fill="#48A1AF"/>
<path d="M197 72H182V74H197V72Z" fill="#108398"/>
<path d="M206 72H199V74H206V72Z" fill="#48A1AF"/>
<path d="M155 72H141V74H155V72Z" fill="#DF613B"/>
<path d="M179 72H157V74H179V72Z" fill="#48A1AF"/>
<path d="M221.863 70H152.137C149.3 70 147 72.3003 147 75.138V122.862C147 125.7 149.3 128 152.137 128H221.863C224.7 128 227 125.7 227 122.862V75.138C227 72.3003 224.7 70 221.863 70Z" fill="white"/>
<path d="M227 78V75.3255C227 73.9131 226.457 72.5585 225.492 71.5598C224.526 70.5611 223.217 70 221.852 70H152.137C151.461 70 150.792 70.1378 150.168 70.4056C149.544 70.6734 148.978 71.0659 148.5 71.5605C148.023 72.0552 147.645 72.6424 147.388 73.2884C147.13 73.9345 146.999 74.6267 147 75.3255V78H227Z" fill="#546B8E"/>
<path d="M208.5 75C209.329 75 210 74.3284 210 73.5C210 72.6716 209.329 72 208.5 72C207.672 72 207 72.6716 207 73.5C207 74.3284 207.672 75 208.5 75Z" fill="#FEFFFF"/>
<path d="M213.5 75C214.328 75 215 74.3284 215 73.5C215 72.6716 214.328 72 213.5 72C212.671 72 212 72.6716 212 73.5C212 74.3284 212.671 75 213.5 75Z" fill="#FEFFFF"/>
<path d="M218.5 75C219.329 75 220 74.3284 220 73.5C220 72.6716 219.329 72 218.5 72C217.672 72 217 72.6716 217 73.5C217 74.3284 217.672 75 218.5 75Z" fill="#FEFFFF"/>
<path d="M212.675 95.7898L206.985 103.568L200.196 98.4961L194.347 99.1784L189.122 87L182.332 101.873L176.166 110.663L170 105.262L163.516 108.98L152 109.412V122H219V110.083L212.675 95.7898Z" fill="#88E0FF"/>
<path d="M212.675 102.582L206.985 107.833L200.196 102.742L194.347 102.422L189.122 97L182.332 107.194L176.166 116.589L170 110.699L163.516 112.765L152 109.363V122H219V110.037L212.675 102.582Z" fill="#639E30"/>
<path d="M212.675 109.977L206.985 114.687L200.196 109.495L194.347 114.534L189.122 109L182.332 118.102L176.166 121.023L170 113.392L163.516 119.398L152 109.13V122H219V113.392L212.675 109.977Z" fill="#66D1FF"/>
<path d="M212.675 118.039L206.985 120.632L200.196 117.801L194.347 121.346L189.122 118.515L182.332 120.525L176.166 122L170 120.394L163.618 122L152 109V122H219V116.624L212.675 118.039Z" fill="#639E30"/>
<path d="M221 122V121.605H152.373V84H152V122H221Z" fill="white"/>
<path d="M158.988 111.44C158.997 111.246 158.94 111.054 158.827 110.895L144.207 87.3784C144.088 87.2473 143.939 87.1453 143.773 87.0803C143.607 87.0153 143.429 86.9892 143.251 87.004H100.784C100.604 86.9925 100.425 87.02 100.258 87.0847C100.09 87.1495 99.9394 87.2498 99.816 87.3784L85.288 110.748C85.1055 110.96 85.0037 111.229 85 111.508V114.798C85.003 115.117 85.1342 115.423 85.3651 115.649C85.596 115.874 85.9076 116 86.2326 116H157.767C158.092 116 158.404 115.874 158.635 115.649C158.866 115.423 158.997 115.117 159 114.798C159 114.798 158.988 111.462 158.988 111.44Z" fill="#88E0FF"/>
<path d="M157.767 116H86.2328C85.5518 116 85 116.541 85 117.208V155.792C85 156.459 85.5518 157 86.2328 157H157.767C158.448 157 159 156.459 159 155.792V117.208C159 116.541 158.448 116 157.767 116Z" fill="#66D1FF"/>
<path d="M136.504 132.903H107.383L88.2287 116H87L107.383 134H136.504L157 116H155.76L136.504 132.903Z" fill="#00B3FE"/>
<path d="M157.767 116L136.822 134.152H107.063L86.2326 116C85.9056 116 85.5923 116.127 85.3612 116.354C85.13 116.58 85 116.888 85 117.208V155.792C85 156.112 85.13 156.42 85.3612 156.646C85.5923 156.873 85.9056 157 86.2326 157H157.767C158.094 157 158.408 156.873 158.639 156.646C158.87 156.42 159 156.112 159 155.792V117.208C159 116.888 158.87 116.58 158.639 116.354C158.408 116.127 158.094 116 157.767 116Z" fill="#639E30"/>
<path d="M143 88H100V91H143V88Z" fill="#66D1FF"/>
<path d="M155.686 153.519C155.31 153.065 154.818 152.693 154.248 152.429C153.678 152.166 153.045 152.019 152.399 152H90.0287C89.3834 152.017 88.7515 152.164 88.183 152.427C87.6145 152.691 87.1251 153.064 86.7529 153.519L85 156.014C85.0176 156.281 85.1534 156.532 85.3792 156.715C85.605 156.898 85.9038 157 86.2143 157H157.336C157.57 156.996 157.8 156.938 158 156.832L155.686 153.519Z" fill="#497222"/>
<path d="M106.788 134H136.281L149 122.943V100H94V122.842L106.788 134Z" fill="white"/>
<path opacity="0.3" d="M106.788 132.748L94 122V123.263L106.788 134H136.281L149 123.36V122.108L136.281 132.748H106.788Z" fill="#393B36"/>
<path d="M140 105H103V109H140V105Z" fill="#546B8E"/>
<path d="M140 111H103V113H140V111Z" fill="#D6D7D8"/>
<path d="M140 115H103V117H140V115Z" fill="#D6D7D8"/>
<path d="M140 119H103V121H140V119Z" fill="#D6D7D8"/>
<path d="M140 123H103V124H140V123Z" fill="#D6D7D8"/>
<path d="M140 127H103V128H140V127Z" fill="#D6D7D8"/>
<path d="M97.9202 57H61.0796C58.6716 57 56.3623 57.9622 54.6595 59.675C52.9567 61.3877 52 63.7107 52 66.1329V81.4534C52 83.8756 52.9567 86.1986 54.6595 87.9113C56.3623 89.6241 58.6716 90.5863 61.0796 90.5863H61.3861V99L73.1784 90.5863H97.9202C100.328 90.5863 102.638 89.6241 104.34 87.9113C106.043 86.1986 107 83.8756 107 81.4534V66.19C107.007 64.9858 106.778 63.7921 106.325 62.6774C105.872 61.5628 105.205 60.5493 104.361 59.6951C103.517 58.841 102.513 58.1632 101.408 57.7006C100.303 57.2381 99.1173 57 97.9202 57Z" fill="#546B8E"/>
<path d="M70 74.5C70 75.39 69.7364 76.26 69.2419 77.0001C68.7474 77.7401 68.0443 78.3169 67.222 78.6575C66.3997 78.998 65.495 79.0872 64.622 78.9135C63.7491 78.7399 62.9475 78.3113 62.3181 77.682C61.6887 77.0526 61.2601 76.2508 61.0865 75.3779C60.9129 74.505 61.0019 73.6002 61.3425 72.7779C61.6831 71.9557 62.2598 71.2529 62.9998 70.7584C63.7399 70.2639 64.6098 70 65.4999 70C66.6934 70 67.8382 70.4741 68.6821 71.318C69.5261 72.1619 70 73.3065 70 74.5Z" fill="#66D1FF"/>
<path d="M77.4997 79C79.985 79 82 76.9853 82 74.5C82 72.0147 79.985 70 77.4997 70C75.0144 70 73 72.0147 73 74.5C73 76.9853 75.0144 79 77.4997 79Z" fill="#66D1FF"/>
<path d="M89.5003 79C91.9856 79 94 76.9853 94 74.5C94 72.0147 91.9856 70 89.5003 70C87.015 70 85 72.0147 85 74.5C85 76.9853 87.015 79 89.5003 79Z" fill="#66D1FF"/>
<path d="M107 64C106.459 61.984 105.308 60.2094 103.723 58.946C102.137 57.6825 100.204 56.9993 98.2173 57H64C65.3893 59.1594 67.2594 60.9267 69.4467 62.1471C71.634 63.3674 74.0718 64.0036 76.5464 64H107Z" fill="#364C6B"/>
<path d="M70 74.5C70 75.39 69.7364 76.26 69.2419 77.0001C68.7474 77.7401 68.0443 78.3169 67.222 78.6575C66.3997 78.998 65.495 79.0872 64.622 78.9135C63.7491 78.7399 62.9475 78.3113 62.3181 77.682C61.6887 77.0526 61.2601 76.2508 61.0865 75.3779C60.9129 74.505 61.0019 73.6002 61.3425 72.7779C61.6831 71.9557 62.2598 71.2529 62.9998 70.7584C63.7399 70.2639 64.6098 70 65.4999 70C66.6934 70 67.8382 70.4741 68.6821 71.318C69.5261 72.1619 70 73.3065 70 74.5Z" fill="#66D1FF"/>
<path d="M77.4997 79C79.985 79 82 76.9853 82 74.5C82 72.0147 79.985 70 77.4997 70C75.0144 70 73 72.0147 73 74.5C73 76.9853 75.0144 79 77.4997 79Z" fill="#66D1FF"/>
<path d="M89.5003 79C91.9856 79 94 76.9853 94 74.5C94 72.0147 91.9856 70 89.5003 70C87.015 70 85 72.0147 85 74.5C85 76.9853 87.015 79 89.5003 79Z" fill="#66D1FF"/>
<path d="M126.634 16H76.4123C73.1205 16 69.9635 17.3079 67.6358 19.636C65.3081 21.9642 64 25.1218 64 28.4143V49.1926C64.003 52.4831 65.3123 55.6378 67.6397 57.9634C69.9671 60.2891 73.1225 61.5954 76.4123 61.5954H110.115L126.175 73V61.5954H126.588C129.878 61.5954 133.033 60.2891 135.36 57.9634C137.688 55.6378 138.997 52.4831 139 49.1926V28.4143C139 25.1297 137.698 21.979 135.38 19.6522C133.063 17.3254 129.917 16.0121 126.634 16ZM116.023 54.7343H86.3809C85.4801 54.6829 84.6333 54.2888 84.0138 53.6328C83.3942 52.9768 83.0487 52.1086 83.0487 51.2062C83.0487 50.3038 83.3942 49.4356 84.0138 48.7796C84.6333 48.1236 85.4801 47.7295 86.3809 47.6781H116.023C116.503 47.6507 116.983 47.7217 117.435 47.8866C117.887 48.0515 118.301 48.307 118.65 48.6373C119 48.9676 119.278 49.3658 119.468 49.8075C119.659 50.2492 119.757 50.7252 119.757 51.2062C119.757 51.6872 119.659 52.1632 119.468 52.6049C119.278 53.0467 119 53.4449 118.65 53.7752C118.301 54.1055 117.887 54.3609 117.435 54.5258C116.983 54.6908 116.503 54.7617 116.023 54.7343ZM116.023 42.7331H86.3809C85.4801 42.6817 84.6333 42.2876 84.0138 41.6316C83.3942 40.9756 83.0487 40.1074 83.0487 39.205C83.0487 38.3026 83.3942 37.4344 84.0138 36.7784C84.6333 36.1224 85.4801 35.7283 86.3809 35.6769H116.023C116.503 35.6495 116.983 35.7205 117.435 35.8854C117.887 36.0503 118.301 36.3057 118.65 36.636C119 36.9663 119.278 37.3646 119.468 37.8063C119.659 38.248 119.757 38.724 119.757 39.205C119.757 39.686 119.659 40.162 119.468 40.6037C119.278 41.0455 119 41.4437 118.65 41.774C118.301 42.1043 117.887 42.3597 117.435 42.5246C116.983 42.6896 116.503 42.7605 116.023 42.7331ZM116.023 30.7319H86.3809C85.4801 30.6805 84.6333 30.2864 84.0138 29.6304C83.3942 28.9744 83.0487 28.1062 83.0487 27.2038C83.0487 26.3014 83.3942 25.4332 84.0138 24.7772C84.6333 24.1212 85.4801 23.7271 86.3809 23.6757H116.023C116.503 23.6483 116.983 23.7192 117.435 23.8842C117.887 24.0491 118.301 24.3045 118.65 24.6348C119 24.9651 119.278 25.3633 119.468 25.8051C119.659 26.2468 119.757 26.7228 119.757 27.2038C119.757 27.6848 119.659 28.1608 119.468 28.6025C119.278 29.0442 119 29.4425 118.65 29.7728C118.301 30.1031 117.887 30.3585 117.435 30.5234C116.983 30.6883 116.503 30.7593 116.023 30.7319Z" fill="#639E30"/>
<defs>
<linearGradient id="paint0_linear_394:3" x1="2.08992e+06" y1="-73963.2" x2="2.17428e+06" y2="-140147" gradientUnits="userSpaceOnUse">
<stop stop-color="#009B9B"/>
<stop offset="0.06" stop-color="#089D96"/>
<stop offset="1" stop-color="#7EC24C"/>
</linearGradient>
<linearGradient id="paint1_linear_394:3" x1="-25754.3" y1="494519" x2="-24031.4" y2="480320" gradientUnits="userSpaceOnUse">
<stop stop-color="#02332E"/>
<stop offset="0.1" stop-color="#074137"/>
<stop offset="1" stop-color="#34B77F"/>
</linearGradient>
<linearGradient id="paint2_linear_394:3" x1="-137357" y1="196433" x2="-141596" y2="183141" gradientUnits="userSpaceOnUse">
<stop stop-color="#0D160E"/>
<stop offset="1" stop-color="#03887F"/>
</linearGradient>
<linearGradient id="paint3_linear_394:3" x1="-229459" y1="362803" x2="-225719" y2="350256" gradientUnits="userSpaceOnUse">
<stop stop-color="#02332E"/>
<stop offset="0.1" stop-color="#074137"/>
<stop offset="1" stop-color="#34B77F"/>
</linearGradient>
<linearGradient id="paint4_linear_394:3" x1="-212260" y1="364655" x2="-205450" y2="355179" gradientUnits="userSpaceOnUse">
<stop stop-color="#02332E"/>
<stop offset="0.1" stop-color="#074137"/>
<stop offset="1" stop-color="#34B77F"/>
</linearGradient>
<linearGradient id="paint5_linear_394:3" x1="-108922" y1="98738.2" x2="-102387" y2="94746.3" gradientUnits="userSpaceOnUse">
<stop stop-color="#02332E"/>
<stop offset="0.1" stop-color="#074137"/>
<stop offset="1" stop-color="#34B77F"/>
</linearGradient>
<linearGradient id="paint6_linear_394:3" x1="-121559" y1="270796" x2="-113511" y2="264943" gradientUnits="userSpaceOnUse">
<stop stop-color="#009B9B"/>
<stop offset="0.06" stop-color="#089D96"/>
<stop offset="1" stop-color="#7EC24C"/>
</linearGradient>
<linearGradient id="paint7_linear_394:3" x1="16288.1" y1="415778" x2="6252.54" y2="408455" gradientUnits="userSpaceOnUse">
<stop stop-color="#009B9B"/>
<stop offset="1" stop-color="#6CC9CB"/>
</linearGradient>
<linearGradient id="paint8_linear_394:3" x1="255283" y1="444559" x2="247892" y2="432347" gradientUnits="userSpaceOnUse">
<stop stop-color="#02332E"/>
<stop offset="0.1" stop-color="#074137"/>
<stop offset="1" stop-color="#34B77F"/>
</linearGradient>
<linearGradient id="paint9_linear_394:3" x1="199946" y1="188951" x2="203653" y2="175489" gradientUnits="userSpaceOnUse">
<stop stop-color="#0D160E"/>
<stop offset="1" stop-color="#03887F"/>
</linearGradient>
<linearGradient id="paint10_linear_394:3" x1="266623" y1="359933" x2="262879" y2="347402" gradientUnits="userSpaceOnUse">
<stop stop-color="#02332E"/>
<stop offset="0.1" stop-color="#074137"/>
<stop offset="1" stop-color="#34B77F"/>
</linearGradient>
<linearGradient id="paint11_linear_394:3" x1="244891" y1="366392" x2="238139" y2="356913" gradientUnits="userSpaceOnUse">
<stop stop-color="#02332E"/>
<stop offset="0.1" stop-color="#074137"/>
<stop offset="1" stop-color="#34B77F"/>
</linearGradient>
<linearGradient id="paint12_linear_394:3" x1="141516" y1="92813.4" x2="135004" y2="88829.4" gradientUnits="userSpaceOnUse">
<stop stop-color="#02332E"/>
<stop offset="0.1" stop-color="#074137"/>
<stop offset="1" stop-color="#34B77F"/>
</linearGradient>
<linearGradient id="paint13_linear_394:3" x1="160723" y1="256116" x2="152678" y2="250276" gradientUnits="userSpaceOnUse">
<stop stop-color="#009B9B"/>
<stop offset="0.06" stop-color="#089D96"/>
<stop offset="1" stop-color="#7EC24C"/>
</linearGradient>
<linearGradient id="paint14_linear_394:3" x1="217936" y1="391800" x2="223399" y2="380080" gradientUnits="userSpaceOnUse">
<stop stop-color="#009B9B"/>
<stop offset="1" stop-color="#6CC9CB"/>
</linearGradient>
<linearGradient id="paint15_linear_394:3" x1="2.34856e+06" y1="-26510.6" x2="2.48331e+06" y2="-68612" gradientUnits="userSpaceOnUse">
<stop stop-color="#FC8F1A"/>
<stop offset="0.06" stop-color="#F4921D"/>
<stop offset="1" stop-color="#7EC24C"/>
</linearGradient>
</defs>
</svg>
