<?xml version="1.0" encoding="utf-8"?>
<!-- Generator: Adobe Illustrator 24.2.1, SVG Export Plug-In . SVG Version: 6.00 Build 0)  -->
<svg version="1.1" id="Layer_1" xmlns="http://www.w3.org/2000/svg" xmlns:xlink="http://www.w3.org/1999/xlink" x="0px" y="0px"
	 viewBox="0 0 533.11 398.3" style="enable-background:new 0 0 533.11 398.3;" xml:space="preserve">
<style type="text/css">
	.st0{fill:#53AC89;}
	.st1{fill:#E7D036;}
	.st2{fill:#E58C45;}
	.st3{fill:#CC3849;}
	.st4{clip-path:url(#SVGID_2_);fill:url(#SVGID_3_);}
	.st5{clip-path:url(#SVGID_5_);fill:url(#SVGID_6_);}
	.st6{clip-path:url(#SVGID_8_);fill:url(#SVGID_9_);}
	.st7{clip-path:url(#SVGID_11_);fill:url(#SVGID_12_);}
	.st8{fill:#545556;}
</style>
<g>
	<g>
		<path class="st0" d="M252.73,84.18c-0.17-5.59-0.22-11.18-0.11-16.78c0.27-13.49,7.36-18.86,19.74-13.94
			c51.51,20.47,83.5,58.02,95.95,111.93c3.32,14.37-5.47,23.97-21.13,24.04c-20.62,0.09-41.24-0.23-61.87-0.42
			c-10.81-0.1-21.62-0.29-32.43-0.44c0.12-26.86,0.38-53.73,0.24-80.59C253.08,102.17,252.85,88.17,252.73,84.18 M280.8,142.11
			c-0.02,12.8,9.64,22.53,22.52,22.67c12.26,0.14,22.99-10.5,22.86-22.64c-0.14-12.54-10.35-22.68-22.82-22.66
			C290.56,119.5,280.82,129.27,280.8,142.11"/>
		<path class="st1" d="M253.11,107.99c0.14,26.86-0.11,53.73-0.24,80.59c-20.68,0-41.36,0-62.03,0.01
			c-0.02-37.71-0.03-75.43-0.05-113.14C211.73,73.72,253.08,102.17,253.11,107.99"/>
		<path class="st2" d="M190.8,75.44c0.01,37.71,0.03,75.43,0.05,113.14c-19.14,0.37-61.19,0.15-61.19,0.15s-0.18-9.78-0.14-15.22
			c0.24-27.66,0.11-55.32,0.12-82.97C148.32,78.59,168.72,73.62,190.8,75.44"/>
		<path class="st3" d="M129.64,90.53c0,27.66,0.12,55.32-0.12,82.97c-0.04,4.72,0.42,12.61,0.26,14.81
			c-0.02,0.26-0.21,0.47-0.48,0.48c-3.86,0.13-37.61-0.21-56.53,0.47c-4.86,0.17-5.99-2.22-5.35-6.5
			C73.5,142.13,92.55,110.25,129.64,90.53"/>
	</g>
	<g>
		<defs>
			<path id="SVGID_1_" d="M198.72,226.6h12.84c18.01,0,33.01,9.8,33.01,27.87c0,18.84-13.8,30.96-33.01,30.96h-12.84V226.6z
				 M178.91,209.56v92.9h33.85c27.73,0,52.22-16.9,52.22-47.99c0-29.68-25.69-44.9-52.22-44.9H178.91z"/>
		</defs>
		<clipPath id="SVGID_2_">
			<use xlink:href="#SVGID_1_"  style="overflow:visible;"/>
		</clipPath>
		
			<linearGradient id="SVGID_3_" gradientUnits="userSpaceOnUse" x1="-470.2744" y1="726.9122" x2="-469.2744" y2="726.9122" gradientTransform="matrix(-2.4163 128.0617 128.0617 2.4163 -94002.6016 58650.6055)">
			<stop  offset="0" style="stop-color:#796696"/>
			<stop  offset="1" style="stop-color:#0497AA"/>
		</linearGradient>
		<polygon class="st4" points="266.73,209.6 264.95,304.08 177.16,302.43 178.94,207.94 		"/>
	</g>
	<g>
		<defs>
			<polygon id="SVGID_4_" points="347.33,209.56 347.33,270.46 297.27,209.56 280.58,209.56 280.58,302.46 299.19,302.46 
				299.19,242.34 349.01,302.46 365.93,302.46 365.93,209.56 			"/>
		</defs>
		<clipPath id="SVGID_5_">
			<use xlink:href="#SVGID_4_"  style="overflow:visible;"/>
		</clipPath>
		
			<linearGradient id="SVGID_6_" gradientUnits="userSpaceOnUse" x1="-470.2744" y1="726.9088" x2="-469.2744" y2="726.9088" gradientTransform="matrix(-2.4163 128.0617 128.0617 2.4163 -93900.875 58652.5234)">
			<stop  offset="0" style="stop-color:#796696"/>
			<stop  offset="1" style="stop-color:#0497AA"/>
		</linearGradient>
		<polygon class="st5" points="367.68,209.6 365.9,304.07 278.83,302.43 280.61,207.95 		"/>
	</g>
	<g>
		<defs>
			<path id="SVGID_7_" d="M410.41,225.31h0.84c10.92,10.58,21.85,26.58,30.25,42.96h-31.09V225.31z M390.6,209.56v92.9h19.81v-17.93
				h38.65c2.64,6.32,4.8,12.39,6.36,17.93h19.09c-8.16-27.87-24.73-58.32-41.53-76.64l-16.27-17.54L390.6,209.56z"/>
		</defs>
		<clipPath id="SVGID_8_">
			<use xlink:href="#SVGID_7_"  style="overflow:visible;"/>
		</clipPath>
		
			<linearGradient id="SVGID_9_" gradientUnits="userSpaceOnUse" x1="-470.3638" y1="731.6431" x2="-469.3638" y2="731.6431" gradientTransform="matrix(2.4163 128.0617 -128.0617 2.4163 95263.2422 58654.3398)">
			<stop  offset="0" style="stop-color:#796696"/>
			<stop  offset="1" style="stop-color:#0497AA"/>
		</linearGradient>
		<polygon class="st6" points="388.82,208.31 390.63,304.04 476.28,302.43 474.48,206.7 		"/>
	</g>
	<g>
		<defs>
			<path id="SVGID_10_" d="M67.82,209.14c4,33.79,19.4,61,47.65,83.93c0-0.23,0-0.45,0-0.67c10.3,7.43,24.25,11.36,39.33,11.36
				c1.87,0,3.78-0.08,5.7-0.21v-17.01c-1.62,0.12-3.23,0.2-4.79,0.2c-19.48,0-33.03-8.13-35.87-21.8h40.66v-16.13h-40.4
				c3.87-14.45,16.26-23.48,32.9-23.48c2.63,0,5.12,0.15,7.5,0.39v-17.02c-2.82-0.25-5.71-0.4-8.66-0.4
				c-14.04,0-26.79,4.61-36.35,12.56c0.01-3.8,0.02-7.59,0.03-11.38c0.01-4.01-1.56-5.61-5.59-5.57
				c-12.22,0.12-24.45,0.03-36.67-0.02c-0.04,0-0.09,0-0.13,0C69.59,203.86,67.27,204.52,67.82,209.14"/>
		</defs>
		<clipPath id="SVGID_11_">
			<use xlink:href="#SVGID_10_"  style="overflow:visible;"/>
		</clipPath>
		
			<linearGradient id="SVGID_12_" gradientUnits="userSpaceOnUse" x1="-470.2744" y1="726.9067" x2="-469.2744" y2="726.9067" gradientTransform="matrix(-2.4163 128.0617 128.0617 2.4163 -94109.9453 58648.4102)">
			<stop  offset="0" style="stop-color:#796696"/>
			<stop  offset="1" style="stop-color:#0497AA"/>
		</linearGradient>
		<polygon class="st7" points="162.38,203.88 160.47,305.51 65.39,303.71 67.31,202.08 		"/>
	</g>
	<g>
		<path class="st8" d="M61.89,327.99c0.38,1.68,1.59,2.42,3.52,2.42c1.93,0,2.76-0.76,2.76-1.99c0-1.36-0.81-1.95-3.67-2.62
			c-4.55-1.07-5.68-2.72-5.68-4.98c0-2.92,2.18-4.9,6.14-4.9c4.44,0,6.21,2.39,6.45,4.83h-3.64c-0.17-1.03-0.74-2.15-2.9-2.15
			c-1.47,0-2.35,0.61-2.35,1.79c0,1.16,0.71,1.63,3.41,2.26c4.87,1.15,5.93,2.96,5.93,5.31c0,3.05-2.31,5.15-6.73,5.15
			c-4.25,0-6.48-2.09-6.88-5.14H61.89z"/>
		<path class="st8" d="M80.57,316.17v16.73h-3.62v-16.73H80.57z"/>
		<path class="st8" d="M89.33,327.99c0.38,1.68,1.59,2.42,3.52,2.42c1.93,0,2.76-0.76,2.76-1.99c0-1.36-0.81-1.95-3.67-2.62
			c-4.55-1.07-5.68-2.72-5.68-4.98c0-2.92,2.18-4.9,6.14-4.9c4.44,0,6.21,2.39,6.45,4.83h-3.64c-0.17-1.03-0.74-2.15-2.9-2.15
			c-1.47,0-2.35,0.61-2.35,1.79c0,1.16,0.71,1.63,3.41,2.26c4.87,1.15,5.93,2.96,5.93,5.31c0,3.05-2.31,5.15-6.73,5.15
			c-4.25,0-6.48-2.09-6.88-5.14H89.33z"/>
		<path class="st8" d="M107.91,319.13h-5.08v-2.96h13.77v2.96h-5.06v13.76h-3.62V319.13z"/>
		<path class="st8" d="M132.77,325.68h-8v4.25h8.82l-0.43,2.96h-11.91v-16.73h11.86v2.96h-8.35v3.58h8V325.68z"/>
		<path class="st8" d="M152.7,326.62c0-2.85,0.05-6.05,0.12-7.94h-0.12c-0.79,3.41-2.46,8.99-4.06,14.22h-3.08
			c-1.22-4.58-2.95-10.92-3.68-14.26h-0.11c0.14,1.96,0.21,5.4,0.21,8.27v5.99h-3.3v-16.73h5.38c1.3,4.37,2.77,9.85,3.27,12.35h0.03
			c0.41-2.2,2.25-8.06,3.64-12.35h5.19v16.73h-3.49V326.62z"/>
		<path class="st8" d="M182.81,316.17v16.73h-3.62v-16.73H182.81z"/>
		<path class="st8" d="M189.24,332.89v-16.73h4.48c2.09,3.76,5.95,10.53,6.72,12.35h0.05c-0.19-1.75-0.19-4.65-0.19-7.39v-4.96h3.28
			v16.73h-4.25c-1.8-3.27-6.08-11.05-6.9-12.98h-0.05c0.12,1.46,0.16,4.9,0.16,7.89v5.09H189.24z"/>
		<path class="st8" d="M210.01,316.17h11.68v2.96h-8.14v4.1h7.63v2.96h-7.63v6.7h-3.53V316.17z"/>
		<path class="st8" d="M242.41,324.47c0,4.66-2.8,8.66-8.23,8.66c-5.25,0-8-3.81-8-8.61c0-4.87,3.03-8.61,8.23-8.61
			C239.31,315.92,242.41,319.35,242.41,324.47z M229.92,324.46c0,3.27,1.43,5.74,4.4,5.74c3.22,0,4.36-2.69,4.36-5.67
			c0-3.16-1.3-5.65-4.41-5.65C231.24,318.87,229.92,321.2,229.92,324.46z"/>
		<path class="st8" d="M251.54,326.2v6.69H248v-16.73h7.35c3.65,0,5.61,2.01,5.61,4.59c0,2.25-1.22,3.46-2.43,3.96
			c0.83,0.31,2.08,1.17,2.08,4.16v0.83c0,1.12,0.01,2.41,0.24,3.19h-3.43c-0.29-0.73-0.35-1.98-0.35-3.76v-0.24
			c0-1.83-0.46-2.69-3.16-2.69H251.54z M251.54,323.32h3.03c1.98,0,2.74-0.75,2.74-2.15c0-1.36-0.89-2.12-2.66-2.12h-3.12V323.32z"
			/>
		<path class="st8" d="M280.53,326.62c0-2.85,0.05-6.05,0.12-7.94h-0.12c-0.79,3.41-2.46,8.99-4.06,14.22h-3.08
			c-1.22-4.58-2.95-10.92-3.68-14.26h-0.11c0.14,1.96,0.21,5.4,0.21,8.27v5.99h-3.3v-16.73h5.38c1.3,4.37,2.77,9.85,3.27,12.35h0.03
			c0.41-2.2,2.25-8.06,3.64-12.35h5.19v16.73h-3.49V326.62z"/>
		<path class="st8" d="M293.57,329.03l-1.31,3.86h-3.56l5.68-16.73h4.54l5.93,16.73h-3.8l-1.38-3.86H293.57z M298.9,326.07
			c-1.19-3.53-1.94-5.79-2.35-7.29h-0.02c-0.41,1.65-1.25,4.27-2.2,7.29H298.9z"/>
		<path class="st8" d="M312.15,327.99c0.38,1.68,1.59,2.42,3.52,2.42c1.93,0,2.76-0.76,2.76-1.99c0-1.36-0.81-1.95-3.67-2.62
			c-4.55-1.07-5.68-2.72-5.68-4.98c0-2.92,2.18-4.9,6.14-4.9c4.44,0,6.21,2.39,6.45,4.83h-3.64c-0.17-1.03-0.74-2.15-2.9-2.15
			c-1.47,0-2.35,0.61-2.35,1.79c0,1.16,0.71,1.63,3.41,2.26c4.87,1.15,5.93,2.96,5.93,5.31c0,3.05-2.31,5.15-6.73,5.15
			c-4.25,0-6.48-2.09-6.88-5.14H312.15z"/>
		<path class="st8" d="M330.83,316.17v16.73h-3.62v-16.73H330.83z"/>
		<path class="st8" d="M347.98,327.99c0.38,1.68,1.59,2.42,3.52,2.42c1.93,0,2.76-0.76,2.76-1.99c0-1.36-0.81-1.95-3.67-2.62
			c-4.55-1.07-5.68-2.72-5.68-4.98c0-2.92,2.18-4.9,6.14-4.9c4.44,0,6.21,2.39,6.45,4.83h-3.64c-0.17-1.03-0.74-2.15-2.9-2.15
			c-1.47,0-2.35,0.61-2.35,1.79c0,1.16,0.71,1.63,3.41,2.26c4.87,1.15,5.93,2.96,5.93,5.31c0,3.05-2.31,5.15-6.73,5.15
			c-4.25,0-6.48-2.09-6.88-5.14H347.98z"/>
		<path class="st8" d="M374.56,325.68h-8v4.25h8.82l-0.43,2.96h-11.91v-16.73h11.86v2.96h-8.35v3.58h8V325.68z"/>
		<path class="st8" d="M380.4,316.17h3.57v7.46c1.1-1.29,4.54-5.06,6.66-7.46h4.33l-6.72,6.95l6.97,9.77h-4.34l-5.13-7.43
			l-1.76,1.69v5.74h-3.57V316.17z"/>
		<path class="st8" d="M414.07,324.47c0,4.66-2.8,8.66-8.23,8.66c-5.25,0-8-3.81-8-8.61c0-4.87,3.03-8.61,8.23-8.61
			C410.96,315.92,414.07,319.35,414.07,324.47z M401.58,324.46c0,3.27,1.43,5.74,4.4,5.74c3.22,0,4.36-2.69,4.36-5.67
			c0-3.16-1.3-5.65-4.41-5.65C402.89,318.87,401.58,321.2,401.58,324.46z"/>
		<path class="st8" d="M419.65,316.17h3.62v13.76h8.33l-0.41,2.96h-11.54V316.17z"/>
		<path class="st8" d="M440.26,329.03l-1.31,3.86h-3.56l5.68-16.73h4.54l5.93,16.73h-3.8l-1.38-3.86H440.26z M445.59,326.07
			c-1.19-3.53-1.94-5.79-2.35-7.29h-0.02c-0.41,1.65-1.25,4.27-2.2,7.29H445.59z"/>
		<path class="st8" d="M456.12,316.17h3.62v6.52h6.73v-6.52h3.62v16.73h-3.62v-7.24h-6.73v7.24h-3.62V316.17z"/>
	</g>
</g>
</svg>
