<svg width="234" height="341" viewBox="0 0 234 341" fill="none" xmlns="http://www.w3.org/2000/svg">
<g opacity="0.8">
<path opacity="0.8" d="M168.493 269.551C168.463 269.466 168.443 269.381 168.418 269.291C168.288 268.875 168.158 268.45 168.038 268.025C165.537 259.422 164.236 248.967 165.892 234.886L173.035 234.296L166.938 227.088C166.938 227.088 168.848 222.906 171.74 217.084C171.835 216.899 171.93 216.714 172.015 216.529C172.625 215.308 173.27 214.038 173.95 212.717C174.284 212.05 174.641 211.362 175.021 210.651C178.552 203.899 182.774 196.371 186.711 190.783L186.916 190.488L187.286 189.988C188.161 188.737 188.927 187.637 189.597 186.657C189.737 186.466 189.872 186.271 189.997 186.091C193.564 180.904 194.259 179.589 194.314 179.298L203.263 181.764L198.151 175.887C204.619 170.666 211.383 165.823 218.409 161.381C219.869 164.497 227.413 181.789 220.595 202.043L213.707 202.398L218.679 205.589C218.679 205.589 217.679 207.835 216.003 211.267C215.658 211.967 215.283 212.722 214.872 213.518C211.626 219.905 206.599 228.954 200.987 235.997C200.646 236.432 200.281 236.877 199.906 237.332L198.701 238.763C188.086 251.183 168.493 269.551 168.493 269.551Z" fill="url(#paint0_linear)"/>
<path opacity="0.52" d="M158.872 283.387C161.943 278.282 164.997 273.168 168.035 268.046C176.626 253.553 185.057 238.965 193.331 224.283C194.096 222.932 194.831 221.581 195.597 220.236C191.46 219.576 187.393 218.4 183.212 217.905C179.403 217.44 175.573 217.18 171.737 217.125C171.832 216.94 171.927 216.755 172.012 216.569C175.769 216.252 179.545 216.252 183.302 216.569C187.553 216.965 192.22 217.445 196.277 219.01L196.602 218.435C192.948 216.528 189.07 215.084 185.057 214.138C182.574 213.578 180.056 213.189 177.519 212.973C176.364 212.878 175.058 213.043 173.948 212.748C174.281 212.081 174.638 211.392 175.018 210.682C176.099 210.597 177.254 210.727 178.175 210.732C181 210.731 183.82 210.958 186.608 211.412C190.825 212.143 194.736 213.453 197.913 216.064C200.219 211.862 202.465 207.636 204.585 203.364C201.699 201.008 199.003 198.397 196.022 196.166C193.167 194.006 190.117 192.116 186.913 190.519L187.283 190.018C193.866 192.775 200.119 197.271 205.096 202.364C205.126 202.314 205.146 202.264 205.171 202.219C200.359 196.641 195.667 190.859 189.594 186.712C189.734 186.522 189.869 186.327 189.994 186.147C196.202 189.813 201.599 195.451 205.651 201.263C211.348 189.523 216.005 177.393 218.231 164.248C218.231 164.193 218.331 164.198 218.326 164.248C217.006 181.63 202.049 210.397 200.319 213.488C205.474 212.353 210.711 211.625 215.98 211.312C215.635 212.013 215.26 212.768 214.85 213.563C209.993 213.713 205.146 213.993 200.244 214.564C200.165 214.576 200.084 214.569 200.008 214.544C199.933 214.519 199.864 214.476 199.809 214.419C199.388 215.169 195.552 221.962 195.112 222.737C192.38 227.582 189.656 232.438 186.938 237.303C190.51 236.338 194.731 236.688 198.298 237.158C198.823 237.228 199.358 237.303 199.884 237.388L198.678 238.819C198.358 238.764 198.043 238.714 197.723 238.669C193.936 238.128 190.17 238.549 186.413 238.243C180.546 248.683 174.613 259.112 168.406 269.351C165.464 274.203 162.451 279.007 159.367 283.762C159.317 283.828 159.243 283.871 159.162 283.882C159.08 283.894 158.997 283.872 158.932 283.822C158.866 283.773 158.823 283.699 158.812 283.617C158.8 283.535 158.822 283.453 158.872 283.387Z" fill="#004D39"/>
<path opacity="0.8" d="M50.3627 217.114C49.9325 213.162 49.9175 209.061 51.303 205.334C52.6886 201.608 55.6999 198.331 59.5815 197.451C64.3084 196.401 69.2155 199.202 72.0866 203.098C74.9578 206.995 76.2233 211.807 77.4288 216.499C75.9732 210.046 74.5126 203.443 75.318 196.881C76.1233 190.318 79.6598 183.7 85.7023 181.024C91.7448 178.348 100.163 181.174 101.914 187.527C102.271 189.06 102.439 190.63 102.414 192.204L102.744 206.71C103.565 201.743 105.607 197.058 108.686 193.076C111.765 189.094 115.786 185.939 120.387 183.895C125.144 181.84 131.551 181.459 134.687 185.586C137.279 188.992 136.408 193.854 134.908 197.856C133.407 201.858 131.356 205.95 131.956 210.186C132.617 204.844 138.419 200.757 143.666 201.928C143.806 206.52 143.948 211.112 144.091 215.704C144.927 208.806 151.444 203.078 158.387 203.128C165.33 203.178 171.753 209.026 172.493 215.949C173.088 221.571 170.362 226.953 167.576 231.88C161.293 242.965 153.81 254.104 142.566 260.062C130.866 266.244 116.94 265.899 103.715 265.399C90.7544 264.899 76.6085 263.958 67.0445 255.195C62.2175 250.768 60.1317 244.996 57.3155 239.298C53.7991 232.215 51.203 225.032 50.3627 217.114Z" fill="url(#paint1_linear)"/>
<path opacity="0.8" d="M116.462 260.397C112.787 248.445 112.128 235.77 114.546 223.502C115.331 219.555 116.462 215.604 118.618 212.207C120.773 208.811 124.085 205.985 128.017 205.124C131.948 204.264 136.475 205.674 138.676 209.051C139.676 203.303 140.702 197.421 143.583 192.349C146.464 187.277 151.616 183.09 157.449 183.005C163.281 182.92 169.128 188.177 168.273 193.945C169.149 189.493 172.53 185.406 176.977 184.506C182.154 183.46 187.536 187.007 189.662 191.854C191.788 196.701 191.128 202.383 189.077 207.255C187.026 212.127 183.705 216.329 180.423 220.466C183.665 216.914 189.727 216.909 193.544 219.835C197.36 222.761 198.996 227.944 198.486 232.726C197.975 237.508 195.594 241.914 192.623 245.696C185.499 254.678 175.173 260.553 163.811 262.088C163.811 262.088 117.187 260.297 116.462 260.397Z" fill="url(#paint2_linear)"/>
<path opacity="0.52" d="M111.956 265.974C125.962 255.47 138.968 244.155 150.652 231.625C147.191 220.35 147.841 208.696 148.601 197.041C148.608 197.009 148.625 196.98 148.65 196.959C148.675 196.939 148.707 196.927 148.739 196.927C148.772 196.927 148.803 196.939 148.828 196.959C148.853 196.98 148.871 197.009 148.877 197.041C148.551 208.371 148.542 219.65 151.543 230.65C162.668 218.67 172.45 205.51 180.715 191.404C180.753 191.341 180.814 191.295 180.885 191.277C180.957 191.259 181.032 191.271 181.095 191.308C181.158 191.346 181.203 191.408 181.221 191.479C181.239 191.55 181.228 191.626 181.19 191.689C178.044 197.286 174.632 202.788 171.011 208.195C172.887 207.655 174.847 207.405 176.718 206.77C179.058 205.973 181.329 204.989 183.511 203.829C183.563 203.799 183.625 203.791 183.684 203.807C183.742 203.823 183.791 203.861 183.821 203.914C183.851 203.966 183.859 204.028 183.843 204.086C183.827 204.145 183.788 204.194 183.736 204.224C181.924 205.586 179.946 206.71 177.849 207.57C176.748 208.005 175.624 208.379 174.482 208.691C173.382 208.991 171.631 209.011 170.741 209.731C170.691 209.775 170.633 209.807 170.569 209.826C170.506 209.845 170.439 209.851 170.374 209.842C170.308 209.833 170.245 209.81 170.19 209.774C170.134 209.739 170.086 209.692 170.05 209.636C162.77 220.354 154.585 230.428 145.585 239.748C159.146 240.594 173.567 239.463 185.337 232.315C185.522 232.205 185.692 232.455 185.557 232.606C180.845 237.733 173.522 239.348 166.894 240.439C159.536 241.649 151.863 242.16 144.485 240.864C134.839 250.737 124.129 259.51 112.552 267.025C111.891 267.435 111.356 266.42 111.956 265.974Z" fill="#003F55"/>
<path opacity="0.8" d="M116.446 245.431C127.249 246.53 138.079 243.607 146.863 237.222C148.659 235.907 150.4 234.391 151.365 232.395C152.331 230.4 152.401 227.808 150.99 226.088C149.795 224.627 147.784 224.047 145.898 224.142C144.012 224.237 142.216 224.902 140.456 225.568C145.826 223.169 150.75 219.876 155.017 215.829C156.983 213.963 158.938 211.272 157.898 208.771C157.168 207.01 155.117 206.094 153.206 206.12C151.295 206.145 149.494 206.92 147.744 207.675C152.915 204.049 157.619 199.799 161.749 195.02C163.21 193.329 164.676 191.338 164.521 189.107C164.366 186.877 162.11 183.39 155.487 188.772C159.616 181.788 163.166 174.477 166.101 166.913C167.367 163.652 168.212 159.27 165.366 157.239C162.52 155.208 158.603 157.474 156.107 159.935C151.18 164.802 144.868 175.862 142.402 182.335C142.612 178.298 142.737 165.608 136.629 165.918C127.755 166.358 126.655 182.275 126.15 194.61C125.209 190.538 124.189 186.306 121.518 183.105C118.847 179.904 114.015 178.073 110.363 180.154C107.247 181.94 106.086 185.826 105.581 189.383C104.429 197.61 105.348 205.996 108.257 213.778C106.712 211.552 105.096 209.276 102.755 207.88C100.414 206.485 97.0127 206.16 95.1919 208.165C83.9723 220.53 114.13 246.196 116.446 245.431Z" fill="url(#paint3_linear)"/>
<path opacity="0.8" d="M149.451 214.188C142.208 217.659 134.64 220.526 127.402 223.997C130.403 218.711 133.374 213.413 136.315 208.1C143.238 204.099 149.676 199.097 156.034 194.26C156.299 194.055 156.034 193.619 155.753 193.82C149.691 198.171 143.338 202.113 137.246 206.415C145.629 191.329 153.923 176.192 162.476 161.216C162.561 161.071 162.331 160.956 162.246 161.096C153.703 175.382 145.079 189.683 136.736 204.114C136.766 196.191 135.735 188.207 135.735 180.264C135.735 180.139 135.545 180.154 135.54 180.264C135.16 188.447 134.585 197.176 136.065 205.274C132.537 211.39 129.069 217.536 125.661 223.712C122.38 215.513 118.048 208.306 117.062 199.267C117.056 199.229 117.036 199.194 117.006 199.169C116.976 199.144 116.939 199.13 116.9 199.13C116.861 199.13 116.823 199.144 116.794 199.169C116.764 199.194 116.744 199.229 116.737 199.267C117.502 208.232 120.419 216.88 125.241 224.477C121.906 230.576 118.643 236.712 115.452 242.885C115.412 242.991 115.412 243.108 115.453 243.214C115.494 243.32 115.572 243.407 115.673 243.458C115.774 243.509 115.891 243.522 116 243.493C116.11 243.463 116.205 243.395 116.267 243.3C119.832 237.251 123.345 231.168 126.806 225.052C134.735 222.646 142.473 218.415 149.551 214.243C149.596 214.253 149.526 214.153 149.451 214.188Z" fill="#00706D"/>
<path opacity="0.8" d="M88.7143 278.522C86.0683 269.363 85.3831 259.369 88.5544 250.376C93.9716 235.014 109.228 225.55 124.069 218.827C128.196 216.957 132.788 215.171 137.144 216.411C141.686 217.702 144.712 221.944 146.858 226.151C152.852 237.878 154.835 251.247 152.501 264.209C150.167 277.171 143.646 289.01 133.938 297.91C129.541 301.942 124.434 305.373 118.632 306.844C112.829 308.314 104.076 307.714 99.709 303.087C94.3218 297.4 90.8452 285.905 88.7143 278.522Z" fill="url(#paint4_linear)"/>
<path opacity="0.52" d="M102.438 303.87C103.348 304.073 104.259 304.292 105.169 304.525C105.474 298.517 106.364 292.553 107.825 286.718C114.998 281.716 125.222 280.04 133.401 278.124C133.497 278.097 133.581 278.036 133.635 277.952C133.69 277.868 133.712 277.767 133.697 277.668C133.682 277.569 133.632 277.479 133.555 277.415C133.478 277.35 133.381 277.316 133.281 277.319C128.041 277.871 122.894 279.091 117.964 280.95C114.578 282.166 111.077 283.451 108.125 285.507C108.375 284.547 108.625 283.591 108.916 282.636C117.919 276.463 128.339 274.157 138.688 270.966C138.782 270.936 138.86 270.87 138.907 270.783C138.953 270.696 138.964 270.594 138.936 270.499C138.909 270.404 138.846 270.324 138.76 270.275C138.675 270.225 138.573 270.212 138.478 270.236C128.149 272.127 117.534 275.338 109.156 281.841C110.325 277.948 111.701 274.121 113.277 270.376C115.658 264.708 118.279 259.131 121.091 253.629C127.229 251.797 133.598 250.852 140.003 250.823C140.024 250.818 140.043 250.806 140.056 250.789C140.07 250.772 140.077 250.752 140.077 250.73C140.077 250.709 140.07 250.688 140.056 250.671C140.043 250.654 140.024 250.643 140.003 250.638C134.381 249.422 127.088 250.373 121.611 252.558C122.448 250.934 123.295 249.312 124.152 247.691C127.058 246.501 129.684 245.235 132.845 244.81C135.924 244.458 139.021 244.291 142.119 244.31C142.534 244.31 142.504 243.715 142.119 243.68C136.767 243.24 129.674 242.679 125.027 246.101C127.028 242.389 129.099 238.713 131.19 235.056C131.237 235.012 131.27 234.954 131.285 234.891C134.226 229.759 137.222 224.667 140.219 219.62C140.389 219.34 139.948 219.12 139.773 219.38C137.532 222.831 135.301 226.313 133.081 229.824C133.206 226.398 132.65 222.821 132.05 219.52C132.05 219.38 131.785 219.415 131.8 219.555C132.3 223.436 132.135 227.233 132.265 231.11L131.56 232.215C131.745 227.823 130.66 223.536 129.504 219.255C129.497 219.243 129.485 219.234 129.472 219.229C129.459 219.224 129.444 219.223 129.431 219.227C129.417 219.231 129.405 219.239 129.397 219.25C129.388 219.262 129.384 219.276 129.384 219.29C130.384 224.037 131.195 228.794 130.68 233.626C125.492 241.964 120.525 250.493 116.174 259.266C112.942 250.973 109.391 243.125 107.36 234.366C107.325 234.206 107.09 234.281 107.12 234.436C108.761 243.165 111.076 252.543 115.703 260.242C114.653 262.373 113.642 264.518 112.672 266.679C108.67 257.766 104.704 249.172 101.998 239.668C101.982 239.632 101.954 239.602 101.919 239.586C101.883 239.569 101.843 239.566 101.805 239.577C101.767 239.588 101.735 239.613 101.714 239.646C101.693 239.679 101.686 239.719 101.693 239.758C103.663 249.302 106.9 259.536 112.142 267.885C111.342 269.701 110.566 271.526 109.831 273.387C107.36 279.473 105.418 285.761 104.024 292.18C102.388 288.178 100.332 284.312 98.8665 280.215C97.1078 275.289 95.7887 270.217 94.9248 265.059C94.9248 264.954 94.7247 264.979 94.7347 265.059C95.7352 274.563 97.8961 286.107 103.638 294.126C103.033 297.345 102.632 300.6 102.438 303.87Z" fill="#003F55"/>
<path opacity="0.8" d="M233.118 243.415C209.924 235.231 145.297 228.628 120.262 284.432C120.262 284.432 150.324 299.743 182.663 281.28C204.306 268.905 225.56 252.168 233.118 243.415Z" fill="url(#paint5_linear)"/>
<path opacity="0.66" d="M107.895 298.293C117.179 288.354 127.673 280.745 139.153 274.508C139.176 274.527 139.201 274.544 139.228 274.558C148.472 278.56 156.91 283.657 165.559 288.744C165.577 288.754 165.599 288.757 165.619 288.752C165.64 288.747 165.658 288.734 165.67 288.717C165.682 288.699 165.687 288.678 165.684 288.657C165.681 288.636 165.67 288.617 165.654 288.604C158.371 282.196 149.782 277.479 140.954 273.527C141.139 273.432 141.314 273.327 141.499 273.232C146.301 275.498 151.228 277.449 155.935 279.95C160.392 282.326 164.468 285.302 168.875 287.728C169.065 287.828 169.335 287.593 169.15 287.418C162.297 280.956 152.363 275.388 143.139 272.382C148.422 269.711 153.894 267.285 159.551 265.054C160.222 264.789 160.902 264.554 161.552 264.274C171.556 268.015 181.06 272.627 190.789 276.894C191.004 276.989 191.164 276.654 190.974 276.529C182.651 270.926 173.142 266.825 163.683 263.453C164.944 262.953 166.184 262.453 167.454 261.998C176.988 265.839 186.647 269.206 196.046 273.417C196.101 273.417 196.146 273.352 196.096 273.322C187.363 268.785 178.234 264.414 168.79 261.507C171.221 260.604 173.66 259.722 176.108 258.861C176.208 258.887 176.314 258.883 176.412 258.85C176.51 258.816 176.596 258.754 176.658 258.671C191.244 253.544 206.121 249.237 221.332 246.446C221.542 246.411 221.477 246.091 221.267 246.121C208.62 248.141 196.135 251.065 183.906 254.87C187.718 250.698 190.304 244.365 191.229 239.083C191.229 238.938 191.039 238.918 190.984 239.038C189.594 242.089 188.298 245.236 186.647 248.157C185.202 250.713 183.276 252.954 181.86 255.505C180.505 255.93 179.159 256.375 177.809 256.816C181.555 250.783 185.612 245.146 187.548 238.173C187.548 238.162 187.544 238.152 187.536 238.145C187.529 238.137 187.518 238.133 187.508 238.133C187.497 238.133 187.487 238.137 187.479 238.145C187.472 238.152 187.468 238.162 187.468 238.173C184.747 245.176 180.025 251.123 176.018 257.421C169.946 259.445 163.918 261.623 157.936 263.953C154.081 265.444 150.297 267.028 146.586 268.705C147.686 265.954 147.841 262.863 148.557 259.977C149.436 256.68 150.497 253.434 151.733 250.253C151.78 250.096 151.776 249.928 151.721 249.774C151.666 249.619 151.563 249.487 151.427 249.396C151.291 249.304 151.129 249.259 150.965 249.267C150.802 249.274 150.645 249.334 150.518 249.437C148.247 251.513 147.016 255.53 146.241 258.391C145.315 261.818 144.195 265.894 144.8 269.396C144.809 269.431 144.823 269.464 144.84 269.496C130.419 276.234 117.329 284.782 106.744 297.317C106.249 297.953 107.32 298.913 107.895 298.293Z" fill="#047B53"/>
<path opacity="0.8" d="M96.6542 294.561C89.6513 275.323 74.445 252.334 63.8306 231.6C50.0049 204.589 57.528 178.283 73.7648 175.372C90.0015 172.461 107.954 192.119 108.224 218.73C108.574 252.939 96.6542 294.561 96.6542 294.561Z" fill="url(#paint6_linear)"/>
<path opacity="0.8" d="M96.7606 300.308C93.5193 263.793 87.6167 227.393 81.4142 191.388C81.3642 191.098 80.914 191.228 80.9791 191.513C86.1362 227.888 91.4834 264.213 94.7097 300.713C95.39 300.563 96.0753 300.438 96.7606 300.308Z" fill="#008280"/>
</g>
<path d="M131.238 212.062L34.9085 207.025C32.2274 206.885 30.5268 204.694 31.117 202.128L47.2036 132.084C47.5379 130.831 48.3039 129.736 49.3664 128.993C50.4289 128.25 51.7197 127.906 53.0111 128.022L147.41 137.936C149.706 138.176 151.152 140.277 150.636 142.633L136.396 207.955C135.88 210.346 133.564 212.187 131.238 212.062Z" fill="#D8DEE8"/>
<path d="M132.429 212.376L36.2038 207.329C33.5277 207.189 31.8269 205.028 32.4122 202.502L48.4188 133.474C48.7556 132.23 49.5222 131.145 50.5825 130.413C51.6429 129.68 52.9285 129.347 54.2112 129.472L148.51 139.326C149.051 139.373 149.575 139.539 150.044 139.811C150.514 140.083 150.918 140.456 151.227 140.902C151.536 141.348 151.744 141.856 151.834 142.391C151.925 142.927 151.897 143.475 151.752 143.998L137.596 208.335C137.323 209.496 136.663 210.53 135.723 211.265C134.784 212 133.621 212.392 132.429 212.376Z" fill="url(#paint7_linear)"/>
<path d="M142.076 188.146L37.4378 180.828L36.9727 182.834L141.661 190.017L142.076 188.146Z" fill="white"/>
<path d="M112.696 135.615L101.227 186.676L103.177 186.812L114.622 135.82L112.696 135.615Z" fill="white"/>
<path d="M85.7226 196.089L47.887 193.748C47.8474 193.748 47.8083 193.739 47.7727 193.721C47.7371 193.703 47.706 193.678 47.6815 193.647C47.657 193.616 47.6399 193.579 47.6313 193.541C47.6227 193.502 47.6229 193.462 47.6319 193.423L48.4121 190.047C48.4359 189.962 48.488 189.887 48.5598 189.835C48.6316 189.783 48.7189 189.757 48.8073 189.762L86.603 192.198C86.6414 192.199 86.6792 192.208 86.7134 192.226C86.7476 192.244 86.7773 192.269 86.8004 192.3C86.8235 192.33 86.8395 192.366 86.8468 192.404C86.8542 192.442 86.8529 192.481 86.8431 192.518L86.0978 195.809C86.0762 195.892 86.0274 195.964 85.9593 196.015C85.8911 196.066 85.8076 196.092 85.7226 196.089Z" fill="url(#paint8_linear)"/>
<path d="M94.0248 204.064L46.1499 201.348C46.1097 201.347 46.0701 201.338 46.0341 201.32C45.9981 201.302 45.9666 201.276 45.942 201.245C45.9174 201.213 45.9005 201.176 45.8923 201.136C45.8841 201.097 45.8849 201.056 45.8948 201.017L46.6751 197.641C46.6987 197.555 46.7506 197.48 46.8223 197.427C46.894 197.375 46.9814 197.348 47.0703 197.351L94.8951 200.192C94.9334 200.192 94.971 200.201 95.0053 200.218C95.0395 200.235 95.0694 200.26 95.0926 200.291C95.1158 200.321 95.1317 200.356 95.1391 200.394C95.1465 200.432 95.1452 200.47 95.1352 200.507L94.3999 203.779C94.3786 203.861 94.3299 203.935 94.2618 203.986C94.1937 204.038 94.1103 204.065 94.0248 204.064Z" fill="#D8DEE8"/>
<path d="M143.725 156.179L116.004 153.618L118.45 142.693L146.096 145.459L143.725 156.179Z" fill="#D8DEE8"/>
<path d="M138.008 182.1L110.086 180.039L114.958 158.285L142.719 160.756L138.008 182.1Z" fill="#D8DEE8"/>
<path d="M76.857 150.596C81.3338 151.011 84.1599 154.843 83.1845 159.149C82.9016 160.353 82.3644 161.482 81.6089 162.461L90.0724 167.508C91.7483 165.29 92.9411 162.746 93.5738 160.04C95.7897 150.236 89.3921 141.462 79.1929 140.452H79.1129L76.7969 150.591L76.857 150.596Z" fill="white"/>
<path d="M81.6088 162.462C80.6447 163.743 79.3779 164.766 77.9219 165.438C76.4659 166.11 74.8661 166.411 73.2654 166.313C68.7636 165.948 65.8573 162.096 66.8577 157.74C67.8582 153.383 72.295 150.237 76.7769 150.597L79.0928 140.458C68.7735 139.482 58.4142 146.785 56.0833 156.809C53.7523 166.833 60.475 175.727 70.9194 176.507C78.3824 177.058 85.7255 173.331 90.0523 167.504L81.6088 162.462Z" fill="url(#paint9_linear)"/>
<g style="mix-blend-mode:multiply" opacity="0.47">
<path d="M39.2759 165.006C37.9553 166.197 42.7374 176.591 51.3659 184.744C60.1046 193.013 66.6823 193.198 73.5201 203.027C76.8265 207.774 75.6359 208.224 78.207 211.636C88.2762 225.011 114.807 229.053 125.492 218.739C126.612 217.658 129.108 212.881 134.105 203.327C136.269 199.136 138.17 194.814 139.798 190.387C141.993 184.429 143.209 181.068 142.013 180.113C139.567 178.157 131.109 188.801 125.507 186.355C121.955 184.809 123.761 178.992 119.064 174.85C115.262 171.519 110.085 171.684 108.74 171.729C97.0198 172.099 95.6992 185.01 84.7297 187.441C75.6009 189.441 65.9319 182.874 51.796 173.24C44.2229 168.143 40.2463 164.151 39.2759 165.006Z" fill="#D8DEE8"/>
</g>
<path d="M41.1999 169.354L38.7838 166.938C38.233 166.113 37.8902 165.167 37.7848 164.181C37.6794 163.195 37.8145 162.198 38.1786 161.275C39.3841 157.949 41.0498 158.854 41.0498 158.854L40.5946 161.195C40.5946 161.195 40.2945 162.696 41.7301 164.597C42.4595 165.833 42.9674 167.187 43.2307 168.598L41.1999 169.354Z" fill="url(#paint10_linear)"/>
<path d="M141.819 178.773L144.54 176.307L145.751 171.805C145.751 171.805 149.072 173.115 147.251 177.342C146.091 178.753 143.25 180.843 142.039 182.934C140.829 185.025 141.819 178.773 141.819 178.773Z" fill="url(#paint11_linear)"/>
<path d="M115.018 208.84C115.018 208.84 128.063 200.781 131.235 197.91C134.541 194.909 143.24 183.404 144 182.049C144.76 180.693 141.659 177.967 141.659 177.967C141.659 177.967 126.503 196.905 107.465 191.313C110.486 198.11 115.018 208.84 115.018 208.84Z" fill="url(#paint12_linear)"/>
<path d="M116.91 320.106C116.91 320.106 119.301 326.109 118.671 328.795C120.089 328.781 121.504 328.656 122.903 328.42C122.392 327.082 121.979 325.71 121.667 324.313C121.489 322.717 121.405 321.112 121.417 319.506L116.91 320.106Z" fill="url(#paint13_linear)"/>
<path d="M90.5448 334.182C90.8106 334.492 90.9686 334.88 90.9951 335.288C91.0053 335.543 90.9592 335.798 90.86 336.033C90.4548 337.104 89.8146 337.244 89.1243 338.384C88.6991 339.079 88.7792 339.29 88.394 339.605C87.9069 339.941 87.3183 340.098 86.7283 340.05C85.4443 340.059 84.1612 339.986 82.8867 339.83C83.7471 338.723 84.6608 337.6 85.6278 336.463L86.9034 335.008L89.4044 334.152L90.5448 334.182Z" fill="#26264F"/>
<path d="M88.4364 321.928C88.4364 321.928 86.9959 329.431 88.8316 331.567C90.3973 333.672 88.0763 332.172 88.0763 332.172L85.3051 334.588L83.6445 337.459C83.6445 337.459 85.1752 330.091 84.765 327.165C84.3548 324.239 84.1546 322.268 84.1546 322.268L88.4364 321.928Z" fill="url(#paint14_linear)"/>
<path d="M95.5786 191.263C88.5757 190.077 78.4966 193.634 66.8717 187.486C55.437 181.439 48.6792 172.48 44.7426 166.788L39.6055 169.329C42.5117 174.331 49.3594 185.095 58.4332 192.578C69.8579 202.002 81.0326 202.553 87.1201 210.251C89.9813 207.41 99.005 191.838 95.5786 191.263Z" fill="url(#paint15_linear)"/>
<path d="M83.0016 239.578C83.0016 239.578 79.125 243.05 79.125 257.325C79.125 271.601 80.9607 302.619 80.9607 302.619L83.897 324.818C83.897 324.818 86.9432 324.923 88.9841 324.318C90.8198 315.955 93.8111 301.809 92.3855 289.974C91.7752 277.124 97.4826 261.007 97.4826 261.007C97.4826 261.007 102.38 277.324 105.851 285.487C109.322 293.65 115.92 319.211 116.53 321.047C120.592 321.412 122.323 320.342 122.323 320.342C122.323 320.342 119.722 292.83 117.276 282.426C114.83 272.022 115.03 246.911 110.948 239.788C101.769 236.112 83.0016 239.578 83.0016 239.578Z" fill="url(#paint16_linear)"/>
<path d="M83.0016 239.578C83.0016 239.578 79.125 243.05 79.125 257.325C79.125 271.601 80.9607 302.619 80.9607 302.619L83.897 324.818C83.897 324.818 86.9432 324.923 88.9841 324.318C90.8198 315.955 93.8111 301.809 92.3855 289.974C91.7752 277.124 97.4876 261.007 97.4876 261.007C97.4876 261.007 102.38 277.324 105.851 285.487C109.322 293.65 115.92 319.211 116.53 321.047C120.592 321.412 122.323 320.342 122.323 320.342C122.323 320.342 119.722 292.83 117.276 282.426C114.83 272.022 115.03 246.911 110.948 239.788C101.769 236.112 83.0016 239.578 83.0016 239.578Z" fill="url(#paint17_linear)"/>
<path style="mix-blend-mode:multiply" opacity="0.25" d="M103.136 265.744C104.346 273.602 106.762 277.833 112.805 283.251C117.642 286.877 114.015 294.755 115.806 300.758C116.411 302.574 118.227 304.384 118.807 306.2C121.058 310.702 118.957 316.204 119.978 320.961C120.781 320.886 121.563 320.662 122.284 320.301C122.284 320.301 119.683 292.79 117.237 282.385C114.791 271.981 114.991 246.871 110.909 239.748C101.73 236.076 82.9625 239.543 82.9625 239.543C82.9625 239.543 79.0859 243.014 79.0859 257.29C79.0859 258.45 79.086 259.721 79.121 261.077C83.1226 264.638 91.376 265.428 96.4481 261.482C96.7342 261.264 97.066 261.113 97.4185 261.042C97.4269 261.016 97.4369 260.991 97.4485 260.967V261.037C99.8195 260.646 102.616 263.648 103.136 265.744Z" fill="url(#paint18_linear)"/>
<path d="M118.044 331.076C118.044 331.076 117.449 331.076 117.499 331.847C117.549 332.617 117.229 335.263 120.26 335.388C123.291 335.513 123.762 335.173 123.862 335.173C123.64 334.316 123.375 333.471 123.066 332.642L122.096 331.396L119.485 331.126L118.044 331.076Z" fill="#26264F"/>
<path d="M124.763 333.737C124.613 332.887 124.348 332.061 123.978 331.281C123.443 330.076 123.883 329.626 123.373 328.53C123.208 328.121 122.963 327.748 122.653 327.435C122.066 326.904 121.302 326.613 120.512 326.619C120.164 326.619 119.821 326.701 119.511 326.859C119.124 327.084 118.81 327.416 118.606 327.815C118.291 328.315 118.361 328.49 117.876 329.981C117.794 330.221 117.73 330.466 117.685 330.716C117.646 330.934 117.619 331.155 117.605 331.376C118.401 331.376 121.457 331.501 122.107 331.976C122.419 332.22 122.669 332.534 122.837 332.892C123.006 333.249 123.088 333.642 123.078 334.037C123.078 334.833 123.473 335.203 123.873 335.178C124.169 335.084 124.422 334.887 124.585 334.622C124.748 334.358 124.812 334.044 124.763 333.737Z" fill="url(#paint19_linear)"/>
<path d="M88.054 330.506C88.7342 330.506 89.2395 331.062 89.6147 332.372C89.9898 333.683 91.8055 334.838 89.6897 334.563C87.5738 334.288 86.0381 337.284 85.2828 338.39C84.5275 339.495 82.5017 340.481 82.5517 339.39C82.6017 338.3 83.4972 337.799 83.7473 336.694C83.9974 335.589 86.4983 330.486 88.054 330.506Z" fill="url(#paint20_linear)"/>
<path d="M102.435 190.809C99.0135 190.709 90.295 189.758 86.2183 193.81C82.0516 197.977 86.2734 202.979 85.5231 209.816C85.0228 214.473 85.1978 217.215 84.3125 224.823C84.0941 226.637 83.7718 228.437 83.3471 230.215C82.1816 235.172 80.1558 244.926 79.0703 247.367C82.5718 249.158 91.5455 252.369 102.26 250.768C106.301 250.163 110.209 248.875 113.82 246.962C111.039 238.548 111.559 227.019 112.584 222.872C114.62 214.673 115.085 211.457 120.818 199.672C122.403 196.426 118.642 198.247 116.236 195.395C112.544 191.069 105.891 190.914 102.435 190.809Z" fill="url(#paint21_linear)"/>
<path style="mix-blend-mode:multiply" opacity="0.25" d="M92.2624 212.261C92.4325 210.761 92.7176 207.984 91.352 205.088C90.7628 203.838 89.9431 202.709 88.9359 201.762C85.8997 198.971 81.9781 199.156 77.5063 198.836C72.8564 198.489 68.2532 197.676 63.7656 196.41C72.3592 201.797 80.3624 203.463 85.6046 208.575C85.6046 208.995 85.5646 209.425 85.5196 209.86C85.0194 214.517 85.1944 217.258 84.309 224.866C84.0907 226.681 83.7684 228.481 83.3437 230.259C82.1782 235.216 80.1523 244.97 79.0669 247.411C82.5683 249.201 91.5421 252.413 102.257 250.812C106.297 250.206 110.206 248.919 113.816 247.006C112.964 244.312 112.394 241.538 112.116 238.727C106.693 238.74 101.343 237.488 96.4891 235.071C93.1727 233.39 91.4871 232.545 90.5217 230.689C88.6259 227.127 90.9318 223.806 92.2624 212.261Z" fill="url(#paint22_linear)"/>
<path d="M97.4532 180.674C97.9534 176.847 100.955 174.396 101.63 173.871C104.396 171.675 104.956 171.455 105.907 171.275L107.202 171.08H107.342C108.543 171.32 109.704 171.731 110.789 172.3C112.109 173.23 111.139 179.803 107.132 187.987C106.977 188.682 106.822 189.372 106.662 190.067C110.164 190.678 111.014 191.308 111.044 191.813C111.104 192.899 107.282 194.289 103.741 194.379C99.299 194.494 94.587 192.583 94.6771 191.158C94.7121 190.578 95.5525 189.867 98.7738 189.157C99.2807 188.45 99.7809 187.741 100.274 187.031C99.8293 186.516 97.0881 183.515 97.4532 180.674Z" fill="url(#paint23_linear)"/>
<path d="M105.903 168.583C104.507 169.944 104.167 172.31 104.582 174.011C104.827 175.011 105.147 175.141 105.082 175.806C104.957 177.682 101.541 178.498 101.731 179.443C101.866 180.118 103.647 179.873 103.952 180.718C104.287 181.649 102.336 182.444 101.496 184.78C101.366 185.145 100.571 187.356 101.591 188.657C102.541 189.867 104.667 189.582 107.068 189.267C108.824 189.05 110.542 188.589 112.17 187.896C113.921 187.131 115.802 186.301 117.362 184.395C118.961 182.418 119.798 179.934 119.723 177.392C119.488 172.39 115.297 168.108 110.99 167.428C110.305 167.338 107.609 166.913 105.903 168.583Z" fill="url(#paint24_linear)"/>
<path d="M102.944 179.233C103.945 178.628 104.72 179.924 104.245 181.059C103.77 182.195 102.179 182.9 101.209 182.225C100.238 181.549 101.589 180.044 102.944 179.233Z" fill="url(#paint25_linear)"/>
<path d="M92.7891 190.963L95.2452 190.208C95.2452 190.208 95.8905 193.529 103.784 193.944C106.394 193.947 108.931 193.083 110.997 191.488L112.882 192.359C112.882 192.359 108.991 197.311 103.138 197.191C101.011 197.187 98.9246 196.606 97.1019 195.509C95.2791 194.412 93.7884 192.841 92.7891 190.963Z" fill="url(#paint26_linear)"/>
<g filter="url(#filter0_d)">
<path d="M41.3413 66.2782C38.2659 66.3972 26.5027 67.7529 25.3811 81.4158C25.0734 81.9051 24.9464 82.4789 25.0207 83.0452C25.0949 83.6115 25.366 84.1376 25.7905 84.5394L27.5708 86.2393C27.8193 86.4803 28.1155 86.6716 28.4422 86.8022C28.7688 86.9328 29.1193 87 29.4735 87C29.8276 87 30.1782 86.9328 30.5049 86.8022C30.8315 86.6716 31.1277 86.4803 31.3762 86.2393L33.1565 84.5394C33.4088 84.3022 33.6092 84.0194 33.746 83.7075C33.8827 83.3956 33.9532 83.0608 33.9532 82.7227C33.9532 82.3845 33.8827 82.0497 33.746 81.7378C33.6092 81.4259 33.4088 81.1431 33.1565 80.9059L31.3762 79.206C31.0917 78.9328 30.746 78.7247 30.3652 78.5974C29.9844 78.47 29.5784 78.4268 29.1776 78.4708C29.4001 77.4976 30.9979 71.8667 38.1546 69.9968C38.1197 70.3862 38.1745 70.7783 38.3152 71.1454C38.4559 71.5125 38.6792 71.8457 38.9691 72.1216L40.5624 73.6473C40.8247 73.8997 41.1368 74.1 41.4805 74.2366C41.8242 74.3733 42.1929 74.4437 42.5653 74.4437C42.9376 74.4437 43.3063 74.3733 43.65 74.2366C43.9938 74.1 44.3058 73.8997 44.5681 73.6473L46.1659 72.1216C46.4302 71.8712 46.64 71.5733 46.7831 71.2451C46.9263 70.9168 47 70.5648 47 70.2093C47 69.8537 46.9263 69.5017 46.7831 69.1735C46.64 68.8452 46.4302 68.5473 46.1659 68.2969L44.5681 66.7754C44.1511 66.3825 43.6163 66.1235 43.0379 66.0344C42.4596 65.9452 41.8665 66.0305 41.3413 66.2782Z" fill="#E1E8F5"/>
</g>
<g filter="url(#filter1_d)">
<path d="M98.4914 2.00001C96.4145 2.00171 94.3848 2.61927 92.659 3.77462C90.9331 4.92997 89.5886 6.57119 88.7956 8.49071C88.0026 10.4102 87.7966 12.5218 88.2037 14.5584C88.6109 16.595 89.6128 18.4651 91.0829 19.9322C92.553 21.3992 94.4252 22.3974 96.4626 22.8004C98.5 23.2034 100.611 22.9932 102.529 22.1962C104.447 21.3993 106.085 20.0515 107.237 18.3233C108.389 16.595 109.003 14.5641 109 12.4872C108.999 11.1083 108.727 9.74314 108.199 8.46963C107.67 7.19613 106.896 6.03933 105.92 5.06533C104.944 4.09134 103.785 3.31929 102.511 2.79331C101.236 2.26734 99.8703 1.99777 98.4914 2.00001ZM98.4914 20.218C96.963 20.2239 95.4673 19.7761 94.1935 18.9314C92.9198 18.0867 91.9254 16.8829 91.3362 15.4727C90.7471 14.0624 90.5895 12.509 90.8837 11.0092C91.178 9.50938 91.9106 8.13063 92.989 7.04749C94.0673 5.96435 95.4429 5.22555 96.9413 4.92467C98.4398 4.62379 99.9939 4.77435 101.407 5.35729C102.82 5.94022 104.028 6.92932 104.878 8.19931C105.729 9.4693 106.183 10.9631 106.184 12.4915C106.186 14.5288 105.383 16.4844 103.949 17.9319C102.515 19.3793 100.567 20.201 98.5299 20.218H98.4914Z" fill="#E1E8F5"/>
</g>
<g filter="url(#filter2_d)">
<path d="M101.6 12.2216H97.9753V7.47012C97.9753 7.34544 97.9239 7.22586 97.8324 7.13769C97.741 7.04952 97.617 7 97.4877 7C97.3584 7 97.2343 7.04952 97.1429 7.13769C97.0514 7.22586 97 7.34544 97 7.47012V12.5299C97 12.5299 97 12.5568 97 12.5722C97 12.5877 97 12.5992 97 12.6146C97 12.7168 97.0421 12.8149 97.1171 12.8871C97.192 12.9594 97.2937 13 97.3997 13H101.6C101.706 13 101.808 12.9594 101.883 12.8871C101.958 12.8149 102 12.7168 102 12.6146C102 12.5124 101.958 12.4144 101.883 12.3421C101.808 12.2699 101.706 12.2293 101.6 12.2293V12.2216Z" fill="#E1E8F5"/>
</g>
<g filter="url(#filter3_d)">
<path d="M166.992 67.949C167.016 67.1785 166.88 66.4111 166.592 65.692C166.303 64.973 165.868 64.3169 165.312 63.7624C164.756 63.2079 164.091 62.7663 163.355 62.4636C162.619 62.161 161.827 62.0033 161.027 62.0001C160.227 61.9968 159.434 62.1479 158.696 62.4446C157.957 62.7412 157.288 63.1773 156.727 63.7272C156.166 64.2772 155.725 64.9297 155.43 65.6464C155.136 66.363 154.993 67.1293 155.01 67.9C155.01 67.9 154.73 69.8992 157.081 73.1658C158.143 74.6377 160.948 79 160.948 79C160.948 79 163.796 74.6622 164.87 73.1985C167.251 69.9523 166.992 67.949 166.992 67.949ZM160.982 72.2459C160.12 72.2387 159.279 71.9857 158.566 71.5188C157.852 71.052 157.299 70.3922 156.974 69.6226C156.649 68.8531 156.569 68.0081 156.742 67.1944C156.915 66.3806 157.334 65.6345 157.947 65.05C158.56 64.4655 159.338 64.0687 160.185 63.9098C161.031 63.7509 161.907 63.837 162.703 64.157C163.499 64.4771 164.178 65.017 164.656 65.7085C165.134 66.4001 165.388 67.2124 165.387 68.043C165.387 68.5983 165.272 69.1479 165.05 69.6603C164.828 70.1726 164.503 70.6376 164.093 71.0283C163.684 71.419 163.198 71.7277 162.664 71.9367C162.13 72.1457 161.558 72.2508 160.982 72.2459Z" fill="#E1E8F5"/>
</g>
<g filter="url(#filter4_d)">
<path d="M161 84C163.761 84 166 83.1045 166 82C166 80.8954 163.761 80 161 80C158.239 80 156 80.8954 156 82C156 83.1045 158.239 84 161 84Z" fill="#E1E8F5"/>
</g>
<g filter="url(#filter5_d)">
<path d="M6.179 110.711H4.688V112.223H4.093V110.711H2.609V110.172H4.093V108.653H4.688V110.172H6.179V110.711ZM10.0333 109.143C9.93065 108.625 9.61099 108.366 9.07432 108.366C8.65899 108.366 8.34865 108.527 8.14332 108.849C7.93799 109.166 7.83765 109.691 7.84232 110.424C7.94965 110.181 8.12699 109.992 8.37432 109.857C8.62632 109.717 8.90632 109.647 9.21432 109.647C9.69499 109.647 10.0777 109.796 10.3623 110.095C10.6517 110.394 10.7963 110.807 10.7963 111.334C10.7963 111.651 10.7333 111.936 10.6073 112.188C10.486 112.44 10.2993 112.641 10.0473 112.79C9.79999 112.939 9.49899 113.014 9.14432 113.014C8.66365 113.014 8.28799 112.907 8.01732 112.692C7.74665 112.477 7.55765 112.181 7.45032 111.803C7.34299 111.425 7.28932 110.958 7.28932 110.403C7.28932 108.69 7.88665 107.834 9.08132 107.834C9.53865 107.834 9.89799 107.958 10.1593 108.205C10.4207 108.452 10.5747 108.765 10.6213 109.143H10.0333ZM9.08132 110.186C8.88065 110.186 8.69165 110.228 8.51432 110.312C8.33699 110.391 8.19232 110.515 8.08032 110.683C7.97299 110.846 7.91932 111.047 7.91932 111.285C7.91932 111.64 8.02199 111.929 8.22732 112.153C8.43265 112.372 8.72665 112.482 9.10932 112.482C9.43599 112.482 9.69499 112.382 9.88632 112.181C10.0823 111.976 10.1803 111.7 10.1803 111.355C10.1803 110.991 10.087 110.706 9.90032 110.501C9.71365 110.291 9.44065 110.186 9.08132 110.186ZM11.5787 112.489C12.1713 112.013 12.6357 111.623 12.9717 111.32C13.3077 111.012 13.59 110.692 13.8187 110.361C14.052 110.025 14.1687 109.696 14.1687 109.374C14.1687 109.071 14.094 108.833 13.9447 108.66C13.8 108.483 13.5643 108.394 13.2377 108.394C12.9203 108.394 12.673 108.494 12.4957 108.695C12.323 108.891 12.2297 109.155 12.2157 109.486H11.5997C11.6183 108.963 11.777 108.56 12.0757 108.275C12.3743 107.99 12.7593 107.848 13.2307 107.848C13.7113 107.848 14.0917 107.981 14.3717 108.247C14.6563 108.513 14.7987 108.879 14.7987 109.346C14.7987 109.733 14.682 110.111 14.4487 110.48C14.22 110.844 13.9587 111.166 13.6647 111.446C13.3707 111.721 12.995 112.043 12.5377 112.412H14.9457V112.944H11.5787V112.489ZM18.4723 110.368C18.2109 110.265 18.0103 110.116 17.8703 109.92C17.7303 109.724 17.6603 109.486 17.6603 109.206C17.6603 108.954 17.7233 108.728 17.8493 108.527C17.9753 108.322 18.1619 108.161 18.4093 108.044C18.6613 107.923 18.9646 107.862 19.3193 107.862C19.6739 107.862 19.9749 107.923 20.2223 108.044C20.4743 108.161 20.6633 108.322 20.7893 108.527C20.9199 108.728 20.9853 108.954 20.9853 109.206C20.9853 109.477 20.9129 109.715 20.7683 109.92C20.6236 110.121 20.4253 110.27 20.1733 110.368C20.4626 110.457 20.6913 110.613 20.8593 110.837C21.0319 111.056 21.1183 111.322 21.1183 111.635C21.1183 111.938 21.0436 112.204 20.8943 112.433C20.7449 112.657 20.5326 112.832 20.2573 112.958C19.9866 113.079 19.6739 113.14 19.3193 113.14C18.9646 113.14 18.6519 113.079 18.3813 112.958C18.1153 112.832 17.9076 112.657 17.7583 112.433C17.6089 112.204 17.5343 111.938 17.5343 111.635C17.5343 111.322 17.6183 111.054 17.7863 110.83C17.9543 110.606 18.1829 110.452 18.4723 110.368ZM20.3693 109.283C20.3693 108.998 20.2759 108.779 20.0893 108.625C19.9026 108.471 19.6459 108.394 19.3193 108.394C18.9973 108.394 18.7429 108.471 18.5563 108.625C18.3696 108.779 18.2763 109.001 18.2763 109.29C18.2763 109.551 18.3719 109.761 18.5633 109.92C18.7593 110.079 19.0113 110.158 19.3193 110.158C19.6319 110.158 19.8839 110.079 20.0753 109.92C20.2713 109.757 20.3693 109.544 20.3693 109.283ZM19.3193 110.648C18.9739 110.648 18.6916 110.73 18.4723 110.893C18.2529 111.052 18.1433 111.292 18.1433 111.614C18.1433 111.913 18.2483 112.153 18.4583 112.335C18.6729 112.517 18.9599 112.608 19.3193 112.608C19.6786 112.608 19.9633 112.517 20.1733 112.335C20.3833 112.153 20.4883 111.913 20.4883 111.614C20.4883 111.301 20.3809 111.063 20.1663 110.9C19.9516 110.732 19.6693 110.648 19.3193 110.648ZM21.7963 108.52V107.939H23.1123V113H22.4683V108.52H21.7963ZM24.1295 112.489C24.7221 112.013 25.1865 111.623 25.5225 111.32C25.8585 111.012 26.1408 110.692 26.3695 110.361C26.6028 110.025 26.7195 109.696 26.7195 109.374C26.7195 109.071 26.6448 108.833 26.4955 108.66C26.3508 108.483 26.1151 108.394 25.7885 108.394C25.4711 108.394 25.2238 108.494 25.0465 108.695C24.8738 108.891 24.7805 109.155 24.7665 109.486H24.1505C24.1691 108.963 24.3278 108.56 24.6265 108.275C24.9251 107.99 25.3101 107.848 25.7815 107.848C26.2621 107.848 26.6425 107.981 26.9225 108.247C27.2071 108.513 27.3495 108.879 27.3495 109.346C27.3495 109.733 27.2328 110.111 26.9995 110.48C26.7708 110.844 26.5095 111.166 26.2155 111.446C25.9215 111.721 25.5458 112.043 25.0885 112.412H27.4965V112.944H24.1295V112.489ZM30.085 109.213C30.1177 108.784 30.2834 108.448 30.582 108.205C30.8807 107.962 31.268 107.841 31.744 107.841C32.0614 107.841 32.3344 107.899 32.563 108.016C32.7964 108.128 32.9714 108.282 33.088 108.478C33.2094 108.674 33.27 108.896 33.27 109.143C33.27 109.432 33.186 109.682 33.018 109.892C32.8547 110.102 32.64 110.237 32.374 110.298V110.333C32.6774 110.408 32.9177 110.555 33.095 110.774C33.2724 110.993 33.361 111.28 33.361 111.635C33.361 111.901 33.3004 112.141 33.179 112.356C33.0577 112.566 32.8757 112.732 32.633 112.853C32.3904 112.974 32.0987 113.035 31.758 113.035C31.2634 113.035 30.8574 112.907 30.54 112.65C30.2227 112.389 30.0454 112.02 30.008 111.544H30.624C30.6567 111.824 30.771 112.053 30.967 112.23C31.163 112.407 31.4244 112.496 31.751 112.496C32.0777 112.496 32.325 112.412 32.493 112.244C32.6657 112.071 32.752 111.85 32.752 111.579C32.752 111.229 32.6354 110.977 32.402 110.823C32.1687 110.669 31.8164 110.592 31.345 110.592H31.184V110.06H31.352C31.7814 110.055 32.1057 109.985 32.325 109.85C32.5444 109.71 32.654 109.495 32.654 109.206C32.654 108.959 32.5724 108.76 32.409 108.611C32.2504 108.462 32.0217 108.387 31.723 108.387C31.4337 108.387 31.2004 108.462 31.023 108.611C30.8457 108.76 30.7407 108.961 30.708 109.213H30.085ZM34.0671 111.873V111.39L36.5241 107.988H37.2871V111.32H37.9871V111.873H37.2871V113H36.6571V111.873H34.0671ZM36.6851 108.653L34.8021 111.32H36.6851V108.653ZM41.8505 108.492H39.3935V110.088C39.5008 109.939 39.6595 109.817 39.8695 109.724C40.0795 109.626 40.3058 109.577 40.5485 109.577C40.9358 109.577 41.2508 109.659 41.4935 109.822C41.7361 109.981 41.9088 110.188 42.0115 110.445C42.1188 110.697 42.1725 110.965 42.1725 111.25C42.1725 111.586 42.1095 111.887 41.9835 112.153C41.8575 112.419 41.6638 112.629 41.4025 112.783C41.1458 112.937 40.8261 113.014 40.4435 113.014C39.9535 113.014 39.5568 112.888 39.2535 112.636C38.9501 112.384 38.7658 112.048 38.7005 111.628H39.3235C39.3841 111.894 39.5125 112.102 39.7085 112.251C39.9045 112.4 40.1518 112.475 40.4505 112.475C40.8191 112.475 41.0968 112.365 41.2835 112.146C41.4701 111.922 41.5635 111.628 41.5635 111.264C41.5635 110.9 41.4701 110.62 41.2835 110.424C41.0968 110.223 40.8215 110.123 40.4575 110.123C40.2101 110.123 39.9931 110.184 39.8065 110.305C39.6245 110.422 39.4915 110.583 39.4075 110.788H38.8055V107.932H41.8505V108.492ZM45.84 109.143C45.7373 108.625 45.4176 108.366 44.881 108.366C44.4656 108.366 44.1553 108.527 43.95 108.849C43.7446 109.166 43.6443 109.691 43.649 110.424C43.7563 110.181 43.9336 109.992 44.181 109.857C44.433 109.717 44.713 109.647 45.021 109.647C45.5016 109.647 45.8843 109.796 46.169 110.095C46.4583 110.394 46.603 110.807 46.603 111.334C46.603 111.651 46.54 111.936 46.414 112.188C46.2926 112.44 46.106 112.641 45.854 112.79C45.6066 112.939 45.3056 113.014 44.951 113.014C44.4703 113.014 44.0946 112.907 43.824 112.692C43.5533 112.477 43.3643 112.181 43.257 111.803C43.1496 111.425 43.096 110.958 43.096 110.403C43.096 108.69 43.6933 107.834 44.888 107.834C45.3453 107.834 45.7046 107.958 45.966 108.205C46.2273 108.452 46.3813 108.765 46.428 109.143H45.84ZM44.888 110.186C44.6873 110.186 44.4983 110.228 44.321 110.312C44.1436 110.391 43.999 110.515 43.887 110.683C43.7796 110.846 43.726 111.047 43.726 111.285C43.726 111.64 43.8286 111.929 44.034 112.153C44.2393 112.372 44.5333 112.482 44.916 112.482C45.2426 112.482 45.5016 112.382 45.693 112.181C45.889 111.976 45.987 111.7 45.987 111.355C45.987 110.991 45.8936 110.706 45.707 110.501C45.5203 110.291 45.2473 110.186 44.888 110.186ZM52.4435 108.436L50.4975 113H49.8535L51.8275 108.499H49.1255V107.953H52.4435V108.436ZM54.0738 110.368C53.8125 110.265 53.6118 110.116 53.4718 109.92C53.3318 109.724 53.2618 109.486 53.2618 109.206C53.2618 108.954 53.3248 108.728 53.4508 108.527C53.5768 108.322 53.7635 108.161 54.0108 108.044C54.2628 107.923 54.5662 107.862 54.9208 107.862C55.2755 107.862 55.5765 107.923 55.8238 108.044C56.0758 108.161 56.2648 108.322 56.3908 108.527C56.5215 108.728 56.5868 108.954 56.5868 109.206C56.5868 109.477 56.5145 109.715 56.3698 109.92C56.2252 110.121 56.0268 110.27 55.7748 110.368C56.0642 110.457 56.2928 110.613 56.4608 110.837C56.6335 111.056 56.7198 111.322 56.7198 111.635C56.7198 111.938 56.6452 112.204 56.4958 112.433C56.3465 112.657 56.1342 112.832 55.8588 112.958C55.5882 113.079 55.2755 113.14 54.9208 113.14C54.5662 113.14 54.2535 113.079 53.9828 112.958C53.7168 112.832 53.5092 112.657 53.3598 112.433C53.2105 112.204 53.1358 111.938 53.1358 111.635C53.1358 111.322 53.2198 111.054 53.3878 110.83C53.5558 110.606 53.7845 110.452 54.0738 110.368ZM55.9708 109.283C55.9708 108.998 55.8775 108.779 55.6908 108.625C55.5042 108.471 55.2475 108.394 54.9208 108.394C54.5988 108.394 54.3445 108.471 54.1578 108.625C53.9712 108.779 53.8778 109.001 53.8778 109.29C53.8778 109.551 53.9735 109.761 54.1648 109.92C54.3608 110.079 54.6128 110.158 54.9208 110.158C55.2335 110.158 55.4855 110.079 55.6768 109.92C55.8728 109.757 55.9708 109.544 55.9708 109.283ZM54.9208 110.648C54.5755 110.648 54.2932 110.73 54.0738 110.893C53.8545 111.052 53.7448 111.292 53.7448 111.614C53.7448 111.913 53.8498 112.153 54.0598 112.335C54.2745 112.517 54.5615 112.608 54.9208 112.608C55.2802 112.608 55.5648 112.517 55.7748 112.335C55.9848 112.153 56.0898 111.913 56.0898 111.614C56.0898 111.301 55.9825 111.063 55.7678 110.9C55.5532 110.732 55.2708 110.648 54.9208 110.648ZM58.3848 111.642C58.4315 111.908 58.5388 112.113 58.7068 112.258C58.8795 112.403 59.1105 112.475 59.3998 112.475C59.7872 112.475 60.0718 112.323 60.2538 112.02C60.4405 111.717 60.5292 111.206 60.5198 110.487C60.4218 110.697 60.2585 110.863 60.0298 110.984C59.8012 111.101 59.5468 111.159 59.2668 111.159C58.9542 111.159 58.6742 111.096 58.4268 110.97C58.1842 110.839 57.9928 110.65 57.8528 110.403C57.7128 110.156 57.6428 109.857 57.6428 109.507C57.6428 109.008 57.7875 108.606 58.0768 108.303C58.3662 107.995 58.7768 107.841 59.3088 107.841C59.9622 107.841 60.4195 108.053 60.6808 108.478C60.9468 108.903 61.0798 109.535 61.0798 110.375C61.0798 110.963 61.0262 111.448 60.9188 111.831C60.8162 112.214 60.6388 112.505 60.3868 112.706C60.1395 112.907 59.7988 113.007 59.3648 113.007C58.8888 113.007 58.5178 112.879 58.2518 112.622C57.9858 112.365 57.8342 112.039 57.7968 111.642H58.3848ZM59.3718 110.62C59.6845 110.62 59.9412 110.524 60.1418 110.333C60.3425 110.137 60.4428 109.873 60.4428 109.542C60.4428 109.192 60.3448 108.91 60.1488 108.695C59.9528 108.48 59.6775 108.373 59.3228 108.373C58.9962 108.373 58.7348 108.476 58.5388 108.681C58.3475 108.886 58.2518 109.157 58.2518 109.493C58.2518 109.834 58.3475 110.107 58.5388 110.312C58.7302 110.517 59.0078 110.62 59.3718 110.62ZM61.975 110.417C61.975 109.614 62.1057 108.989 62.367 108.541C62.6283 108.088 63.0857 107.862 63.739 107.862C64.3877 107.862 64.8427 108.088 65.104 108.541C65.3653 108.989 65.496 109.614 65.496 110.417C65.496 111.234 65.3653 111.868 65.104 112.321C64.8427 112.774 64.3877 113 63.739 113C63.0857 113 62.6283 112.774 62.367 112.321C62.1057 111.868 61.975 111.234 61.975 110.417ZM64.866 110.417C64.866 110.011 64.838 109.668 64.782 109.388C64.7307 109.103 64.621 108.875 64.453 108.702C64.2897 108.529 64.0517 108.443 63.739 108.443C63.4217 108.443 63.179 108.529 63.011 108.702C62.8477 108.875 62.738 109.103 62.682 109.388C62.6307 109.668 62.605 110.011 62.605 110.417C62.605 110.837 62.6307 111.189 62.682 111.474C62.738 111.759 62.8477 111.987 63.011 112.16C63.179 112.333 63.4217 112.419 63.739 112.419C64.0517 112.419 64.2897 112.333 64.453 112.16C64.621 111.987 64.7307 111.759 64.782 111.474C64.838 111.189 64.866 110.837 64.866 110.417Z" fill="black"/>
</g>
<g filter="url(#filter6_d)">
<path d="M20.63 102L18.09 98.89V102H16.69V95.02H18.09V98.15L20.63 95.02H22.32L19.44 98.48L22.4 102H20.63ZM25.7809 102.09C25.2475 102.09 24.7675 101.973 24.3409 101.74C23.9142 101.5 23.5775 101.163 23.3309 100.73C23.0909 100.297 22.9709 99.7967 22.9709 99.23C22.9709 98.6633 23.0942 98.1633 23.3409 97.73C23.5942 97.2967 23.9375 96.9633 24.3709 96.73C24.8042 96.49 25.2875 96.37 25.8209 96.37C26.3542 96.37 26.8375 96.49 27.2709 96.73C27.7042 96.9633 28.0442 97.2967 28.2909 97.73C28.5442 98.1633 28.6709 98.6633 28.6709 99.23C28.6709 99.7967 28.5409 100.297 28.2809 100.73C28.0275 101.163 27.6809 101.5 27.2409 101.74C26.8075 101.973 26.3209 102.09 25.7809 102.09ZM25.7809 100.87C26.0342 100.87 26.2709 100.81 26.4909 100.69C26.7175 100.563 26.8975 100.377 27.0309 100.13C27.1642 99.8833 27.2309 99.5833 27.2309 99.23C27.2309 98.7033 27.0909 98.3 26.8109 98.02C26.5375 97.7333 26.2009 97.59 25.8009 97.59C25.4009 97.59 25.0642 97.7333 24.7909 98.02C24.5242 98.3 24.3909 98.7033 24.3909 99.23C24.3909 99.7567 24.5209 100.163 24.7809 100.45C25.0475 100.73 25.3809 100.87 25.7809 100.87ZM32.7678 96.38C33.4278 96.38 33.9611 96.59 34.3678 97.01C34.7745 97.4233 34.9778 98.0033 34.9778 98.75V102H33.5778V98.94C33.5778 98.5 33.4678 98.1633 33.2478 97.93C33.0278 97.69 32.7278 97.57 32.3478 97.57C31.9611 97.57 31.6545 97.69 31.4278 97.93C31.2078 98.1633 31.0978 98.5 31.0978 98.94V102H29.6978V96.46H31.0978V97.15C31.2845 96.91 31.5211 96.7233 31.8078 96.59C32.1011 96.45 32.4211 96.38 32.7678 96.38ZM37.9391 97.61V100.29C37.9391 100.477 37.9825 100.613 38.0691 100.7C38.1625 100.78 38.3158 100.82 38.5291 100.82H39.1791V102H38.2991C37.1191 102 36.5291 101.427 36.5291 100.28V97.61H35.8691V96.46H36.5291V95.09H37.9391V96.46H39.1791V97.61H37.9391ZM39.8261 99.21C39.8261 98.65 39.9361 98.1533 40.1561 97.72C40.3828 97.2867 40.6861 96.9533 41.0661 96.72C41.4528 96.4867 41.8828 96.37 42.3561 96.37C42.7694 96.37 43.1294 96.4533 43.4361 96.62C43.7494 96.7867 43.9994 96.9967 44.1861 97.25V96.46H45.5961V102H44.1861V101.19C44.0061 101.45 43.7561 101.667 43.4361 101.84C43.1228 102.007 42.7594 102.09 42.3461 102.09C41.8794 102.09 41.4528 101.97 41.0661 101.73C40.6861 101.49 40.3828 101.153 40.1561 100.72C39.9361 100.28 39.8261 99.7767 39.8261 99.21ZM44.1861 99.23C44.1861 98.89 44.1194 98.6 43.9861 98.36C43.8528 98.1133 43.6728 97.9267 43.4461 97.8C43.2194 97.6667 42.9761 97.6 42.7161 97.6C42.4561 97.6 42.2161 97.6633 41.9961 97.79C41.7761 97.9167 41.5961 98.1033 41.4561 98.35C41.3228 98.59 41.2561 98.8767 41.2561 99.21C41.2561 99.5433 41.3228 99.8367 41.4561 100.09C41.5961 100.337 41.7761 100.527 41.9961 100.66C42.2228 100.793 42.4628 100.86 42.7161 100.86C42.9761 100.86 43.2194 100.797 43.4461 100.67C43.6728 100.537 43.8528 100.35 43.9861 100.11C44.1194 99.8633 44.1861 99.57 44.1861 99.23ZM50.2434 102L48.3634 99.64V102H46.9634V94.6H48.3634V98.81L50.2234 96.46H52.0434L49.6034 99.24L52.0634 102H50.2434Z" fill="white"/>
</g>
<g filter="url(#filter7_d)">
<path d="M56.086 49.049C55.764 49.049 55.4747 48.993 55.218 48.881C54.966 48.7643 54.7677 48.6057 54.623 48.405C54.4783 48.1997 54.4037 47.964 54.399 47.698H55.078C55.1013 47.9267 55.1947 48.1203 55.358 48.279C55.526 48.433 55.7687 48.51 56.086 48.51C56.3893 48.51 56.6273 48.4353 56.8 48.286C56.9773 48.132 57.066 47.936 57.066 47.698C57.066 47.5113 57.0147 47.3597 56.912 47.243C56.8093 47.1263 56.681 47.0377 56.527 46.977C56.373 46.9163 56.1653 46.851 55.904 46.781C55.582 46.697 55.323 46.613 55.127 46.529C54.9357 46.445 54.77 46.3143 54.63 46.137C54.4947 45.955 54.427 45.7123 54.427 45.409C54.427 45.143 54.4947 44.9073 54.63 44.702C54.7653 44.4967 54.9543 44.338 55.197 44.226C55.4443 44.114 55.7267 44.058 56.044 44.058C56.5013 44.058 56.8747 44.1723 57.164 44.401C57.458 44.6297 57.6237 44.933 57.661 45.311H56.961C56.9377 45.1243 56.8397 44.961 56.667 44.821C56.4943 44.6763 56.2657 44.604 55.981 44.604C55.715 44.604 55.498 44.674 55.33 44.814C55.162 44.9493 55.078 45.1407 55.078 45.388C55.078 45.5653 55.127 45.71 55.225 45.822C55.3277 45.934 55.4513 46.0203 55.596 46.081C55.7453 46.137 55.953 46.2023 56.219 46.277C56.541 46.3657 56.8 46.4543 56.996 46.543C57.192 46.627 57.36 46.76 57.5 46.942C57.64 47.1193 57.71 47.362 57.71 47.67C57.71 47.908 57.647 48.132 57.521 48.342C57.395 48.552 57.2083 48.7223 56.961 48.853C56.7137 48.9837 56.422 49.049 56.086 49.049ZM62.1474 46.935C62.1474 47.0563 62.1404 47.1847 62.1264 47.32H59.0604C59.0837 47.698 59.2121 47.9943 59.4454 48.209C59.6834 48.419 59.9704 48.524 60.3064 48.524C60.5817 48.524 60.8104 48.461 60.9924 48.335C61.1791 48.2043 61.3097 48.0317 61.3844 47.817H62.0704C61.9677 48.1857 61.7624 48.4867 61.4544 48.72C61.1464 48.9487 60.7637 49.063 60.3064 49.063C59.9424 49.063 59.6157 48.9813 59.3264 48.818C59.0417 48.6547 58.8177 48.4237 58.6544 48.125C58.4911 47.8217 58.4094 47.4717 58.4094 47.075C58.4094 46.6783 58.4887 46.3307 58.6474 46.032C58.8061 45.7333 59.0277 45.5047 59.3124 45.346C59.6017 45.1827 59.9331 45.101 60.3064 45.101C60.6704 45.101 60.9924 45.1803 61.2724 45.339C61.5524 45.4977 61.7671 45.717 61.9164 45.997C62.0704 46.2723 62.1474 46.585 62.1474 46.935ZM61.4894 46.802C61.4894 46.5593 61.4357 46.3517 61.3284 46.179C61.2211 46.0017 61.0741 45.8687 60.8874 45.78C60.7054 45.6867 60.5024 45.64 60.2784 45.64C59.9564 45.64 59.6811 45.7427 59.4524 45.948C59.2284 46.1533 59.1001 46.438 59.0674 46.802H61.4894ZM64.8572 45.094C65.3239 45.094 65.7019 45.2363 65.9912 45.521C66.2806 45.801 66.4252 46.207 66.4252 46.739V49H65.7952V46.83C65.7952 46.4473 65.6996 46.1557 65.5082 45.955C65.3169 45.7497 65.0556 45.647 64.7242 45.647C64.3882 45.647 64.1199 45.752 63.9192 45.962C63.7232 46.172 63.6252 46.4777 63.6252 46.879V49H62.9882V45.164H63.6252V45.71C63.7512 45.514 63.9216 45.3623 64.1362 45.255C64.3556 45.1477 64.5959 45.094 64.8572 45.094ZM67.7948 44.541C67.6734 44.541 67.5708 44.499 67.4868 44.415C67.4028 44.331 67.3608 44.2283 67.3608 44.107C67.3608 43.9857 67.4028 43.883 67.4868 43.799C67.5708 43.715 67.6734 43.673 67.7948 43.673C67.9114 43.673 68.0094 43.715 68.0888 43.799C68.1728 43.883 68.2148 43.9857 68.2148 44.107C68.2148 44.2283 68.1728 44.331 68.0888 44.415C68.0094 44.499 67.9114 44.541 67.7948 44.541ZM68.1028 45.164V49H67.4658V45.164H68.1028ZM71.0574 45.094C71.5241 45.094 71.9021 45.2363 72.1914 45.521C72.4807 45.801 72.6254 46.207 72.6254 46.739V49H71.9954V46.83C71.9954 46.4473 71.8997 46.1557 71.7084 45.955C71.5171 45.7497 71.2557 45.647 70.9244 45.647C70.5884 45.647 70.3201 45.752 70.1194 45.962C69.9234 46.172 69.8254 46.4777 69.8254 46.879V49H69.1884V45.164H69.8254V45.71C69.9514 45.514 70.1217 45.3623 70.3364 45.255C70.5557 45.1477 70.7961 45.094 71.0574 45.094ZM78.1922 46.165V46.704H75.3992V46.165H78.1922ZM82.8008 49.049C82.4788 49.049 82.1895 48.993 81.9328 48.881C81.6808 48.7643 81.4825 48.6057 81.3378 48.405C81.1932 48.1997 81.1185 47.964 81.1138 47.698H81.7928C81.8162 47.9267 81.9095 48.1203 82.0728 48.279C82.2408 48.433 82.4835 48.51 82.8008 48.51C83.1042 48.51 83.3422 48.4353 83.5148 48.286C83.6922 48.132 83.7808 47.936 83.7808 47.698C83.7808 47.5113 83.7295 47.3597 83.6268 47.243C83.5242 47.1263 83.3958 47.0377 83.2418 46.977C83.0878 46.9163 82.8802 46.851 82.6188 46.781C82.2968 46.697 82.0378 46.613 81.8418 46.529C81.6505 46.445 81.4848 46.3143 81.3448 46.137C81.2095 45.955 81.1418 45.7123 81.1418 45.409C81.1418 45.143 81.2095 44.9073 81.3448 44.702C81.4802 44.4967 81.6692 44.338 81.9118 44.226C82.1592 44.114 82.4415 44.058 82.7588 44.058C83.2162 44.058 83.5895 44.1723 83.8788 44.401C84.1728 44.6297 84.3385 44.933 84.3758 45.311H83.6758C83.6525 45.1243 83.5545 44.961 83.3818 44.821C83.2092 44.6763 82.9805 44.604 82.6958 44.604C82.4298 44.604 82.2128 44.674 82.0448 44.814C81.8768 44.9493 81.7928 45.1407 81.7928 45.388C81.7928 45.5653 81.8418 45.71 81.9398 45.822C82.0425 45.934 82.1662 46.0203 82.3108 46.081C82.4602 46.137 82.6678 46.2023 82.9338 46.277C83.2558 46.3657 83.5148 46.4543 83.7108 46.543C83.9068 46.627 84.0748 46.76 84.2148 46.942C84.3548 47.1193 84.4248 47.362 84.4248 47.67C84.4248 47.908 84.3618 48.132 84.2358 48.342C84.1098 48.552 83.9232 48.7223 83.6758 48.853C83.4285 48.9837 83.1368 49.049 82.8008 49.049ZM85.1242 47.068C85.1242 46.676 85.2036 46.333 85.3622 46.039C85.5209 45.7403 85.7379 45.5093 86.0132 45.346C86.2932 45.1827 86.6036 45.101 86.9442 45.101C87.2802 45.101 87.5719 45.1733 87.8192 45.318C88.0666 45.4627 88.2509 45.6447 88.3722 45.864V45.164H89.0162V49H88.3722V48.286C88.2462 48.51 88.0572 48.6967 87.8052 48.846C87.5579 48.9907 87.2686 49.063 86.9372 49.063C86.5966 49.063 86.2886 48.979 86.0132 48.811C85.7379 48.643 85.5209 48.4073 85.3622 48.104C85.2036 47.8007 85.1242 47.4553 85.1242 47.068ZM88.3722 47.075C88.3722 46.7857 88.3139 46.5337 88.1972 46.319C88.0806 46.1043 87.9219 45.941 87.7212 45.829C87.5252 45.7123 87.3082 45.654 87.0702 45.654C86.8322 45.654 86.6152 45.71 86.4192 45.822C86.2232 45.934 86.0669 46.0973 85.9502 46.312C85.8336 46.5267 85.7752 46.7787 85.7752 47.068C85.7752 47.362 85.8336 47.6187 85.9502 47.838C86.0669 48.0527 86.2232 48.2183 86.4192 48.335C86.6152 48.447 86.8322 48.503 87.0702 48.503C87.3082 48.503 87.5252 48.447 87.7212 48.335C87.9219 48.2183 88.0806 48.0527 88.1972 47.838C88.3139 47.6187 88.3722 47.3643 88.3722 47.075ZM90.7297 45.878C90.8604 45.6493 91.0517 45.4627 91.3037 45.318C91.5557 45.1733 91.8427 45.101 92.1647 45.101C92.51 45.101 92.8204 45.1827 93.0957 45.346C93.371 45.5093 93.588 45.7403 93.7467 46.039C93.9054 46.333 93.9847 46.676 93.9847 47.068C93.9847 47.4553 93.9054 47.8007 93.7467 48.104C93.588 48.4073 93.3687 48.643 93.0887 48.811C92.8134 48.979 92.5054 49.063 92.1647 49.063C91.8334 49.063 91.5417 48.9907 91.2897 48.846C91.0424 48.7013 90.8557 48.517 90.7297 48.293V49H90.0927V43.82H90.7297V45.878ZM93.3337 47.068C93.3337 46.7787 93.2754 46.5267 93.1587 46.312C93.042 46.0973 92.8834 45.934 92.6827 45.822C92.4867 45.71 92.2697 45.654 92.0317 45.654C91.7984 45.654 91.5814 45.7123 91.3807 45.829C91.1847 45.941 91.026 46.1067 90.9047 46.326C90.788 46.5407 90.7297 46.7903 90.7297 47.075C90.7297 47.3643 90.788 47.6187 90.9047 47.838C91.026 48.0527 91.1847 48.2183 91.3807 48.335C91.5814 48.447 91.7984 48.503 92.0317 48.503C92.2697 48.503 92.4867 48.447 92.6827 48.335C92.8834 48.2183 93.042 48.0527 93.1587 47.838C93.2754 47.6187 93.3337 47.362 93.3337 47.068ZM95.6002 45.689V47.95C95.6002 48.1367 95.6398 48.2697 95.7192 48.349C95.7985 48.4237 95.9362 48.461 96.1322 48.461H96.6012V49H96.0272C95.6725 49 95.4065 48.9183 95.2292 48.755C95.0518 48.5917 94.9632 48.3233 94.9632 47.95V45.689H94.4662V45.164H94.9632V44.198H95.6002V45.164H96.6012V45.689H95.6002ZM100.775 45.164V49H100.138V48.433C100.017 48.629 99.8463 48.783 99.627 48.895C99.4123 49.0023 99.1743 49.056 98.913 49.056C98.6143 49.056 98.346 48.9953 98.108 48.874C97.87 48.748 97.681 48.5613 97.541 48.314C97.4057 48.0667 97.338 47.7657 97.338 47.411V45.164H97.968V47.327C97.968 47.705 98.0637 47.9967 98.255 48.202C98.4463 48.4027 98.7077 48.503 99.039 48.503C99.3797 48.503 99.648 48.398 99.844 48.188C100.04 47.978 100.138 47.6723 100.138 47.271V45.164H100.775Z" fill="white"/>
<path d="M103.612 46.417C103.612 45.6143 103.742 44.989 104.004 44.541C104.265 44.0883 104.722 43.862 105.376 43.862C106.024 43.862 106.479 44.0883 106.741 44.541C107.002 44.989 107.133 45.6143 107.133 46.417C107.133 47.2337 107.002 47.8683 106.741 48.321C106.479 48.7737 106.024 49 105.376 49C104.722 49 104.265 48.7737 104.004 48.321C103.742 47.8683 103.612 47.2337 103.612 46.417ZM106.503 46.417C106.503 46.011 106.475 45.668 106.419 45.388C106.367 45.1033 106.258 44.8747 106.09 44.702C105.926 44.5293 105.688 44.443 105.376 44.443C105.058 44.443 104.816 44.5293 104.648 44.702C104.484 44.8747 104.375 45.1033 104.319 45.388C104.267 45.668 104.242 46.011 104.242 46.417C104.242 46.837 104.267 47.1893 104.319 47.474C104.375 47.7587 104.484 47.9873 104.648 48.16C104.816 48.3327 105.058 48.419 105.376 48.419C105.688 48.419 105.926 48.3327 106.09 48.16C106.258 47.9873 106.367 47.7587 106.419 47.474C106.475 47.1893 106.503 46.837 106.503 46.417ZM108.931 46.368C108.67 46.2653 108.469 46.116 108.329 45.92C108.189 45.724 108.119 45.486 108.119 45.206C108.119 44.954 108.182 44.7277 108.308 44.527C108.434 44.3217 108.621 44.1607 108.868 44.044C109.12 43.9227 109.424 43.862 109.778 43.862C110.133 43.862 110.434 43.9227 110.681 44.044C110.933 44.1607 111.122 44.3217 111.248 44.527C111.379 44.7277 111.444 44.954 111.444 45.206C111.444 45.4767 111.372 45.7147 111.227 45.92C111.083 46.1207 110.884 46.27 110.632 46.368C110.922 46.4567 111.15 46.613 111.318 46.837C111.491 47.0563 111.577 47.3223 111.577 47.635C111.577 47.9383 111.503 48.2043 111.353 48.433C111.204 48.657 110.992 48.832 110.716 48.958C110.446 49.0793 110.133 49.14 109.778 49.14C109.424 49.14 109.111 49.0793 108.84 48.958C108.574 48.832 108.367 48.657 108.217 48.433C108.068 48.2043 107.993 47.9383 107.993 47.635C107.993 47.3223 108.077 47.054 108.245 46.83C108.413 46.606 108.642 46.452 108.931 46.368ZM110.828 45.283C110.828 44.9983 110.735 44.779 110.548 44.625C110.362 44.471 110.105 44.394 109.778 44.394C109.456 44.394 109.202 44.471 109.015 44.625C108.829 44.779 108.735 45.0007 108.735 45.29C108.735 45.5513 108.831 45.7613 109.022 45.92C109.218 46.0787 109.47 46.158 109.778 46.158C110.091 46.158 110.343 46.0787 110.534 45.92C110.73 45.7567 110.828 45.5443 110.828 45.283ZM109.778 46.648C109.433 46.648 109.151 46.7297 108.931 46.893C108.712 47.0517 108.602 47.292 108.602 47.614C108.602 47.9127 108.707 48.153 108.917 48.335C109.132 48.517 109.419 48.608 109.778 48.608C110.138 48.608 110.422 48.517 110.632 48.335C110.842 48.153 110.947 47.9127 110.947 47.614C110.947 47.3013 110.84 47.0633 110.625 46.9C110.411 46.732 110.128 46.648 109.778 46.648ZM112.731 49.042C112.61 49.042 112.507 49 112.423 48.916C112.339 48.832 112.297 48.7293 112.297 48.608C112.297 48.4867 112.339 48.384 112.423 48.3C112.507 48.216 112.61 48.174 112.731 48.174C112.848 48.174 112.946 48.216 113.025 48.3C113.109 48.384 113.151 48.4867 113.151 48.608C113.151 48.7293 113.109 48.832 113.025 48.916C112.946 49 112.848 49.042 112.731 49.042ZM112.731 46.046C112.61 46.046 112.507 46.004 112.423 45.92C112.339 45.836 112.297 45.7333 112.297 45.612C112.297 45.4907 112.339 45.388 112.423 45.304C112.507 45.22 112.61 45.178 112.731 45.178C112.848 45.178 112.946 45.22 113.025 45.304C113.109 45.388 113.151 45.4907 113.151 45.612C113.151 45.7333 113.109 45.836 113.025 45.92C112.946 46.004 112.848 46.046 112.731 46.046ZM113.913 46.417C113.913 45.6143 114.044 44.989 114.305 44.541C114.567 44.0883 115.024 43.862 115.677 43.862C116.326 43.862 116.781 44.0883 117.042 44.541C117.304 44.989 117.434 45.6143 117.434 46.417C117.434 47.2337 117.304 47.8683 117.042 48.321C116.781 48.7737 116.326 49 115.677 49C115.024 49 114.567 48.7737 114.305 48.321C114.044 47.8683 113.913 47.2337 113.913 46.417ZM116.804 46.417C116.804 46.011 116.776 45.668 116.72 45.388C116.669 45.1033 116.559 44.8747 116.391 44.702C116.228 44.5293 115.99 44.443 115.677 44.443C115.36 44.443 115.117 44.5293 114.949 44.702C114.786 44.8747 114.676 45.1033 114.62 45.388C114.569 45.668 114.543 46.011 114.543 46.417C114.543 46.837 114.569 47.1893 114.62 47.474C114.676 47.7587 114.786 47.9873 114.949 48.16C115.117 48.3327 115.36 48.419 115.677 48.419C115.99 48.419 116.228 48.3327 116.391 48.16C116.559 47.9873 116.669 47.7587 116.72 47.474C116.776 47.1893 116.804 46.837 116.804 46.417ZM118.309 46.417C118.309 45.6143 118.44 44.989 118.701 44.541C118.962 44.0883 119.42 43.862 120.073 43.862C120.722 43.862 121.177 44.0883 121.438 44.541C121.699 44.989 121.83 45.6143 121.83 46.417C121.83 47.2337 121.699 47.8683 121.438 48.321C121.177 48.7737 120.722 49 120.073 49C119.42 49 118.962 48.7737 118.701 48.321C118.44 47.8683 118.309 47.2337 118.309 46.417ZM121.2 46.417C121.2 46.011 121.172 45.668 121.116 45.388C121.065 45.1033 120.955 44.8747 120.787 44.702C120.624 44.5293 120.386 44.443 120.073 44.443C119.756 44.443 119.513 44.5293 119.345 44.702C119.182 44.8747 119.072 45.1033 119.016 45.388C118.965 45.668 118.939 46.011 118.939 46.417C118.939 46.837 118.965 47.1893 119.016 47.474C119.072 47.7587 119.182 47.9873 119.345 48.16C119.513 48.3327 119.756 48.419 120.073 48.419C120.386 48.419 120.624 48.3327 120.787 48.16C120.955 47.9873 121.065 47.7587 121.116 47.474C121.172 47.1893 121.2 46.837 121.2 46.417ZM127.336 46.165V46.704H124.543V46.165H127.336ZM130.124 44.52V43.939H131.44V49H130.796V44.52H130.124ZM135.65 44.436L133.704 49H133.06L135.034 44.499H132.332V43.953H135.65V44.436ZM136.664 49.042C136.543 49.042 136.44 49 136.356 48.916C136.272 48.832 136.23 48.7293 136.23 48.608C136.23 48.4867 136.272 48.384 136.356 48.3C136.44 48.216 136.543 48.174 136.664 48.174C136.781 48.174 136.879 48.216 136.958 48.3C137.042 48.384 137.084 48.4867 137.084 48.608C137.084 48.7293 137.042 48.832 136.958 48.916C136.879 49 136.781 49.042 136.664 49.042ZM136.664 46.046C136.543 46.046 136.44 46.004 136.356 45.92C136.272 45.836 136.23 45.7333 136.23 45.612C136.23 45.4907 136.272 45.388 136.356 45.304C136.44 45.22 136.543 45.178 136.664 45.178C136.781 45.178 136.879 45.22 136.958 45.304C137.042 45.388 137.084 45.4907 137.084 45.612C137.084 45.7333 137.042 45.836 136.958 45.92C136.879 46.004 136.781 46.046 136.664 46.046ZM137.846 46.417C137.846 45.6143 137.977 44.989 138.238 44.541C138.499 44.0883 138.957 43.862 139.61 43.862C140.259 43.862 140.714 44.0883 140.975 44.541C141.236 44.989 141.367 45.6143 141.367 46.417C141.367 47.2337 141.236 47.8683 140.975 48.321C140.714 48.7737 140.259 49 139.61 49C138.957 49 138.499 48.7737 138.238 48.321C137.977 47.8683 137.846 47.2337 137.846 46.417ZM140.737 46.417C140.737 46.011 140.709 45.668 140.653 45.388C140.602 45.1033 140.492 44.8747 140.324 44.702C140.161 44.5293 139.923 44.443 139.61 44.443C139.293 44.443 139.05 44.5293 138.882 44.702C138.719 44.8747 138.609 45.1033 138.553 45.388C138.502 45.668 138.476 46.011 138.476 46.417C138.476 46.837 138.502 47.1893 138.553 47.474C138.609 47.7587 138.719 47.9873 138.882 48.16C139.05 48.3327 139.293 48.419 139.61 48.419C139.923 48.419 140.161 48.3327 140.324 48.16C140.492 47.9873 140.602 47.7587 140.653 47.474C140.709 47.1893 140.737 46.837 140.737 46.417ZM142.242 46.417C142.242 45.6143 142.372 44.989 142.634 44.541C142.895 44.0883 143.352 43.862 144.006 43.862C144.654 43.862 145.109 44.0883 145.371 44.541C145.632 44.989 145.763 45.6143 145.763 46.417C145.763 47.2337 145.632 47.8683 145.371 48.321C145.109 48.7737 144.654 49 144.006 49C143.352 49 142.895 48.7737 142.634 48.321C142.372 47.8683 142.242 47.2337 142.242 46.417ZM145.133 46.417C145.133 46.011 145.105 45.668 145.049 45.388C144.997 45.1033 144.888 44.8747 144.72 44.702C144.556 44.5293 144.318 44.443 144.006 44.443C143.688 44.443 143.446 44.5293 143.278 44.702C143.114 44.8747 143.005 45.1033 142.949 45.388C142.897 45.668 142.872 46.011 142.872 46.417C142.872 46.837 142.897 47.1893 142.949 47.474C143.005 47.7587 143.114 47.9873 143.278 48.16C143.446 48.3327 143.688 48.419 144.006 48.419C144.318 48.419 144.556 48.3327 144.72 48.16C144.888 47.9873 144.997 47.7587 145.049 47.474C145.105 47.1893 145.133 46.837 145.133 46.417Z" fill="black"/>
</g>
<g filter="url(#filter8_d)">
<path d="M74.02 31.02L72.07 38H70.42L69.11 33.03L67.74 38L66.1 38.01L64.22 31.02H65.72L66.95 36.44L68.37 31.02H69.93L71.27 36.41L72.51 31.02H74.02ZM74.5741 35.21C74.5741 34.65 74.6841 34.1533 74.9041 33.72C75.1308 33.2867 75.4341 32.9533 75.8141 32.72C76.2008 32.4867 76.6308 32.37 77.1041 32.37C77.5175 32.37 77.8775 32.4533 78.1841 32.62C78.4975 32.7867 78.7475 32.9967 78.9341 33.25V32.46H80.3441V38H78.9341V37.19C78.7541 37.45 78.5041 37.6667 78.1841 37.84C77.8708 38.0067 77.5075 38.09 77.0941 38.09C76.6275 38.09 76.2008 37.97 75.8141 37.73C75.4341 37.49 75.1308 37.1533 74.9041 36.72C74.6841 36.28 74.5741 35.7767 74.5741 35.21ZM78.9341 35.23C78.9341 34.89 78.8675 34.6 78.7341 34.36C78.6008 34.1133 78.4208 33.9267 78.1941 33.8C77.9675 33.6667 77.7241 33.6 77.4641 33.6C77.2041 33.6 76.9641 33.6633 76.7441 33.79C76.5241 33.9167 76.3441 34.1033 76.2041 34.35C76.0708 34.59 76.0041 34.8767 76.0041 35.21C76.0041 35.5433 76.0708 35.8367 76.2041 36.09C76.3441 36.3367 76.5241 36.5267 76.7441 36.66C76.9708 36.7933 77.2108 36.86 77.4641 36.86C77.7241 36.86 77.9675 36.7967 78.1941 36.67C78.4208 36.5367 78.6008 36.35 78.7341 36.11C78.8675 35.8633 78.9341 35.57 78.9341 35.23ZM84.9915 38L83.1115 35.64V38H81.7115V30.6H83.1115V34.81L84.9715 32.46H86.7915L84.3515 35.24L86.8115 38H84.9915ZM89.1813 33.61V36.29C89.1813 36.4767 89.2247 36.6133 89.3113 36.7C89.4047 36.78 89.558 36.82 89.7713 36.82H90.4213V38H89.5413C88.3613 38 87.7713 37.4267 87.7713 36.28V33.61H87.1113V32.46H87.7713V31.09H89.1813V32.46H90.4213V33.61H89.1813ZM96.6583 32.46V38H95.2483V37.3C95.0683 37.54 94.8316 37.73 94.5383 37.87C94.2516 38.0033 93.9383 38.07 93.5983 38.07C93.1649 38.07 92.7816 37.98 92.4483 37.8C92.1149 37.6133 91.8516 37.3433 91.6583 36.99C91.4716 36.63 91.3783 36.2033 91.3783 35.71V32.46H92.7783V35.51C92.7783 35.95 92.8883 36.29 93.1083 36.53C93.3283 36.7633 93.6283 36.88 94.0083 36.88C94.3949 36.88 94.6983 36.7633 94.9183 36.53C95.1383 36.29 95.2483 35.95 95.2483 35.51V32.46H96.6583ZM104.382 34.42C104.776 34.4933 105.099 34.69 105.352 35.01C105.606 35.33 105.732 35.6967 105.732 36.11C105.732 36.4833 105.639 36.8133 105.452 37.1C105.272 37.38 105.009 37.6 104.662 37.76C104.316 37.92 103.906 38 103.432 38H100.422V31.02H103.302C103.776 31.02 104.182 31.0967 104.522 31.25C104.869 31.4033 105.129 31.6167 105.302 31.89C105.482 32.1633 105.572 32.4733 105.572 32.82C105.572 33.2267 105.462 33.5667 105.242 33.84C105.029 34.1133 104.742 34.3067 104.382 34.42ZM101.822 33.9H103.102C103.436 33.9 103.692 33.8267 103.872 33.68C104.052 33.5267 104.142 33.31 104.142 33.03C104.142 32.75 104.052 32.5333 103.872 32.38C103.692 32.2267 103.436 32.15 103.102 32.15H101.822V33.9ZM103.232 36.86C103.572 36.86 103.836 36.78 104.022 36.62C104.216 36.46 104.312 36.2333 104.312 35.94C104.312 35.64 104.212 35.4067 104.012 35.24C103.812 35.0667 103.542 34.98 103.202 34.98H101.822V36.86H103.232ZM111.998 35.11C111.998 35.31 111.985 35.49 111.958 35.65H107.908C107.942 36.05 108.082 36.3633 108.328 36.59C108.575 36.8167 108.878 36.93 109.238 36.93C109.758 36.93 110.128 36.7067 110.348 36.26H111.858C111.698 36.7933 111.392 37.2333 110.938 37.58C110.485 37.92 109.928 38.09 109.268 38.09C108.735 38.09 108.255 37.9733 107.828 37.74C107.408 37.5 107.078 37.1633 106.838 36.73C106.605 36.2967 106.488 35.7967 106.488 35.23C106.488 34.6567 106.605 34.1533 106.838 33.72C107.072 33.2867 107.398 32.9533 107.818 32.72C108.238 32.4867 108.722 32.37 109.268 32.37C109.795 32.37 110.265 32.4833 110.678 32.71C111.098 32.9367 111.422 33.26 111.648 33.68C111.882 34.0933 111.998 34.57 111.998 35.11ZM110.548 34.71C110.542 34.35 110.412 34.0633 110.158 33.85C109.905 33.63 109.595 33.52 109.228 33.52C108.882 33.52 108.588 33.6267 108.348 33.84C108.115 34.0467 107.972 34.3367 107.918 34.71H110.548ZM114.42 30.6V38H113.02V30.6H114.42ZM115.443 35.21C115.443 34.65 115.553 34.1533 115.773 33.72C116 33.2867 116.303 32.9533 116.683 32.72C117.07 32.4867 117.5 32.37 117.973 32.37C118.387 32.37 118.747 32.4533 119.053 32.62C119.367 32.7867 119.617 32.9967 119.803 33.25V32.46H121.213V38H119.803V37.19C119.623 37.45 119.373 37.6667 119.053 37.84C118.74 38.0067 118.377 38.09 117.963 38.09C117.497 38.09 117.07 37.97 116.683 37.73C116.303 37.49 116 37.1533 115.773 36.72C115.553 36.28 115.443 35.7767 115.443 35.21ZM119.803 35.23C119.803 34.89 119.737 34.6 119.603 34.36C119.47 34.1133 119.29 33.9267 119.063 33.8C118.837 33.6667 118.593 33.6 118.333 33.6C118.073 33.6 117.833 33.6633 117.613 33.79C117.393 33.9167 117.213 34.1033 117.073 34.35C116.94 34.59 116.873 34.8767 116.873 35.21C116.873 35.5433 116.94 35.8367 117.073 36.09C117.213 36.3367 117.393 36.5267 117.613 36.66C117.84 36.7933 118.08 36.86 118.333 36.86C118.593 36.86 118.837 36.7967 119.063 36.67C119.29 36.5367 119.47 36.35 119.603 36.11C119.737 35.8633 119.803 35.57 119.803 35.23ZM123.291 31.8C123.037 31.8 122.827 31.7233 122.661 31.57C122.501 31.41 122.421 31.2133 122.421 30.98C122.421 30.7467 122.501 30.5533 122.661 30.4C122.827 30.24 123.037 30.16 123.291 30.16C123.537 30.16 123.741 30.24 123.901 30.4C124.061 30.5533 124.141 30.7467 124.141 30.98C124.141 31.2133 124.061 31.41 123.901 31.57C123.741 31.7233 123.537 31.8 123.291 31.8ZM123.981 38.91C123.981 39.5233 123.827 39.9633 123.521 40.23C123.221 40.5033 122.787 40.64 122.221 40.64H121.601V39.45H122.001C122.214 39.45 122.364 39.4067 122.451 39.32C122.537 39.24 122.581 39.1067 122.581 38.92V32.46H123.981V38.91ZM125.004 35.21C125.004 34.65 125.114 34.1533 125.334 33.72C125.56 33.2867 125.864 32.9533 126.244 32.72C126.63 32.4867 127.06 32.37 127.534 32.37C127.947 32.37 128.307 32.4533 128.614 32.62C128.927 32.7867 129.177 32.9967 129.364 33.25V32.46H130.774V38H129.364V37.19C129.184 37.45 128.934 37.6667 128.614 37.84C128.3 38.0067 127.937 38.09 127.524 38.09C127.057 38.09 126.63 37.97 126.244 37.73C125.864 37.49 125.56 37.1533 125.334 36.72C125.114 36.28 125.004 35.7767 125.004 35.21ZM129.364 35.23C129.364 34.89 129.297 34.6 129.164 34.36C129.03 34.1133 128.85 33.9267 128.624 33.8C128.397 33.6667 128.154 33.6 127.894 33.6C127.634 33.6 127.394 33.6633 127.174 33.79C126.954 33.9167 126.774 34.1033 126.634 34.35C126.5 34.59 126.434 34.8767 126.434 35.21C126.434 35.5433 126.5 35.8367 126.634 36.09C126.774 36.3367 126.954 36.5267 127.174 36.66C127.4 36.7933 127.64 36.86 127.894 36.86C128.154 36.86 128.397 36.7967 128.624 36.67C128.85 36.5367 129.03 36.35 129.164 36.11C129.297 35.8633 129.364 35.57 129.364 35.23ZM133.541 33.32C133.721 33.0267 133.955 32.7967 134.241 32.63C134.535 32.4633 134.868 32.38 135.241 32.38V33.85H134.871C134.431 33.85 134.098 33.9533 133.871 34.16C133.651 34.3667 133.541 34.7267 133.541 35.24V38H132.141V32.46H133.541V33.32Z" fill="white"/>
</g>
<g filter="url(#filter9_d)">
<path d="M159.542 105.121V105.639H158.212V110H157.575V105.639H156.238V105.121H159.542ZM160.963 106.787C161.075 106.568 161.234 106.397 161.439 106.276C161.649 106.155 161.903 106.094 162.202 106.094V106.752H162.034C161.32 106.752 160.963 107.139 160.963 107.914V110H160.326V106.164H160.963V106.787ZM166.241 106.164L163.931 111.806H163.273L164.029 109.958L162.482 106.164H163.189L164.393 109.272L165.583 106.164H166.241Z" fill="black"/>
</g>
<g filter="url(#filter10_d)">
<path d="M146.97 97.67H144.19L143.73 99H142.26L144.77 92.01H146.4L148.91 99H147.43L146.97 97.67ZM146.59 96.55L145.58 93.63L144.57 96.55H146.59ZM151.248 91.6V99H149.848V91.6H151.248ZM152.271 96.21C152.271 95.65 152.381 95.1533 152.601 94.72C152.828 94.2867 153.131 93.9533 153.511 93.72C153.898 93.4867 154.328 93.37 154.801 93.37C155.215 93.37 155.575 93.4533 155.881 93.62C156.195 93.7867 156.445 93.9967 156.631 94.25V93.46H158.041V99H156.631V98.19C156.451 98.45 156.201 98.6667 155.881 98.84C155.568 99.0067 155.205 99.09 154.791 99.09C154.325 99.09 153.898 98.97 153.511 98.73C153.131 98.49 152.828 98.1533 152.601 97.72C152.381 97.28 152.271 96.7767 152.271 96.21ZM156.631 96.23C156.631 95.89 156.565 95.6 156.431 95.36C156.298 95.1133 156.118 94.9267 155.891 94.8C155.665 94.6667 155.421 94.6 155.161 94.6C154.901 94.6 154.661 94.6633 154.441 94.79C154.221 94.9167 154.041 95.1033 153.901 95.35C153.768 95.59 153.701 95.8767 153.701 96.21C153.701 96.5433 153.768 96.8367 153.901 97.09C154.041 97.3367 154.221 97.5267 154.441 97.66C154.668 97.7933 154.908 97.86 155.161 97.86C155.421 97.86 155.665 97.7967 155.891 97.67C156.118 97.5367 156.298 97.35 156.431 97.11C156.565 96.8633 156.631 96.57 156.631 96.23ZM166.289 93.38C166.969 93.38 167.515 93.59 167.929 94.01C168.349 94.4233 168.559 95.0033 168.559 95.75V99H167.159V95.94C167.159 95.5067 167.049 95.1767 166.829 94.95C166.609 94.7167 166.309 94.6 165.929 94.6C165.549 94.6 165.245 94.7167 165.019 94.95C164.799 95.1767 164.689 95.5067 164.689 95.94V99H163.289V95.94C163.289 95.5067 163.179 95.1767 162.959 94.95C162.739 94.7167 162.439 94.6 162.059 94.6C161.672 94.6 161.365 94.7167 161.139 94.95C160.919 95.1767 160.809 95.5067 160.809 95.94V99H159.409V93.46H160.809V94.13C160.989 93.8967 161.219 93.7133 161.499 93.58C161.785 93.4467 162.099 93.38 162.439 93.38C162.872 93.38 163.259 93.4733 163.599 93.66C163.939 93.84 164.202 94.1 164.389 94.44C164.569 94.12 164.829 93.8633 165.169 93.67C165.515 93.4767 165.889 93.38 166.289 93.38ZM169.527 96.21C169.527 95.65 169.637 95.1533 169.857 94.72C170.084 94.2867 170.387 93.9533 170.767 93.72C171.154 93.4867 171.584 93.37 172.057 93.37C172.471 93.37 172.831 93.4533 173.137 93.62C173.451 93.7867 173.701 93.9967 173.887 94.25V93.46H175.297V99H173.887V98.19C173.707 98.45 173.457 98.6667 173.137 98.84C172.824 99.0067 172.461 99.09 172.047 99.09C171.581 99.09 171.154 98.97 170.767 98.73C170.387 98.49 170.084 98.1533 169.857 97.72C169.637 97.28 169.527 96.7767 169.527 96.21ZM173.887 96.23C173.887 95.89 173.821 95.6 173.687 95.36C173.554 95.1133 173.374 94.9267 173.147 94.8C172.921 94.6667 172.677 94.6 172.417 94.6C172.157 94.6 171.917 94.6633 171.697 94.79C171.477 94.9167 171.297 95.1033 171.157 95.35C171.024 95.59 170.957 95.8767 170.957 96.21C170.957 96.5433 171.024 96.8367 171.157 97.09C171.297 97.3367 171.477 97.5267 171.697 97.66C171.924 97.7933 172.164 97.86 172.417 97.86C172.677 97.86 172.921 97.7967 173.147 97.67C173.374 97.5367 173.554 97.35 173.687 97.11C173.821 96.8633 173.887 96.57 173.887 96.23ZM178.295 94.61V97.29C178.295 97.4767 178.338 97.6133 178.425 97.7C178.518 97.78 178.671 97.82 178.885 97.82H179.535V99H178.655C177.475 99 176.885 98.4267 176.885 97.28V94.61H176.225V93.46H176.885V92.09H178.295V93.46H179.535V94.61H178.295Z" fill="white"/>
</g>
<defs>
<filter id="filter0_d" x="23" y="64" width="26" height="25" filterUnits="userSpaceOnUse" color-interpolation-filters="sRGB">
<feFlood flood-opacity="0" result="BackgroundImageFix"/>
<feColorMatrix in="SourceAlpha" type="matrix" values="0 0 0 0 0 0 0 0 0 0 0 0 0 0 0 0 0 0 127 0" result="hardAlpha"/>
<feOffset/>
<feGaussianBlur stdDeviation="1"/>
<feComposite in2="hardAlpha" operator="out"/>
<feColorMatrix type="matrix" values="0 0 0 0 0 0 0 0 0 0 0 0 0 0 0 0 0 0 0.25 0"/>
<feBlend mode="normal" in2="BackgroundImageFix" result="effect1_dropShadow"/>
<feBlend mode="normal" in="SourceGraphic" in2="effect1_dropShadow" result="shape"/>
</filter>
<filter id="filter1_d" x="86" y="0" width="25" height="25" filterUnits="userSpaceOnUse" color-interpolation-filters="sRGB">
<feFlood flood-opacity="0" result="BackgroundImageFix"/>
<feColorMatrix in="SourceAlpha" type="matrix" values="0 0 0 0 0 0 0 0 0 0 0 0 0 0 0 0 0 0 127 0" result="hardAlpha"/>
<feOffset/>
<feGaussianBlur stdDeviation="1"/>
<feComposite in2="hardAlpha" operator="out"/>
<feColorMatrix type="matrix" values="0 0 0 0 0 0 0 0 0 0 0 0 0 0 0 0 0 0 0.5 0"/>
<feBlend mode="normal" in2="BackgroundImageFix" result="effect1_dropShadow"/>
<feBlend mode="normal" in="SourceGraphic" in2="effect1_dropShadow" result="shape"/>
</filter>
<filter id="filter2_d" x="95" y="5" width="9" height="10" filterUnits="userSpaceOnUse" color-interpolation-filters="sRGB">
<feFlood flood-opacity="0" result="BackgroundImageFix"/>
<feColorMatrix in="SourceAlpha" type="matrix" values="0 0 0 0 0 0 0 0 0 0 0 0 0 0 0 0 0 0 127 0" result="hardAlpha"/>
<feOffset/>
<feGaussianBlur stdDeviation="1"/>
<feComposite in2="hardAlpha" operator="out"/>
<feColorMatrix type="matrix" values="0 0 0 0 0 0 0 0 0 0 0 0 0 0 0 0 0 0 0.5 0"/>
<feBlend mode="normal" in2="BackgroundImageFix" result="effect1_dropShadow"/>
<feBlend mode="normal" in="SourceGraphic" in2="effect1_dropShadow" result="shape"/>
</filter>
<filter id="filter3_d" x="153" y="60" width="16" height="21" filterUnits="userSpaceOnUse" color-interpolation-filters="sRGB">
<feFlood flood-opacity="0" result="BackgroundImageFix"/>
<feColorMatrix in="SourceAlpha" type="matrix" values="0 0 0 0 0 0 0 0 0 0 0 0 0 0 0 0 0 0 127 0" result="hardAlpha"/>
<feOffset/>
<feGaussianBlur stdDeviation="1"/>
<feComposite in2="hardAlpha" operator="out"/>
<feColorMatrix type="matrix" values="0 0 0 0 0 0 0 0 0 0 0 0 0 0 0 0 0 0 0.5 0"/>
<feBlend mode="normal" in2="BackgroundImageFix" result="effect1_dropShadow"/>
<feBlend mode="normal" in="SourceGraphic" in2="effect1_dropShadow" result="shape"/>
</filter>
<filter id="filter4_d" x="154" y="78" width="14" height="8" filterUnits="userSpaceOnUse" color-interpolation-filters="sRGB">
<feFlood flood-opacity="0" result="BackgroundImageFix"/>
<feColorMatrix in="SourceAlpha" type="matrix" values="0 0 0 0 0 0 0 0 0 0 0 0 0 0 0 0 0 0 127 0" result="hardAlpha"/>
<feOffset/>
<feGaussianBlur stdDeviation="1"/>
<feComposite in2="hardAlpha" operator="out"/>
<feColorMatrix type="matrix" values="0 0 0 0 0 0 0 0 0 0 0 0 0 0 0 0 0 0 0.5 0"/>
<feBlend mode="normal" in2="BackgroundImageFix" result="effect1_dropShadow"/>
<feBlend mode="normal" in="SourceGraphic" in2="effect1_dropShadow" result="shape"/>
</filter>
<filter id="filter5_d" x="0.609375" y="105.834" width="66.8867" height="9.30603" filterUnits="userSpaceOnUse" color-interpolation-filters="sRGB">
<feFlood flood-opacity="0" result="BackgroundImageFix"/>
<feColorMatrix in="SourceAlpha" type="matrix" values="0 0 0 0 0 0 0 0 0 0 0 0 0 0 0 0 0 0 127 0" result="hardAlpha"/>
<feOffset/>
<feGaussianBlur stdDeviation="1"/>
<feComposite in2="hardAlpha" operator="out"/>
<feColorMatrix type="matrix" values="0 0 0 0 0 0 0 0 0 0 0 0 0 0 0 0 0 0 0.4 0"/>
<feBlend mode="normal" in2="BackgroundImageFix" result="effect1_dropShadow"/>
<feBlend mode="normal" in="SourceGraphic" in2="effect1_dropShadow" result="shape"/>
</filter>
<filter id="filter6_d" x="14.6914" y="92.6" width="39.3711" height="11.4901" filterUnits="userSpaceOnUse" color-interpolation-filters="sRGB">
<feFlood flood-opacity="0" result="BackgroundImageFix"/>
<feColorMatrix in="SourceAlpha" type="matrix" values="0 0 0 0 0 0 0 0 0 0 0 0 0 0 0 0 0 0 127 0" result="hardAlpha"/>
<feOffset/>
<feGaussianBlur stdDeviation="1"/>
<feComposite in2="hardAlpha" operator="out"/>
<feColorMatrix type="matrix" values="0 0 0 0 0 0 0 0 0 0 0 0 0 0 0 0 0 0 0.45 0"/>
<feBlend mode="normal" in2="BackgroundImageFix" result="effect1_dropShadow"/>
<feBlend mode="normal" in="SourceGraphic" in2="effect1_dropShadow" result="shape"/>
</filter>
<filter id="filter7_d" x="52.3984" y="41.673" width="95.3633" height="9.46704" filterUnits="userSpaceOnUse" color-interpolation-filters="sRGB">
<feFlood flood-opacity="0" result="BackgroundImageFix"/>
<feColorMatrix in="SourceAlpha" type="matrix" values="0 0 0 0 0 0 0 0 0 0 0 0 0 0 0 0 0 0 127 0" result="hardAlpha"/>
<feOffset/>
<feGaussianBlur stdDeviation="1"/>
<feComposite in2="hardAlpha" operator="out"/>
<feColorMatrix type="matrix" values="0 0 0 0 0 0 0 0 0 0 0 0 0 0 0 0 0 0 0.4 0"/>
<feBlend mode="normal" in2="BackgroundImageFix" result="effect1_dropShadow"/>
<feBlend mode="normal" in="SourceGraphic" in2="effect1_dropShadow" result="shape"/>
</filter>
<filter id="filter8_d" x="62.2188" y="28.16" width="75.0234" height="14.48" filterUnits="userSpaceOnUse" color-interpolation-filters="sRGB">
<feFlood flood-opacity="0" result="BackgroundImageFix"/>
<feColorMatrix in="SourceAlpha" type="matrix" values="0 0 0 0 0 0 0 0 0 0 0 0 0 0 0 0 0 0 127 0" result="hardAlpha"/>
<feOffset/>
<feGaussianBlur stdDeviation="1"/>
<feComposite in2="hardAlpha" operator="out"/>
<feColorMatrix type="matrix" values="0 0 0 0 0 0 0 0 0 0 0 0 0 0 0 0 0 0 0.45 0"/>
<feBlend mode="normal" in2="BackgroundImageFix" result="effect1_dropShadow"/>
<feBlend mode="normal" in="SourceGraphic" in2="effect1_dropShadow" result="shape"/>
</filter>
<filter id="filter9_d" x="154.238" y="103.121" width="14.0039" height="10.6851" filterUnits="userSpaceOnUse" color-interpolation-filters="sRGB">
<feFlood flood-opacity="0" result="BackgroundImageFix"/>
<feColorMatrix in="SourceAlpha" type="matrix" values="0 0 0 0 0 0 0 0 0 0 0 0 0 0 0 0 0 0 127 0" result="hardAlpha"/>
<feOffset/>
<feGaussianBlur stdDeviation="1"/>
<feComposite in2="hardAlpha" operator="out"/>
<feColorMatrix type="matrix" values="0 0 0 0 0 0 0 0 0 0 0 0 0 0 0 0 0 0 0.4 0"/>
<feBlend mode="normal" in2="BackgroundImageFix" result="effect1_dropShadow"/>
<feBlend mode="normal" in="SourceGraphic" in2="effect1_dropShadow" result="shape"/>
</filter>
<filter id="filter10_d" x="140.262" y="89.6" width="41.2734" height="11.4901" filterUnits="userSpaceOnUse" color-interpolation-filters="sRGB">
<feFlood flood-opacity="0" result="BackgroundImageFix"/>
<feColorMatrix in="SourceAlpha" type="matrix" values="0 0 0 0 0 0 0 0 0 0 0 0 0 0 0 0 0 0 127 0" result="hardAlpha"/>
<feOffset/>
<feGaussianBlur stdDeviation="1"/>
<feComposite in2="hardAlpha" operator="out"/>
<feColorMatrix type="matrix" values="0 0 0 0 0 0 0 0 0 0 0 0 0 0 0 0 0 0 0.45 0"/>
<feBlend mode="normal" in2="BackgroundImageFix" result="effect1_dropShadow"/>
<feBlend mode="normal" in="SourceGraphic" in2="effect1_dropShadow" result="shape"/>
</filter>
<linearGradient id="paint0_linear" x1="172.12" y1="255.69" x2="215.792" y2="172.395" gradientUnits="userSpaceOnUse">
<stop stop-color="#02332E"/>
<stop offset="0.1" stop-color="#074137"/>
<stop offset="1" stop-color="#34B77F"/>
</linearGradient>
<linearGradient id="paint1_linear" x1="131.546" y1="264.554" x2="89.8884" y2="162.561" gradientUnits="userSpaceOnUse">
<stop stop-color="#0D160E"/>
<stop offset="1" stop-color="#03887F"/>
</linearGradient>
<linearGradient id="paint2_linear" x1="198944" y1="263370" x2="204233" y2="245625" gradientUnits="userSpaceOnUse">
<stop stop-color="#02332E"/>
<stop offset="0.1" stop-color="#074137"/>
<stop offset="1" stop-color="#34B77F"/>
</linearGradient>
<linearGradient id="paint3_linear" x1="178069" y1="239365" x2="187704" y2="225973" gradientUnits="userSpaceOnUse">
<stop stop-color="#02332E"/>
<stop offset="0.1" stop-color="#074137"/>
<stop offset="1" stop-color="#34B77F"/>
</linearGradient>
<linearGradient id="paint4_linear" x1="250275" y1="195378" x2="259490" y2="189741" gradientUnits="userSpaceOnUse">
<stop stop-color="#02332E"/>
<stop offset="0.1" stop-color="#074137"/>
<stop offset="1" stop-color="#34B77F"/>
</linearGradient>
<linearGradient id="paint5_linear" x1="286404" y1="317622" x2="297796" y2="309340" gradientUnits="userSpaceOnUse">
<stop stop-color="#009B9B"/>
<stop offset="0.06" stop-color="#089D96"/>
<stop offset="1" stop-color="#7EC24C"/>
</linearGradient>
<linearGradient id="paint6_linear" x1="92.5213" y1="277.478" x2="82.7261" y2="170.516" gradientUnits="userSpaceOnUse">
<stop stop-color="#009B9B"/>
<stop offset="1" stop-color="#6CC9CB"/>
</linearGradient>
<linearGradient id="paint7_linear" x1="1.79949" y1="170.924" x2="154.513" y2="170.924" gradientUnits="userSpaceOnUse">
<stop stop-color="#E3E7EF"/>
<stop offset="1" stop-color="#FAFBFD"/>
</linearGradient>
<linearGradient id="paint8_linear" x1="47.6469" y1="192.923" x2="86.8681" y2="192.923" gradientUnits="userSpaceOnUse">
<stop stop-color="#311944"/>
<stop offset="1" stop-color="#035575"/>
</linearGradient>
<linearGradient id="paint9_linear" x1="144557" y1="30020.7" x2="146934" y2="30632.5" gradientUnits="userSpaceOnUse">
<stop stop-color="#009B9B"/>
<stop offset="0.06" stop-color="#089D96"/>
<stop offset="1" stop-color="#7EC24C"/>
</linearGradient>
<linearGradient id="paint10_linear" x1="40.7597" y1="164.502" x2="34.147" y2="171.645" gradientUnits="userSpaceOnUse">
<stop stop-color="#FFC444"/>
<stop offset="1" stop-color="#F36F56"/>
</linearGradient>
<linearGradient id="paint11_linear" x1="24477.9" y1="9097.37" x2="24274.9" y2="9218" gradientUnits="userSpaceOnUse">
<stop stop-color="#FFC444"/>
<stop offset="1" stop-color="#F36F56"/>
</linearGradient>
<linearGradient id="paint12_linear" x1="137462" y1="22480.8" x2="139908" y2="27097.3" gradientUnits="userSpaceOnUse">
<stop stop-color="#009B9B"/>
<stop offset="0.06" stop-color="#089D96"/>
<stop offset="1" stop-color="#7EC24C"/>
</linearGradient>
<linearGradient id="paint13_linear" x1="22770.5" y1="10316.7" x2="22770.5" y2="10113.3" gradientUnits="userSpaceOnUse">
<stop stop-color="#FFC444"/>
<stop offset="1" stop-color="#F36F56"/>
</linearGradient>
<linearGradient id="paint14_linear" x1="21361" y1="17134.7" x2="21361" y2="16724.8" gradientUnits="userSpaceOnUse">
<stop stop-color="#FFC444"/>
<stop offset="1" stop-color="#F36F56"/>
</linearGradient>
<linearGradient id="paint15_linear" x1="156760" y1="-139.02" x2="163158" y2="6280.74" gradientUnits="userSpaceOnUse">
<stop stop-color="#009B9B"/>
<stop offset="0.06" stop-color="#089D96"/>
<stop offset="1" stop-color="#7EC24C"/>
</linearGradient>
<linearGradient id="paint16_linear" x1="79.125" y1="281.46" x2="122.323" y2="281.46" gradientUnits="userSpaceOnUse">
<stop stop-color="#311944"/>
<stop offset="1" stop-color="#893976"/>
</linearGradient>
<linearGradient id="paint17_linear" x1="159860" y1="85127.8" x2="163591" y2="85127.8" gradientUnits="userSpaceOnUse">
<stop stop-color="#311944"/>
<stop offset="1" stop-color="#035575"/>
</linearGradient>
<linearGradient id="paint18_linear" x1="79.126" y1="279.544" x2="122.324" y2="279.544" gradientUnits="userSpaceOnUse">
<stop stop-color="#311944"/>
<stop offset="1" stop-color="#07495E"/>
</linearGradient>
<linearGradient id="paint19_linear" x1="27203.5" y1="9551.1" x2="27306.5" y2="9551.1" gradientUnits="userSpaceOnUse">
<stop stop-color="#311944"/>
<stop offset="1" stop-color="#035575"/>
</linearGradient>
<linearGradient id="paint20_linear" x1="30269.6" y1="10495" x2="30402.3" y2="10495" gradientUnits="userSpaceOnUse">
<stop stop-color="#311944"/>
<stop offset="1" stop-color="#035575"/>
</linearGradient>
<linearGradient id="paint21_linear" x1="154736" y1="45680.8" x2="161577" y2="53243.7" gradientUnits="userSpaceOnUse">
<stop stop-color="#009B9B"/>
<stop offset="0.06" stop-color="#089D96"/>
<stop offset="1" stop-color="#7EC24C"/>
</linearGradient>
<linearGradient id="paint22_linear" x1="45.253" y1="162.666" x2="104.633" y2="257.045" gradientUnits="userSpaceOnUse">
<stop stop-color="#FF9085"/>
<stop offset="1" stop-color="#FB6FBB"/>
</linearGradient>
<linearGradient id="paint23_linear" x1="62739.6" y1="18156.2" x2="62098.2" y2="18898.2" gradientUnits="userSpaceOnUse">
<stop stop-color="#FFC444"/>
<stop offset="1" stop-color="#FFC445"/>
</linearGradient>
<linearGradient id="paint24_linear" x1="69903" y1="17345.2" x2="70598.9" y2="17345.2" gradientUnits="userSpaceOnUse">
<stop stop-color="#311944"/>
<stop offset="1" stop-color="#035575"/>
</linearGradient>
<linearGradient id="paint25_linear" x1="11556.2" y1="1126.69" x2="11509.3" y2="1276.89" gradientUnits="userSpaceOnUse">
<stop stop-color="#FFC444"/>
<stop offset="1" stop-color="#F36F56"/>
</linearGradient>
<linearGradient id="paint26_linear" x1="75090.6" y1="5621.01" x2="75160" y2="5938.57" gradientUnits="userSpaceOnUse">
<stop stop-color="#311944"/>
<stop offset="1" stop-color="#035575"/>
</linearGradient>
</defs>
</svg>
