<svg width="471" height="471" viewBox="0 0 471 471" fill="none" xmlns="http://www.w3.org/2000/svg">
<g opacity="0.8">
<path opacity="0.8" d="M341.488 330C341.428 329.83 341.388 329.66 341.338 329.48C341.078 328.65 340.818 327.8 340.578 326.95C335.578 309.75 332.978 288.85 336.288 260.7L350.568 259.52L338.378 245.11C338.378 245.11 342.198 236.75 347.978 225.11C348.168 224.74 348.358 224.37 348.528 224C349.748 221.56 351.038 219.02 352.398 216.38C353.064 215.047 353.778 213.67 354.538 212.25C361.598 198.75 370.038 183.7 377.908 172.53L378.318 171.94L379.058 170.94C380.808 168.44 382.338 166.24 383.678 164.28C383.958 163.9 384.228 163.51 384.478 163.15C391.608 152.78 392.998 150.15 393.108 149.57L410.998 154.5L400.778 142.75C413.709 132.312 427.231 122.63 441.278 113.75C444.198 119.98 459.278 154.55 445.648 195.04L431.878 195.75L441.818 202.13C441.818 202.13 439.818 206.62 436.468 213.48C435.778 214.88 435.028 216.39 434.208 217.98C427.718 230.75 417.668 248.84 406.448 262.92C405.768 263.79 405.038 264.68 404.288 265.59L401.878 268.45C380.658 293.28 341.488 330 341.488 330Z" fill="url(#paint0_linear_442:9)"/>
<path opacity="0.52" d="M322.259 357.66C328.399 347.453 334.505 337.23 340.579 326.99C357.752 298.016 374.609 268.853 391.149 239.5C392.679 236.8 394.149 234.1 395.679 231.41C387.409 230.09 379.279 227.74 370.919 226.75C363.306 225.821 355.648 225.3 347.979 225.19C348.169 224.82 348.359 224.45 348.529 224.08C356.039 223.445 363.589 223.445 371.099 224.08C379.599 224.87 388.929 225.83 397.039 228.96L397.689 227.81C390.383 223.996 382.63 221.11 374.609 219.22C369.645 218.099 364.61 217.321 359.539 216.89C357.229 216.7 354.619 217.03 352.399 216.44C353.066 215.106 353.779 213.73 354.539 212.31C356.699 212.14 359.009 212.4 360.849 212.41C366.496 212.407 372.135 212.862 377.709 213.77C386.139 215.23 393.959 217.85 400.309 223.07C404.919 214.67 409.409 206.22 413.649 197.68C407.879 192.97 402.489 187.75 396.529 183.29C390.821 178.972 384.725 175.192 378.319 172L379.059 171C392.219 176.51 404.719 185.5 414.669 195.68C414.729 195.58 414.769 195.48 414.819 195.39C405.199 184.24 395.819 172.68 383.679 164.39C383.959 164.01 384.229 163.62 384.479 163.26C396.889 170.59 407.679 181.86 415.779 193.48C427.169 170.01 436.479 145.76 440.929 119.48C440.929 119.37 441.129 119.38 441.119 119.48C438.479 154.23 408.579 211.74 405.119 217.92C415.425 215.65 425.894 214.195 436.429 213.57C435.739 214.97 434.989 216.48 434.169 218.07C424.459 218.37 414.769 218.93 404.969 220.07C404.811 220.094 404.65 220.081 404.499 220.03C404.347 219.98 404.21 219.894 404.099 219.78C403.259 221.28 395.589 234.86 394.709 236.41C389.249 246.096 383.802 255.803 378.369 265.53C385.509 263.6 393.949 264.3 401.079 265.24C402.129 265.38 403.199 265.53 404.249 265.7L401.839 268.56C401.199 268.45 400.569 268.35 399.929 268.26C392.359 267.18 384.829 268.02 377.319 267.41C365.589 288.28 353.729 309.13 341.319 329.6C335.439 339.3 329.416 348.903 323.249 358.41C323.149 358.541 323.002 358.627 322.839 358.65C322.676 358.672 322.51 358.629 322.379 358.53C322.248 358.43 322.161 358.283 322.139 358.12C322.116 357.956 322.159 357.791 322.259 357.66V357.66Z" fill="#004D39"/>
<path opacity="0.8" d="M237.46 311.7C230.113 287.807 228.797 262.466 233.63 237.94C235.2 230.05 237.46 222.15 241.77 215.36C246.08 208.57 252.7 202.92 260.56 201.2C268.42 199.48 277.47 202.3 281.87 209.05C283.87 197.56 285.92 185.8 291.68 175.66C297.44 165.52 307.74 157.15 319.4 156.98C331.06 156.81 342.75 167.32 341.04 178.85C342.79 169.95 349.55 161.78 358.44 159.98C368.79 157.89 379.55 164.98 383.8 174.67C388.05 184.36 386.73 195.72 382.63 205.46C378.53 215.2 371.89 223.6 365.33 231.87C371.81 224.77 383.93 224.76 391.56 230.61C399.19 236.46 402.46 246.82 401.44 256.38C400.42 265.94 395.66 274.75 389.72 282.31C375.476 300.267 354.833 312.012 332.12 315.08C332.12 315.08 238.91 311.5 237.46 311.7Z" fill="url(#paint1_linear_442:9)"/>
<path opacity="0.52" d="M228.459 322.85C256.459 301.85 282.459 279.23 305.819 254.18C298.899 231.64 300.199 208.34 301.719 185.04C301.732 184.976 301.766 184.918 301.816 184.877C301.866 184.835 301.929 184.813 301.994 184.813C302.059 184.813 302.122 184.835 302.173 184.877C302.223 184.918 302.257 184.976 302.269 185.04C301.619 207.69 301.599 230.24 307.599 252.23C329.841 228.281 349.397 201.971 365.919 173.77C365.995 173.644 366.117 173.553 366.26 173.518C366.402 173.482 366.553 173.504 366.679 173.58C366.805 173.656 366.896 173.778 366.932 173.921C366.967 174.063 366.945 174.214 366.869 174.34C360.579 185.53 353.759 196.53 346.519 207.34C350.269 206.26 354.189 205.76 357.929 204.49C362.606 202.897 367.148 200.931 371.509 198.61C371.614 198.55 371.738 198.535 371.855 198.567C371.971 198.598 372.07 198.675 372.129 198.78C372.189 198.885 372.205 199.009 372.173 199.125C372.141 199.241 372.064 199.34 371.959 199.4C368.337 202.123 364.382 204.371 360.189 206.09C357.989 206.959 355.742 207.707 353.459 208.33C351.259 208.93 347.759 208.97 345.979 210.41C345.88 210.497 345.763 210.562 345.637 210.6C345.51 210.639 345.377 210.649 345.246 210.631C345.115 210.613 344.989 210.567 344.878 210.496C344.766 210.425 344.671 210.331 344.599 210.22C330.044 231.646 313.681 251.786 295.689 270.42C322.799 272.11 351.629 269.85 375.159 255.56C375.529 255.34 375.869 255.84 375.599 256.14C366.179 266.39 351.539 269.62 338.289 271.8C323.579 274.22 308.289 275.24 293.489 272.65C274.206 292.387 252.795 309.927 229.649 324.95C228.329 325.77 227.259 323.74 228.459 322.85Z" fill="#003F55"/>
<path opacity="0.8" d="M237.43 281.78C259.029 283.977 280.679 278.134 298.24 265.37C301.83 262.74 305.31 259.71 307.24 255.72C309.17 251.73 309.31 246.55 306.49 243.11C304.1 240.19 300.08 239.03 296.31 239.22C292.54 239.41 288.95 240.74 285.43 242.07C296.166 237.275 306.01 230.691 314.54 222.6C318.47 218.87 322.38 213.49 320.3 208.49C318.84 204.97 314.74 203.14 310.92 203.19C307.1 203.24 303.5 204.79 300 206.3C310.339 199.051 319.744 190.553 328 181C330.92 177.62 333.85 173.64 333.54 169.18C333.23 164.72 328.72 157.75 315.48 168.51C323.735 154.547 330.832 139.931 336.7 124.81C339.23 118.29 340.92 109.53 335.23 105.47C329.54 101.41 321.71 105.94 316.72 110.86C306.87 120.59 294.25 142.7 289.32 155.64C289.74 147.57 289.99 122.2 277.78 122.82C260.04 123.7 257.84 155.52 256.83 180.18C254.95 172.04 252.91 163.58 247.57 157.18C242.23 150.78 232.57 147.12 225.27 151.28C219.04 154.85 216.72 162.62 215.71 169.73C213.406 186.178 215.245 202.942 221.06 218.5C217.97 214.05 214.74 209.5 210.06 206.71C205.38 203.92 198.58 203.27 194.94 207.28C172.51 232 232.8 283.31 237.43 281.78Z" fill="url(#paint2_linear_442:9)"/>
<path opacity="0.8" d="M303.408 219.32C288.928 226.26 273.798 231.99 259.328 238.93C265.328 228.363 271.268 217.77 277.148 207.15C290.988 199.15 303.858 189.15 316.568 179.48C317.098 179.07 316.568 178.2 316.008 178.6C303.888 187.3 291.188 195.18 279.008 203.78C295.768 173.62 312.348 143.36 329.448 113.42C329.618 113.13 329.158 112.9 328.988 113.18C311.908 141.74 294.668 170.33 277.988 199.18C278.048 183.34 275.988 167.38 275.988 151.5C275.988 151.25 275.608 151.28 275.598 151.5C274.838 167.86 273.688 185.31 276.598 201.5C269.545 213.726 262.611 226.013 255.798 238.36C249.238 221.97 240.578 207.56 238.608 189.49C238.594 189.413 238.554 189.344 238.495 189.294C238.436 189.244 238.36 189.217 238.283 189.217C238.205 189.217 238.13 189.244 238.071 189.294C238.011 189.344 237.971 189.413 237.958 189.49C239.487 207.413 245.319 224.702 254.958 239.89C248.291 252.083 241.768 264.35 235.388 276.69C235.308 276.902 235.308 277.136 235.39 277.347C235.472 277.559 235.629 277.733 235.831 277.836C236.033 277.938 236.266 277.963 236.485 277.905C236.704 277.846 236.894 277.709 237.018 277.52C244.145 265.426 251.168 253.266 258.088 241.04C273.938 236.23 289.408 227.77 303.558 219.43C303.698 219.45 303.558 219.25 303.408 219.32Z" fill="#00706D"/>
<path opacity="0.8" d="M182.138 343.72C176.848 325.41 175.478 305.43 181.818 287.45C192.648 256.74 223.148 237.82 252.818 224.38C261.068 220.64 270.248 217.07 278.958 219.55C288.038 222.13 294.088 230.61 298.378 239.02C310.361 262.465 314.323 289.193 309.658 315.106C304.992 341.019 291.956 364.687 272.548 382.48C263.758 390.54 253.548 397.4 241.948 400.34C230.348 403.28 212.848 402.08 204.118 392.83C193.348 381.46 186.398 358.48 182.138 343.72Z" fill="url(#paint3_linear_442:9)"/>
<path opacity="0.52" d="M209.428 398.61C211.248 399.017 213.068 399.453 214.888 399.92C215.499 387.909 217.277 375.986 220.198 364.32C234.538 354.32 254.978 350.97 271.328 347.14C271.521 347.086 271.688 346.964 271.797 346.797C271.906 346.629 271.95 346.427 271.92 346.229C271.891 346.031 271.79 345.85 271.637 345.722C271.483 345.593 271.288 345.525 271.088 345.53C260.613 346.633 250.323 349.073 240.468 352.79C233.698 355.22 226.698 357.79 220.798 361.9C221.298 359.98 221.798 358.07 222.378 356.16C240.378 343.82 261.208 339.21 281.898 332.83C282.086 332.769 282.243 332.638 282.335 332.464C282.428 332.29 282.449 332.086 282.395 331.897C282.34 331.707 282.214 331.546 282.043 331.448C281.872 331.349 281.669 331.321 281.478 331.37C260.828 335.15 239.608 341.57 222.858 354.57C225.196 346.789 227.946 339.138 231.098 331.65C235.858 320.32 241.098 309.17 246.718 298.17C258.99 294.508 271.722 292.619 284.528 292.56C284.57 292.55 284.607 292.527 284.634 292.493C284.66 292.459 284.675 292.418 284.675 292.375C284.675 292.332 284.66 292.29 284.634 292.257C284.607 292.223 284.57 292.2 284.528 292.19C273.288 289.76 258.708 291.66 247.758 296.03C249.431 292.783 251.125 289.54 252.838 286.3C258.648 283.92 263.898 281.39 270.218 280.54C276.372 279.837 282.564 279.503 288.758 279.54C289.588 279.54 289.528 278.35 288.758 278.28C278.058 277.4 263.878 276.28 254.588 283.12C258.588 275.7 262.728 268.35 266.908 261.04C267.002 260.951 267.068 260.836 267.098 260.71C272.978 250.45 278.968 240.27 284.958 230.18C285.298 229.62 284.418 229.18 284.068 229.7C279.588 236.6 275.128 243.56 270.688 250.58C270.938 243.73 269.828 236.58 268.628 229.98C268.578 229.7 268.098 229.77 268.128 230.05C269.128 237.81 268.798 245.4 269.058 253.15L267.648 255.36C268.018 246.58 265.848 238.01 263.538 229.45C263.523 229.426 263.501 229.408 263.474 229.398C263.448 229.388 263.419 229.386 263.392 229.394C263.364 229.402 263.341 229.419 263.324 229.441C263.307 229.464 263.298 229.492 263.298 229.52C265.298 239.01 266.918 248.52 265.888 258.18C255.518 274.85 245.588 291.9 236.888 309.44C230.428 292.86 223.328 277.17 219.268 259.66C219.198 259.34 218.728 259.49 218.788 259.8C222.068 277.25 226.698 296 235.948 311.39C233.848 315.65 231.828 319.94 229.888 324.26C221.888 306.44 213.958 289.26 208.548 270.26C208.517 270.187 208.461 270.129 208.39 270.095C208.319 270.061 208.238 270.055 208.163 270.077C208.087 270.099 208.022 270.149 207.981 270.216C207.94 270.283 207.924 270.362 207.938 270.44C211.878 289.52 218.348 309.98 228.828 326.67C227.228 330.3 225.678 333.95 224.208 337.67C219.269 349.838 215.385 362.407 212.598 375.24C209.328 367.24 205.218 359.51 202.288 351.32C198.772 341.472 196.135 331.333 194.408 321.02C194.408 320.81 194.008 320.86 194.028 321.02C196.078 340.02 200.348 363.1 211.828 379.13C210.617 385.566 209.815 392.072 209.428 398.61V398.61Z" fill="#003F55"/>
<path opacity="0.8" d="M470.671 277.75C424.301 261.39 295.101 248.19 245.051 359.75C245.051 359.75 305.151 390.36 369.801 353.45C413.071 328.71 455.561 295.25 470.671 277.75Z" fill="url(#paint4_linear_442:9)"/>
<path opacity="0.66" d="M220.34 387.46C238.9 367.59 259.88 352.38 282.83 339.91C282.875 339.949 282.926 339.983 282.98 340.01C301.46 348.01 318.33 358.2 335.62 368.37C335.657 368.39 335.7 368.396 335.741 368.386C335.782 368.376 335.818 368.351 335.841 368.316C335.865 368.281 335.875 368.239 335.869 368.197C335.863 368.155 335.842 368.117 335.81 368.09C321.25 355.28 304.08 345.85 286.43 337.95C286.8 337.76 287.15 337.55 287.52 337.36C297.12 341.89 306.97 345.79 316.38 350.79C325.29 355.54 333.44 361.49 342.25 366.34C342.63 366.54 343.17 366.07 342.8 365.72C329.1 352.8 309.24 341.67 290.8 335.66C301.36 330.32 312.3 325.47 323.61 321.01C324.95 320.48 326.31 320.01 327.61 319.45C347.61 326.93 366.61 336.15 386.06 344.68C386.49 344.87 386.81 344.2 386.43 343.95C369.79 332.75 350.78 324.55 331.87 317.81C334.39 316.81 336.87 315.81 339.41 314.9C358.47 322.58 377.78 329.31 396.57 337.73C396.68 337.73 396.77 337.6 396.67 337.54C379.21 328.47 360.96 319.73 342.08 313.92C346.94 312.113 351.816 310.35 356.71 308.63C356.91 308.682 357.121 308.674 357.317 308.606C357.513 308.539 357.684 308.415 357.81 308.25C386.97 298 416.71 289.39 447.12 283.81C447.54 283.74 447.41 283.1 446.99 283.16C421.707 287.199 396.747 293.044 372.3 300.65C379.92 292.31 385.09 279.65 386.94 269.09C386.94 268.8 386.56 268.76 386.45 269C383.67 275.1 381.08 281.39 377.78 287.23C374.89 292.34 371.04 296.82 368.21 301.92C365.5 302.77 362.81 303.66 360.11 304.54C367.6 292.48 375.71 281.21 379.58 267.27C379.58 267.249 379.571 267.228 379.556 267.213C379.541 267.198 379.521 267.19 379.5 267.19C379.478 267.19 379.458 267.198 379.443 267.213C379.428 267.228 379.42 267.249 379.42 267.27C373.98 281.27 364.54 293.16 356.53 305.75C344.39 309.797 332.34 314.15 320.38 318.81C312.666 321.79 305.103 324.957 297.69 328.31C299.89 322.81 300.2 316.63 301.63 310.86C303.388 304.268 305.508 297.779 307.98 291.42C308.074 291.106 308.066 290.771 307.956 290.462C307.846 290.154 307.64 289.889 307.367 289.706C307.095 289.524 306.772 289.433 306.445 289.448C306.118 289.463 305.804 289.583 305.55 289.79C301.01 293.94 298.55 301.97 297 307.69C295.15 314.54 292.91 322.69 294.12 329.69C294.138 329.76 294.164 329.827 294.2 329.89C265.37 343.36 239.2 360.45 218.04 385.51C217.05 386.78 219.19 388.7 220.34 387.46Z" fill="#047B53"/>
<path opacity="0.8" d="M197.869 380C183.869 341.54 153.469 295.58 132.249 254.13C104.609 200.13 119.649 147.54 152.109 141.72C184.569 135.9 220.459 175.2 220.999 228.4C221.699 296.79 197.869 380 197.869 380Z" fill="url(#paint5_linear_442:9)"/>
<path opacity="0.8" d="M198.079 391.49C191.599 318.49 179.799 245.72 167.399 173.74C167.299 173.16 166.449 173.42 166.529 173.99C176.839 246.71 187.529 319.33 193.979 392.3C195.339 392 196.709 391.75 198.079 391.49Z" fill="#008280"/>
</g>
<path d="M266.999 215.07L74.4194 205C69.0594 204.72 65.6594 200.34 66.8394 195.21L98.9994 55.18C99.6677 52.6756 101.199 50.4877 103.323 49.0021C105.447 47.5165 108.028 46.8287 110.609 47.06L299.329 66.88C303.919 67.36 306.809 71.5601 305.779 76.2701L277.309 206.86C276.279 211.64 271.649 215.32 266.999 215.07Z" fill="#D8DEE8"/>
<path d="M269.368 215.7L76.998 205.61C71.648 205.33 68.248 201.01 69.418 195.96L101.418 57.96C102.091 55.473 103.624 53.3049 105.744 51.8404C107.864 50.376 110.434 49.7097 112.998 49.96L301.518 69.66C302.599 69.754 303.646 70.085 304.585 70.6293C305.523 71.1737 306.331 71.9181 306.949 72.8096C307.568 73.7012 307.983 74.718 308.164 75.7879C308.345 76.8578 308.288 77.9545 307.998 79L279.698 207.62C279.154 209.942 277.833 212.008 275.955 213.478C274.076 214.947 271.753 215.731 269.368 215.7V215.7Z" fill="url(#paint6_linear_442:9)"/>
<path d="M288.661 167.26L79.4807 152.62L78.5508 156.63L287.841 171L288.661 167.26Z" fill="white"/>
<path d="M229.92 62.24L207 164.31L210.9 164.58L233.78 62.64L229.92 62.24Z" fill="white"/>
<path d="M176 183.14L100.36 178.46C100.28 178.459 100.202 178.441 100.131 178.405C100.06 178.37 99.9979 178.32 99.949 178.257C99.9001 178.195 99.8657 178.122 99.8485 178.045C99.8314 177.968 99.8317 177.887 99.8497 177.81L101.41 171.06C101.457 170.89 101.561 170.74 101.705 170.637C101.848 170.533 102.023 170.481 102.2 170.49L177.76 175.36C177.837 175.362 177.912 175.382 177.981 175.417C178.049 175.452 178.108 175.502 178.155 175.564C178.201 175.626 178.232 175.697 178.247 175.772C178.262 175.848 178.259 175.926 178.24 176L176.75 182.58C176.707 182.745 176.609 182.89 176.473 182.992C176.337 183.093 176.17 183.146 176 183.14V183.14Z" fill="url(#paint7_linear_442:9)"/>
<path d="M192.611 199.08L96.9012 193.65C96.8209 193.649 96.7417 193.63 96.6697 193.595C96.5977 193.559 96.5348 193.507 96.4856 193.444C96.4365 193.38 96.4024 193.306 96.3861 193.228C96.3697 193.149 96.3715 193.068 96.3912 192.99L97.9512 186.24C97.9984 186.068 98.102 185.918 98.2454 185.812C98.3888 185.707 98.5634 185.653 98.7412 185.66L194.351 191.34C194.428 191.34 194.503 191.358 194.572 191.392C194.64 191.426 194.7 191.476 194.746 191.537C194.792 191.598 194.824 191.668 194.839 191.743C194.854 191.818 194.851 191.896 194.831 191.97L193.361 198.51C193.318 198.675 193.221 198.822 193.085 198.925C192.949 199.028 192.782 199.083 192.611 199.08V199.08Z" fill="#D8DEE8"/>
<path d="M291.971 103.35L236.551 98.2299L241.441 76.3899L296.701 81.9199L291.971 103.35Z" fill="#D8DEE8"/>
<path d="M280.539 155.16L224.719 151.04L234.459 107.55L289.949 112.5L280.539 155.16Z" fill="#D8DEE8"/>
<path d="M158.28 92.1899C167.28 93.0199 172.88 100.68 170.93 109.29C170.365 111.696 169.291 113.953 167.78 115.91L184.7 126C188.051 121.567 190.435 116.481 191.7 111.07C196.13 91.4699 183.34 73.9299 162.95 71.9099H162.79L158.16 92.1799L158.28 92.1899Z" fill="white"/>
<path d="M167.782 115.91C165.855 118.472 163.322 120.516 160.411 121.86C157.501 123.203 154.302 123.805 151.102 123.61C142.102 122.88 136.292 115.18 138.292 106.47C140.292 97.76 149.162 91.47 158.122 92.19L162.752 71.92C142.122 69.97 121.412 84.57 116.752 104.61C112.092 124.65 125.532 142.43 146.412 143.99C161.332 145.09 176.012 137.64 184.662 125.99L167.782 115.91Z" fill="url(#paint8_linear_442:9)"/>
<g style="mix-blend-mode:multiply" opacity="0.47">
<path d="M83.1609 121C80.5209 123.38 90.081 144.16 107.331 160.46C124.801 177 138.001 177.4 151.621 197.05C158.231 206.54 155.851 207.44 160.991 214.26C181.121 241 234.161 249.08 255.521 228.46C257.761 226.3 262.751 216.75 272.741 197.65C277.066 189.271 280.867 180.631 284.121 171.78C288.511 159.87 290.941 153.15 288.551 151.24C283.661 147.33 266.751 168.61 255.551 163.72C248.451 160.63 252.061 149 242.671 140.72C235.071 134.06 224.721 134.39 222.031 134.48C198.601 135.22 195.961 161.03 174.031 165.89C155.781 169.89 136.451 156.76 108.191 137.5C93.0509 127.27 85.1009 119.29 83.1609 121Z" fill="#D8DEE8"/>
</g>
<path d="M87.0007 129.69L82.1707 124.86C81.0759 123.208 80.3977 121.315 80.1939 119.344C79.9902 117.372 80.267 115.381 81.0007 113.54C83.4107 106.89 86.7407 108.7 86.7407 108.7L85.8307 113.38C85.8307 113.38 85.2307 116.38 88.1007 120.18C89.5589 122.652 90.5742 125.359 91.1007 128.18L87.0007 129.69Z" fill="url(#paint9_linear_442:9)"/>
<path d="M288.142 148.52L293.582 143.59L296.002 134.59C296.002 134.59 302.642 137.21 299.002 145.66C296.682 148.48 291.002 152.66 288.582 156.84C286.162 161.02 288.142 148.52 288.142 148.52Z" fill="url(#paint10_linear_442:9)"/>
<path d="M234.581 208.63C234.581 208.63 260.66 192.52 267 186.78C273.61 180.78 291.001 157.78 292.521 155.07C294.041 152.36 287.84 146.91 287.84 146.91C287.84 146.91 257.54 184.77 219.48 173.59C225.52 187.18 234.581 208.63 234.581 208.63Z" fill="url(#paint11_linear_442:9)"/>
<path d="M238.359 431.07C238.359 431.07 243.139 443.07 241.879 448.44C244.715 448.413 247.543 448.162 250.339 447.69C249.319 445.017 248.493 442.273 247.869 439.48C247.513 436.289 247.346 433.081 247.369 429.87L238.359 431.07Z" fill="url(#paint12_linear_442:9)"/>
<path d="M185.638 459.21C186.169 459.83 186.485 460.605 186.538 461.42C186.559 461.93 186.466 462.439 186.268 462.91C185.458 465.05 184.178 465.33 182.798 467.61C181.948 469 182.108 469.42 181.338 470.05C180.364 470.723 179.188 471.037 178.008 470.94C175.441 470.959 172.876 470.812 170.328 470.5C172.048 468.287 173.875 466.043 175.808 463.77L178.358 460.86L183.358 459.15L185.638 459.21Z" fill="#26264F"/>
<path d="M181.439 434.71C181.439 434.71 178.559 449.71 182.229 453.98C185.359 458.19 180.719 455.19 180.719 455.19L175.179 460.02L171.859 465.76C171.859 465.76 174.919 451.03 174.099 445.18C173.279 439.33 172.879 435.39 172.879 435.39L181.439 434.71Z" fill="url(#paint13_linear_442:9)"/>
<path d="M195.72 173.49C181.72 171.12 161.57 178.23 138.33 165.94C115.47 153.85 101.96 135.94 94.0903 124.56L83.8203 129.64C89.6303 139.64 103.32 161.16 121.46 176.12C144.3 194.96 166.64 196.06 178.81 211.45C184.53 205.77 202.57 174.64 195.72 173.49Z" fill="#019C9C"/>
<path d="M170.57 270.08C170.57 270.08 162.82 277.02 162.82 305.56C162.82 334.1 166.49 396.11 166.49 396.11L172.36 440.49C172.36 440.49 178.45 440.7 182.53 439.49C186.2 422.77 192.18 394.49 189.33 370.83C188.11 345.14 199.52 312.92 199.52 312.92C199.52 312.92 209.31 345.54 216.25 361.86C223.19 378.18 236.38 429.28 237.6 432.95C245.72 433.68 249.18 431.54 249.18 431.54C249.18 431.54 243.98 376.54 239.09 355.74C234.2 334.94 234.6 284.74 226.44 270.5C208.09 263.15 170.57 270.08 170.57 270.08Z" fill="url(#paint14_linear_442:9)"/>
<path d="M170.57 270.08C170.57 270.08 162.82 277.02 162.82 305.56C162.82 334.1 166.49 396.11 166.49 396.11L172.36 440.49C172.36 440.49 178.45 440.7 182.53 439.49C186.2 422.77 192.18 394.49 189.33 370.83C188.11 345.14 199.53 312.92 199.53 312.92C199.53 312.92 209.31 345.54 216.25 361.86C223.19 378.18 236.38 429.28 237.6 432.95C245.72 433.68 249.18 431.54 249.18 431.54C249.18 431.54 243.98 376.54 239.09 355.74C234.2 334.94 234.6 284.74 226.44 270.5C208.09 263.15 170.57 270.08 170.57 270.08Z" fill="url(#paint15_linear_442:9)"/>
<path style="mix-blend-mode:multiply" opacity="0.25" d="M210.818 322.39C213.238 338.1 218.068 346.56 230.148 357.39C239.818 364.64 232.568 380.39 236.148 392.39C237.358 396.02 240.988 399.64 242.148 403.27C246.648 412.27 242.448 423.27 244.488 432.78C246.094 432.63 247.657 432.182 249.098 431.46C249.098 431.46 243.898 376.46 239.008 355.66C234.118 334.86 234.518 284.66 226.358 270.42C208.008 263.08 170.488 270.01 170.488 270.01C170.488 270.01 162.738 276.95 162.738 305.49C162.738 307.81 162.738 310.35 162.808 313.06C170.808 320.18 187.308 321.76 197.448 313.87C198.02 313.434 198.684 313.133 199.388 312.99C199.405 312.939 199.425 312.889 199.448 312.84V312.98C204.188 312.2 209.778 318.2 210.818 322.39Z" fill="url(#paint16_linear_442:9)"/>
<path d="M240.619 453C240.619 453 239.429 453 239.529 454.54C239.629 456.08 238.989 461.37 245.049 461.62C251.109 461.87 252.049 461.19 252.249 461.19C251.806 459.477 251.275 457.788 250.659 456.13L248.719 453.64L243.499 453.1L240.619 453Z" fill="#26264F"/>
<path d="M254.06 458.32C253.759 456.621 253.23 454.969 252.49 453.41C251.42 451 252.3 450.1 251.28 447.91C250.951 447.092 250.461 446.347 249.84 445.72C248.668 444.66 247.14 444.078 245.56 444.09C244.865 444.089 244.179 444.254 243.56 444.57C242.786 445.02 242.158 445.683 241.75 446.48C241.12 447.48 241.26 447.83 240.29 450.81C240.127 451.29 240 451.781 239.91 452.28C239.831 452.717 239.778 453.157 239.75 453.6C241.34 453.6 247.45 453.85 248.75 454.8C249.373 455.287 249.873 455.914 250.21 456.629C250.547 457.345 250.711 458.13 250.69 458.92C250.69 460.51 251.48 461.25 252.28 461.2C252.872 461.012 253.377 460.618 253.703 460.09C254.029 459.561 254.156 458.934 254.06 458.32Z" fill="url(#paint17_linear_442:9)"/>
<path d="M180.67 451.86C182.03 451.86 183.04 452.97 183.79 455.59C184.54 458.21 188.17 460.52 183.94 459.97C179.71 459.42 176.64 465.41 175.13 467.62C173.62 469.83 169.57 471.8 169.67 469.62C169.77 467.44 171.56 466.44 172.06 464.23C172.56 462.02 177.56 451.82 180.67 451.86Z" fill="url(#paint18_linear_442:9)"/>
<path d="M209.409 172.58C202.569 172.38 185.139 170.48 176.989 178.58C168.659 186.91 177.099 196.91 175.599 210.58C174.599 219.89 174.949 225.37 173.179 240.58C172.743 244.207 172.098 247.806 171.249 251.36C168.919 261.27 164.869 280.77 162.699 285.65C169.699 289.23 187.639 295.65 209.059 292.45C217.138 291.239 224.952 288.666 232.169 284.84C226.609 268.02 227.649 244.97 229.699 236.68C233.769 220.29 234.699 213.86 246.159 190.3C249.329 183.81 241.809 187.45 236.999 181.75C229.619 173.1 216.319 172.79 209.409 172.58Z" fill="url(#paint19_linear_442:9)"/>
<path style="mix-blend-mode:multiply" opacity="0.25" d="M189.079 215.47C189.419 212.47 189.989 206.92 187.259 201.13C186.081 198.63 184.443 196.374 182.429 194.48C176.359 188.9 168.519 189.27 159.579 188.63C150.284 187.937 141.081 186.312 132.109 183.78C149.289 194.55 165.289 197.88 175.769 208.1C175.769 208.94 175.689 209.8 175.599 210.67C174.599 219.98 174.949 225.46 173.179 240.67C172.743 244.298 172.099 247.897 171.249 251.45C168.919 261.36 164.869 280.86 162.699 285.74C169.699 289.32 187.639 295.74 209.059 292.54C217.138 291.329 224.952 288.756 232.169 284.93C230.466 279.546 229.326 274 228.769 268.38C217.929 268.406 207.233 265.903 197.529 261.07C190.899 257.71 187.579 256.02 185.599 252.31C181.809 245.19 186.419 238.55 189.079 215.47Z" fill="url(#paint20_linear_442:9)"/>
<path d="M199.459 152.32C200.459 144.67 206.459 139.77 207.809 138.72C213.339 134.33 214.459 133.89 216.359 133.53L218.949 133.14H219.229C221.63 133.62 223.95 134.442 226.119 135.58C228.759 137.44 226.819 150.58 218.809 166.94C218.499 168.33 218.189 169.71 217.869 171.1C224.869 172.32 226.569 173.58 226.629 174.59C226.749 176.76 219.109 179.54 212.029 179.72C203.149 179.95 193.729 176.13 193.909 173.28C193.979 172.12 195.659 170.7 202.099 169.28C203.105 167.866 204.105 166.45 205.099 165.03C204.209 164 198.729 158 199.459 152.32Z" fill="url(#paint21_linear_442:9)"/>
<path d="M216.36 128.15C213.57 130.87 212.89 135.6 213.72 139C214.21 141 214.85 141.26 214.72 142.59C214.47 146.34 207.64 147.97 208.02 149.86C208.29 151.21 211.85 150.72 212.46 152.41C213.13 154.27 209.23 155.86 207.55 160.53C207.29 161.26 205.7 165.68 207.74 168.28C209.64 170.7 213.89 170.13 218.74 169.5C222.251 169.066 225.684 168.144 228.94 166.76C232.44 165.23 236.2 163.57 239.32 159.76C242.516 155.807 244.19 150.841 244.04 145.76C243.57 135.76 235.19 127.2 226.58 125.84C225.16 125.66 219.77 124.81 216.36 128.15Z" fill="url(#paint22_linear_442:9)"/>
<path d="M210.43 149.44C212.43 148.23 213.98 150.82 213.03 153.09C212.08 155.36 208.9 156.77 206.96 155.42C205.02 154.07 207.72 151.06 210.43 149.44Z" fill="url(#paint23_linear_442:9)"/>
<path d="M190.129 172.89L195.039 171.38C195.039 171.38 196.329 178.02 212.109 178.85C217.327 178.855 222.399 177.128 226.529 173.94L230.299 175.68C230.299 175.68 222.519 185.58 210.819 185.34C206.566 185.333 202.395 184.171 198.751 181.978C195.107 179.786 192.127 176.644 190.129 172.89V172.89Z" fill="url(#paint24_linear_442:9)"/>
<path d="M193 4V44L242.5 49.5" stroke="white" stroke-miterlimit="10"/>
<path d="M193 8C195.209 8 197 6.20914 197 4C197 1.79086 195.209 0 193 0C190.791 0 189 1.79086 189 4C189 6.20914 190.791 8 193 8Z" fill="white"/>
<path d="M405.081 76.74L319.411 76.96L309.141 125.7" stroke="white" stroke-miterlimit="10"/>
<path d="M405.078 80.74C407.287 80.74 409.078 78.9491 409.078 76.74C409.078 74.5309 407.287 72.74 405.078 72.74C402.869 72.74 401.078 74.5309 401.078 76.74C401.078 78.9491 402.869 80.74 405.078 80.74Z" fill="white"/>
<path d="M4.14062 62.74L81.8108 62.96L69.5007 113.5" stroke="white" stroke-miterlimit="10"/>
<path d="M4.14062 66.74C6.34976 66.74 8.14062 64.9491 8.14062 62.74C8.14062 60.5309 6.34976 58.74 4.14062 58.74C1.93149 58.74 0.140625 60.5309 0.140625 62.74C0.140625 64.9491 1.93149 66.74 4.14062 66.74Z" fill="white"/>
<defs>
<linearGradient id="paint0_linear_442:9" x1="348.701" y1="302.294" x2="436.018" y2="135.779" gradientUnits="userSpaceOnUse">
<stop stop-color="#02332E"/>
<stop offset="0.1" stop-color="#074137"/>
<stop offset="1" stop-color="#34B77F"/>
</linearGradient>
<linearGradient id="paint1_linear_442:9" x1="-169550" y1="713997" x2="-158977" y2="678521" gradientUnits="userSpaceOnUse">
<stop stop-color="#02332E"/>
<stop offset="0.1" stop-color="#074137"/>
<stop offset="1" stop-color="#34B77F"/>
</linearGradient>
<linearGradient id="paint2_linear_442:9" x1="-140544" y1="671074" x2="-121282" y2="644301" gradientUnits="userSpaceOnUse">
<stop stop-color="#02332E"/>
<stop offset="0.1" stop-color="#074137"/>
<stop offset="1" stop-color="#34B77F"/>
</linearGradient>
<linearGradient id="paint3_linear_442:9" x1="49405.6" y1="138647" x2="67899.8" y2="127350" gradientUnits="userSpaceOnUse">
<stop stop-color="#02332E"/>
<stop offset="0.1" stop-color="#074137"/>
<stop offset="1" stop-color="#34B77F"/>
</linearGradient>
<linearGradient id="paint4_linear_442:9" x1="48302.5" y1="627148" x2="71076.3" y2="610592" gradientUnits="userSpaceOnUse">
<stop stop-color="#009B9B"/>
<stop offset="0.06" stop-color="#089D96"/>
<stop offset="1" stop-color="#7EC24C"/>
</linearGradient>
<linearGradient id="paint5_linear_442:9" x1="191.466" y1="343.568" x2="171.883" y2="129.734" gradientUnits="userSpaceOnUse">
<stop stop-color="#009B9B"/>
<stop offset="1" stop-color="#6CC9CB"/>
</linearGradient>
<linearGradient id="paint6_linear_442:9" x1="8.21797" y1="132.83" x2="313.518" y2="132.83" gradientUnits="userSpaceOnUse">
<stop stop-color="#E3E7EF"/>
<stop offset="1" stop-color="#FAFBFD"/>
</linearGradient>
<linearGradient id="paint7_linear_442:9" x1="99.8797" y1="176.81" x2="178.29" y2="176.81" gradientUnits="userSpaceOnUse">
<stop stop-color="#311944"/>
<stop offset="1" stop-color="#035575"/>
</linearGradient>
<linearGradient id="paint8_linear_442:9" x1="92402.2" y1="68514.1" x2="97152.9" y2="69737.1" gradientUnits="userSpaceOnUse">
<stop stop-color="#009B9B"/>
<stop offset="0.06" stop-color="#089D96"/>
<stop offset="1" stop-color="#7EC24C"/>
</linearGradient>
<linearGradient id="paint9_linear_442:9" x1="86.1207" y1="119.99" x2="72.9007" y2="134.27" gradientUnits="userSpaceOnUse">
<stop stop-color="#FFC444"/>
<stop offset="1" stop-color="#F36F56"/>
</linearGradient>
<linearGradient id="paint10_linear_442:9" x1="13801" y1="17978.3" x2="13395.3" y2="18219.5" gradientUnits="userSpaceOnUse">
<stop stop-color="#FFC444"/>
<stop offset="1" stop-color="#F36F56"/>
</linearGradient>
<linearGradient id="paint11_linear_442:9" x1="72269" y1="44734.1" x2="77159.9" y2="53963.3" gradientUnits="userSpaceOnUse">
<stop stop-color="#009B9B"/>
<stop offset="0.06" stop-color="#089D96"/>
<stop offset="1" stop-color="#7EC24C"/>
</linearGradient>
<linearGradient id="paint12_linear_442:9" x1="12414.3" y1="20416" x2="12414.3" y2="20009.3" gradientUnits="userSpaceOnUse">
<stop stop-color="#FFC444"/>
<stop offset="1" stop-color="#F36F56"/>
</linearGradient>
<linearGradient id="paint13_linear_442:9" x1="11049" y1="34046.4" x2="11049" y2="33227" gradientUnits="userSpaceOnUse">
<stop stop-color="#FFC444"/>
<stop offset="1" stop-color="#F36F56"/>
</linearGradient>
<linearGradient id="paint14_linear_442:9" x1="162.82" y1="353.81" x2="249.18" y2="353.81" gradientUnits="userSpaceOnUse">
<stop stop-color="#311944"/>
<stop offset="1" stop-color="#893976"/>
</linearGradient>
<linearGradient id="paint15_linear_442:9" x1="80893.9" y1="169976" x2="88351.9" y2="169976" gradientUnits="userSpaceOnUse">
<stop stop-color="#311944"/>
<stop offset="1" stop-color="#035575"/>
</linearGradient>
<linearGradient id="paint16_linear_442:9" x1="162.818" y1="349.98" x2="249.178" y2="349.98" gradientUnits="userSpaceOnUse">
<stop stop-color="#311944"/>
<stop offset="1" stop-color="#07495E"/>
</linearGradient>
<linearGradient id="paint17_linear_442:9" x1="14749.4" y1="18885.4" x2="14955.5" y2="18885.4" gradientUnits="userSpaceOnUse">
<stop stop-color="#311944"/>
<stop offset="1" stop-color="#035575"/>
</linearGradient>
<linearGradient id="paint18_linear_442:9" x1="15505.3" y1="20772.5" x2="15770.6" y2="20772.5" gradientUnits="userSpaceOnUse">
<stop stop-color="#311944"/>
<stop offset="1" stop-color="#035575"/>
</linearGradient>
<linearGradient id="paint19_linear_442:9" x1="76575.4" y1="91115" x2="90251" y2="106234" gradientUnits="userSpaceOnUse">
<stop stop-color="#009B9B"/>
<stop offset="0.06" stop-color="#089D96"/>
<stop offset="1" stop-color="#7EC24C"/>
</linearGradient>
<linearGradient id="paint20_linear_442:9" x1="95.0994" y1="116.32" x2="213.809" y2="305" gradientUnits="userSpaceOnUse">
<stop stop-color="#FF9085"/>
<stop offset="1" stop-color="#FB6FBB"/>
</linearGradient>
<linearGradient id="paint21_linear_442:9" x1="33333.5" y1="36088.4" x2="32051.3" y2="37571.9" gradientUnits="userSpaceOnUse">
<stop stop-color="#FFC444"/>
<stop offset="1" stop-color="#F36F56"/>
</linearGradient>
<linearGradient id="paint22_linear_442:9" x1="36747.5" y1="34467.1" x2="38140.4" y2="34467.1" gradientUnits="userSpaceOnUse">
<stop stop-color="#311944"/>
<stop offset="1" stop-color="#035575"/>
</linearGradient>
<linearGradient id="paint23_linear_442:9" x1="3935.56" y1="-101.763" x2="3841.88" y2="198.517" gradientUnits="userSpaceOnUse">
<stop stop-color="#FFC444"/>
<stop offset="1" stop-color="#F36F56"/>
</linearGradient>
<linearGradient id="paint24_linear_442:9" x1="39093.2" y1="11028.5" x2="39232" y2="11663.3" gradientUnits="userSpaceOnUse">
<stop stop-color="#311944"/>
<stop offset="1" stop-color="#035575"/>
</linearGradient>
</defs>
</svg>
