<svg width="203" height="213" viewBox="0 0 203 213" fill="none" xmlns="http://www.w3.org/2000/svg">
<g opacity="0.8">
<path opacity="0.8" d="M137.493 141.551C137.463 141.466 137.443 141.381 137.418 141.291C137.288 140.875 137.158 140.45 137.038 140.025C134.537 131.422 133.236 120.967 134.892 106.886L142.035 106.296L135.938 99.0882C135.938 99.0882 137.848 94.9065 140.74 89.0841C140.835 88.899 140.93 88.7139 141.015 88.5289C141.625 87.3083 142.27 86.0378 142.95 84.7173C143.284 84.0503 143.641 83.3617 144.021 82.6514C147.552 75.8986 151.774 68.3705 155.711 62.7832L155.916 62.4881L156.286 61.9879C157.161 60.7374 157.927 59.6369 158.597 58.6565C158.737 58.4664 158.872 58.2713 158.997 58.0913C162.564 52.9041 163.259 51.5886 163.314 51.2985L172.263 53.7645L167.151 47.887C173.619 42.6661 180.383 37.8227 187.409 33.381C188.869 36.4973 196.413 53.7895 189.595 74.0429L182.707 74.398L187.679 77.5893C187.679 77.5893 186.679 79.8352 185.003 83.2667C184.658 83.967 184.283 84.7223 183.872 85.5176C180.626 91.9052 175.599 100.954 169.987 107.997C169.646 108.432 169.281 108.877 168.906 109.332L167.701 110.763C157.086 123.183 137.493 141.551 137.493 141.551Z" fill="url(#paint0_linear)"/>
<path opacity="0.52" d="M127.872 155.387C130.943 150.282 133.997 145.168 137.035 140.046C145.626 125.553 154.057 110.965 162.331 96.2826C163.096 94.9321 163.831 93.5815 164.597 92.2359C160.46 91.5757 156.393 90.4002 152.212 89.905C148.403 89.4403 144.573 89.1798 140.737 89.1247C140.832 88.9396 140.927 88.7545 141.012 88.5694C144.769 88.2518 148.545 88.2518 152.302 88.5694C156.553 88.9646 161.22 89.4448 165.277 91.0105L165.602 90.4352C161.948 88.5276 158.07 87.0841 154.057 86.1384C151.574 85.5781 149.056 85.1887 146.519 84.973C145.364 84.8779 144.058 85.043 142.948 84.7479C143.281 84.0809 143.638 83.3923 144.018 82.682C145.099 82.597 146.254 82.727 147.175 82.732C150 82.7309 152.82 82.9584 155.608 83.4123C159.825 84.1426 163.736 85.4532 166.913 88.0642C169.219 83.8625 171.465 79.6357 173.585 75.364C170.699 73.008 168.003 70.3969 165.022 68.166C162.167 66.0062 159.117 64.1156 155.913 62.5187L156.283 62.0185C162.866 64.7746 169.119 69.2715 174.096 74.3636C174.126 74.3135 174.146 74.2635 174.171 74.2185C169.359 68.6412 164.667 62.8588 158.594 58.7121C158.734 58.522 158.869 58.3269 158.994 58.1469C165.202 61.8134 170.599 67.4507 174.651 73.2631C180.348 61.5232 185.005 49.3932 187.231 36.2478C187.231 36.1928 187.331 36.1978 187.326 36.2478C186.006 53.63 171.049 82.3969 169.319 85.4882C174.474 84.3526 179.711 83.6251 184.98 83.3123C184.635 84.0126 184.26 84.7679 183.85 85.5632C178.993 85.7133 174.146 85.9934 169.244 86.5636C169.165 86.5759 169.084 86.5691 169.008 86.5439C168.933 86.5187 168.864 86.4757 168.809 86.4186C168.388 87.1689 164.552 93.9617 164.112 94.737C161.38 99.5823 158.656 104.438 155.938 109.303C159.51 108.338 163.731 108.688 167.298 109.158C167.823 109.228 168.358 109.303 168.884 109.388L167.678 110.819C167.358 110.764 167.043 110.714 166.723 110.669C162.936 110.128 159.17 110.549 155.413 110.243C149.546 120.683 143.613 131.112 137.406 141.351C134.464 146.203 131.451 151.007 128.367 155.762C128.317 155.828 128.243 155.871 128.162 155.882C128.08 155.894 127.997 155.872 127.932 155.822C127.866 155.773 127.823 155.699 127.812 155.617C127.8 155.535 127.822 155.453 127.872 155.387Z" fill="#004D39"/>
<path opacity="0.8" d="M19.3627 89.1141C18.9325 85.1625 18.9175 81.0608 20.303 77.3342C21.6886 73.6077 24.6999 70.3313 28.5815 69.451C33.3084 68.4005 38.2155 71.2017 41.0866 75.0983C43.9578 78.9949 45.2233 83.8069 46.4288 88.4989C44.9732 82.0462 43.5126 75.4435 44.318 68.8807C45.1233 62.318 48.6598 55.7003 54.7023 53.0242C60.7448 50.3481 69.1632 53.1743 70.9139 59.5269C71.271 61.0596 71.439 62.6303 71.4141 64.2038L71.7443 78.7098C72.5648 73.7431 74.6066 69.0581 77.686 65.0759C80.7655 61.0936 84.7861 57.939 89.3866 55.8954C94.1436 53.8395 100.551 53.4594 103.687 57.5861C106.279 60.9925 105.408 65.8545 103.908 69.8561C102.407 73.8578 100.356 77.9495 100.956 82.1863C101.617 76.844 107.419 72.7574 112.666 73.9278C112.806 78.5197 112.948 83.1116 113.091 87.7035C113.927 80.8057 120.444 75.0783 127.387 75.1283C134.33 75.1784 140.753 81.0258 141.493 87.9487C142.088 93.571 139.362 98.9532 136.576 103.88C130.293 114.965 122.81 126.104 111.566 132.062C99.8659 138.244 85.9402 137.899 72.7147 137.399C59.7544 136.899 45.6085 135.958 36.0445 127.195C31.2175 122.768 29.1317 116.996 26.3155 111.298C22.7991 104.215 20.203 97.0324 19.3627 89.1141Z" fill="url(#paint1_linear)"/>
<path opacity="0.8" d="M85.4617 132.397C81.7866 120.445 81.1284 107.77 83.5459 95.5018C84.3312 91.5552 85.4617 87.6035 87.6176 84.2071C89.7735 80.8107 93.0849 77.9846 97.0165 77.1242C100.948 76.2639 105.475 77.6744 107.676 81.0508C108.676 75.3034 109.702 69.421 112.583 64.3489C115.464 59.2768 120.616 55.0901 126.449 55.005C132.281 54.92 138.128 60.1772 137.273 65.9446C138.149 61.4927 141.53 57.406 145.977 56.5057C151.154 55.4602 156.536 59.0067 158.662 63.8537C160.788 68.7007 160.128 74.3831 158.077 79.2551C156.026 84.1271 152.705 88.3288 149.423 92.4655C152.665 88.9141 158.727 88.9091 162.544 91.8353C166.36 94.7615 167.996 99.9436 167.486 104.726C166.975 109.508 164.594 113.914 161.623 117.696C154.499 126.678 144.173 132.553 132.811 134.088C132.811 134.088 86.187 132.297 85.4617 132.397Z" fill="url(#paint2_linear)"/>
<path opacity="0.52" d="M80.9563 137.974C94.9621 127.47 107.968 116.155 119.652 103.625C116.191 92.3505 116.841 80.6957 117.601 69.0408C117.608 69.0088 117.625 68.98 117.65 68.9593C117.675 68.9385 117.707 68.9271 117.739 68.9271C117.772 68.9271 117.803 68.9385 117.828 68.9593C117.853 68.98 117.871 69.0088 117.877 69.0408C117.551 80.3705 117.542 91.6502 120.543 102.65C131.668 90.6701 141.45 77.5098 149.715 63.4035C149.753 63.3405 149.814 63.2951 149.885 63.2773C149.957 63.2594 150.032 63.2707 150.095 63.3085C150.158 63.3463 150.203 63.4076 150.221 63.4789C150.239 63.5502 150.228 63.6256 150.19 63.6886C147.044 69.286 143.632 74.7882 140.011 80.1955C141.887 79.6552 143.847 79.4051 145.718 78.7699C148.058 77.9731 150.329 76.9895 152.511 75.8286C152.563 75.7988 152.625 75.791 152.684 75.8069C152.742 75.8229 152.791 75.8613 152.821 75.9137C152.851 75.9661 152.859 76.0282 152.843 76.0864C152.827 76.1445 152.788 76.194 152.736 76.2238C150.924 77.5858 148.946 78.7104 146.849 79.5702C145.748 80.005 144.624 80.379 143.482 80.6907C142.382 80.9908 140.631 81.0108 139.741 81.7311C139.691 81.7748 139.633 81.8073 139.569 81.8264C139.506 81.8454 139.439 81.8506 139.374 81.8416C139.308 81.8326 139.245 81.8096 139.19 81.7741C139.134 81.7386 139.086 81.6915 139.05 81.636C131.77 92.3536 123.585 102.428 114.585 111.748C128.146 112.594 142.567 111.463 154.337 104.315C154.522 104.205 154.692 104.455 154.557 104.606C149.845 109.733 142.522 111.348 135.894 112.439C128.536 113.649 120.863 114.16 113.485 112.864C103.839 122.737 93.1293 131.51 81.5516 139.025C80.8913 139.435 80.3561 138.42 80.9563 137.974Z" fill="#003F55"/>
<path opacity="0.8" d="M85.4457 117.431C96.2494 118.53 107.079 115.607 115.863 109.222C117.659 107.907 119.4 106.391 120.365 104.395C121.331 102.4 121.401 99.8085 119.99 98.0878C118.795 96.6272 116.784 96.0469 114.898 96.1419C113.012 96.237 111.216 96.9023 109.456 97.5676C114.826 95.1692 119.75 91.876 124.017 87.8285C125.983 85.9627 127.938 83.2716 126.898 80.7706C126.168 79.0099 124.117 78.0945 122.206 78.1195C120.295 78.1445 118.494 78.9198 116.744 79.6751C121.915 76.0492 126.619 71.7986 130.749 67.0199C132.21 65.3292 133.676 63.3384 133.521 61.1075C133.366 58.8765 131.11 55.3901 124.487 60.7723C128.616 53.788 132.166 46.4772 135.101 38.9133C136.367 35.6519 137.212 31.2701 134.366 29.2393C131.52 27.2084 127.603 29.4744 125.107 31.9354C120.18 36.8024 113.868 47.862 111.402 54.3347C111.612 50.298 111.737 37.6078 105.629 37.9179C96.7554 38.3581 95.655 54.2746 95.1498 66.6097C94.2094 62.5381 93.189 58.3063 90.5179 55.105C87.8468 51.9037 83.0148 50.0729 79.3632 52.1538C76.247 53.9395 75.0864 57.8261 74.5812 61.3826C73.4286 69.6103 74.3485 77.9955 77.2574 85.7777C75.7118 83.5518 74.0961 81.2758 71.7551 79.8802C69.4142 78.4847 66.0127 78.1595 64.1919 80.1654C52.9723 92.5305 83.1298 118.196 85.4457 117.431Z" fill="url(#paint3_linear)"/>
<path opacity="0.8" d="M118.451 86.188C111.208 89.6594 103.64 92.5256 96.4017 95.997C99.403 90.7115 102.374 85.4126 105.315 80.1004C112.238 76.0988 118.676 71.0967 125.034 66.2597C125.299 66.0546 125.034 65.6194 124.753 65.8195C118.691 70.1713 112.338 74.113 106.246 78.4148C114.629 63.3285 122.923 48.1922 131.476 33.216C131.561 33.071 131.331 32.9559 131.246 33.096C122.703 47.3819 114.079 61.6828 105.736 76.1138C105.766 68.1905 104.735 60.2072 104.735 52.2639C104.735 52.1389 104.545 52.1539 104.54 52.2639C104.16 60.4473 103.585 69.1759 105.065 77.2743C101.537 83.3901 98.0691 89.536 94.661 95.7119C91.3797 87.5135 87.0478 80.3055 86.0624 71.2668C86.0557 71.2285 86.0357 71.1939 86.006 71.169C85.9762 71.144 85.9387 71.1303 85.8998 71.1303C85.861 71.1303 85.8234 71.144 85.7937 71.169C85.764 71.1939 85.744 71.2285 85.7373 71.2668C86.5022 80.232 89.4193 88.8803 94.2408 96.4772C90.9061 102.576 87.6431 108.712 84.4517 114.885C84.4115 114.991 84.412 115.108 84.4528 115.214C84.4937 115.32 84.5722 115.407 84.6733 115.458C84.7743 115.509 84.8908 115.522 85.0004 115.493C85.11 115.463 85.205 115.395 85.2671 115.3C88.8319 109.251 92.345 103.168 95.8064 97.0524C103.735 94.6464 111.473 90.4147 118.551 86.243C118.596 86.253 118.526 86.1529 118.451 86.188Z" fill="#00706D"/>
<path opacity="0.8" d="M57.7143 150.522C55.0683 141.363 54.3831 131.369 57.5544 122.376C62.9716 107.014 78.2279 97.5503 93.0691 90.8275C97.1958 88.9567 101.788 87.171 106.144 88.4115C110.686 89.702 113.712 93.9438 115.858 98.1505C121.852 109.878 123.835 123.247 121.501 136.209C119.167 149.171 112.646 161.01 102.938 169.91C98.5413 173.942 93.4341 177.373 87.6317 178.844C81.8293 180.314 73.0758 179.714 68.709 175.087C63.3218 169.4 59.8452 157.905 57.7143 150.522Z" fill="url(#paint4_linear)"/>
<path opacity="0.52" d="M71.4379 175.87C72.3483 176.073 73.2586 176.292 74.169 176.525C74.4744 170.517 75.364 164.553 76.8251 158.718C83.9981 153.716 94.2224 152.04 102.401 150.124C102.497 150.097 102.581 150.036 102.635 149.952C102.69 149.868 102.712 149.767 102.697 149.668C102.682 149.569 102.632 149.479 102.555 149.415C102.478 149.35 102.381 149.316 102.281 149.319C97.0412 149.871 91.8939 151.091 86.9643 152.95C83.5779 154.166 80.0765 155.451 77.1253 157.507C77.3754 156.547 77.6254 155.591 77.9155 154.636C86.9193 148.463 97.3386 146.157 107.688 142.966C107.782 142.936 107.86 142.87 107.907 142.783C107.953 142.696 107.964 142.594 107.936 142.499C107.909 142.404 107.846 142.324 107.76 142.275C107.675 142.225 107.573 142.212 107.478 142.236C97.1485 144.127 86.5342 147.338 78.1557 153.841C79.325 149.948 80.7008 146.121 82.2774 142.376C84.6584 136.708 87.2794 131.131 90.0906 125.629C96.229 123.797 102.598 122.852 109.003 122.823C109.024 122.818 109.043 122.806 109.056 122.789C109.07 122.772 109.077 122.752 109.077 122.73C109.077 122.709 109.07 122.688 109.056 122.671C109.043 122.654 109.024 122.643 109.003 122.638C103.381 121.422 96.0881 122.373 90.6108 124.558C91.4479 122.934 92.2949 121.312 93.1519 119.691C96.0581 118.501 98.6842 117.235 101.845 116.81C104.924 116.458 108.021 116.291 111.119 116.31C111.534 116.31 111.504 115.715 111.119 115.68C105.767 115.24 98.6742 114.679 94.0273 118.101C96.0281 114.389 98.0989 110.713 100.19 107.056C100.237 107.012 100.27 106.954 100.285 106.891C103.226 101.759 106.222 96.6669 109.219 91.6198C109.389 91.3397 108.948 91.1196 108.773 91.3797C106.532 94.8312 104.301 98.3126 102.081 101.824C102.206 98.3976 101.65 94.8211 101.05 91.5198C101.05 91.3797 100.785 91.4147 100.8 91.5548C101.3 95.4364 101.135 99.233 101.265 103.11L100.56 104.215C100.745 99.8232 99.6596 95.5365 98.5041 91.2547C98.4966 91.2427 98.4853 91.2335 98.4721 91.2285C98.4589 91.2235 98.4444 91.223 98.4309 91.2269C98.4173 91.2309 98.4053 91.2391 98.3969 91.2505C98.3885 91.2618 98.384 91.2756 98.3841 91.2897C99.3845 96.0367 100.195 100.794 99.6795 105.626C94.4924 113.964 89.5253 122.493 85.1735 131.266C81.9422 122.973 78.3908 115.125 76.36 106.366C76.3249 106.206 76.0899 106.281 76.1199 106.436C77.7605 115.165 80.0765 124.543 84.7034 132.242C83.6529 134.373 82.6425 136.518 81.6721 138.679C77.6704 129.766 73.7039 121.172 70.9978 111.668C70.9825 111.632 70.9543 111.602 70.9187 111.586C70.8832 111.569 70.8427 111.566 70.8049 111.577C70.7672 111.588 70.7348 111.613 70.7141 111.646C70.6933 111.679 70.6857 111.719 70.6926 111.758C72.6634 121.302 75.8998 131.536 81.142 139.885C80.3416 141.701 79.5663 143.526 78.8309 145.387C76.3605 151.473 74.4176 157.761 73.0236 164.18C71.3879 160.178 69.3321 156.312 67.8665 152.215C66.1078 147.289 64.7887 142.217 63.9248 137.059C63.9248 136.954 63.7247 136.979 63.7347 137.059C64.7352 146.563 66.8961 158.107 72.6384 166.126C72.0327 169.345 71.6316 172.6 71.4379 175.87Z" fill="#003F55"/>
<path opacity="0.8" d="M202.118 115.415C178.924 107.231 114.297 100.628 89.2617 156.432C89.2617 156.432 119.324 171.743 151.663 153.28C173.306 140.905 194.56 124.168 202.118 115.415Z" fill="url(#paint5_linear)"/>
<path opacity="0.66" d="M76.8949 170.293C86.1788 160.354 96.6731 152.745 108.153 146.508C108.176 146.527 108.201 146.544 108.228 146.558C117.472 150.56 125.91 155.657 134.559 160.744C134.577 160.754 134.599 160.757 134.619 160.752C134.64 160.747 134.658 160.734 134.67 160.717C134.682 160.699 134.687 160.678 134.684 160.657C134.681 160.636 134.67 160.617 134.654 160.604C127.371 154.196 118.782 149.479 109.954 145.527C110.139 145.432 110.314 145.327 110.499 145.232C115.301 147.498 120.228 149.449 124.935 151.95C129.392 154.326 133.468 157.302 137.875 159.728C138.065 159.828 138.335 159.593 138.15 159.418C131.297 152.956 121.363 147.388 112.139 144.382C117.422 141.711 122.894 139.285 128.551 137.054C129.222 136.789 129.902 136.554 130.552 136.274C140.556 140.015 150.06 144.627 159.789 148.894C160.004 148.989 160.164 148.654 159.974 148.529C151.651 142.926 142.142 138.825 132.683 135.453C133.944 134.953 135.184 134.453 136.454 133.998C145.988 137.839 155.647 141.206 165.046 145.417C165.101 145.417 165.146 145.352 165.096 145.322C156.363 140.785 147.234 136.414 137.79 133.507C140.221 132.604 142.66 131.722 145.108 130.861C145.208 130.887 145.314 130.883 145.412 130.85C145.51 130.816 145.596 130.754 145.658 130.671C160.244 125.544 175.121 121.237 190.332 118.446C190.542 118.411 190.477 118.091 190.267 118.121C177.62 120.141 165.135 123.065 152.906 126.87C156.718 122.698 159.304 116.365 160.229 111.083C160.229 110.938 160.039 110.918 159.984 111.038C158.594 114.089 157.298 117.236 155.647 120.157C154.202 122.713 152.276 124.954 150.86 127.505C149.505 127.93 148.159 128.375 146.809 128.816C150.555 122.783 154.612 117.146 156.548 110.173C156.548 110.162 156.544 110.152 156.536 110.145C156.529 110.137 156.518 110.133 156.508 110.133C156.497 110.133 156.487 110.137 156.479 110.145C156.472 110.152 156.468 110.162 156.468 110.173C153.747 117.176 149.025 123.123 145.018 129.421C138.946 131.445 132.918 133.623 126.936 135.953C123.081 137.444 119.297 139.028 115.586 140.705C116.686 137.954 116.841 134.863 117.557 131.977C118.436 128.68 119.497 125.434 120.733 122.253C120.78 122.096 120.776 121.928 120.721 121.774C120.666 121.619 120.563 121.487 120.427 121.396C120.291 121.304 120.129 121.259 119.965 121.267C119.802 121.274 119.645 121.334 119.518 121.437C117.247 123.513 116.016 127.53 115.241 130.391C114.315 133.818 113.195 137.894 113.8 141.396C113.809 141.431 113.823 141.464 113.84 141.496C99.4192 148.234 86.3288 156.782 75.7444 169.317C75.2492 169.953 76.3197 170.913 76.8949 170.293Z" fill="#047B53"/>
<path opacity="0.8" d="M65.6542 166.561C58.6513 147.323 43.445 124.334 32.8306 103.6C19.0049 76.589 26.528 50.2831 42.7648 47.3719C59.0015 44.4607 76.9538 64.1189 77.224 90.7299C77.5741 124.939 65.6542 166.561 65.6542 166.561Z" fill="url(#paint6_linear)"/>
<path opacity="0.8" d="M65.7606 172.308C62.5193 135.793 56.6167 99.3927 50.4142 63.3878C50.3642 63.0977 49.914 63.2278 49.9791 63.5129C55.1362 99.8879 60.4834 136.213 63.7097 172.713C64.39 172.563 65.0753 172.438 65.7606 172.308Z" fill="#008280"/>
</g>
<path d="M100.238 84.0617L3.90851 79.0247C1.2274 78.8846 -0.473217 76.6937 0.117027 74.1276L16.2036 4.08365C16.5379 2.83091 17.3039 1.73649 18.3664 0.993383C19.4289 0.250277 20.7197 -0.0937636 22.0111 0.0219726L116.41 9.93608C118.706 10.1762 120.152 12.2771 119.636 14.633L105.396 79.955C104.88 82.346 102.564 84.1868 100.238 84.0617Z" fill="#D8DEE8"/>
<path d="M101.429 84.3765L5.20377 79.3294C2.52766 79.1893 0.826918 77.0285 1.41216 74.5024L17.4188 5.47386C17.7556 4.22985 18.5222 3.14536 19.5825 2.41281C20.6429 1.68026 21.9285 1.34702 23.2112 1.4722L117.51 11.3263C118.051 11.3733 118.575 11.5388 119.044 11.8111C119.514 12.0834 119.918 12.4558 120.227 12.9017C120.536 13.3477 120.744 13.8563 120.834 14.3915C120.925 14.9266 120.897 15.4752 120.752 15.9982L106.596 80.3348C106.323 81.4962 105.663 82.5299 104.723 83.2649C103.784 83.9998 102.621 84.392 101.429 84.3765Z" fill="url(#paint7_linear)"/>
<path d="M111.076 60.1465L6.43781 52.8284L5.97266 54.8343L110.661 62.0172L111.076 60.1465Z" fill="white"/>
<path d="M81.6964 7.6153L70.2266 58.6764L72.1774 58.8115L83.6221 7.8204L81.6964 7.6153Z" fill="white"/>
<path d="M54.7226 68.0893L16.887 65.7484C16.8474 65.7479 16.8083 65.7385 16.7727 65.721C16.7371 65.7034 16.706 65.6781 16.6815 65.6469C16.657 65.6157 16.6399 65.5794 16.6313 65.5407C16.6227 65.502 16.6229 65.4618 16.6319 65.4232L17.4121 62.0468C17.4359 61.9615 17.488 61.8868 17.5598 61.835C17.6316 61.7832 17.7189 61.7573 17.8073 61.7617L55.603 64.1977C55.6414 64.1987 55.6792 64.2084 55.7134 64.226C55.7476 64.2437 55.7773 64.2689 55.8004 64.2997C55.8235 64.3305 55.8395 64.3661 55.8468 64.4039C55.8542 64.4417 55.8529 64.4806 55.8431 64.5179L55.0978 67.8092C55.0762 67.8915 55.0274 67.9641 54.9593 68.015C54.8911 68.0659 54.8076 68.0921 54.7226 68.0893Z" fill="url(#paint8_linear)"/>
<path d="M63.0248 76.0637L15.1499 73.3476C15.1097 73.3473 15.0701 73.3379 15.0341 73.32C14.9981 73.3022 14.9666 73.2764 14.942 73.2446C14.9174 73.2128 14.9005 73.1758 14.8923 73.1364C14.8841 73.0971 14.8849 73.0564 14.8948 73.0174L15.6751 69.641C15.6987 69.5552 15.7506 69.4799 15.8223 69.4273C15.894 69.3746 15.9814 69.3477 16.0703 69.3509L63.8951 72.1921C63.9334 72.1923 63.971 72.2013 64.0053 72.2184C64.0395 72.2355 64.0694 72.2602 64.0926 72.2906C64.1158 72.3211 64.1317 72.3564 64.1391 72.394C64.1465 72.4315 64.1452 72.4702 64.1352 72.5072L63.3999 75.7786C63.3786 75.8614 63.3299 75.9345 63.2618 75.9863C63.1937 76.038 63.1103 76.0653 63.0248 76.0637Z" fill="#D8DEE8"/>
<path d="M112.725 28.1788L85.0039 25.6177L87.45 14.6932L115.096 17.4593L112.725 28.1788Z" fill="#D8DEE8"/>
<path d="M107.008 54.0998L79.0859 52.0389L83.9579 30.2849L111.719 32.7559L107.008 54.0998Z" fill="#D8DEE8"/>
<path d="M45.857 22.5959C50.3338 23.011 53.1599 26.8426 52.1845 31.1494C51.9016 32.353 51.3644 33.482 50.6089 34.4608L59.0724 39.5079C60.7483 37.2904 61.9411 34.7464 62.5738 32.0398C64.7897 22.2357 58.3921 13.4621 48.1929 12.4517H48.1129L45.7969 22.5909L45.857 22.5959Z" fill="white"/>
<path d="M50.6088 34.4616C49.6447 35.743 48.3779 36.7656 46.9219 37.4377C45.4659 38.1098 43.8661 38.4106 42.2654 38.3132C37.7636 37.9481 34.8573 34.0965 35.8577 29.7397C36.8582 25.3829 41.295 22.2366 45.7769 22.5967L48.0928 12.4575C37.7735 11.4821 27.4142 18.7852 25.0833 28.8093C22.7523 38.8335 29.475 47.7271 39.9194 48.5075C47.3824 49.0577 54.7255 45.3311 59.0523 39.5037L50.6088 34.4616Z" fill="url(#paint9_linear)"/>
<g style="mix-blend-mode:multiply" opacity="0.47">
<path d="M8.27586 37.0063C6.95531 38.1968 11.7374 48.5911 20.3659 56.7445C29.1046 65.0129 35.6823 65.198 42.5201 75.027C45.8265 79.774 44.6359 80.2242 47.207 83.6356C57.2762 97.0111 83.8071 101.053 94.4916 90.7385C95.612 89.6581 98.108 84.8811 103.105 75.3271C105.269 71.1357 107.17 66.8139 108.798 62.3868C110.993 56.4293 112.209 53.0679 111.013 52.1126C108.567 50.1567 100.109 60.8011 94.5066 58.3551C90.9551 56.8095 92.7608 50.9921 88.0639 46.8504C84.2623 43.519 79.0852 43.6841 77.7396 43.7291C66.0198 44.0992 64.6992 57.0096 53.7297 59.4406C44.6009 61.4414 34.9319 54.8737 20.796 45.2397C13.2229 40.1426 9.24626 36.1509 8.27586 37.0063Z" fill="#D8DEE8"/>
</g>
<path d="M10.1999 41.3537L7.78383 38.9377C7.23297 38.113 6.89017 37.1671 6.78476 36.181C6.67936 35.1948 6.8145 34.1979 7.1786 33.2754C8.3841 29.949 10.0498 30.8544 10.0498 30.8544L9.59464 33.1953C9.59464 33.1953 9.29453 34.696 10.7301 36.5967C11.4595 37.8331 11.9674 39.1873 12.2307 40.5984L10.1999 41.3537Z" fill="url(#paint10_linear)"/>
<path d="M110.819 50.7726L113.54 48.3066L114.751 43.8047C114.751 43.8047 118.072 45.1153 116.251 49.342C115.091 50.7526 112.25 52.8435 111.039 54.9344C109.829 57.0252 110.819 50.7726 110.819 50.7726Z" fill="url(#paint11_linear)"/>
<path d="M84.018 80.8398C84.018 80.8398 97.0634 72.7814 100.235 69.9103C103.541 66.909 112.24 55.4042 113 54.0487C113.76 52.6931 110.659 49.967 110.659 49.967C110.659 49.967 95.5027 68.9048 76.4648 63.3125C79.4861 70.1103 84.018 80.8398 84.018 80.8398Z" fill="url(#paint12_linear)"/>
<path d="M85.9102 192.106C85.9102 192.106 88.301 198.109 87.6708 200.795C89.089 200.781 90.5041 200.656 91.9026 200.42C91.3921 199.082 90.9792 197.71 90.6671 196.313C90.4889 194.717 90.4054 193.112 90.417 191.506L85.9102 192.106Z" fill="url(#paint13_linear)"/>
<path d="M59.5448 206.182C59.8106 206.492 59.9686 206.88 59.9951 207.288C60.0053 207.543 59.9592 207.798 59.86 208.033C59.4548 209.104 58.8146 209.244 58.1243 210.384C57.6991 211.079 57.7792 211.29 57.394 211.605C56.9069 211.941 56.3183 212.098 55.7283 212.05C54.4443 212.059 53.1612 211.986 51.8867 211.83C52.7471 210.723 53.6608 209.6 54.6278 208.463L55.9034 207.008L58.4044 206.152L59.5448 206.182Z" fill="#26264F"/>
<path d="M57.4364 193.928C57.4364 193.928 55.9959 201.431 57.8316 203.567C59.3973 205.672 57.0763 204.172 57.0763 204.172L54.3051 206.588L52.6445 209.459C52.6445 209.459 54.1752 202.091 53.765 199.165C53.3548 196.239 53.1546 194.268 53.1546 194.268L57.4364 193.928Z" fill="url(#paint14_linear)"/>
<path d="M64.5786 63.2628C57.5757 62.0773 47.4966 65.6338 35.8717 59.4863C24.437 53.4388 17.6792 44.4801 13.7426 38.7877L8.60547 41.3288C11.5117 46.3308 18.3594 57.0953 27.4332 64.5784C38.8579 74.0023 50.0326 74.5525 56.1201 82.2507C58.9813 79.4095 68.005 63.8381 64.5786 63.2628Z" fill="url(#paint15_linear)"/>
<path d="M52.0016 111.578C52.0016 111.578 48.125 115.05 48.125 129.325C48.125 143.601 49.9607 174.619 49.9607 174.619L52.897 196.818C52.897 196.818 55.9432 196.923 57.9841 196.318C59.8198 187.955 62.8111 173.809 61.3855 161.974C60.7752 149.124 66.4826 133.007 66.4826 133.007C66.4826 133.007 71.3796 149.324 74.851 157.487C78.3225 165.65 84.9202 191.211 85.5305 193.047C89.5922 193.412 91.3228 192.342 91.3228 192.342C91.3228 192.342 88.7218 164.83 86.2758 154.426C83.8298 144.022 84.0298 118.911 79.9481 111.788C70.7693 108.112 52.0016 111.578 52.0016 111.578Z" fill="url(#paint16_linear)"/>
<path d="M52.0016 111.578C52.0016 111.578 48.125 115.05 48.125 129.325C48.125 143.601 49.9607 174.619 49.9607 174.619L52.897 196.818C52.897 196.818 55.9432 196.923 57.9841 196.318C59.8198 187.955 62.8111 173.809 61.3855 161.974C60.7752 149.124 66.4876 133.007 66.4876 133.007C66.4876 133.007 71.3796 149.324 74.851 157.487C78.3225 165.65 84.9202 191.211 85.5305 193.047C89.5922 193.412 91.3228 192.342 91.3228 192.342C91.3228 192.342 88.7218 164.83 86.2758 154.426C83.8298 144.022 84.0298 118.911 79.9481 111.788C70.7693 108.112 52.0016 111.578 52.0016 111.578Z" fill="url(#paint17_linear)"/>
<path style="mix-blend-mode:multiply" opacity="0.25" d="M72.1359 137.744C73.3464 145.602 75.7623 149.833 81.8048 155.251C86.6418 158.877 83.0153 166.755 84.8061 172.758C85.4113 174.574 87.2271 176.384 87.8073 178.2C90.0582 182.702 87.9574 188.204 88.9778 192.961C89.7808 192.886 90.5628 192.662 91.2839 192.301C91.2839 192.301 88.6827 164.79 86.2367 154.385C83.7907 143.981 83.9908 118.871 79.9092 111.748C70.7304 108.076 51.9625 111.543 51.9625 111.543C51.9625 111.543 48.0859 115.014 48.0859 129.29C48.0859 130.45 48.086 131.721 48.121 133.077C52.1226 136.638 60.376 137.428 65.4481 133.482C65.7342 133.264 66.066 133.113 66.4185 133.042C66.4269 133.016 66.4369 132.991 66.4485 132.967V133.037C68.8195 132.646 71.6157 135.648 72.1359 137.744Z" fill="url(#paint18_linear)"/>
<path d="M87.0443 203.076C87.0443 203.076 86.4491 203.076 86.4991 203.847C86.5491 204.617 86.229 207.263 89.2602 207.388C92.2915 207.513 92.7617 207.173 92.8617 207.173C92.64 206.316 92.3745 205.471 92.0663 204.642L91.096 203.396L88.4849 203.126L87.0443 203.076Z" fill="#26264F"/>
<path d="M93.7635 205.737C93.6126 204.887 93.3485 204.061 92.9781 203.281C92.4429 202.076 92.8831 201.626 92.3729 200.53C92.2081 200.121 91.9632 199.748 91.6526 199.435C91.0663 198.904 90.3023 198.613 89.5117 198.619C89.1639 198.619 88.821 198.701 88.5113 198.859C88.1242 199.084 87.8099 199.416 87.6059 199.815C87.2908 200.315 87.3608 200.49 86.8756 201.981C86.7939 202.221 86.7303 202.466 86.6855 202.716C86.646 202.934 86.6193 203.155 86.6055 203.376C87.4008 203.376 90.4571 203.501 91.1073 203.976C91.4189 204.22 91.669 204.534 91.8375 204.892C92.006 205.249 92.0883 205.642 92.0777 206.037C92.0777 206.833 92.4729 207.203 92.8731 207.178C93.1691 207.084 93.4216 206.887 93.5849 206.622C93.7482 206.358 93.8115 206.044 93.7635 205.737Z" fill="url(#paint19_linear)"/>
<path d="M57.054 202.506C57.7342 202.506 58.2395 203.062 58.6147 204.372C58.9898 205.683 60.8055 206.838 58.6897 206.563C56.5738 206.288 55.0381 209.284 54.2828 210.39C53.5275 211.495 51.5017 212.481 51.5517 211.39C51.6017 210.3 52.4972 209.799 52.7473 208.694C52.9974 207.589 55.4983 202.486 57.054 202.506Z" fill="url(#paint20_linear)"/>
<path d="M71.435 62.8086C68.0135 62.7085 59.295 61.7582 55.2183 65.8098C51.0516 69.9765 55.2734 74.9786 54.5231 81.8164C54.0228 86.4734 54.1978 89.2145 53.3125 96.8227C53.0941 98.6371 52.7718 100.437 52.3471 102.215C51.1816 107.172 49.1558 116.926 48.0703 119.367C51.5718 121.158 60.5455 124.369 71.26 122.768C75.3008 122.163 79.2095 120.875 82.8197 118.962C80.0385 110.548 80.5587 99.0185 81.5842 94.8718C83.62 86.6734 84.0852 83.4571 89.8176 71.6722C91.4032 68.4259 87.6417 70.2467 85.2357 67.3955C81.5442 63.0687 74.8914 62.9136 71.435 62.8086Z" fill="url(#paint21_linear)"/>
<path style="mix-blend-mode:multiply" opacity="0.25" d="M61.2624 84.2612C61.4325 82.7606 61.7176 79.9844 60.352 77.0882C59.7628 75.8375 58.9431 74.709 57.9359 73.7619C54.8997 70.9707 50.9781 71.1558 46.5063 70.8357C41.8564 70.4887 37.2532 69.676 32.7656 68.4097C41.3592 73.7969 49.3624 75.4626 54.6046 80.5747C54.6046 80.9948 54.5646 81.425 54.5196 81.8602C54.0194 86.5171 54.1944 89.2583 53.309 96.8664C53.0907 98.6808 52.7684 100.481 52.3437 102.259C51.1782 107.216 49.1523 116.97 48.0669 119.411C51.5683 121.201 60.5421 124.413 71.2565 122.812C75.2974 122.206 79.2061 120.919 82.8162 119.006C81.964 116.312 81.3941 113.538 81.1156 110.727C75.6933 110.74 70.3427 109.488 65.4891 107.071C62.1727 105.39 60.4871 104.545 59.5217 102.689C57.6259 99.1274 59.9318 95.806 61.2624 84.2612Z" fill="url(#paint22_linear)"/>
<path d="M66.4532 52.6736C66.9534 48.847 69.9547 46.3959 70.63 45.8707C73.3961 43.6748 73.9564 43.4548 74.9068 43.2747L76.2023 43.0796H76.3423C77.5435 43.3199 78.7041 43.731 79.7888 44.3001C81.1094 45.2305 80.1389 51.8032 76.1323 59.9866C75.9772 60.6819 75.8222 61.3721 75.6621 62.0674C79.1636 62.6777 80.0138 63.308 80.0438 63.8132C80.1038 64.8986 76.2823 66.2892 72.7409 66.3792C68.299 66.4943 63.587 64.5835 63.6771 63.1579C63.7121 62.5777 64.5525 61.8674 67.7738 61.1571C68.2807 60.4501 68.7809 59.7415 69.2745 59.0312C68.8293 58.516 66.0881 55.5147 66.4532 52.6736Z" fill="url(#paint23_linear)"/>
<path d="M74.9028 40.5835C73.5072 41.9441 73.167 44.31 73.5822 46.0107C73.8273 47.0111 74.1474 47.1412 74.0824 47.8065C73.9573 49.6823 70.5409 50.4976 70.731 51.443C70.8661 52.1182 72.6468 51.8731 72.9519 52.7185C73.2871 53.6489 71.3363 54.4442 70.4959 56.7802C70.3659 57.1453 69.5705 59.3563 70.591 60.6568C71.5413 61.8673 73.6672 61.5822 76.0682 61.267C77.8244 61.0499 79.5417 60.5886 81.1703 59.8965C82.921 59.1312 84.8018 58.3008 86.3625 56.395C87.961 54.4178 88.7985 51.9335 88.7235 49.3921C88.4884 44.3901 84.2966 40.1083 79.9899 39.428C79.3046 39.338 76.6085 38.9128 74.9028 40.5835Z" fill="url(#paint24_linear)"/>
<path d="M71.9443 51.2333C72.9447 50.6281 73.7201 51.9236 73.2449 53.0591C72.7697 54.1946 71.179 54.8998 70.2086 54.2246C69.2382 53.5493 70.5887 52.0437 71.9443 51.2333Z" fill="url(#paint25_linear)"/>
<path d="M61.7891 62.9631L64.2452 62.2078C64.2452 62.2078 64.8905 65.5291 72.7837 65.9443C75.3937 65.9469 77.9306 65.0831 79.9967 63.4883L81.8825 64.3586C81.8825 64.3586 77.9909 69.3107 72.1384 69.1907C70.0111 69.1872 67.9246 68.606 66.1019 67.5092C64.2791 66.4124 62.7884 64.8411 61.7891 62.9631Z" fill="url(#paint26_linear)"/>
<defs>
<linearGradient id="paint0_linear" x1="141.12" y1="127.69" x2="184.792" y2="44.3954" gradientUnits="userSpaceOnUse">
<stop stop-color="#02332E"/>
<stop offset="0.1" stop-color="#074137"/>
<stop offset="1" stop-color="#34B77F"/>
</linearGradient>
<linearGradient id="paint1_linear" x1="100.546" y1="136.554" x2="58.8884" y2="34.5612" gradientUnits="userSpaceOnUse">
<stop stop-color="#0D160E"/>
<stop offset="1" stop-color="#03887F"/>
</linearGradient>
<linearGradient id="paint2_linear" x1="198913" y1="263242" x2="204202" y2="245497" gradientUnits="userSpaceOnUse">
<stop stop-color="#02332E"/>
<stop offset="0.1" stop-color="#074137"/>
<stop offset="1" stop-color="#34B77F"/>
</linearGradient>
<linearGradient id="paint3_linear" x1="178038" y1="239237" x2="187673" y2="225845" gradientUnits="userSpaceOnUse">
<stop stop-color="#02332E"/>
<stop offset="0.1" stop-color="#074137"/>
<stop offset="1" stop-color="#34B77F"/>
</linearGradient>
<linearGradient id="paint4_linear" x1="250244" y1="195250" x2="259459" y2="189613" gradientUnits="userSpaceOnUse">
<stop stop-color="#02332E"/>
<stop offset="0.1" stop-color="#074137"/>
<stop offset="1" stop-color="#34B77F"/>
</linearGradient>
<linearGradient id="paint5_linear" x1="286373" y1="317494" x2="297765" y2="309212" gradientUnits="userSpaceOnUse">
<stop stop-color="#009B9B"/>
<stop offset="0.06" stop-color="#089D96"/>
<stop offset="1" stop-color="#7EC24C"/>
</linearGradient>
<linearGradient id="paint6_linear" x1="61.5213" y1="149.478" x2="51.7261" y2="42.5162" gradientUnits="userSpaceOnUse">
<stop stop-color="#009B9B"/>
<stop offset="1" stop-color="#6CC9CB"/>
</linearGradient>
<linearGradient id="paint7_linear" x1="-29.2005" y1="42.9243" x2="123.513" y2="42.9243" gradientUnits="userSpaceOnUse">
<stop stop-color="#E3E7EF"/>
<stop offset="1" stop-color="#FAFBFD"/>
</linearGradient>
<linearGradient id="paint8_linear" x1="16.6469" y1="64.923" x2="55.8681" y2="64.923" gradientUnits="userSpaceOnUse">
<stop stop-color="#311944"/>
<stop offset="1" stop-color="#035575"/>
</linearGradient>
<linearGradient id="paint9_linear" x1="144526" y1="29892.7" x2="146903" y2="30504.5" gradientUnits="userSpaceOnUse">
<stop stop-color="#009B9B"/>
<stop offset="0.06" stop-color="#089D96"/>
<stop offset="1" stop-color="#7EC24C"/>
</linearGradient>
<linearGradient id="paint10_linear" x1="9.75969" y1="36.5017" x2="3.14696" y2="43.6447" gradientUnits="userSpaceOnUse">
<stop stop-color="#FFC444"/>
<stop offset="1" stop-color="#F36F56"/>
</linearGradient>
<linearGradient id="paint11_linear" x1="24446.9" y1="8969.37" x2="24243.9" y2="9090" gradientUnits="userSpaceOnUse">
<stop stop-color="#FFC444"/>
<stop offset="1" stop-color="#F36F56"/>
</linearGradient>
<linearGradient id="paint12_linear" x1="137431" y1="22352.8" x2="139877" y2="26969.3" gradientUnits="userSpaceOnUse">
<stop stop-color="#009B9B"/>
<stop offset="0.06" stop-color="#089D96"/>
<stop offset="1" stop-color="#7EC24C"/>
</linearGradient>
<linearGradient id="paint13_linear" x1="22739.5" y1="10188.7" x2="22739.5" y2="9985.26" gradientUnits="userSpaceOnUse">
<stop stop-color="#FFC444"/>
<stop offset="1" stop-color="#F36F56"/>
</linearGradient>
<linearGradient id="paint14_linear" x1="21330" y1="17006.7" x2="21330" y2="16596.8" gradientUnits="userSpaceOnUse">
<stop stop-color="#FFC444"/>
<stop offset="1" stop-color="#F36F56"/>
</linearGradient>
<linearGradient id="paint15_linear" x1="156729" y1="-267.02" x2="163127" y2="6152.74" gradientUnits="userSpaceOnUse">
<stop stop-color="#009B9B"/>
<stop offset="0.06" stop-color="#089D96"/>
<stop offset="1" stop-color="#7EC24C"/>
</linearGradient>
<linearGradient id="paint16_linear" x1="48.125" y1="153.46" x2="91.3228" y2="153.46" gradientUnits="userSpaceOnUse">
<stop stop-color="#311944"/>
<stop offset="1" stop-color="#893976"/>
</linearGradient>
<linearGradient id="paint17_linear" x1="159829" y1="84999.8" x2="163560" y2="84999.8" gradientUnits="userSpaceOnUse">
<stop stop-color="#311944"/>
<stop offset="1" stop-color="#035575"/>
</linearGradient>
<linearGradient id="paint18_linear" x1="48.126" y1="151.544" x2="91.3239" y2="151.544" gradientUnits="userSpaceOnUse">
<stop stop-color="#311944"/>
<stop offset="1" stop-color="#07495E"/>
</linearGradient>
<linearGradient id="paint19_linear" x1="27172.5" y1="9423.1" x2="27275.5" y2="9423.1" gradientUnits="userSpaceOnUse">
<stop stop-color="#311944"/>
<stop offset="1" stop-color="#035575"/>
</linearGradient>
<linearGradient id="paint20_linear" x1="30238.6" y1="10367" x2="30371.3" y2="10367" gradientUnits="userSpaceOnUse">
<stop stop-color="#311944"/>
<stop offset="1" stop-color="#035575"/>
</linearGradient>
<linearGradient id="paint21_linear" x1="154705" y1="45552.8" x2="161546" y2="53115.7" gradientUnits="userSpaceOnUse">
<stop stop-color="#009B9B"/>
<stop offset="0.06" stop-color="#089D96"/>
<stop offset="1" stop-color="#7EC24C"/>
</linearGradient>
<linearGradient id="paint22_linear" x1="14.253" y1="34.6657" x2="73.6326" y2="129.045" gradientUnits="userSpaceOnUse">
<stop stop-color="#FF9085"/>
<stop offset="1" stop-color="#FB6FBB"/>
</linearGradient>
<linearGradient id="paint23_linear" x1="62708.6" y1="18028.2" x2="62067.2" y2="18770.2" gradientUnits="userSpaceOnUse">
<stop stop-color="#FFC444"/>
<stop offset="1" stop-color="#FFC445"/>
</linearGradient>
<linearGradient id="paint24_linear" x1="69872" y1="17217.2" x2="70567.9" y2="17217.2" gradientUnits="userSpaceOnUse">
<stop stop-color="#311944"/>
<stop offset="1" stop-color="#035575"/>
</linearGradient>
<linearGradient id="paint25_linear" x1="11525.2" y1="998.689" x2="11478.3" y2="1148.89" gradientUnits="userSpaceOnUse">
<stop stop-color="#FFC444"/>
<stop offset="1" stop-color="#F36F56"/>
</linearGradient>
<linearGradient id="paint26_linear" x1="75059.6" y1="5493.01" x2="75129" y2="5810.57" gradientUnits="userSpaceOnUse">
<stop stop-color="#311944"/>
<stop offset="1" stop-color="#035575"/>
</linearGradient>
</defs>
</svg>
