<svg width="182" height="116" viewBox="0 0 182 116" fill="none" xmlns="http://www.w3.org/2000/svg">
<g filter="url(#filter0_d)">
<path d="M41.3413 66.2782C38.2659 66.3972 26.5027 67.7529 25.3811 81.4158C25.0734 81.9051 24.9464 82.4789 25.0207 83.0452C25.0949 83.6115 25.366 84.1376 25.7905 84.5394L27.5708 86.2393C27.8193 86.4803 28.1155 86.6716 28.4422 86.8022C28.7688 86.9328 29.1193 87 29.4735 87C29.8276 87 30.1782 86.9328 30.5049 86.8022C30.8315 86.6716 31.1277 86.4803 31.3762 86.2393L33.1565 84.5394C33.4088 84.3022 33.6092 84.0194 33.746 83.7075C33.8827 83.3956 33.9532 83.0608 33.9532 82.7227C33.9532 82.3845 33.8827 82.0497 33.746 81.7378C33.6092 81.4259 33.4088 81.1431 33.1565 80.9059L31.3762 79.206C31.0917 78.9328 30.746 78.7247 30.3652 78.5974C29.9844 78.47 29.5784 78.4268 29.1776 78.4708C29.4001 77.4976 30.9979 71.8667 38.1546 69.9968C38.1197 70.3862 38.1745 70.7783 38.3152 71.1454C38.4559 71.5125 38.6792 71.8457 38.9691 72.1216L40.5624 73.6473C40.8247 73.8997 41.1368 74.1 41.4805 74.2366C41.8242 74.3733 42.1929 74.4437 42.5653 74.4437C42.9376 74.4437 43.3063 74.3733 43.65 74.2366C43.9938 74.1 44.3058 73.8997 44.5681 73.6473L46.1659 72.1216C46.4302 71.8712 46.64 71.5733 46.7831 71.2451C46.9263 70.9168 47 70.5648 47 70.2093C47 69.8537 46.9263 69.5017 46.7831 69.1735C46.64 68.8452 46.4302 68.5473 46.1659 68.2969L44.5681 66.7754C44.1511 66.3825 43.6163 66.1235 43.0379 66.0344C42.4596 65.9452 41.8665 66.0305 41.3413 66.2782Z" fill="#E1E8F5"/>
</g>
<g filter="url(#filter1_d)">
<path d="M98.4914 2.00001C96.4145 2.00171 94.3848 2.61927 92.659 3.77462C90.9331 4.92997 89.5886 6.57119 88.7956 8.49071C88.0026 10.4102 87.7966 12.5218 88.2037 14.5584C88.6109 16.595 89.6128 18.4651 91.0829 19.9322C92.553 21.3992 94.4252 22.3974 96.4626 22.8004C98.5 23.2034 100.611 22.9932 102.529 22.1962C104.447 21.3993 106.085 20.0515 107.237 18.3233C108.389 16.595 109.003 14.5641 109 12.4872C108.999 11.1083 108.727 9.74314 108.199 8.46963C107.67 7.19613 106.896 6.03933 105.92 5.06533C104.944 4.09134 103.785 3.31929 102.511 2.79331C101.236 2.26734 99.8703 1.99777 98.4914 2.00001ZM98.4914 20.218C96.963 20.2239 95.4673 19.7761 94.1935 18.9314C92.9198 18.0867 91.9254 16.8829 91.3362 15.4727C90.7471 14.0624 90.5895 12.509 90.8837 11.0092C91.178 9.50938 91.9106 8.13063 92.989 7.04749C94.0673 5.96435 95.4429 5.22555 96.9413 4.92467C98.4398 4.62379 99.9939 4.77435 101.407 5.35729C102.82 5.94022 104.028 6.92932 104.878 8.19931C105.729 9.4693 106.183 10.9631 106.184 12.4915C106.186 14.5288 105.383 16.4844 103.949 17.9319C102.515 19.3793 100.567 20.201 98.5299 20.218H98.4914Z" fill="#E1E8F5"/>
</g>
<g filter="url(#filter2_d)">
<path d="M101.6 12.2216H97.9753V7.47012C97.9753 7.34544 97.9239 7.22586 97.8324 7.13769C97.741 7.04952 97.617 7 97.4877 7C97.3584 7 97.2343 7.04952 97.1429 7.13769C97.0514 7.22586 97 7.34544 97 7.47012V12.5299C97 12.5299 97 12.5568 97 12.5722C97 12.5877 97 12.5992 97 12.6146C97 12.7168 97.0421 12.8149 97.1171 12.8871C97.192 12.9594 97.2937 13 97.3997 13H101.6C101.706 13 101.808 12.9594 101.883 12.8871C101.958 12.8149 102 12.7168 102 12.6146C102 12.5124 101.958 12.4144 101.883 12.3421C101.808 12.2699 101.706 12.2293 101.6 12.2293V12.2216Z" fill="#E1E8F5"/>
</g>
<g filter="url(#filter3_d)">
<path d="M166.992 67.949C167.016 67.1785 166.88 66.4111 166.592 65.692C166.303 64.973 165.868 64.3169 165.312 63.7624C164.756 63.2079 164.091 62.7663 163.355 62.4636C162.619 62.161 161.827 62.0033 161.027 62.0001C160.227 61.9968 159.434 62.1479 158.696 62.4446C157.957 62.7412 157.288 63.1773 156.727 63.7272C156.166 64.2772 155.725 64.9297 155.43 65.6464C155.136 66.363 154.993 67.1293 155.01 67.9C155.01 67.9 154.73 69.8992 157.081 73.1658C158.143 74.6377 160.948 79 160.948 79C160.948 79 163.796 74.6622 164.87 73.1985C167.251 69.9523 166.992 67.949 166.992 67.949ZM160.982 72.2459C160.12 72.2387 159.279 71.9857 158.566 71.5188C157.852 71.052 157.299 70.3922 156.974 69.6226C156.649 68.8531 156.569 68.0081 156.742 67.1944C156.915 66.3806 157.334 65.6345 157.947 65.05C158.56 64.4655 159.338 64.0687 160.185 63.9098C161.031 63.7509 161.907 63.837 162.703 64.157C163.499 64.4771 164.178 65.017 164.656 65.7085C165.134 66.4001 165.388 67.2124 165.387 68.043C165.387 68.5983 165.272 69.1479 165.05 69.6603C164.828 70.1726 164.503 70.6376 164.093 71.0283C163.684 71.419 163.198 71.7277 162.664 71.9367C162.13 72.1457 161.558 72.2508 160.982 72.2459Z" fill="#E1E8F5"/>
</g>
<g filter="url(#filter4_d)">
<path d="M161 84C163.761 84 166 83.1045 166 82C166 80.8954 163.761 80 161 80C158.239 80 156 80.8954 156 82C156 83.1045 158.239 84 161 84Z" fill="#E1E8F5"/>
</g>
<g filter="url(#filter5_d)">
<path d="M6.179 110.711H4.688V112.223H4.093V110.711H2.609V110.172H4.093V108.653H4.688V110.172H6.179V110.711ZM10.0333 109.143C9.93065 108.625 9.61099 108.366 9.07432 108.366C8.65899 108.366 8.34865 108.527 8.14332 108.849C7.93799 109.166 7.83765 109.691 7.84232 110.424C7.94965 110.181 8.12699 109.992 8.37432 109.857C8.62632 109.717 8.90632 109.647 9.21432 109.647C9.69499 109.647 10.0777 109.796 10.3623 110.095C10.6517 110.394 10.7963 110.807 10.7963 111.334C10.7963 111.651 10.7333 111.936 10.6073 112.188C10.486 112.44 10.2993 112.641 10.0473 112.79C9.79999 112.939 9.49899 113.014 9.14432 113.014C8.66365 113.014 8.28799 112.907 8.01732 112.692C7.74665 112.477 7.55765 112.181 7.45032 111.803C7.34299 111.425 7.28932 110.958 7.28932 110.403C7.28932 108.69 7.88665 107.834 9.08132 107.834C9.53865 107.834 9.89799 107.958 10.1593 108.205C10.4207 108.452 10.5747 108.765 10.6213 109.143H10.0333ZM9.08132 110.186C8.88065 110.186 8.69165 110.228 8.51432 110.312C8.33699 110.391 8.19232 110.515 8.08032 110.683C7.97299 110.846 7.91932 111.047 7.91932 111.285C7.91932 111.64 8.02199 111.929 8.22732 112.153C8.43265 112.372 8.72665 112.482 9.10932 112.482C9.43599 112.482 9.69499 112.382 9.88632 112.181C10.0823 111.976 10.1803 111.7 10.1803 111.355C10.1803 110.991 10.087 110.706 9.90032 110.501C9.71365 110.291 9.44065 110.186 9.08132 110.186ZM11.5787 112.489C12.1713 112.013 12.6357 111.623 12.9717 111.32C13.3077 111.012 13.59 110.692 13.8187 110.361C14.052 110.025 14.1687 109.696 14.1687 109.374C14.1687 109.071 14.094 108.833 13.9447 108.66C13.8 108.483 13.5643 108.394 13.2377 108.394C12.9203 108.394 12.673 108.494 12.4957 108.695C12.323 108.891 12.2297 109.155 12.2157 109.486H11.5997C11.6183 108.963 11.777 108.56 12.0757 108.275C12.3743 107.99 12.7593 107.848 13.2307 107.848C13.7113 107.848 14.0917 107.981 14.3717 108.247C14.6563 108.513 14.7987 108.879 14.7987 109.346C14.7987 109.733 14.682 110.111 14.4487 110.48C14.22 110.844 13.9587 111.166 13.6647 111.446C13.3707 111.721 12.995 112.043 12.5377 112.412H14.9457V112.944H11.5787V112.489ZM18.4723 110.368C18.2109 110.265 18.0103 110.116 17.8703 109.92C17.7303 109.724 17.6603 109.486 17.6603 109.206C17.6603 108.954 17.7233 108.728 17.8493 108.527C17.9753 108.322 18.1619 108.161 18.4093 108.044C18.6613 107.923 18.9646 107.862 19.3193 107.862C19.6739 107.862 19.9749 107.923 20.2223 108.044C20.4743 108.161 20.6633 108.322 20.7893 108.527C20.9199 108.728 20.9853 108.954 20.9853 109.206C20.9853 109.477 20.9129 109.715 20.7683 109.92C20.6236 110.121 20.4253 110.27 20.1733 110.368C20.4626 110.457 20.6913 110.613 20.8593 110.837C21.0319 111.056 21.1183 111.322 21.1183 111.635C21.1183 111.938 21.0436 112.204 20.8943 112.433C20.7449 112.657 20.5326 112.832 20.2573 112.958C19.9866 113.079 19.6739 113.14 19.3193 113.14C18.9646 113.14 18.6519 113.079 18.3813 112.958C18.1153 112.832 17.9076 112.657 17.7583 112.433C17.6089 112.204 17.5343 111.938 17.5343 111.635C17.5343 111.322 17.6183 111.054 17.7863 110.83C17.9543 110.606 18.1829 110.452 18.4723 110.368ZM20.3693 109.283C20.3693 108.998 20.2759 108.779 20.0893 108.625C19.9026 108.471 19.6459 108.394 19.3193 108.394C18.9973 108.394 18.7429 108.471 18.5563 108.625C18.3696 108.779 18.2763 109.001 18.2763 109.29C18.2763 109.551 18.3719 109.761 18.5633 109.92C18.7593 110.079 19.0113 110.158 19.3193 110.158C19.6319 110.158 19.8839 110.079 20.0753 109.92C20.2713 109.757 20.3693 109.544 20.3693 109.283ZM19.3193 110.648C18.9739 110.648 18.6916 110.73 18.4723 110.893C18.2529 111.052 18.1433 111.292 18.1433 111.614C18.1433 111.913 18.2483 112.153 18.4583 112.335C18.6729 112.517 18.9599 112.608 19.3193 112.608C19.6786 112.608 19.9633 112.517 20.1733 112.335C20.3833 112.153 20.4883 111.913 20.4883 111.614C20.4883 111.301 20.3809 111.063 20.1663 110.9C19.9516 110.732 19.6693 110.648 19.3193 110.648ZM21.7963 108.52V107.939H23.1123V113H22.4683V108.52H21.7963ZM24.1295 112.489C24.7221 112.013 25.1865 111.623 25.5225 111.32C25.8585 111.012 26.1408 110.692 26.3695 110.361C26.6028 110.025 26.7195 109.696 26.7195 109.374C26.7195 109.071 26.6448 108.833 26.4955 108.66C26.3508 108.483 26.1151 108.394 25.7885 108.394C25.4711 108.394 25.2238 108.494 25.0465 108.695C24.8738 108.891 24.7805 109.155 24.7665 109.486H24.1505C24.1691 108.963 24.3278 108.56 24.6265 108.275C24.9251 107.99 25.3101 107.848 25.7815 107.848C26.2621 107.848 26.6425 107.981 26.9225 108.247C27.2071 108.513 27.3495 108.879 27.3495 109.346C27.3495 109.733 27.2328 110.111 26.9995 110.48C26.7708 110.844 26.5095 111.166 26.2155 111.446C25.9215 111.721 25.5458 112.043 25.0885 112.412H27.4965V112.944H24.1295V112.489ZM30.085 109.213C30.1177 108.784 30.2834 108.448 30.582 108.205C30.8807 107.962 31.268 107.841 31.744 107.841C32.0614 107.841 32.3344 107.899 32.563 108.016C32.7964 108.128 32.9714 108.282 33.088 108.478C33.2094 108.674 33.27 108.896 33.27 109.143C33.27 109.432 33.186 109.682 33.018 109.892C32.8547 110.102 32.64 110.237 32.374 110.298V110.333C32.6774 110.408 32.9177 110.555 33.095 110.774C33.2724 110.993 33.361 111.28 33.361 111.635C33.361 111.901 33.3004 112.141 33.179 112.356C33.0577 112.566 32.8757 112.732 32.633 112.853C32.3904 112.974 32.0987 113.035 31.758 113.035C31.2634 113.035 30.8574 112.907 30.54 112.65C30.2227 112.389 30.0454 112.02 30.008 111.544H30.624C30.6567 111.824 30.771 112.053 30.967 112.23C31.163 112.407 31.4244 112.496 31.751 112.496C32.0777 112.496 32.325 112.412 32.493 112.244C32.6657 112.071 32.752 111.85 32.752 111.579C32.752 111.229 32.6354 110.977 32.402 110.823C32.1687 110.669 31.8164 110.592 31.345 110.592H31.184V110.06H31.352C31.7814 110.055 32.1057 109.985 32.325 109.85C32.5444 109.71 32.654 109.495 32.654 109.206C32.654 108.959 32.5724 108.76 32.409 108.611C32.2504 108.462 32.0217 108.387 31.723 108.387C31.4337 108.387 31.2004 108.462 31.023 108.611C30.8457 108.76 30.7407 108.961 30.708 109.213H30.085ZM34.0671 111.873V111.39L36.5241 107.988H37.2871V111.32H37.9871V111.873H37.2871V113H36.6571V111.873H34.0671ZM36.6851 108.653L34.8021 111.32H36.6851V108.653ZM41.8505 108.492H39.3935V110.088C39.5008 109.939 39.6595 109.817 39.8695 109.724C40.0795 109.626 40.3058 109.577 40.5485 109.577C40.9358 109.577 41.2508 109.659 41.4935 109.822C41.7361 109.981 41.9088 110.188 42.0115 110.445C42.1188 110.697 42.1725 110.965 42.1725 111.25C42.1725 111.586 42.1095 111.887 41.9835 112.153C41.8575 112.419 41.6638 112.629 41.4025 112.783C41.1458 112.937 40.8261 113.014 40.4435 113.014C39.9535 113.014 39.5568 112.888 39.2535 112.636C38.9501 112.384 38.7658 112.048 38.7005 111.628H39.3235C39.3841 111.894 39.5125 112.102 39.7085 112.251C39.9045 112.4 40.1518 112.475 40.4505 112.475C40.8191 112.475 41.0968 112.365 41.2835 112.146C41.4701 111.922 41.5635 111.628 41.5635 111.264C41.5635 110.9 41.4701 110.62 41.2835 110.424C41.0968 110.223 40.8215 110.123 40.4575 110.123C40.2101 110.123 39.9931 110.184 39.8065 110.305C39.6245 110.422 39.4915 110.583 39.4075 110.788H38.8055V107.932H41.8505V108.492ZM45.84 109.143C45.7373 108.625 45.4176 108.366 44.881 108.366C44.4656 108.366 44.1553 108.527 43.95 108.849C43.7446 109.166 43.6443 109.691 43.649 110.424C43.7563 110.181 43.9336 109.992 44.181 109.857C44.433 109.717 44.713 109.647 45.021 109.647C45.5016 109.647 45.8843 109.796 46.169 110.095C46.4583 110.394 46.603 110.807 46.603 111.334C46.603 111.651 46.54 111.936 46.414 112.188C46.2926 112.44 46.106 112.641 45.854 112.79C45.6066 112.939 45.3056 113.014 44.951 113.014C44.4703 113.014 44.0946 112.907 43.824 112.692C43.5533 112.477 43.3643 112.181 43.257 111.803C43.1496 111.425 43.096 110.958 43.096 110.403C43.096 108.69 43.6933 107.834 44.888 107.834C45.3453 107.834 45.7046 107.958 45.966 108.205C46.2273 108.452 46.3813 108.765 46.428 109.143H45.84ZM44.888 110.186C44.6873 110.186 44.4983 110.228 44.321 110.312C44.1436 110.391 43.999 110.515 43.887 110.683C43.7796 110.846 43.726 111.047 43.726 111.285C43.726 111.64 43.8286 111.929 44.034 112.153C44.2393 112.372 44.5333 112.482 44.916 112.482C45.2426 112.482 45.5016 112.382 45.693 112.181C45.889 111.976 45.987 111.7 45.987 111.355C45.987 110.991 45.8936 110.706 45.707 110.501C45.5203 110.291 45.2473 110.186 44.888 110.186ZM52.4435 108.436L50.4975 113H49.8535L51.8275 108.499H49.1255V107.953H52.4435V108.436ZM54.0738 110.368C53.8125 110.265 53.6118 110.116 53.4718 109.92C53.3318 109.724 53.2618 109.486 53.2618 109.206C53.2618 108.954 53.3248 108.728 53.4508 108.527C53.5768 108.322 53.7635 108.161 54.0108 108.044C54.2628 107.923 54.5662 107.862 54.9208 107.862C55.2755 107.862 55.5765 107.923 55.8238 108.044C56.0758 108.161 56.2648 108.322 56.3908 108.527C56.5215 108.728 56.5868 108.954 56.5868 109.206C56.5868 109.477 56.5145 109.715 56.3698 109.92C56.2252 110.121 56.0268 110.27 55.7748 110.368C56.0642 110.457 56.2928 110.613 56.4608 110.837C56.6335 111.056 56.7198 111.322 56.7198 111.635C56.7198 111.938 56.6452 112.204 56.4958 112.433C56.3465 112.657 56.1342 112.832 55.8588 112.958C55.5882 113.079 55.2755 113.14 54.9208 113.14C54.5662 113.14 54.2535 113.079 53.9828 112.958C53.7168 112.832 53.5092 112.657 53.3598 112.433C53.2105 112.204 53.1358 111.938 53.1358 111.635C53.1358 111.322 53.2198 111.054 53.3878 110.83C53.5558 110.606 53.7845 110.452 54.0738 110.368ZM55.9708 109.283C55.9708 108.998 55.8775 108.779 55.6908 108.625C55.5042 108.471 55.2475 108.394 54.9208 108.394C54.5988 108.394 54.3445 108.471 54.1578 108.625C53.9712 108.779 53.8778 109.001 53.8778 109.29C53.8778 109.551 53.9735 109.761 54.1648 109.92C54.3608 110.079 54.6128 110.158 54.9208 110.158C55.2335 110.158 55.4855 110.079 55.6768 109.92C55.8728 109.757 55.9708 109.544 55.9708 109.283ZM54.9208 110.648C54.5755 110.648 54.2932 110.73 54.0738 110.893C53.8545 111.052 53.7448 111.292 53.7448 111.614C53.7448 111.913 53.8498 112.153 54.0598 112.335C54.2745 112.517 54.5615 112.608 54.9208 112.608C55.2802 112.608 55.5648 112.517 55.7748 112.335C55.9848 112.153 56.0898 111.913 56.0898 111.614C56.0898 111.301 55.9825 111.063 55.7678 110.9C55.5532 110.732 55.2708 110.648 54.9208 110.648ZM58.3848 111.642C58.4315 111.908 58.5388 112.113 58.7068 112.258C58.8795 112.403 59.1105 112.475 59.3998 112.475C59.7872 112.475 60.0718 112.323 60.2538 112.02C60.4405 111.717 60.5292 111.206 60.5198 110.487C60.4218 110.697 60.2585 110.863 60.0298 110.984C59.8012 111.101 59.5468 111.159 59.2668 111.159C58.9542 111.159 58.6742 111.096 58.4268 110.97C58.1842 110.839 57.9928 110.65 57.8528 110.403C57.7128 110.156 57.6428 109.857 57.6428 109.507C57.6428 109.008 57.7875 108.606 58.0768 108.303C58.3662 107.995 58.7768 107.841 59.3088 107.841C59.9622 107.841 60.4195 108.053 60.6808 108.478C60.9468 108.903 61.0798 109.535 61.0798 110.375C61.0798 110.963 61.0262 111.448 60.9188 111.831C60.8162 112.214 60.6388 112.505 60.3868 112.706C60.1395 112.907 59.7988 113.007 59.3648 113.007C58.8888 113.007 58.5178 112.879 58.2518 112.622C57.9858 112.365 57.8342 112.039 57.7968 111.642H58.3848ZM59.3718 110.62C59.6845 110.62 59.9412 110.524 60.1418 110.333C60.3425 110.137 60.4428 109.873 60.4428 109.542C60.4428 109.192 60.3448 108.91 60.1488 108.695C59.9528 108.48 59.6775 108.373 59.3228 108.373C58.9962 108.373 58.7348 108.476 58.5388 108.681C58.3475 108.886 58.2518 109.157 58.2518 109.493C58.2518 109.834 58.3475 110.107 58.5388 110.312C58.7302 110.517 59.0078 110.62 59.3718 110.62ZM61.975 110.417C61.975 109.614 62.1057 108.989 62.367 108.541C62.6283 108.088 63.0857 107.862 63.739 107.862C64.3877 107.862 64.8427 108.088 65.104 108.541C65.3653 108.989 65.496 109.614 65.496 110.417C65.496 111.234 65.3653 111.868 65.104 112.321C64.8427 112.774 64.3877 113 63.739 113C63.0857 113 62.6283 112.774 62.367 112.321C62.1057 111.868 61.975 111.234 61.975 110.417ZM64.866 110.417C64.866 110.011 64.838 109.668 64.782 109.388C64.7307 109.103 64.621 108.875 64.453 108.702C64.2897 108.529 64.0517 108.443 63.739 108.443C63.4217 108.443 63.179 108.529 63.011 108.702C62.8477 108.875 62.738 109.103 62.682 109.388C62.6307 109.668 62.605 110.011 62.605 110.417C62.605 110.837 62.6307 111.189 62.682 111.474C62.738 111.759 62.8477 111.987 63.011 112.16C63.179 112.333 63.4217 112.419 63.739 112.419C64.0517 112.419 64.2897 112.333 64.453 112.16C64.621 111.987 64.7307 111.759 64.782 111.474C64.838 111.189 64.866 110.837 64.866 110.417Z" fill="black"/>
</g>
<g filter="url(#filter6_d)">
<path d="M20.63 102L18.09 98.89V102H16.69V95.02H18.09V98.15L20.63 95.02H22.32L19.44 98.48L22.4 102H20.63ZM25.7809 102.09C25.2475 102.09 24.7675 101.973 24.3409 101.74C23.9142 101.5 23.5775 101.163 23.3309 100.73C23.0909 100.297 22.9709 99.7967 22.9709 99.23C22.9709 98.6633 23.0942 98.1633 23.3409 97.73C23.5942 97.2967 23.9375 96.9633 24.3709 96.73C24.8042 96.49 25.2875 96.37 25.8209 96.37C26.3542 96.37 26.8375 96.49 27.2709 96.73C27.7042 96.9633 28.0442 97.2967 28.2909 97.73C28.5442 98.1633 28.6709 98.6633 28.6709 99.23C28.6709 99.7967 28.5409 100.297 28.2809 100.73C28.0275 101.163 27.6809 101.5 27.2409 101.74C26.8075 101.973 26.3209 102.09 25.7809 102.09ZM25.7809 100.87C26.0342 100.87 26.2709 100.81 26.4909 100.69C26.7175 100.563 26.8975 100.377 27.0309 100.13C27.1642 99.8833 27.2309 99.5833 27.2309 99.23C27.2309 98.7033 27.0909 98.3 26.8109 98.02C26.5375 97.7333 26.2009 97.59 25.8009 97.59C25.4009 97.59 25.0642 97.7333 24.7909 98.02C24.5242 98.3 24.3909 98.7033 24.3909 99.23C24.3909 99.7567 24.5209 100.163 24.7809 100.45C25.0475 100.73 25.3809 100.87 25.7809 100.87ZM32.7678 96.38C33.4278 96.38 33.9611 96.59 34.3678 97.01C34.7745 97.4233 34.9778 98.0033 34.9778 98.75V102H33.5778V98.94C33.5778 98.5 33.4678 98.1633 33.2478 97.93C33.0278 97.69 32.7278 97.57 32.3478 97.57C31.9611 97.57 31.6545 97.69 31.4278 97.93C31.2078 98.1633 31.0978 98.5 31.0978 98.94V102H29.6978V96.46H31.0978V97.15C31.2845 96.91 31.5211 96.7233 31.8078 96.59C32.1011 96.45 32.4211 96.38 32.7678 96.38ZM37.9391 97.61V100.29C37.9391 100.477 37.9825 100.613 38.0691 100.7C38.1625 100.78 38.3158 100.82 38.5291 100.82H39.1791V102H38.2991C37.1191 102 36.5291 101.427 36.5291 100.28V97.61H35.8691V96.46H36.5291V95.09H37.9391V96.46H39.1791V97.61H37.9391ZM39.8261 99.21C39.8261 98.65 39.9361 98.1533 40.1561 97.72C40.3828 97.2867 40.6861 96.9533 41.0661 96.72C41.4528 96.4867 41.8828 96.37 42.3561 96.37C42.7694 96.37 43.1294 96.4533 43.4361 96.62C43.7494 96.7867 43.9994 96.9967 44.1861 97.25V96.46H45.5961V102H44.1861V101.19C44.0061 101.45 43.7561 101.667 43.4361 101.84C43.1228 102.007 42.7594 102.09 42.3461 102.09C41.8794 102.09 41.4528 101.97 41.0661 101.73C40.6861 101.49 40.3828 101.153 40.1561 100.72C39.9361 100.28 39.8261 99.7767 39.8261 99.21ZM44.1861 99.23C44.1861 98.89 44.1194 98.6 43.9861 98.36C43.8528 98.1133 43.6728 97.9267 43.4461 97.8C43.2194 97.6667 42.9761 97.6 42.7161 97.6C42.4561 97.6 42.2161 97.6633 41.9961 97.79C41.7761 97.9167 41.5961 98.1033 41.4561 98.35C41.3228 98.59 41.2561 98.8767 41.2561 99.21C41.2561 99.5433 41.3228 99.8367 41.4561 100.09C41.5961 100.337 41.7761 100.527 41.9961 100.66C42.2228 100.793 42.4628 100.86 42.7161 100.86C42.9761 100.86 43.2194 100.797 43.4461 100.67C43.6728 100.537 43.8528 100.35 43.9861 100.11C44.1194 99.8633 44.1861 99.57 44.1861 99.23ZM50.2434 102L48.3634 99.64V102H46.9634V94.6H48.3634V98.81L50.2234 96.46H52.0434L49.6034 99.24L52.0634 102H50.2434Z" fill="white"/>
</g>
<g filter="url(#filter7_d)">
<path d="M56.086 49.049C55.764 49.049 55.4747 48.993 55.218 48.881C54.966 48.7643 54.7677 48.6057 54.623 48.405C54.4783 48.1997 54.4037 47.964 54.399 47.698H55.078C55.1013 47.9267 55.1947 48.1203 55.358 48.279C55.526 48.433 55.7687 48.51 56.086 48.51C56.3893 48.51 56.6273 48.4353 56.8 48.286C56.9773 48.132 57.066 47.936 57.066 47.698C57.066 47.5113 57.0147 47.3597 56.912 47.243C56.8093 47.1263 56.681 47.0377 56.527 46.977C56.373 46.9163 56.1653 46.851 55.904 46.781C55.582 46.697 55.323 46.613 55.127 46.529C54.9357 46.445 54.77 46.3143 54.63 46.137C54.4947 45.955 54.427 45.7123 54.427 45.409C54.427 45.143 54.4947 44.9073 54.63 44.702C54.7653 44.4967 54.9543 44.338 55.197 44.226C55.4443 44.114 55.7267 44.058 56.044 44.058C56.5013 44.058 56.8747 44.1723 57.164 44.401C57.458 44.6297 57.6237 44.933 57.661 45.311H56.961C56.9377 45.1243 56.8397 44.961 56.667 44.821C56.4943 44.6763 56.2657 44.604 55.981 44.604C55.715 44.604 55.498 44.674 55.33 44.814C55.162 44.9493 55.078 45.1407 55.078 45.388C55.078 45.5653 55.127 45.71 55.225 45.822C55.3277 45.934 55.4513 46.0203 55.596 46.081C55.7453 46.137 55.953 46.2023 56.219 46.277C56.541 46.3657 56.8 46.4543 56.996 46.543C57.192 46.627 57.36 46.76 57.5 46.942C57.64 47.1193 57.71 47.362 57.71 47.67C57.71 47.908 57.647 48.132 57.521 48.342C57.395 48.552 57.2083 48.7223 56.961 48.853C56.7137 48.9837 56.422 49.049 56.086 49.049ZM62.1474 46.935C62.1474 47.0563 62.1404 47.1847 62.1264 47.32H59.0604C59.0837 47.698 59.2121 47.9943 59.4454 48.209C59.6834 48.419 59.9704 48.524 60.3064 48.524C60.5817 48.524 60.8104 48.461 60.9924 48.335C61.1791 48.2043 61.3097 48.0317 61.3844 47.817H62.0704C61.9677 48.1857 61.7624 48.4867 61.4544 48.72C61.1464 48.9487 60.7637 49.063 60.3064 49.063C59.9424 49.063 59.6157 48.9813 59.3264 48.818C59.0417 48.6547 58.8177 48.4237 58.6544 48.125C58.4911 47.8217 58.4094 47.4717 58.4094 47.075C58.4094 46.6783 58.4887 46.3307 58.6474 46.032C58.8061 45.7333 59.0277 45.5047 59.3124 45.346C59.6017 45.1827 59.9331 45.101 60.3064 45.101C60.6704 45.101 60.9924 45.1803 61.2724 45.339C61.5524 45.4977 61.7671 45.717 61.9164 45.997C62.0704 46.2723 62.1474 46.585 62.1474 46.935ZM61.4894 46.802C61.4894 46.5593 61.4357 46.3517 61.3284 46.179C61.2211 46.0017 61.0741 45.8687 60.8874 45.78C60.7054 45.6867 60.5024 45.64 60.2784 45.64C59.9564 45.64 59.6811 45.7427 59.4524 45.948C59.2284 46.1533 59.1001 46.438 59.0674 46.802H61.4894ZM64.8572 45.094C65.3239 45.094 65.7019 45.2363 65.9912 45.521C66.2806 45.801 66.4252 46.207 66.4252 46.739V49H65.7952V46.83C65.7952 46.4473 65.6996 46.1557 65.5082 45.955C65.3169 45.7497 65.0556 45.647 64.7242 45.647C64.3882 45.647 64.1199 45.752 63.9192 45.962C63.7232 46.172 63.6252 46.4777 63.6252 46.879V49H62.9882V45.164H63.6252V45.71C63.7512 45.514 63.9216 45.3623 64.1362 45.255C64.3556 45.1477 64.5959 45.094 64.8572 45.094ZM67.7948 44.541C67.6734 44.541 67.5708 44.499 67.4868 44.415C67.4028 44.331 67.3608 44.2283 67.3608 44.107C67.3608 43.9857 67.4028 43.883 67.4868 43.799C67.5708 43.715 67.6734 43.673 67.7948 43.673C67.9114 43.673 68.0094 43.715 68.0888 43.799C68.1728 43.883 68.2148 43.9857 68.2148 44.107C68.2148 44.2283 68.1728 44.331 68.0888 44.415C68.0094 44.499 67.9114 44.541 67.7948 44.541ZM68.1028 45.164V49H67.4658V45.164H68.1028ZM71.0574 45.094C71.5241 45.094 71.9021 45.2363 72.1914 45.521C72.4807 45.801 72.6254 46.207 72.6254 46.739V49H71.9954V46.83C71.9954 46.4473 71.8997 46.1557 71.7084 45.955C71.5171 45.7497 71.2557 45.647 70.9244 45.647C70.5884 45.647 70.3201 45.752 70.1194 45.962C69.9234 46.172 69.8254 46.4777 69.8254 46.879V49H69.1884V45.164H69.8254V45.71C69.9514 45.514 70.1217 45.3623 70.3364 45.255C70.5557 45.1477 70.7961 45.094 71.0574 45.094ZM78.1922 46.165V46.704H75.3992V46.165H78.1922ZM82.8008 49.049C82.4788 49.049 82.1895 48.993 81.9328 48.881C81.6808 48.7643 81.4825 48.6057 81.3378 48.405C81.1932 48.1997 81.1185 47.964 81.1138 47.698H81.7928C81.8162 47.9267 81.9095 48.1203 82.0728 48.279C82.2408 48.433 82.4835 48.51 82.8008 48.51C83.1042 48.51 83.3422 48.4353 83.5148 48.286C83.6922 48.132 83.7808 47.936 83.7808 47.698C83.7808 47.5113 83.7295 47.3597 83.6268 47.243C83.5242 47.1263 83.3958 47.0377 83.2418 46.977C83.0878 46.9163 82.8802 46.851 82.6188 46.781C82.2968 46.697 82.0378 46.613 81.8418 46.529C81.6505 46.445 81.4848 46.3143 81.3448 46.137C81.2095 45.955 81.1418 45.7123 81.1418 45.409C81.1418 45.143 81.2095 44.9073 81.3448 44.702C81.4802 44.4967 81.6692 44.338 81.9118 44.226C82.1592 44.114 82.4415 44.058 82.7588 44.058C83.2162 44.058 83.5895 44.1723 83.8788 44.401C84.1728 44.6297 84.3385 44.933 84.3758 45.311H83.6758C83.6525 45.1243 83.5545 44.961 83.3818 44.821C83.2092 44.6763 82.9805 44.604 82.6958 44.604C82.4298 44.604 82.2128 44.674 82.0448 44.814C81.8768 44.9493 81.7928 45.1407 81.7928 45.388C81.7928 45.5653 81.8418 45.71 81.9398 45.822C82.0425 45.934 82.1662 46.0203 82.3108 46.081C82.4602 46.137 82.6678 46.2023 82.9338 46.277C83.2558 46.3657 83.5148 46.4543 83.7108 46.543C83.9068 46.627 84.0748 46.76 84.2148 46.942C84.3548 47.1193 84.4248 47.362 84.4248 47.67C84.4248 47.908 84.3618 48.132 84.2358 48.342C84.1098 48.552 83.9232 48.7223 83.6758 48.853C83.4285 48.9837 83.1368 49.049 82.8008 49.049ZM85.1242 47.068C85.1242 46.676 85.2036 46.333 85.3622 46.039C85.5209 45.7403 85.7379 45.5093 86.0132 45.346C86.2932 45.1827 86.6036 45.101 86.9442 45.101C87.2802 45.101 87.5719 45.1733 87.8192 45.318C88.0666 45.4627 88.2509 45.6447 88.3722 45.864V45.164H89.0162V49H88.3722V48.286C88.2462 48.51 88.0572 48.6967 87.8052 48.846C87.5579 48.9907 87.2686 49.063 86.9372 49.063C86.5966 49.063 86.2886 48.979 86.0132 48.811C85.7379 48.643 85.5209 48.4073 85.3622 48.104C85.2036 47.8007 85.1242 47.4553 85.1242 47.068ZM88.3722 47.075C88.3722 46.7857 88.3139 46.5337 88.1972 46.319C88.0806 46.1043 87.9219 45.941 87.7212 45.829C87.5252 45.7123 87.3082 45.654 87.0702 45.654C86.8322 45.654 86.6152 45.71 86.4192 45.822C86.2232 45.934 86.0669 46.0973 85.9502 46.312C85.8336 46.5267 85.7752 46.7787 85.7752 47.068C85.7752 47.362 85.8336 47.6187 85.9502 47.838C86.0669 48.0527 86.2232 48.2183 86.4192 48.335C86.6152 48.447 86.8322 48.503 87.0702 48.503C87.3082 48.503 87.5252 48.447 87.7212 48.335C87.9219 48.2183 88.0806 48.0527 88.1972 47.838C88.3139 47.6187 88.3722 47.3643 88.3722 47.075ZM90.7297 45.878C90.8604 45.6493 91.0517 45.4627 91.3037 45.318C91.5557 45.1733 91.8427 45.101 92.1647 45.101C92.51 45.101 92.8204 45.1827 93.0957 45.346C93.371 45.5093 93.588 45.7403 93.7467 46.039C93.9054 46.333 93.9847 46.676 93.9847 47.068C93.9847 47.4553 93.9054 47.8007 93.7467 48.104C93.588 48.4073 93.3687 48.643 93.0887 48.811C92.8134 48.979 92.5054 49.063 92.1647 49.063C91.8334 49.063 91.5417 48.9907 91.2897 48.846C91.0424 48.7013 90.8557 48.517 90.7297 48.293V49H90.0927V43.82H90.7297V45.878ZM93.3337 47.068C93.3337 46.7787 93.2754 46.5267 93.1587 46.312C93.042 46.0973 92.8834 45.934 92.6827 45.822C92.4867 45.71 92.2697 45.654 92.0317 45.654C91.7984 45.654 91.5814 45.7123 91.3807 45.829C91.1847 45.941 91.026 46.1067 90.9047 46.326C90.788 46.5407 90.7297 46.7903 90.7297 47.075C90.7297 47.3643 90.788 47.6187 90.9047 47.838C91.026 48.0527 91.1847 48.2183 91.3807 48.335C91.5814 48.447 91.7984 48.503 92.0317 48.503C92.2697 48.503 92.4867 48.447 92.6827 48.335C92.8834 48.2183 93.042 48.0527 93.1587 47.838C93.2754 47.6187 93.3337 47.362 93.3337 47.068ZM95.6002 45.689V47.95C95.6002 48.1367 95.6398 48.2697 95.7192 48.349C95.7985 48.4237 95.9362 48.461 96.1322 48.461H96.6012V49H96.0272C95.6725 49 95.4065 48.9183 95.2292 48.755C95.0518 48.5917 94.9632 48.3233 94.9632 47.95V45.689H94.4662V45.164H94.9632V44.198H95.6002V45.164H96.6012V45.689H95.6002ZM100.775 45.164V49H100.138V48.433C100.017 48.629 99.8463 48.783 99.627 48.895C99.4123 49.0023 99.1743 49.056 98.913 49.056C98.6143 49.056 98.346 48.9953 98.108 48.874C97.87 48.748 97.681 48.5613 97.541 48.314C97.4057 48.0667 97.338 47.7657 97.338 47.411V45.164H97.968V47.327C97.968 47.705 98.0637 47.9967 98.255 48.202C98.4463 48.4027 98.7077 48.503 99.039 48.503C99.3797 48.503 99.648 48.398 99.844 48.188C100.04 47.978 100.138 47.6723 100.138 47.271V45.164H100.775Z" fill="white"/>
<path d="M103.612 46.417C103.612 45.6143 103.742 44.989 104.004 44.541C104.265 44.0883 104.722 43.862 105.376 43.862C106.024 43.862 106.479 44.0883 106.741 44.541C107.002 44.989 107.133 45.6143 107.133 46.417C107.133 47.2337 107.002 47.8683 106.741 48.321C106.479 48.7737 106.024 49 105.376 49C104.722 49 104.265 48.7737 104.004 48.321C103.742 47.8683 103.612 47.2337 103.612 46.417ZM106.503 46.417C106.503 46.011 106.475 45.668 106.419 45.388C106.367 45.1033 106.258 44.8747 106.09 44.702C105.926 44.5293 105.688 44.443 105.376 44.443C105.058 44.443 104.816 44.5293 104.648 44.702C104.484 44.8747 104.375 45.1033 104.319 45.388C104.267 45.668 104.242 46.011 104.242 46.417C104.242 46.837 104.267 47.1893 104.319 47.474C104.375 47.7587 104.484 47.9873 104.648 48.16C104.816 48.3327 105.058 48.419 105.376 48.419C105.688 48.419 105.926 48.3327 106.09 48.16C106.258 47.9873 106.367 47.7587 106.419 47.474C106.475 47.1893 106.503 46.837 106.503 46.417ZM108.931 46.368C108.67 46.2653 108.469 46.116 108.329 45.92C108.189 45.724 108.119 45.486 108.119 45.206C108.119 44.954 108.182 44.7277 108.308 44.527C108.434 44.3217 108.621 44.1607 108.868 44.044C109.12 43.9227 109.424 43.862 109.778 43.862C110.133 43.862 110.434 43.9227 110.681 44.044C110.933 44.1607 111.122 44.3217 111.248 44.527C111.379 44.7277 111.444 44.954 111.444 45.206C111.444 45.4767 111.372 45.7147 111.227 45.92C111.083 46.1207 110.884 46.27 110.632 46.368C110.922 46.4567 111.15 46.613 111.318 46.837C111.491 47.0563 111.577 47.3223 111.577 47.635C111.577 47.9383 111.503 48.2043 111.353 48.433C111.204 48.657 110.992 48.832 110.716 48.958C110.446 49.0793 110.133 49.14 109.778 49.14C109.424 49.14 109.111 49.0793 108.84 48.958C108.574 48.832 108.367 48.657 108.217 48.433C108.068 48.2043 107.993 47.9383 107.993 47.635C107.993 47.3223 108.077 47.054 108.245 46.83C108.413 46.606 108.642 46.452 108.931 46.368ZM110.828 45.283C110.828 44.9983 110.735 44.779 110.548 44.625C110.362 44.471 110.105 44.394 109.778 44.394C109.456 44.394 109.202 44.471 109.015 44.625C108.829 44.779 108.735 45.0007 108.735 45.29C108.735 45.5513 108.831 45.7613 109.022 45.92C109.218 46.0787 109.47 46.158 109.778 46.158C110.091 46.158 110.343 46.0787 110.534 45.92C110.73 45.7567 110.828 45.5443 110.828 45.283ZM109.778 46.648C109.433 46.648 109.151 46.7297 108.931 46.893C108.712 47.0517 108.602 47.292 108.602 47.614C108.602 47.9127 108.707 48.153 108.917 48.335C109.132 48.517 109.419 48.608 109.778 48.608C110.138 48.608 110.422 48.517 110.632 48.335C110.842 48.153 110.947 47.9127 110.947 47.614C110.947 47.3013 110.84 47.0633 110.625 46.9C110.411 46.732 110.128 46.648 109.778 46.648ZM112.731 49.042C112.61 49.042 112.507 49 112.423 48.916C112.339 48.832 112.297 48.7293 112.297 48.608C112.297 48.4867 112.339 48.384 112.423 48.3C112.507 48.216 112.61 48.174 112.731 48.174C112.848 48.174 112.946 48.216 113.025 48.3C113.109 48.384 113.151 48.4867 113.151 48.608C113.151 48.7293 113.109 48.832 113.025 48.916C112.946 49 112.848 49.042 112.731 49.042ZM112.731 46.046C112.61 46.046 112.507 46.004 112.423 45.92C112.339 45.836 112.297 45.7333 112.297 45.612C112.297 45.4907 112.339 45.388 112.423 45.304C112.507 45.22 112.61 45.178 112.731 45.178C112.848 45.178 112.946 45.22 113.025 45.304C113.109 45.388 113.151 45.4907 113.151 45.612C113.151 45.7333 113.109 45.836 113.025 45.92C112.946 46.004 112.848 46.046 112.731 46.046ZM113.913 46.417C113.913 45.6143 114.044 44.989 114.305 44.541C114.567 44.0883 115.024 43.862 115.677 43.862C116.326 43.862 116.781 44.0883 117.042 44.541C117.304 44.989 117.434 45.6143 117.434 46.417C117.434 47.2337 117.304 47.8683 117.042 48.321C116.781 48.7737 116.326 49 115.677 49C115.024 49 114.567 48.7737 114.305 48.321C114.044 47.8683 113.913 47.2337 113.913 46.417ZM116.804 46.417C116.804 46.011 116.776 45.668 116.72 45.388C116.669 45.1033 116.559 44.8747 116.391 44.702C116.228 44.5293 115.99 44.443 115.677 44.443C115.36 44.443 115.117 44.5293 114.949 44.702C114.786 44.8747 114.676 45.1033 114.62 45.388C114.569 45.668 114.543 46.011 114.543 46.417C114.543 46.837 114.569 47.1893 114.62 47.474C114.676 47.7587 114.786 47.9873 114.949 48.16C115.117 48.3327 115.36 48.419 115.677 48.419C115.99 48.419 116.228 48.3327 116.391 48.16C116.559 47.9873 116.669 47.7587 116.72 47.474C116.776 47.1893 116.804 46.837 116.804 46.417ZM118.309 46.417C118.309 45.6143 118.44 44.989 118.701 44.541C118.962 44.0883 119.42 43.862 120.073 43.862C120.722 43.862 121.177 44.0883 121.438 44.541C121.699 44.989 121.83 45.6143 121.83 46.417C121.83 47.2337 121.699 47.8683 121.438 48.321C121.177 48.7737 120.722 49 120.073 49C119.42 49 118.962 48.7737 118.701 48.321C118.44 47.8683 118.309 47.2337 118.309 46.417ZM121.2 46.417C121.2 46.011 121.172 45.668 121.116 45.388C121.065 45.1033 120.955 44.8747 120.787 44.702C120.624 44.5293 120.386 44.443 120.073 44.443C119.756 44.443 119.513 44.5293 119.345 44.702C119.182 44.8747 119.072 45.1033 119.016 45.388C118.965 45.668 118.939 46.011 118.939 46.417C118.939 46.837 118.965 47.1893 119.016 47.474C119.072 47.7587 119.182 47.9873 119.345 48.16C119.513 48.3327 119.756 48.419 120.073 48.419C120.386 48.419 120.624 48.3327 120.787 48.16C120.955 47.9873 121.065 47.7587 121.116 47.474C121.172 47.1893 121.2 46.837 121.2 46.417ZM127.336 46.165V46.704H124.543V46.165H127.336ZM130.124 44.52V43.939H131.44V49H130.796V44.52H130.124ZM135.65 44.436L133.704 49H133.06L135.034 44.499H132.332V43.953H135.65V44.436ZM136.664 49.042C136.543 49.042 136.44 49 136.356 48.916C136.272 48.832 136.23 48.7293 136.23 48.608C136.23 48.4867 136.272 48.384 136.356 48.3C136.44 48.216 136.543 48.174 136.664 48.174C136.781 48.174 136.879 48.216 136.958 48.3C137.042 48.384 137.084 48.4867 137.084 48.608C137.084 48.7293 137.042 48.832 136.958 48.916C136.879 49 136.781 49.042 136.664 49.042ZM136.664 46.046C136.543 46.046 136.44 46.004 136.356 45.92C136.272 45.836 136.23 45.7333 136.23 45.612C136.23 45.4907 136.272 45.388 136.356 45.304C136.44 45.22 136.543 45.178 136.664 45.178C136.781 45.178 136.879 45.22 136.958 45.304C137.042 45.388 137.084 45.4907 137.084 45.612C137.084 45.7333 137.042 45.836 136.958 45.92C136.879 46.004 136.781 46.046 136.664 46.046ZM137.846 46.417C137.846 45.6143 137.977 44.989 138.238 44.541C138.499 44.0883 138.957 43.862 139.61 43.862C140.259 43.862 140.714 44.0883 140.975 44.541C141.236 44.989 141.367 45.6143 141.367 46.417C141.367 47.2337 141.236 47.8683 140.975 48.321C140.714 48.7737 140.259 49 139.61 49C138.957 49 138.499 48.7737 138.238 48.321C137.977 47.8683 137.846 47.2337 137.846 46.417ZM140.737 46.417C140.737 46.011 140.709 45.668 140.653 45.388C140.602 45.1033 140.492 44.8747 140.324 44.702C140.161 44.5293 139.923 44.443 139.61 44.443C139.293 44.443 139.05 44.5293 138.882 44.702C138.719 44.8747 138.609 45.1033 138.553 45.388C138.502 45.668 138.476 46.011 138.476 46.417C138.476 46.837 138.502 47.1893 138.553 47.474C138.609 47.7587 138.719 47.9873 138.882 48.16C139.05 48.3327 139.293 48.419 139.61 48.419C139.923 48.419 140.161 48.3327 140.324 48.16C140.492 47.9873 140.602 47.7587 140.653 47.474C140.709 47.1893 140.737 46.837 140.737 46.417ZM142.242 46.417C142.242 45.6143 142.372 44.989 142.634 44.541C142.895 44.0883 143.352 43.862 144.006 43.862C144.654 43.862 145.109 44.0883 145.371 44.541C145.632 44.989 145.763 45.6143 145.763 46.417C145.763 47.2337 145.632 47.8683 145.371 48.321C145.109 48.7737 144.654 49 144.006 49C143.352 49 142.895 48.7737 142.634 48.321C142.372 47.8683 142.242 47.2337 142.242 46.417ZM145.133 46.417C145.133 46.011 145.105 45.668 145.049 45.388C144.997 45.1033 144.888 44.8747 144.72 44.702C144.556 44.5293 144.318 44.443 144.006 44.443C143.688 44.443 143.446 44.5293 143.278 44.702C143.114 44.8747 143.005 45.1033 142.949 45.388C142.897 45.668 142.872 46.011 142.872 46.417C142.872 46.837 142.897 47.1893 142.949 47.474C143.005 47.7587 143.114 47.9873 143.278 48.16C143.446 48.3327 143.688 48.419 144.006 48.419C144.318 48.419 144.556 48.3327 144.72 48.16C144.888 47.9873 144.997 47.7587 145.049 47.474C145.105 47.1893 145.133 46.837 145.133 46.417Z" fill="black"/>
</g>
<g filter="url(#filter8_d)">
<path d="M74.02 31.02L72.07 38H70.42L69.11 33.03L67.74 38L66.1 38.01L64.22 31.02H65.72L66.95 36.44L68.37 31.02H69.93L71.27 36.41L72.51 31.02H74.02ZM74.5741 35.21C74.5741 34.65 74.6841 34.1533 74.9041 33.72C75.1308 33.2867 75.4341 32.9533 75.8141 32.72C76.2008 32.4867 76.6308 32.37 77.1041 32.37C77.5175 32.37 77.8775 32.4533 78.1841 32.62C78.4975 32.7867 78.7475 32.9967 78.9341 33.25V32.46H80.3441V38H78.9341V37.19C78.7541 37.45 78.5041 37.6667 78.1841 37.84C77.8708 38.0067 77.5075 38.09 77.0941 38.09C76.6275 38.09 76.2008 37.97 75.8141 37.73C75.4341 37.49 75.1308 37.1533 74.9041 36.72C74.6841 36.28 74.5741 35.7767 74.5741 35.21ZM78.9341 35.23C78.9341 34.89 78.8675 34.6 78.7341 34.36C78.6008 34.1133 78.4208 33.9267 78.1941 33.8C77.9675 33.6667 77.7241 33.6 77.4641 33.6C77.2041 33.6 76.9641 33.6633 76.7441 33.79C76.5241 33.9167 76.3441 34.1033 76.2041 34.35C76.0708 34.59 76.0041 34.8767 76.0041 35.21C76.0041 35.5433 76.0708 35.8367 76.2041 36.09C76.3441 36.3367 76.5241 36.5267 76.7441 36.66C76.9708 36.7933 77.2108 36.86 77.4641 36.86C77.7241 36.86 77.9675 36.7967 78.1941 36.67C78.4208 36.5367 78.6008 36.35 78.7341 36.11C78.8675 35.8633 78.9341 35.57 78.9341 35.23ZM84.9915 38L83.1115 35.64V38H81.7115V30.6H83.1115V34.81L84.9715 32.46H86.7915L84.3515 35.24L86.8115 38H84.9915ZM89.1813 33.61V36.29C89.1813 36.4767 89.2247 36.6133 89.3113 36.7C89.4047 36.78 89.558 36.82 89.7713 36.82H90.4213V38H89.5413C88.3613 38 87.7713 37.4267 87.7713 36.28V33.61H87.1113V32.46H87.7713V31.09H89.1813V32.46H90.4213V33.61H89.1813ZM96.6583 32.46V38H95.2483V37.3C95.0683 37.54 94.8316 37.73 94.5383 37.87C94.2516 38.0033 93.9383 38.07 93.5983 38.07C93.1649 38.07 92.7816 37.98 92.4483 37.8C92.1149 37.6133 91.8516 37.3433 91.6583 36.99C91.4716 36.63 91.3783 36.2033 91.3783 35.71V32.46H92.7783V35.51C92.7783 35.95 92.8883 36.29 93.1083 36.53C93.3283 36.7633 93.6283 36.88 94.0083 36.88C94.3949 36.88 94.6983 36.7633 94.9183 36.53C95.1383 36.29 95.2483 35.95 95.2483 35.51V32.46H96.6583ZM104.382 34.42C104.776 34.4933 105.099 34.69 105.352 35.01C105.606 35.33 105.732 35.6967 105.732 36.11C105.732 36.4833 105.639 36.8133 105.452 37.1C105.272 37.38 105.009 37.6 104.662 37.76C104.316 37.92 103.906 38 103.432 38H100.422V31.02H103.302C103.776 31.02 104.182 31.0967 104.522 31.25C104.869 31.4033 105.129 31.6167 105.302 31.89C105.482 32.1633 105.572 32.4733 105.572 32.82C105.572 33.2267 105.462 33.5667 105.242 33.84C105.029 34.1133 104.742 34.3067 104.382 34.42ZM101.822 33.9H103.102C103.436 33.9 103.692 33.8267 103.872 33.68C104.052 33.5267 104.142 33.31 104.142 33.03C104.142 32.75 104.052 32.5333 103.872 32.38C103.692 32.2267 103.436 32.15 103.102 32.15H101.822V33.9ZM103.232 36.86C103.572 36.86 103.836 36.78 104.022 36.62C104.216 36.46 104.312 36.2333 104.312 35.94C104.312 35.64 104.212 35.4067 104.012 35.24C103.812 35.0667 103.542 34.98 103.202 34.98H101.822V36.86H103.232ZM111.998 35.11C111.998 35.31 111.985 35.49 111.958 35.65H107.908C107.942 36.05 108.082 36.3633 108.328 36.59C108.575 36.8167 108.878 36.93 109.238 36.93C109.758 36.93 110.128 36.7067 110.348 36.26H111.858C111.698 36.7933 111.392 37.2333 110.938 37.58C110.485 37.92 109.928 38.09 109.268 38.09C108.735 38.09 108.255 37.9733 107.828 37.74C107.408 37.5 107.078 37.1633 106.838 36.73C106.605 36.2967 106.488 35.7967 106.488 35.23C106.488 34.6567 106.605 34.1533 106.838 33.72C107.072 33.2867 107.398 32.9533 107.818 32.72C108.238 32.4867 108.722 32.37 109.268 32.37C109.795 32.37 110.265 32.4833 110.678 32.71C111.098 32.9367 111.422 33.26 111.648 33.68C111.882 34.0933 111.998 34.57 111.998 35.11ZM110.548 34.71C110.542 34.35 110.412 34.0633 110.158 33.85C109.905 33.63 109.595 33.52 109.228 33.52C108.882 33.52 108.588 33.6267 108.348 33.84C108.115 34.0467 107.972 34.3367 107.918 34.71H110.548ZM114.42 30.6V38H113.02V30.6H114.42ZM115.443 35.21C115.443 34.65 115.553 34.1533 115.773 33.72C116 33.2867 116.303 32.9533 116.683 32.72C117.07 32.4867 117.5 32.37 117.973 32.37C118.387 32.37 118.747 32.4533 119.053 32.62C119.367 32.7867 119.617 32.9967 119.803 33.25V32.46H121.213V38H119.803V37.19C119.623 37.45 119.373 37.6667 119.053 37.84C118.74 38.0067 118.377 38.09 117.963 38.09C117.497 38.09 117.07 37.97 116.683 37.73C116.303 37.49 116 37.1533 115.773 36.72C115.553 36.28 115.443 35.7767 115.443 35.21ZM119.803 35.23C119.803 34.89 119.737 34.6 119.603 34.36C119.47 34.1133 119.29 33.9267 119.063 33.8C118.837 33.6667 118.593 33.6 118.333 33.6C118.073 33.6 117.833 33.6633 117.613 33.79C117.393 33.9167 117.213 34.1033 117.073 34.35C116.94 34.59 116.873 34.8767 116.873 35.21C116.873 35.5433 116.94 35.8367 117.073 36.09C117.213 36.3367 117.393 36.5267 117.613 36.66C117.84 36.7933 118.08 36.86 118.333 36.86C118.593 36.86 118.837 36.7967 119.063 36.67C119.29 36.5367 119.47 36.35 119.603 36.11C119.737 35.8633 119.803 35.57 119.803 35.23ZM123.291 31.8C123.037 31.8 122.827 31.7233 122.661 31.57C122.501 31.41 122.421 31.2133 122.421 30.98C122.421 30.7467 122.501 30.5533 122.661 30.4C122.827 30.24 123.037 30.16 123.291 30.16C123.537 30.16 123.741 30.24 123.901 30.4C124.061 30.5533 124.141 30.7467 124.141 30.98C124.141 31.2133 124.061 31.41 123.901 31.57C123.741 31.7233 123.537 31.8 123.291 31.8ZM123.981 38.91C123.981 39.5233 123.827 39.9633 123.521 40.23C123.221 40.5033 122.787 40.64 122.221 40.64H121.601V39.45H122.001C122.214 39.45 122.364 39.4067 122.451 39.32C122.537 39.24 122.581 39.1067 122.581 38.92V32.46H123.981V38.91ZM125.004 35.21C125.004 34.65 125.114 34.1533 125.334 33.72C125.56 33.2867 125.864 32.9533 126.244 32.72C126.63 32.4867 127.06 32.37 127.534 32.37C127.947 32.37 128.307 32.4533 128.614 32.62C128.927 32.7867 129.177 32.9967 129.364 33.25V32.46H130.774V38H129.364V37.19C129.184 37.45 128.934 37.6667 128.614 37.84C128.3 38.0067 127.937 38.09 127.524 38.09C127.057 38.09 126.63 37.97 126.244 37.73C125.864 37.49 125.56 37.1533 125.334 36.72C125.114 36.28 125.004 35.7767 125.004 35.21ZM129.364 35.23C129.364 34.89 129.297 34.6 129.164 34.36C129.03 34.1133 128.85 33.9267 128.624 33.8C128.397 33.6667 128.154 33.6 127.894 33.6C127.634 33.6 127.394 33.6633 127.174 33.79C126.954 33.9167 126.774 34.1033 126.634 34.35C126.5 34.59 126.434 34.8767 126.434 35.21C126.434 35.5433 126.5 35.8367 126.634 36.09C126.774 36.3367 126.954 36.5267 127.174 36.66C127.4 36.7933 127.64 36.86 127.894 36.86C128.154 36.86 128.397 36.7967 128.624 36.67C128.85 36.5367 129.03 36.35 129.164 36.11C129.297 35.8633 129.364 35.57 129.364 35.23ZM133.541 33.32C133.721 33.0267 133.955 32.7967 134.241 32.63C134.535 32.4633 134.868 32.38 135.241 32.38V33.85H134.871C134.431 33.85 134.098 33.9533 133.871 34.16C133.651 34.3667 133.541 34.7267 133.541 35.24V38H132.141V32.46H133.541V33.32Z" fill="white"/>
</g>
<g filter="url(#filter9_d)">
<path d="M159.542 105.121V105.639H158.212V110H157.575V105.639H156.238V105.121H159.542ZM160.963 106.787C161.075 106.568 161.234 106.397 161.439 106.276C161.649 106.155 161.903 106.094 162.202 106.094V106.752H162.034C161.32 106.752 160.963 107.139 160.963 107.914V110H160.326V106.164H160.963V106.787ZM166.241 106.164L163.931 111.806H163.273L164.029 109.958L162.482 106.164H163.189L164.393 109.272L165.583 106.164H166.241Z" fill="black"/>
</g>
<g filter="url(#filter10_d)">
<path d="M146.97 97.67H144.19L143.73 99H142.26L144.77 92.01H146.4L148.91 99H147.43L146.97 97.67ZM146.59 96.55L145.58 93.63L144.57 96.55H146.59ZM151.248 91.6V99H149.848V91.6H151.248ZM152.271 96.21C152.271 95.65 152.381 95.1533 152.601 94.72C152.828 94.2867 153.131 93.9533 153.511 93.72C153.898 93.4867 154.328 93.37 154.801 93.37C155.215 93.37 155.575 93.4533 155.881 93.62C156.195 93.7867 156.445 93.9967 156.631 94.25V93.46H158.041V99H156.631V98.19C156.451 98.45 156.201 98.6667 155.881 98.84C155.568 99.0067 155.205 99.09 154.791 99.09C154.325 99.09 153.898 98.97 153.511 98.73C153.131 98.49 152.828 98.1533 152.601 97.72C152.381 97.28 152.271 96.7767 152.271 96.21ZM156.631 96.23C156.631 95.89 156.565 95.6 156.431 95.36C156.298 95.1133 156.118 94.9267 155.891 94.8C155.665 94.6667 155.421 94.6 155.161 94.6C154.901 94.6 154.661 94.6633 154.441 94.79C154.221 94.9167 154.041 95.1033 153.901 95.35C153.768 95.59 153.701 95.8767 153.701 96.21C153.701 96.5433 153.768 96.8367 153.901 97.09C154.041 97.3367 154.221 97.5267 154.441 97.66C154.668 97.7933 154.908 97.86 155.161 97.86C155.421 97.86 155.665 97.7967 155.891 97.67C156.118 97.5367 156.298 97.35 156.431 97.11C156.565 96.8633 156.631 96.57 156.631 96.23ZM166.289 93.38C166.969 93.38 167.515 93.59 167.929 94.01C168.349 94.4233 168.559 95.0033 168.559 95.75V99H167.159V95.94C167.159 95.5067 167.049 95.1767 166.829 94.95C166.609 94.7167 166.309 94.6 165.929 94.6C165.549 94.6 165.245 94.7167 165.019 94.95C164.799 95.1767 164.689 95.5067 164.689 95.94V99H163.289V95.94C163.289 95.5067 163.179 95.1767 162.959 94.95C162.739 94.7167 162.439 94.6 162.059 94.6C161.672 94.6 161.365 94.7167 161.139 94.95C160.919 95.1767 160.809 95.5067 160.809 95.94V99H159.409V93.46H160.809V94.13C160.989 93.8967 161.219 93.7133 161.499 93.58C161.785 93.4467 162.099 93.38 162.439 93.38C162.872 93.38 163.259 93.4733 163.599 93.66C163.939 93.84 164.202 94.1 164.389 94.44C164.569 94.12 164.829 93.8633 165.169 93.67C165.515 93.4767 165.889 93.38 166.289 93.38ZM169.527 96.21C169.527 95.65 169.637 95.1533 169.857 94.72C170.084 94.2867 170.387 93.9533 170.767 93.72C171.154 93.4867 171.584 93.37 172.057 93.37C172.471 93.37 172.831 93.4533 173.137 93.62C173.451 93.7867 173.701 93.9967 173.887 94.25V93.46H175.297V99H173.887V98.19C173.707 98.45 173.457 98.6667 173.137 98.84C172.824 99.0067 172.461 99.09 172.047 99.09C171.581 99.09 171.154 98.97 170.767 98.73C170.387 98.49 170.084 98.1533 169.857 97.72C169.637 97.28 169.527 96.7767 169.527 96.21ZM173.887 96.23C173.887 95.89 173.821 95.6 173.687 95.36C173.554 95.1133 173.374 94.9267 173.147 94.8C172.921 94.6667 172.677 94.6 172.417 94.6C172.157 94.6 171.917 94.6633 171.697 94.79C171.477 94.9167 171.297 95.1033 171.157 95.35C171.024 95.59 170.957 95.8767 170.957 96.21C170.957 96.5433 171.024 96.8367 171.157 97.09C171.297 97.3367 171.477 97.5267 171.697 97.66C171.924 97.7933 172.164 97.86 172.417 97.86C172.677 97.86 172.921 97.7967 173.147 97.67C173.374 97.5367 173.554 97.35 173.687 97.11C173.821 96.8633 173.887 96.57 173.887 96.23ZM178.295 94.61V97.29C178.295 97.4767 178.338 97.6133 178.425 97.7C178.518 97.78 178.671 97.82 178.885 97.82H179.535V99H178.655C177.475 99 176.885 98.4267 176.885 97.28V94.61H176.225V93.46H176.885V92.09H178.295V93.46H179.535V94.61H178.295Z" fill="white"/>
</g>
<defs>
<filter id="filter0_d" x="23" y="64" width="26" height="25" filterUnits="userSpaceOnUse" color-interpolation-filters="sRGB">
<feFlood flood-opacity="0" result="BackgroundImageFix"/>
<feColorMatrix in="SourceAlpha" type="matrix" values="0 0 0 0 0 0 0 0 0 0 0 0 0 0 0 0 0 0 127 0" result="hardAlpha"/>
<feOffset/>
<feGaussianBlur stdDeviation="1"/>
<feComposite in2="hardAlpha" operator="out"/>
<feColorMatrix type="matrix" values="0 0 0 0 0 0 0 0 0 0 0 0 0 0 0 0 0 0 0.25 0"/>
<feBlend mode="normal" in2="BackgroundImageFix" result="effect1_dropShadow"/>
<feBlend mode="normal" in="SourceGraphic" in2="effect1_dropShadow" result="shape"/>
</filter>
<filter id="filter1_d" x="86" y="0" width="25" height="25" filterUnits="userSpaceOnUse" color-interpolation-filters="sRGB">
<feFlood flood-opacity="0" result="BackgroundImageFix"/>
<feColorMatrix in="SourceAlpha" type="matrix" values="0 0 0 0 0 0 0 0 0 0 0 0 0 0 0 0 0 0 127 0" result="hardAlpha"/>
<feOffset/>
<feGaussianBlur stdDeviation="1"/>
<feComposite in2="hardAlpha" operator="out"/>
<feColorMatrix type="matrix" values="0 0 0 0 0 0 0 0 0 0 0 0 0 0 0 0 0 0 0.5 0"/>
<feBlend mode="normal" in2="BackgroundImageFix" result="effect1_dropShadow"/>
<feBlend mode="normal" in="SourceGraphic" in2="effect1_dropShadow" result="shape"/>
</filter>
<filter id="filter2_d" x="95" y="5" width="9" height="10" filterUnits="userSpaceOnUse" color-interpolation-filters="sRGB">
<feFlood flood-opacity="0" result="BackgroundImageFix"/>
<feColorMatrix in="SourceAlpha" type="matrix" values="0 0 0 0 0 0 0 0 0 0 0 0 0 0 0 0 0 0 127 0" result="hardAlpha"/>
<feOffset/>
<feGaussianBlur stdDeviation="1"/>
<feComposite in2="hardAlpha" operator="out"/>
<feColorMatrix type="matrix" values="0 0 0 0 0 0 0 0 0 0 0 0 0 0 0 0 0 0 0.5 0"/>
<feBlend mode="normal" in2="BackgroundImageFix" result="effect1_dropShadow"/>
<feBlend mode="normal" in="SourceGraphic" in2="effect1_dropShadow" result="shape"/>
</filter>
<filter id="filter3_d" x="153" y="60" width="16" height="21" filterUnits="userSpaceOnUse" color-interpolation-filters="sRGB">
<feFlood flood-opacity="0" result="BackgroundImageFix"/>
<feColorMatrix in="SourceAlpha" type="matrix" values="0 0 0 0 0 0 0 0 0 0 0 0 0 0 0 0 0 0 127 0" result="hardAlpha"/>
<feOffset/>
<feGaussianBlur stdDeviation="1"/>
<feComposite in2="hardAlpha" operator="out"/>
<feColorMatrix type="matrix" values="0 0 0 0 0 0 0 0 0 0 0 0 0 0 0 0 0 0 0.5 0"/>
<feBlend mode="normal" in2="BackgroundImageFix" result="effect1_dropShadow"/>
<feBlend mode="normal" in="SourceGraphic" in2="effect1_dropShadow" result="shape"/>
</filter>
<filter id="filter4_d" x="154" y="78" width="14" height="8" filterUnits="userSpaceOnUse" color-interpolation-filters="sRGB">
<feFlood flood-opacity="0" result="BackgroundImageFix"/>
<feColorMatrix in="SourceAlpha" type="matrix" values="0 0 0 0 0 0 0 0 0 0 0 0 0 0 0 0 0 0 127 0" result="hardAlpha"/>
<feOffset/>
<feGaussianBlur stdDeviation="1"/>
<feComposite in2="hardAlpha" operator="out"/>
<feColorMatrix type="matrix" values="0 0 0 0 0 0 0 0 0 0 0 0 0 0 0 0 0 0 0.5 0"/>
<feBlend mode="normal" in2="BackgroundImageFix" result="effect1_dropShadow"/>
<feBlend mode="normal" in="SourceGraphic" in2="effect1_dropShadow" result="shape"/>
</filter>
<filter id="filter5_d" x="0.609375" y="105.834" width="66.8867" height="9.30603" filterUnits="userSpaceOnUse" color-interpolation-filters="sRGB">
<feFlood flood-opacity="0" result="BackgroundImageFix"/>
<feColorMatrix in="SourceAlpha" type="matrix" values="0 0 0 0 0 0 0 0 0 0 0 0 0 0 0 0 0 0 127 0" result="hardAlpha"/>
<feOffset/>
<feGaussianBlur stdDeviation="1"/>
<feComposite in2="hardAlpha" operator="out"/>
<feColorMatrix type="matrix" values="0 0 0 0 0 0 0 0 0 0 0 0 0 0 0 0 0 0 0.4 0"/>
<feBlend mode="normal" in2="BackgroundImageFix" result="effect1_dropShadow"/>
<feBlend mode="normal" in="SourceGraphic" in2="effect1_dropShadow" result="shape"/>
</filter>
<filter id="filter6_d" x="14.6914" y="92.6" width="39.3711" height="11.4901" filterUnits="userSpaceOnUse" color-interpolation-filters="sRGB">
<feFlood flood-opacity="0" result="BackgroundImageFix"/>
<feColorMatrix in="SourceAlpha" type="matrix" values="0 0 0 0 0 0 0 0 0 0 0 0 0 0 0 0 0 0 127 0" result="hardAlpha"/>
<feOffset/>
<feGaussianBlur stdDeviation="1"/>
<feComposite in2="hardAlpha" operator="out"/>
<feColorMatrix type="matrix" values="0 0 0 0 0 0 0 0 0 0 0 0 0 0 0 0 0 0 0.45 0"/>
<feBlend mode="normal" in2="BackgroundImageFix" result="effect1_dropShadow"/>
<feBlend mode="normal" in="SourceGraphic" in2="effect1_dropShadow" result="shape"/>
</filter>
<filter id="filter7_d" x="52.3984" y="41.673" width="95.3633" height="9.46704" filterUnits="userSpaceOnUse" color-interpolation-filters="sRGB">
<feFlood flood-opacity="0" result="BackgroundImageFix"/>
<feColorMatrix in="SourceAlpha" type="matrix" values="0 0 0 0 0 0 0 0 0 0 0 0 0 0 0 0 0 0 127 0" result="hardAlpha"/>
<feOffset/>
<feGaussianBlur stdDeviation="1"/>
<feComposite in2="hardAlpha" operator="out"/>
<feColorMatrix type="matrix" values="0 0 0 0 0 0 0 0 0 0 0 0 0 0 0 0 0 0 0.4 0"/>
<feBlend mode="normal" in2="BackgroundImageFix" result="effect1_dropShadow"/>
<feBlend mode="normal" in="SourceGraphic" in2="effect1_dropShadow" result="shape"/>
</filter>
<filter id="filter8_d" x="62.2188" y="28.16" width="75.0234" height="14.48" filterUnits="userSpaceOnUse" color-interpolation-filters="sRGB">
<feFlood flood-opacity="0" result="BackgroundImageFix"/>
<feColorMatrix in="SourceAlpha" type="matrix" values="0 0 0 0 0 0 0 0 0 0 0 0 0 0 0 0 0 0 127 0" result="hardAlpha"/>
<feOffset/>
<feGaussianBlur stdDeviation="1"/>
<feComposite in2="hardAlpha" operator="out"/>
<feColorMatrix type="matrix" values="0 0 0 0 0 0 0 0 0 0 0 0 0 0 0 0 0 0 0.45 0"/>
<feBlend mode="normal" in2="BackgroundImageFix" result="effect1_dropShadow"/>
<feBlend mode="normal" in="SourceGraphic" in2="effect1_dropShadow" result="shape"/>
</filter>
<filter id="filter9_d" x="154.238" y="103.121" width="14.0039" height="10.6851" filterUnits="userSpaceOnUse" color-interpolation-filters="sRGB">
<feFlood flood-opacity="0" result="BackgroundImageFix"/>
<feColorMatrix in="SourceAlpha" type="matrix" values="0 0 0 0 0 0 0 0 0 0 0 0 0 0 0 0 0 0 127 0" result="hardAlpha"/>
<feOffset/>
<feGaussianBlur stdDeviation="1"/>
<feComposite in2="hardAlpha" operator="out"/>
<feColorMatrix type="matrix" values="0 0 0 0 0 0 0 0 0 0 0 0 0 0 0 0 0 0 0.4 0"/>
<feBlend mode="normal" in2="BackgroundImageFix" result="effect1_dropShadow"/>
<feBlend mode="normal" in="SourceGraphic" in2="effect1_dropShadow" result="shape"/>
</filter>
<filter id="filter10_d" x="140.262" y="89.6" width="41.2734" height="11.4901" filterUnits="userSpaceOnUse" color-interpolation-filters="sRGB">
<feFlood flood-opacity="0" result="BackgroundImageFix"/>
<feColorMatrix in="SourceAlpha" type="matrix" values="0 0 0 0 0 0 0 0 0 0 0 0 0 0 0 0 0 0 127 0" result="hardAlpha"/>
<feOffset/>
<feGaussianBlur stdDeviation="1"/>
<feComposite in2="hardAlpha" operator="out"/>
<feColorMatrix type="matrix" values="0 0 0 0 0 0 0 0 0 0 0 0 0 0 0 0 0 0 0.45 0"/>
<feBlend mode="normal" in2="BackgroundImageFix" result="effect1_dropShadow"/>
<feBlend mode="normal" in="SourceGraphic" in2="effect1_dropShadow" result="shape"/>
</filter>
</defs>
</svg>
