<svg width="1497" height="838" viewBox="0 0 1497 838" fill="none" xmlns="http://www.w3.org/2000/svg">
<path d="M1472.85 96.72H1406.85V40.4399C1406.85 29.7198 1402.59 19.4383 1395.02 11.8552C1387.44 4.27212 1377.16 0.00795264 1366.44 0H190.441C179.716 0 169.43 4.26063 161.846 11.8446C154.262 19.4286 150.001 29.7146 150.001 40.4399V602.71H79.7411C73.543 602.71 67.5988 605.172 63.2161 609.555C58.8333 613.938 56.3711 619.882 56.3711 626.08C56.3711 629.148 56.9757 632.187 58.1503 635.022C59.3248 637.857 61.0464 640.432 63.2167 642.602C65.3869 644.771 67.9633 646.491 70.7986 647.665C73.6339 648.838 76.6726 649.441 79.7411 649.44H210.261C216.459 649.44 222.403 651.902 226.786 656.285C231.169 660.668 233.631 666.612 233.631 672.81C233.631 675.879 233.027 678.917 231.852 681.752C230.677 684.587 228.956 687.162 226.786 689.332C224.615 691.501 222.039 693.221 219.204 694.395C216.368 695.568 213.33 696.171 210.261 696.17H128.891C122.693 696.17 116.749 698.632 112.366 703.015C107.983 707.398 105.521 713.342 105.521 719.54C105.521 725.738 107.983 731.682 112.366 736.065C116.749 740.448 122.693 742.91 128.891 742.91H150.001V797.46C150 802.771 151.045 808.03 153.077 812.937C155.109 817.844 158.087 822.303 161.843 826.058C165.598 829.814 170.057 832.792 174.964 834.824C179.871 836.856 185.13 837.901 190.441 837.9H1366.44C1371.75 837.901 1377.01 836.856 1381.92 834.824C1386.83 832.792 1391.28 829.814 1395.04 826.058C1398.79 822.303 1401.77 817.844 1403.81 812.937C1405.84 808.03 1406.88 802.771 1406.88 797.46V236.91H1423.71C1429.91 236.91 1435.85 234.449 1440.23 230.068C1444.61 225.687 1447.07 219.745 1447.07 213.55C1447.07 210.482 1446.47 207.443 1445.3 204.607C1444.12 201.772 1442.4 199.196 1440.23 197.026C1438.06 194.855 1435.49 193.134 1432.65 191.959C1429.82 190.785 1426.78 190.18 1423.71 190.18H1326.21C1323.14 190.18 1320.11 189.576 1317.27 188.402C1314.44 187.228 1311.86 185.507 1309.69 183.338C1307.52 181.169 1305.8 178.594 1304.63 175.76C1303.46 172.925 1302.85 169.888 1302.85 166.82C1302.85 163.751 1303.45 160.713 1304.63 157.877C1305.8 155.042 1307.52 152.466 1309.69 150.296C1311.86 148.125 1314.43 146.404 1317.27 145.229C1320.1 144.055 1323.14 143.45 1326.21 143.45H1472.85C1475.92 143.451 1478.96 142.848 1481.79 141.675C1484.63 140.501 1487.21 138.781 1489.38 136.612C1491.55 134.442 1493.27 131.867 1494.44 129.032C1495.62 126.197 1496.22 123.158 1496.22 120.09C1496.22 117.021 1495.62 113.982 1494.44 111.147C1493.27 108.311 1491.55 105.735 1489.38 103.565C1487.21 101.395 1484.63 99.6734 1481.79 98.4989C1478.96 97.3244 1475.92 96.72 1472.85 96.72Z" fill="url(#paint0_linear_402:6)"/>
<path d="M764.408 0H190.468C179.743 0 169.457 4.26063 161.873 11.8446C154.289 19.4286 150.028 29.7146 150.028 40.4399V602.71H79.7684C73.5703 602.71 67.626 605.172 63.2433 609.555C58.8606 613.938 56.3984 619.882 56.3984 626.08C56.3984 629.148 57.0029 632.187 58.1775 635.022C59.3521 637.857 61.0737 640.432 63.2439 642.602C65.4141 644.771 67.9905 646.491 70.8258 647.665C73.6611 648.838 76.6999 649.441 79.7684 649.44H210.288C216.487 649.44 222.431 651.902 226.813 656.285C231.196 660.668 233.658 666.612 233.658 672.81C233.658 675.879 233.054 678.917 231.879 681.752C230.705 684.587 228.983 687.162 226.813 689.332C224.643 691.501 222.066 693.221 219.231 694.395C216.396 695.568 213.357 696.171 210.288 696.17H128.918C122.72 696.17 116.776 698.632 112.393 703.015C108.011 707.398 105.548 713.342 105.548 719.54C105.548 725.738 108.011 731.682 112.393 736.065C116.776 740.448 122.72 742.91 128.918 742.91H149.998V797.46C149.997 802.771 151.042 808.03 153.074 812.937C155.106 817.844 158.085 822.303 161.84 826.058C165.596 829.814 170.054 832.792 174.961 834.824C179.868 836.856 185.127 837.901 190.438 837.9H761.078L764.408 0Z" fill="white"/>
<path d="M23.37 650.25C36.2769 650.25 46.74 639.787 46.74 626.88C46.74 613.973 36.2769 603.51 23.37 603.51C10.4631 603.51 0 613.973 0 626.88C0 639.787 10.4631 650.25 23.37 650.25Z" fill="white"/>
<defs>
<linearGradient id="paint0_linear_402:6" x1="1370.5" y1="419" x2="164.5" y2="419" gradientUnits="userSpaceOnUse">
<stop stop-color="#7FC24D"/>
<stop offset="0.794792" stop-color="#019C9C"/>
</linearGradient>
</defs>
</svg>
