<svg width="507" height="482" viewBox="0 0 507 482" fill="none" xmlns="http://www.w3.org/2000/svg">
<g opacity="0.8">
<path opacity="0.8" d="M129.219 413.81C129.219 413.67 129.299 413.54 129.339 413.39C129.549 412.72 129.759 412.04 129.959 411.39C133.959 397.54 136.079 380.69 133.409 358.01L121.899 357.07L131.729 345.45C131.729 345.45 128.649 338.71 123.989 329.37L123.539 328.47C122.539 326.47 121.54 324.47 120.43 322.34C119.87 321.24 119.289 320.13 118.709 319.01C113.019 308.13 106.219 296.01 99.8795 287.01L99.5395 286.53L98.9494 285.69C97.5394 283.69 96.3094 281.91 95.2294 280.33C94.9994 280.02 94.7894 279.71 94.5794 279.41C88.8394 271.06 87.7195 268.95 87.6295 268.48L73.2495 272.41L81.4794 262.94C71.0612 254.541 60.1664 246.751 48.8494 239.61C46.4994 244.61 34.3794 272.48 45.3294 305.1L56.4295 305.67L48.4295 310.81C48.4295 310.81 50.0094 314.43 52.7294 319.96C53.2894 321.09 53.8995 322.3 54.5495 323.59C59.7795 333.87 67.8795 348.45 76.9195 359.8C77.4695 360.49 78.0595 361.21 78.6595 361.95C79.2595 362.69 79.9394 363.47 80.6094 364.25C97.6594 384.19 129.219 413.81 129.219 413.81Z" fill="url(#paint0_linear_176:7442)"/>
<path opacity="0.52" d="M144.709 436.06C139.756 427.84 134.839 419.603 129.959 411.35C116.119 388.016 102.536 364.52 89.2092 340.86C87.9792 338.69 86.7693 336.51 85.5593 334.34C92.2193 333.28 98.7693 331.39 105.559 330.59C111.692 329.841 117.861 329.42 124.039 329.33V328.47C117.834 327.935 111.594 327.935 105.389 328.47C98.5292 329.11 91.0192 329.88 84.4792 332.4L83.9592 331.48C89.8463 328.404 96.0948 326.076 102.559 324.55C106.558 323.647 110.614 323.022 114.699 322.68C116.559 322.52 118.699 322.79 120.449 322.32C119.889 321.22 119.309 320.11 118.729 318.99C116.989 318.85 115.119 319.06 113.639 319.07C109.09 319.066 104.548 319.434 100.059 320.17C93.2593 321.34 86.9592 323.45 81.8492 327.66C78.1292 320.89 74.5192 314.08 71.0992 307.2C75.7492 303.4 80.0993 299.2 84.8993 295.6C89.4938 292.122 94.4016 289.079 99.5593 286.51L98.9692 285.67C88.2002 290.361 78.4536 297.114 70.2793 305.55C70.2334 305.476 70.1932 305.399 70.1593 305.32C77.9093 296.32 85.4592 287.02 95.2492 280.32C95.0192 280.01 94.8092 279.7 94.5992 279.4C84.5992 285.31 75.9092 294.4 69.3792 303.76C60.2092 284.85 52.6992 265.3 49.1192 244.13C49.1192 244.03 48.9592 244.04 48.9692 244.13C51.0892 272.13 75.1892 318.46 77.9692 323.44C69.6643 321.611 61.2282 320.441 52.7392 319.94C53.2992 321.07 53.9093 322.28 54.5593 323.57C62.3893 323.8 70.1992 324.26 78.0992 325.16C78.2265 325.177 78.356 325.164 78.4775 325.122C78.599 325.08 78.7091 325.011 78.7993 324.92C79.4693 326.14 85.6492 337.07 86.3592 338.32C90.7592 346.126 95.1493 353.95 99.5293 361.79C93.7793 360.23 86.9692 360.79 81.2292 361.55C80.3792 361.67 79.5193 361.79 78.6693 361.93C79.2993 362.67 79.9492 363.45 80.6192 364.23C81.1259 364.136 81.6359 364.056 82.1493 363.99C88.2493 363.12 94.3192 363.8 100.369 363.3C109.829 380.12 119.369 396.91 129.369 413.41C134.109 421.216 138.963 428.953 143.929 436.62C144.012 436.696 144.119 436.742 144.232 436.749C144.344 436.756 144.456 436.724 144.548 436.658C144.64 436.592 144.706 436.497 144.735 436.388C144.765 436.279 144.755 436.163 144.709 436.06Z" fill="#004D39"/>
<path opacity="0.8" d="M319.511 329.31C320.201 322.95 320.231 316.31 317.991 310.31C315.751 304.31 310.911 298.99 304.661 297.61C297.051 295.92 289.141 300.43 284.511 306.7C279.881 312.97 277.841 320.7 275.901 328.29C278.241 317.9 280.601 307.29 279.301 296.7C278.001 286.11 272.301 275.46 262.571 271.15C252.841 266.84 239.281 271.39 236.471 281.66C235.898 284.127 235.632 286.657 235.681 289.19L235.151 312.59C233.825 304.591 230.534 297.046 225.574 290.633C220.613 284.219 214.139 279.136 206.731 275.84C199.071 272.53 188.731 271.92 183.731 278.56C179.561 284.05 180.961 291.88 183.381 298.33C185.801 304.78 189.101 311.33 188.141 318.19C187.071 309.59 177.731 303 169.271 304.89C169.038 312.276 168.811 319.67 168.591 327.07C167.241 315.97 156.751 306.74 145.591 306.82C134.431 306.9 124.041 316.28 122.861 327.41C121.861 336.41 126.291 345.15 130.781 353.07C140.891 370.92 152.951 388.87 171.091 398.46C189.931 408.46 212.371 407.86 233.671 407.06C254.551 406.27 277.331 404.74 292.741 390.62C300.521 383.49 303.871 374.2 308.411 365.02C314.001 353.64 318.131 342.05 319.511 329.31Z" fill="url(#paint1_linear_176:7442)"/>
<path opacity="0.8" d="M213.001 399C218.915 379.751 219.974 359.337 216.081 339.58C214.821 333.21 213.001 326.85 209.531 321.38C206.061 315.91 200.721 311.38 194.391 309.97C188.061 308.56 180.761 310.86 177.221 316.29C175.631 307.03 173.961 297.56 169.311 289.39C164.661 281.22 156.371 274.48 146.981 274.34C137.591 274.2 128.171 282.67 129.541 291.96C128.141 284.79 122.691 278.21 115.541 276.76C107.201 275.07 98.5406 280.76 95.1106 288.59C91.6806 296.42 92.7507 305.59 96.0507 313.4C99.3507 321.21 104.711 328.01 110.051 334.68C104.821 328.96 95.0506 328.95 88.9106 333.68C82.7706 338.41 80.1306 346.68 80.9106 354.44C81.6906 362.2 85.5606 369.24 90.3506 375.34C101.826 389.807 118.46 399.265 136.761 401.73C136.761 401.73 211.871 398.87 213.001 399Z" fill="url(#paint2_linear_176:7442)"/>
<path opacity="0.52" d="M220.289 408C197.909 391.45 177.049 372.937 157.959 352.68C163.539 334.51 162.489 315.74 161.269 296.97C161.269 296.69 160.809 296.69 160.819 296.97C161.339 315.23 161.359 333.4 156.529 351.11C138.603 331.818 122.842 310.622 109.529 287.9C109.469 287.799 109.372 287.726 109.259 287.697C109.145 287.668 109.025 287.685 108.924 287.745C108.823 287.804 108.75 287.902 108.721 288.015C108.692 288.129 108.709 288.249 108.769 288.35C113.839 297.35 119.339 306.23 125.169 314.92C122.169 314.04 118.989 313.64 115.979 312.61C112.21 311.332 108.552 309.75 105.039 307.88C104.955 307.836 104.856 307.826 104.765 307.853C104.673 307.879 104.596 307.94 104.548 308.023C104.5 308.105 104.486 308.203 104.509 308.296C104.531 308.388 104.589 308.468 104.669 308.52C107.592 310.71 110.781 312.522 114.159 313.91C115.931 314.61 117.74 315.211 119.579 315.71C121.349 316.19 124.169 316.23 125.579 317.39C125.659 317.46 125.752 317.513 125.854 317.543C125.956 317.574 126.063 317.583 126.168 317.569C126.274 317.555 126.375 317.518 126.465 317.461C126.555 317.404 126.631 317.329 126.689 317.24C138.414 334.502 151.595 350.728 166.089 365.74C144.249 367.1 121.019 365.28 102.089 353.74C101.799 353.56 101.519 353.97 101.739 354.21C109.329 362.47 121.129 365.07 131.799 366.83C143.649 368.83 156.009 369.6 167.889 367.52C183.43 383.417 200.681 397.546 219.329 409.65C220.399 410.37 221.259 408.73 220.289 408Z" fill="#003F55"/>
<path opacity="0.8" d="M213.062 374.93C195.657 376.702 178.21 371.991 164.062 361.7C161.172 359.58 158.362 357.15 156.792 353.93C155.222 350.71 155.122 346.54 157.392 343.77C159.312 341.42 162.552 340.48 165.582 340.63C168.61 340.937 171.572 341.713 174.362 342.93C165.71 339.065 157.778 333.76 150.902 327.24C147.532 324.04 144.182 319.35 146.642 315.11C147.156 314.269 147.839 313.545 148.648 312.984C149.457 312.423 150.375 312.036 151.342 311.85C155.342 310.98 159.052 312.57 162.622 314.11C154.284 308.269 146.7 301.42 140.042 293.72C137.692 291 135.332 287.79 135.582 284.2C135.832 280.61 139.462 274.99 150.122 283.66C142.605 270.939 136.284 257.548 131.242 243.66C130.632 242.068 130.459 240.343 130.741 238.662C131.022 236.981 131.747 235.406 132.842 234.1C137.472 228.81 144.692 232.81 149.132 237.18C157.072 245.02 167.232 262.84 171.212 273.26C170.872 266.76 170.662 246.32 180.502 246.81C194.792 247.53 196.572 273.16 197.382 293.04C199.272 284.89 201.382 276.34 208.472 271.04C209.954 269.893 211.657 269.063 213.474 268.604C215.291 268.145 217.183 268.065 219.032 268.37C226.952 269.84 229.532 277.61 230.512 284.6C232.371 297.85 230.893 311.355 226.212 323.89C228.692 320.31 231.292 316.61 235.052 314.39C238.812 312.17 244.302 311.62 247.232 314.85C265.372 334.83 216.802 376.16 213.062 374.93Z" fill="url(#paint3_linear_176:7442)"/>
<path opacity="0.8" d="M159.89 324.59C171.56 330.18 183.76 334.81 195.42 340.4C190.6 331.88 185.813 323.346 181.06 314.8C169.91 308.33 159.54 300.28 149.3 292.5C148.87 292.17 149.3 291.5 149.75 291.79C159.52 298.79 169.75 305.15 179.55 312.08C166.05 287.78 152.69 263.4 138.91 239.27C138.78 239.04 139.15 238.85 139.28 239.08C153.05 262.08 166.94 285.13 180.4 308.41C180.35 295.64 182 282.79 182.03 269.99C182.03 269.79 182.33 269.81 182.34 269.99C182.95 283.17 183.88 297.23 181.5 310.29C187.18 320.143 192.763 330.04 198.25 339.98C203.54 326.78 210.52 315.17 212.1 300.61C212.112 300.548 212.145 300.493 212.193 300.453C212.242 300.413 212.302 300.391 212.365 300.391C212.428 300.391 212.488 300.413 212.537 300.453C212.585 300.493 212.618 300.548 212.63 300.61C211.404 315.048 206.707 328.977 198.94 341.21C204.34 351.03 209.597 360.916 214.71 370.87C215.15 371.71 213.88 372.35 213.4 371.54C207.66 361.793 201.993 351.993 196.4 342.14C183.63 338.27 171.16 331.44 159.76 324.72C159.745 324.714 159.731 324.704 159.721 324.691C159.71 324.678 159.703 324.663 159.699 324.647C159.696 324.631 159.697 324.614 159.701 324.598C159.706 324.582 159.715 324.568 159.726 324.556C159.738 324.544 159.753 324.536 159.768 324.531C159.784 324.526 159.801 324.526 159.817 324.529C159.834 324.532 159.849 324.54 159.861 324.55C159.874 324.561 159.884 324.574 159.89 324.59Z" fill="#00706D"/>
<path opacity="0.8" d="M257.609 424.83C261.869 410.07 262.979 393.98 257.869 379.49C249.139 354.75 224.569 339.49 200.679 328.68C194.029 325.68 186.679 322.79 179.619 324.78C172.309 326.86 167.429 333.7 163.969 340.47C154.375 359.377 151.184 380.891 154.879 401.77C158.696 422.63 169.19 441.684 184.779 456.06C191.869 462.56 200.119 468.06 209.439 470.45C218.759 472.84 232.879 471.85 239.919 464.45C248.579 455.24 254.179 436.72 257.609 424.83Z" fill="url(#paint4_linear_176:7442)"/>
<path opacity="0.52" d="M235.622 469.06C234.152 469.39 232.692 469.74 231.222 470.12C230.734 460.44 229.304 450.832 226.952 441.43C215.392 433.36 198.952 430.67 185.752 427.59C185.032 427.42 185.192 426.22 185.942 426.29C194.385 427.174 202.68 429.14 210.622 432.14C216.072 434.09 221.712 436.14 226.462 439.48C226.062 437.93 225.642 436.39 225.192 434.85C210.692 424.91 193.902 421.2 177.192 416.05C177.044 415.999 176.922 415.892 176.85 415.754C176.778 415.615 176.763 415.453 176.806 415.303C176.85 415.153 176.95 415.025 177.085 414.947C177.22 414.868 177.38 414.844 177.532 414.88C194.172 417.88 211.272 423.1 224.772 433.57C222.883 427.301 220.667 421.136 218.132 415.1C214.292 405.98 210.052 397 205.542 388.1C195.653 385.149 185.392 383.627 175.072 383.58C175.032 383.58 174.994 383.564 174.966 383.536C174.938 383.508 174.922 383.47 174.922 383.43C174.922 383.39 174.938 383.352 174.966 383.324C174.994 383.296 175.032 383.28 175.072 383.28C184.122 381.28 195.862 382.86 204.692 386.38C203.342 383.76 201.982 381.14 200.602 378.54C195.912 376.62 191.682 374.54 186.602 373.9C181.64 373.322 176.648 373.048 171.652 373.08C170.992 373.08 171.042 372.08 171.652 372.08C180.272 371.37 191.652 370.48 199.192 375.98C195.962 369.98 192.632 364.08 189.252 358.18C189.179 358.11 189.13 358.019 189.112 357.92C184.372 349.66 179.542 341.46 174.712 333.32C174.442 332.87 175.152 332.51 175.432 332.94C179.039 338.493 182.632 344.1 186.212 349.76C186.181 344.184 186.738 338.62 187.872 333.16C187.872 332.94 188.302 332.99 188.272 333.22C187.472 339.47 187.732 345.59 187.532 351.83C187.902 352.43 188.282 353.02 188.662 353.62C188.362 346.53 190.112 339.62 191.972 332.74C191.972 332.713 191.983 332.688 192.001 332.669C192.02 332.65 192.046 332.64 192.072 332.64C192.099 332.64 192.124 332.65 192.143 332.669C192.162 332.688 192.172 332.713 192.172 332.74C190.572 340.39 189.252 348.04 190.082 355.84C198.432 369.27 206.442 383 213.472 397.13C218.672 383.77 224.392 371.13 227.662 357.03C227.722 356.77 228.102 356.89 228.052 357.14C225.412 371.2 221.682 386.31 214.232 398.7C215.922 402.14 217.542 405.59 219.112 409.08C225.592 394.73 231.942 380.89 236.302 365.61C236.317 365.545 236.357 365.488 236.413 365.453C236.441 365.435 236.472 365.423 236.504 365.417C236.537 365.412 236.57 365.413 236.602 365.42C236.634 365.427 236.665 365.44 236.692 365.459C236.719 365.478 236.742 365.503 236.759 365.53C236.777 365.558 236.789 365.589 236.795 365.622C236.8 365.654 236.799 365.688 236.792 365.72C233.622 381.1 228.412 397.59 219.962 411.03C221.252 413.96 222.502 416.9 223.682 419.86C227.666 429.662 230.798 439.79 233.042 450.13C235.682 443.68 238.982 437.45 241.352 430.85C244.181 422.915 246.306 414.747 247.702 406.44C247.702 406.27 248.022 406.31 248.002 406.44C246.352 421.76 242.912 440.34 233.662 453.25C234.658 458.472 235.312 463.753 235.622 469.06Z" fill="#003F55"/>
<path opacity="0.8" d="M25.1406 371.68C62.5006 358.49 166.601 347.86 206.921 437.68C206.921 437.68 158.501 462.34 106.411 432.59C71.5506 412.74 37.3106 385.78 25.1406 371.68Z" fill="url(#paint5_linear_176:7442)"/>
<path opacity="0.66" d="M226.829 460.07C211.879 444.07 194.969 431.81 176.489 421.76L176.369 421.84C161.469 428.26 147.879 436.5 133.949 444.69C133.809 444.77 133.669 444.58 133.789 444.48C145.519 434.15 159.359 426.55 173.579 420.18C173.289 420.03 172.999 419.86 172.699 419.71C164.969 423.36 157.029 426.5 149.449 430.53C142.279 434.35 135.709 439.15 128.609 443.05C128.299 443.22 127.869 442.84 128.169 442.56C139.169 432.15 155.169 423.18 170.019 418.34C161.509 414.03 152.699 410.13 143.579 406.53C142.499 406.1 141.409 405.7 140.329 405.28C124.239 411.28 108.949 418.74 93.2389 425.61C92.8889 425.76 92.6389 425.22 92.9389 425.01C106.349 416.01 121.669 409.38 136.939 403.95C134.939 403.17 132.889 402.38 130.859 401.61C115.509 407.79 99.9489 413.22 84.8589 420C84.7689 420 84.699 419.9 84.779 419.85C98.849 412.55 113.549 405.5 128.779 400.85C124.869 399.39 120.939 397.98 116.999 396.59C116.837 396.632 116.665 396.625 116.507 396.569C116.349 396.514 116.21 396.413 116.109 396.28C92.6089 388.03 68.6489 381.09 44.1089 376.59C43.7689 376.53 43.8789 376.02 44.2189 376.07C64.59 379.321 84.7017 384.03 104.399 390.16C98.2589 383.44 94.0889 373.26 92.5989 364.73C92.5989 364.49 92.9089 364.47 92.9889 364.66C95.2289 369.57 97.3189 374.66 99.9889 379.35C102.309 383.46 105.419 387.07 107.699 391.18C109.879 391.87 112.049 392.58 114.219 393.29C108.219 383.58 101.649 374.5 98.539 363.29C98.5442 363.277 98.5531 363.266 98.5647 363.258C98.5763 363.25 98.5899 363.246 98.6039 363.246C98.6179 363.246 98.6316 363.25 98.6432 363.258C98.6548 363.266 98.6638 363.277 98.669 363.29C103.049 374.59 110.669 384.15 117.109 394.29C126.889 397.55 136.599 401.08 146.229 404.81C152.436 407.21 158.532 409.76 164.519 412.46C162.739 408.03 162.519 403.05 161.339 398.4C159.927 393.092 158.221 387.868 156.229 382.75C156.138 382.496 156.134 382.219 156.218 381.962C156.302 381.706 156.468 381.484 156.691 381.332C156.914 381.18 157.18 381.106 157.45 381.122C157.719 381.138 157.975 381.243 158.179 381.42C161.839 384.76 163.829 391.24 165.069 395.85C166.559 401.37 168.369 407.96 167.389 413.6C167.375 413.655 167.355 413.709 167.329 413.76C190.559 424.61 211.659 438.39 228.699 458.58C229.489 459.52 227.759 461.07 226.829 460.07Z" fill="#047B53"/>
<path opacity="0.8" d="M244.941 454C256.231 423 280.711 386 297.811 352.59C320.081 309.12 307.961 266.71 281.811 262.02C255.661 257.33 226.741 289.02 226.301 331.86C225.741 387 244.941 454 244.941 454Z" fill="url(#paint6_linear_176:7442)"/>
<path opacity="0.8" d="M244.77 463.32C249.99 404.47 259.489 345.87 269.479 287.88C269.569 287.41 270.249 287.62 270.189 288.07C261.879 346.67 253.289 405.18 248.079 463.97C246.999 463.73 245.87 463.53 244.77 463.32Z" fill="#008280"/>
</g>
<path d="M162.693 189.75L379.863 178.41C385.863 178.1 389.733 173.15 388.403 167.41L352.123 9.45971C351.378 6.62992 349.654 4.15582 347.258 2.47692C344.861 0.798015 341.947 0.023095 339.033 0.289786L126.183 22.6498C120.993 23.1898 117.743 27.9297 118.903 33.2397L151.013 180.54C152.183 185.88 157.413 190 162.693 189.75Z" fill="#D8DEE8"/>
<path d="M160.002 190.46L376.922 179.08C382.922 178.77 386.792 173.89 385.472 168.2L349.372 12.5998C348.072 6.99976 342.212 2.95976 336.302 3.59976L123.682 25.8297C122.476 25.9416 121.308 26.3154 120.26 26.9251C119.213 27.5347 118.311 28.3655 117.618 29.3595C116.925 30.3535 116.457 31.4869 116.247 32.6804C116.037 33.8739 116.09 35.0989 116.402 36.2698L148.342 181.37C148.963 183.985 150.456 186.31 152.576 187.963C154.695 189.615 157.315 190.496 160.002 190.46Z" fill="url(#paint7_linear_176:7442)"/>
<path d="M138.211 135.83L374.151 119.32L375.201 123.84L139.141 140.04L138.211 135.83Z" fill="white"/>
<path d="M204.471 17.3798L230.331 132.5L225.921 132.81L200.121 17.8297L204.471 17.3798Z" fill="white"/>
<path d="M265.243 153.74L350.553 148.46C350.643 148.461 350.732 148.442 350.813 148.403C350.894 148.364 350.965 148.308 351.02 148.237C351.075 148.166 351.114 148.083 351.131 147.995C351.149 147.907 351.146 147.816 351.123 147.73L349.373 140.12C349.323 139.925 349.207 139.754 349.044 139.636C348.882 139.517 348.684 139.459 348.483 139.47L263.263 144.96C263.176 144.961 263.091 144.983 263.014 145.022C262.937 145.062 262.869 145.118 262.817 145.188C262.765 145.257 262.729 145.338 262.713 145.423C262.697 145.508 262.7 145.596 262.723 145.68L264.403 153.1C264.449 153.286 264.557 153.452 264.71 153.568C264.863 153.685 265.051 153.745 265.243 153.74Z" fill="url(#paint8_linear_176:7442)"/>
<path d="M246.55 171.71L354.55 165.59C354.64 165.59 354.729 165.569 354.81 165.529C354.891 165.489 354.961 165.431 355.016 165.36C355.071 165.288 355.109 165.205 355.127 165.117C355.145 165.028 355.142 164.937 355.119 164.85L353.359 157.23C353.309 157.035 353.193 156.864 353.03 156.746C352.868 156.627 352.67 156.569 352.469 156.58L244.629 162.98C244.544 162.985 244.461 163.008 244.386 163.049C244.311 163.089 244.246 163.146 244.195 163.215C244.144 163.284 244.109 163.363 244.093 163.447C244.076 163.53 244.079 163.617 244.099 163.7L245.759 171.08C245.805 171.256 245.907 171.413 246.049 171.527C246.192 171.64 246.367 171.705 246.55 171.71Z" fill="#D8DEE8"/>
<path d="M134.482 63.7498L197.002 57.9697L191.482 33.3297L129.152 39.5697L134.482 63.7498Z" fill="#D8DEE8"/>
<path d="M147.382 122.18L210.332 117.54L199.352 68.4797L136.762 74.0598L147.382 122.18Z" fill="#D8DEE8"/>
<path d="M285.272 51.1598C275.172 52.0898 268.802 60.7297 271.012 70.4497C271.652 73.1586 272.858 75.7013 274.552 77.9098L255.482 89.3098C251.712 84.3088 249.034 78.5715 247.622 72.4697C242.622 50.3697 257.052 30.5898 280.052 28.3098H280.232L285.452 51.1598H285.272Z" fill="white"/>
<path d="M274.551 77.9098C276.724 80.7993 279.579 83.1046 282.862 84.6194C286.145 86.1343 289.752 86.8113 293.36 86.5898C303.57 85.7698 310.08 77.0898 307.82 67.2598C305.56 57.4298 295.55 50.3198 285.45 51.1498L280.23 28.2998C303.5 26.0898 326.86 42.5598 332.07 65.1598C337.28 87.7598 322.16 107.83 298.61 109.58C281.79 110.83 265.22 102.42 255.48 89.3099L274.551 77.9098Z" fill="url(#paint9_linear_176:7442)"/>
<g style="mix-blend-mode:multiply" opacity="0.47">
<path d="M370.003 83.6897C373.003 86.3797 362.202 109.82 342.753 128.2C323.043 146.84 308.213 147.27 292.753 169.42C285.303 180.13 287.992 181.14 282.192 188.84C259.482 219 199.663 228.11 175.563 204.84C173.043 202.41 167.413 191.64 156.153 170.1C151.271 160.646 146.982 150.897 143.313 140.91C138.363 127.48 135.623 119.91 138.313 117.75C143.823 113.34 162.893 137.34 175.553 131.83C183.553 128.34 179.492 115.23 190.092 105.94C198.652 98.4297 210.332 98.7997 213.372 98.9397C239.792 99.7797 242.763 128.89 267.533 134.37C288.123 138.92 309.923 124.07 341.793 102.37C358.853 90.7197 367.812 81.7297 370.003 83.6897Z" fill="#D8DEE8"/>
</g>
<path d="M365.682 93.4597L371.132 88.0098C372.373 86.1473 373.145 84.0122 373.382 81.7868C373.619 79.5613 373.314 77.3117 372.492 75.2298C369.772 67.7398 366.022 69.7798 366.022 69.7798L367.022 75.0598C367.022 75.0598 367.702 78.4698 364.472 82.7298C362.816 85.5061 361.661 88.5527 361.062 91.7298L365.682 93.4597Z" fill="url(#paint10_linear_176:7442)"/>
<path d="M138.802 114.69L132.672 109.13L129.942 99.0198C129.942 99.0198 122.452 102.02 126.542 111.51C129.152 114.69 135.542 119.51 138.292 124.12C141.042 128.73 138.802 114.69 138.802 114.69Z" fill="url(#paint11_linear_176:7442)"/>
<path d="M199.213 182.48C199.213 182.48 169.803 164.31 162.653 157.84C155.193 151.09 135.573 125.14 133.863 122.07C132.153 119 139.143 112.88 139.143 112.88C139.143 112.88 173.323 155.57 216.243 142.97C209.433 158.3 199.213 182.48 199.213 182.48Z" fill="url(#paint12_linear_176:7442)"/>
<path d="M195.001 433.38C195.001 433.38 189.611 446.95 191.001 452.96C187.803 452.93 184.613 452.646 181.461 452.11C182.615 449.099 183.544 446.007 184.241 442.86C184.65 439.258 184.84 435.635 184.811 432.01L195.001 433.38Z" fill="url(#paint13_linear_176:7442)"/>
<path d="M254.412 465.11C253.816 465.812 253.465 466.69 253.412 467.61C253.395 468.182 253.5 468.752 253.722 469.28C254.642 471.7 256.082 472.02 257.642 474.58C258.642 476.15 258.412 476.63 259.292 477.33C260.384 478.088 261.707 478.442 263.032 478.33C265.93 478.353 268.825 478.19 271.702 477.84C269.762 475.34 267.702 472.81 265.522 470.25C264.562 469.13 263.602 468.033 262.642 466.96L256.952 465.04L254.412 465.11Z" fill="#26264F"/>
<path d="M259.153 437.48C259.153 437.48 262.403 454.48 258.263 459.21C254.733 463.96 259.963 460.57 259.963 460.57L266.213 466.02L269.953 472.49C269.953 472.49 266.513 455.88 267.433 449.29C268.353 442.7 268.813 438.29 268.813 438.29L259.153 437.48Z" fill="url(#paint14_linear_176:7442)"/>
<path d="M243 142.85C258.84 140.18 281.52 148.2 307.73 134.34C333.52 120.7 348.73 100.56 357.63 87.6698L369.21 93.3898C362.65 104.7 347.21 128.95 326.76 145.82C301 167.07 275.76 168.31 262.08 185.66C255.67 179.27 235.32 144.16 243 142.85Z" fill="url(#paint15_linear_176:7442)"/>
<path d="M271.41 251.8C271.41 251.8 280.15 259.62 280.15 291.8C280.15 323.98 276.01 393.92 276.01 393.92L269.39 443.92C269.39 443.92 262.52 444.17 257.92 442.79C253.78 423.93 247.03 392.03 250.25 365.35C251.63 336.35 238.75 300.03 238.75 300.03C238.75 300.03 227.75 336.83 219.89 355.23C212.03 373.63 197.19 431.23 195.81 435.41C186.65 436.24 182.75 433.82 182.75 433.82C182.75 433.82 188.61 371.82 194.13 348.33C199.65 324.84 199.19 268.33 208.39 252.19C229.09 244 271.41 251.8 271.41 251.8Z" fill="url(#paint16_linear_176:7442)"/>
<path d="M271.411 251.8C271.411 251.8 280.151 259.62 280.151 291.8C280.151 323.98 276.011 393.92 276.011 393.92L269.391 443.92C269.391 443.92 262.521 444.17 257.921 442.79C253.781 423.93 247.031 392.03 250.251 365.35C251.631 336.35 238.751 300.03 238.751 300.03C238.751 300.03 227.751 336.83 219.891 355.23C212.031 373.63 197.181 431.23 195.801 435.41C186.651 436.24 182.801 433.82 182.801 433.82C182.801 433.82 188.661 371.82 194.181 348.33C199.701 324.84 199.241 268.33 208.441 252.19C229.091 244 271.411 251.8 271.411 251.8Z" fill="url(#paint17_linear_176:7442)"/>
<path style="mix-blend-mode:multiply" opacity="0.25" d="M226.002 310.8C223.272 328.51 217.822 338.05 204.202 350.31C193.302 358.49 201.472 376.2 197.382 389.83C196.022 393.92 191.932 398 190.572 402.09C185.502 412.23 190.242 424.64 187.942 435.38C186.132 435.209 184.368 434.704 182.742 433.89C182.742 433.89 188.602 371.89 194.122 348.4C199.642 324.91 199.182 268.4 208.382 252.26C229.082 243.98 271.382 251.8 271.382 251.8C271.382 251.8 280.122 259.62 280.122 291.8C280.122 294.41 280.122 297.27 280.042 300.33C270.972 308.33 252.412 310.14 240.972 301.24C240.328 300.744 239.579 300.402 238.782 300.24C238.765 300.182 238.745 300.125 238.722 300.07V300.23C233.502 299.31 227.192 306.07 226.002 310.8Z" fill="url(#paint18_linear_176:7442)"/>
<path d="M192.4 458.11C192.4 458.11 193.74 458.11 193.63 459.85C193.52 461.59 194.24 467.56 187.4 467.85C180.56 468.14 179.51 467.37 179.29 467.37C179.07 467.37 181.08 461.65 181.08 461.65L183.27 458.85L189.15 458.24L192.4 458.11Z" fill="#26264F"/>
<path d="M177.25 464.11C177.585 462.192 178.177 460.329 179.01 458.57C180.22 455.85 179.23 454.84 180.38 452.37C180.75 451.444 181.305 450.604 182.01 449.9C183.324 448.695 185.048 448.037 186.83 448.06C187.621 448.054 188.403 448.235 189.11 448.59C189.968 449.105 190.662 449.854 191.11 450.75C191.82 451.92 191.66 452.28 192.76 455.63C192.936 456.174 193.08 456.728 193.19 457.29C193.279 457.786 193.339 458.287 193.37 458.79C191.57 458.79 184.68 459.07 183.23 460.13C182.526 460.679 181.961 461.386 181.581 462.194C181.201 463.001 181.015 463.887 181.04 464.78C181.04 466.57 180.15 467.41 179.25 467.36C178.584 467.144 178.017 466.699 177.651 466.103C177.284 465.508 177.142 464.801 177.25 464.11Z" fill="url(#paint19_linear_176:7442)"/>
<path d="M260.001 456.82C258.461 456.82 257.331 458.07 256.481 461.03C255.631 463.99 251.541 466.59 256.311 465.97C261.081 465.35 264.541 472.1 266.241 474.6C267.941 477.1 272.521 479.31 272.411 476.87C272.301 474.43 270.281 473.29 269.711 470.79C269.141 468.29 263.531 456.77 260.001 456.82Z" fill="url(#paint20_linear_176:7442)"/>
<path d="M227.602 141.83C235.322 141.6 254.972 139.46 264.162 148.64C273.562 158.04 264.042 169.31 265.742 184.79C266.892 195.29 266.472 201.47 268.472 218.63C268.955 222.723 269.683 226.784 270.652 230.79C273.272 241.98 277.832 263.97 280.292 269.46C272.422 273.46 252.152 280.73 228.002 277.14C218.893 275.769 210.082 272.869 201.941 268.56C208.201 249.56 207.032 223.56 204.712 214.23C200.132 195.76 199.102 188.5 186.152 161.93C182.582 154.6 191.062 158.71 196.492 152.28C204.812 142.42 219.812 142.06 227.602 141.83Z" fill="url(#paint21_linear_176:7442)"/>
<path style="mix-blend-mode:multiply" opacity="0.25" d="M250.542 190.2C250.142 186.79 249.542 180.56 252.542 174.02C253.876 171.205 255.724 168.665 257.992 166.53C264.842 160.24 273.682 160.66 283.772 159.93C294.262 159.149 304.648 157.316 314.772 154.46C295.402 166.61 277.352 170.36 265.522 181.89C265.522 182.84 265.612 183.81 265.722 184.79C266.872 195.29 266.452 201.47 268.452 218.63C268.935 222.723 269.663 226.784 270.632 230.79C273.252 241.98 277.812 263.97 280.272 269.46C272.402 273.46 252.132 280.73 227.982 277.14C218.874 275.769 210.063 272.869 201.922 268.56C203.837 262.485 205.12 256.228 205.752 249.89C217.978 249.924 230.042 247.099 240.982 241.64C248.462 237.85 252.202 235.95 254.432 231.76C258.742 223.72 253.542 216.24 250.542 190.2Z" fill="url(#paint22_linear_176:7442)"/>
<path d="M238.83 119C237.71 110.38 230.89 104.85 229.4 103.67C223.17 98.6698 221.9 98.2198 219.77 97.8098L216.84 97.3698H216.52C213.814 97.9232 211.199 98.8522 208.75 100.13C205.75 102.23 207.97 117.06 217 135.5C217.35 137.06 217.71 138.62 218.06 140.19C210.19 141.57 208.24 142.99 208.18 144.12C208.05 146.58 216.66 149.71 224.65 149.91C234.65 150.17 245.29 145.86 245.09 142.65C245 141.34 243.09 139.74 235.85 138.16C234.71 136.566 233.573 134.97 232.44 133.37C233.47 132.1 239.65 125.33 238.83 119Z" fill="url(#paint23_linear_176:7442)"/>
<path d="M219.771 91.7097C222.911 94.7797 223.681 100.11 222.771 103.96C222.211 106.26 221.491 106.5 221.601 107.96C221.881 112.19 229.601 114.04 229.161 116.16C228.851 117.69 224.841 117.16 224.161 119.04C223.401 121.13 227.811 122.93 229.701 128.2C229.991 129.02 231.781 134 229.491 136.93C227.341 139.67 222.491 139.02 217.131 138.32C213.174 137.823 209.304 136.784 205.631 135.23C201.681 133.49 197.441 131.63 193.921 127.35C190.323 122.9 188.432 117.311 188.591 111.59C189.131 100.29 198.591 90.6498 208.291 89.1198C209.841 88.9098 215.911 87.9997 219.771 91.7097Z" fill="url(#paint24_linear_176:7442)"/>
<path d="M226.45 115.73C224.18 114.37 222.45 117.29 223.52 119.84C224.59 122.39 228.18 123.99 230.36 122.47C232.54 120.95 229.51 117.55 226.45 115.73Z" fill="url(#paint25_linear_176:7442)"/>
<path d="M249.343 142.17L243.813 140.47C243.813 140.47 242.363 147.96 224.563 148.9C218.679 148.906 212.959 146.957 208.303 143.36L204.043 145.36C204.043 145.36 212.813 156.53 226.043 156.26C230.839 156.242 235.54 154.922 239.644 152.44C243.747 149.959 247.1 146.409 249.343 142.17Z" fill="url(#paint26_linear_176:7442)"/>
<path opacity="0.2" d="M504.861 318.72C500.641 355.72 486.041 390.29 452.801 411.45C409.351 439.09 343.731 449.25 293.411 458.59C201.301 475.68 82.6313 479.53 20.9013 395.45C5.33133 374.25 -3.54866 347.08 1.53134 321.27C17.3113 241 124.761 268.89 180.751 272.11C203.541 273.42 227.001 274.44 248.601 267.05C274.901 258.05 295.461 237.7 315.031 217.97C352.171 180.54 404.881 126.59 458.231 166.25C484.131 185.52 496.231 211.7 501.541 242.45C505.761 266.68 507.761 293.29 504.861 318.72Z" fill="url(#paint27_linear_176:7442)"/>
<path opacity="0.2" d="M473.532 244.43C481.632 276.52 480.342 309.81 459.342 337.82C437.542 366.91 404.442 385 372.072 401.52C320.542 427.83 267.882 452.52 212.722 470.28C179.502 480.99 139.722 486.51 105.412 476.72C81.3124 469.84 61.1424 440.18 56.2224 416.34C39.6524 336.08 134.152 324.67 189.522 307.34C208.882 301.34 228.692 294.77 244.332 281.85C263.332 266.13 274.072 242.76 284.152 220.22C303.282 177.47 330.152 116.09 386.952 132.32C414.522 140.21 432.772 158.19 446.852 182.07C458.002 200.89 468.002 222.38 473.532 244.43Z" fill="url(#paint28_linear_176:7442)"/>
<defs>
<linearGradient id="paint0_linear_176:7442" x1="468578" y1="816137" x2="455011" y2="793721" gradientUnits="userSpaceOnUse">
<stop stop-color="#02332E"/>
<stop offset="0.1" stop-color="#074137"/>
<stop offset="1" stop-color="#34B77F"/>
</linearGradient>
<linearGradient id="paint1_linear_176:7442" x1="367001" y1="346950" x2="373806" y2="322239" gradientUnits="userSpaceOnUse">
<stop stop-color="#0D160E"/>
<stop offset="1" stop-color="#03887F"/>
</linearGradient>
<linearGradient id="paint2_linear_176:7442" x1="489393" y1="660799" x2="482520" y2="637797" gradientUnits="userSpaceOnUse">
<stop stop-color="#02332E"/>
<stop offset="0.1" stop-color="#074137"/>
<stop offset="1" stop-color="#34B77F"/>
</linearGradient>
<linearGradient id="paint3_linear_176:7442" x1="449502" y1="672655" x2="437109" y2="655256" gradientUnits="userSpaceOnUse">
<stop stop-color="#02332E"/>
<stop offset="0.1" stop-color="#074137"/>
<stop offset="1" stop-color="#34B77F"/>
</linearGradient>
<linearGradient id="paint4_linear_176:7442" x1="259750" y1="170482" x2="247796" y2="163169" gradientUnits="userSpaceOnUse">
<stop stop-color="#02332E"/>
<stop offset="0.1" stop-color="#074137"/>
<stop offset="1" stop-color="#34B77F"/>
</linearGradient>
<linearGradient id="paint5_linear_176:7442" x1="295006" y1="470236" x2="280239" y2="459515" gradientUnits="userSpaceOnUse">
<stop stop-color="#009B9B"/>
<stop offset="0.06" stop-color="#089D96"/>
<stop offset="1" stop-color="#7EC24C"/>
</linearGradient>
<linearGradient id="paint6_linear_176:7442" x1="400025" y1="719293" x2="410052" y2="697782" gradientUnits="userSpaceOnUse">
<stop stop-color="#009B9B"/>
<stop offset="1" stop-color="#6CC9CB"/>
</linearGradient>
<linearGradient id="paint7_linear_176:7442" x1="-1.6176e+06" y1="263572" x2="-1.71044e+06" y2="263572" gradientUnits="userSpaceOnUse">
<stop stop-color="#E3E7EF"/>
<stop offset="1" stop-color="#FAFBFD"/>
</linearGradient>
<linearGradient id="paint8_linear_176:7442" x1="-534681" y1="20970.4" x2="-542502" y2="20970.4" gradientUnits="userSpaceOnUse">
<stop stop-color="#311944"/>
<stop offset="1" stop-color="#035575"/>
</linearGradient>
<linearGradient id="paint9_linear_176:7442" x1="-505112" y1="129941" x2="-511155" y2="131497" gradientUnits="userSpaceOnUse">
<stop stop-color="#009B9B"/>
<stop offset="0.06" stop-color="#089D96"/>
<stop offset="1" stop-color="#7EC24C"/>
</linearGradient>
<linearGradient id="paint10_linear_176:7442" x1="-68292" y1="33469.1" x2="-67986.9" y2="33639.9" gradientUnits="userSpaceOnUse">
<stop stop-color="#FFC444"/>
<stop offset="1" stop-color="#F36F56"/>
</linearGradient>
<linearGradient id="paint11_linear_176:7442" x1="-83262.3" y1="37224.4" x2="-82746.3" y2="37531.5" gradientUnits="userSpaceOnUse">
<stop stop-color="#FFC444"/>
<stop offset="1" stop-color="#F36F56"/>
</linearGradient>
<linearGradient id="paint12_linear_176:7442" x1="-509422" y1="95467.7" x2="-515642" y2="107207" gradientUnits="userSpaceOnUse">
<stop stop-color="#009B9B"/>
<stop offset="0.06" stop-color="#089D96"/>
<stop offset="1" stop-color="#7EC24C"/>
</linearGradient>
<linearGradient id="paint13_linear_176:7442" x1="-77517.4" y1="37495.4" x2="-77517.4" y2="36977.9" gradientUnits="userSpaceOnUse">
<stop stop-color="#FFC444"/>
<stop offset="1" stop-color="#F36F56"/>
</linearGradient>
<linearGradient id="paint14_linear_176:7442" x1="-72677.5" y1="62621.6" x2="-72677.5" y2="61579.3" gradientUnits="userSpaceOnUse">
<stop stop-color="#FFC444"/>
<stop offset="1" stop-color="#F36F56"/>
</linearGradient>
<linearGradient id="paint15_linear_176:7442" x1="-653897" y1="-28282.5" x2="-670154" y2="-12068.6" gradientUnits="userSpaceOnUse">
<stop stop-color="#009B9B"/>
<stop offset="0.06" stop-color="#089D96"/>
<stop offset="1" stop-color="#7EC24C"/>
</linearGradient>
<linearGradient id="paint16_linear_176:7442" x1="-596459" y1="324614" x2="-605946" y2="324614" gradientUnits="userSpaceOnUse">
<stop stop-color="#311944"/>
<stop offset="1" stop-color="#893976"/>
</linearGradient>
<linearGradient id="paint17_linear_176:7442" x1="-596148" y1="324614" x2="-605630" y2="324614" gradientUnits="userSpaceOnUse">
<stop stop-color="#311944"/>
<stop offset="1" stop-color="#035575"/>
</linearGradient>
<linearGradient id="paint18_linear_176:7442" x1="-596335" y1="309591" x2="-605820" y2="309591" gradientUnits="userSpaceOnUse">
<stop stop-color="#311944"/>
<stop offset="1" stop-color="#07495E"/>
</linearGradient>
<linearGradient id="paint19_linear_176:7442" x1="-93890.8" y1="34627.4" x2="-94152.5" y2="34627.4" gradientUnits="userSpaceOnUse">
<stop stop-color="#311944"/>
<stop offset="1" stop-color="#035575"/>
</linearGradient>
<linearGradient id="paint20_linear_176:7442" x1="-106469" y1="38038.6" x2="-106807" y2="38038.6" gradientUnits="userSpaceOnUse">
<stop stop-color="#311944"/>
<stop offset="1" stop-color="#035575"/>
</linearGradient>
<linearGradient id="paint21_linear_176:7442" x1="-578572" y1="191793" x2="-595983" y2="211029" gradientUnits="userSpaceOnUse">
<stop stop-color="#009B9B"/>
<stop offset="0.06" stop-color="#089D96"/>
<stop offset="1" stop-color="#7EC24C"/>
</linearGradient>
<linearGradient id="paint22_linear_176:7442" x1="-683695" y1="172193" x2="-700858" y2="197091" gradientUnits="userSpaceOnUse">
<stop stop-color="#FF9085"/>
<stop offset="1" stop-color="#FB6FBB"/>
</linearGradient>
<linearGradient id="paint23_linear_176:7442" x1="-228080" y1="75018.7" x2="-226448" y2="76906.7" gradientUnits="userSpaceOnUse">
<stop stop-color="#FFC444"/>
<stop offset="1" stop-color="#F36F56"/>
</linearGradient>
<linearGradient id="paint24_linear_176:7442" x1="-255265" y1="71522.8" x2="-257034" y2="71522.8" gradientUnits="userSpaceOnUse">
<stop stop-color="#311944"/>
<stop offset="1" stop-color="#035575"/>
</linearGradient>
<linearGradient id="paint25_linear_176:7442" x1="-38241.5" y1="4803.54" x2="-38124.2" y2="5185.3" gradientUnits="userSpaceOnUse">
<stop stop-color="#FFC444"/>
<stop offset="1" stop-color="#F36F56"/>
</linearGradient>
<linearGradient id="paint26_linear_176:7442" x1="-275021" y1="22761.4" x2="-275199" y2="23571.1" gradientUnits="userSpaceOnUse">
<stop stop-color="#311944"/>
<stop offset="1" stop-color="#035575"/>
</linearGradient>
<linearGradient id="paint27_linear_176:7442" x1="4.31095e+06" y1="-48550.1" x2="4.5583e+06" y2="-125830" gradientUnits="userSpaceOnUse">
<stop stop-color="#FC8F1A"/>
<stop offset="0.06" stop-color="#F4921D"/>
<stop offset="1" stop-color="#7EC24C"/>
</linearGradient>
<linearGradient id="paint28_linear_176:7442" x1="3.83467e+06" y1="-135554" x2="3.98941e+06" y2="-257000" gradientUnits="userSpaceOnUse">
<stop stop-color="#009B9B"/>
<stop offset="0.06" stop-color="#089D96"/>
<stop offset="1" stop-color="#7EC24C"/>
</linearGradient>
</defs>
</svg>
