<svg width="90" height="90" viewBox="0 0 90 90" fill="none" xmlns="http://www.w3.org/2000/svg">
<path d="M45 90C69.8528 90 90 69.8526 90 44.9999C90 20.1471 69.8528 0 45 0C20.1472 0 0 20.1471 0 44.9999C0 69.8526 20.1472 90 45 90Z" fill="#17A38E"/>
<path d="M61.5304 29H28.4696C26.2241 29 24.0705 29.8993 22.4823 31.5003C20.8941 33.1013 20.0012 35.2729 20 37.5376V53.4624C20 54.584 20.2191 55.6945 20.6448 56.7307C21.0705 57.7668 21.6944 58.7082 22.481 59.501C23.2675 60.2939 24.2012 60.9227 25.2287 61.3515C26.2563 61.7802 27.3576 62.0006 28.4696 62H61.5304C62.6424 62.0006 63.7437 61.7802 64.7712 61.3515C65.7988 60.9227 66.7325 60.2939 67.519 59.501C68.3056 58.7082 68.9295 57.7668 69.3552 56.7307C69.7809 55.6945 70 54.584 70 53.4624V37.5376C69.9988 35.2729 69.1059 33.1013 67.5177 31.5003C65.9295 29.8993 63.7759 29 61.5304 29ZM34.353 35.586C35.417 35.5873 36.437 36.0141 37.1894 36.7729C37.9417 37.5317 38.3649 38.5605 38.3661 39.6336C38.3649 40.7067 37.9417 41.7355 37.1894 42.4943C36.437 43.2531 35.417 43.6799 34.353 43.6812C33.289 43.6799 32.269 43.2531 31.5167 42.4943C30.7643 41.7355 30.3411 40.7067 30.3399 39.6336C30.3411 38.5605 30.7643 37.5317 31.5167 36.7729C32.269 36.0141 33.289 35.5873 34.353 35.586ZM60.2143 54.338C60.1573 54.4966 60.054 54.6341 59.9179 54.7322C59.7819 54.8303 59.6195 54.8845 59.4523 54.8877H28.5527C28.3837 54.8841 28.2198 54.8287 28.0829 54.7289C27.9459 54.629 27.8424 54.4894 27.7861 54.3287C27.7195 54.164 27.701 53.9834 27.733 53.8084C27.7649 53.6335 27.8458 53.4713 27.9662 53.3413L35.018 45.6747C35.0869 45.5966 35.1705 45.5331 35.2638 45.4878C35.3572 45.4425 35.4585 45.4163 35.562 45.4106C35.6655 45.405 35.769 45.4201 35.8667 45.455C35.9643 45.4899 36.0541 45.544 36.131 45.6141L39.4467 48.5578L47.2005 39.9037C47.275 39.8197 47.366 39.7523 47.4678 39.7058C47.5696 39.6593 47.6799 39.6347 47.7916 39.6336C47.9054 39.6349 48.0175 39.6609 48.1203 39.71C48.2231 39.759 48.3142 39.8299 48.3874 39.9177L60.0434 53.3599C60.1639 53.4918 60.2451 53.6552 60.2778 53.8315C60.3105 54.0078 60.2932 54.1898 60.2281 54.3567L60.2143 54.338Z" fill="white"/>
</svg>
