<svg width="117" height="155" viewBox="0 0 117 155" fill="none" xmlns="http://www.w3.org/2000/svg">
<path d="M76.4501 37.5899C76.4474 42.5053 75.4767 47.372 73.5932 51.9122C71.7097 56.4524 68.9505 60.5772 65.4729 64.0511C61.9953 67.5249 57.8677 70.2798 53.3254 72.1584C48.7832 74.037 43.9154 75.0025 39.0001 74.9999C34.0838 75.0012 29.2155 74.034 24.6732 72.1536C20.1308 70.2732 16.0034 67.5163 12.5266 64.0405C9.04986 60.5646 6.29188 56.4379 4.41022 51.8961C2.52856 47.3542 1.56006 42.4861 1.56006 37.5699C1.56536 27.6446 5.51256 18.1278 12.5336 11.1123C19.5547 4.09686 29.0747 0.157264 39.0001 0.159917C43.9171 0.15729 48.7865 1.1235 53.33 3.00336C57.8735 4.88322 62.0022 7.63986 65.48 11.1158C68.9578 14.5918 71.7167 18.7189 73.5989 23.2614C75.4812 27.804 76.4501 32.6728 76.4501 37.5899V37.5899Z" fill="#019C9C"/>
<path d="M27.83 111C27.1925 110.541 26.7173 109.891 26.4729 109.144C26.2285 108.398 26.2274 107.593 26.4698 106.845C26.7123 106.098 27.1857 105.447 27.8219 104.986C28.4581 104.525 29.2243 104.278 30.0099 104.28H62.2399C63.0245 104.28 63.7888 104.031 64.423 103.569C65.0573 103.108 65.5289 102.457 65.77 101.71L69.4199 90.48C65.8479 85.8099 61.2466 82.0269 55.9739 79.4253C50.7013 76.8236 44.8995 75.4735 39.02 75.48C28.8595 75.48 19.1152 79.5162 11.9307 86.7007C4.74615 93.8853 0.709961 103.63 0.709961 113.79V125.07H47.1599L27.83 111Z" fill="#019C9C"/>
<path d="M86.1099 93.0501L92.3299 112.19C92.4803 112.658 92.7753 113.066 93.1725 113.355C93.5697 113.645 94.0485 113.8 94.5399 113.8H114.67C115.158 113.806 115.631 113.966 116.023 114.257C116.415 114.548 116.705 114.954 116.853 115.42C117 115.885 116.997 116.384 116.844 116.848C116.691 117.311 116.395 117.714 116 118L99.7099 129.83C99.314 130.12 99.0196 130.527 98.8688 130.994C98.718 131.461 98.7184 131.963 98.8699 132.43L105.09 151.58C105.24 152.046 105.239 152.547 105.087 153.012C104.935 153.477 104.64 153.882 104.244 154.17C103.848 154.457 103.371 154.612 102.882 154.612C102.393 154.612 101.916 154.457 101.52 154.17L85.2299 142.34C84.8327 142.053 84.355 141.898 83.8649 141.898C83.3748 141.898 82.8971 142.053 82.4999 142.34L66.2099 154.17C65.8138 154.457 65.337 154.612 64.8478 154.612C64.3585 154.612 63.8817 154.457 63.4856 154.17C63.0896 153.882 62.7946 153.477 62.6427 153.012C62.4908 152.547 62.4898 152.046 62.6399 151.58L68.8599 132.43C69.012 131.963 69.0116 131.459 68.8589 130.992C68.7061 130.524 68.4088 130.118 68.0099 129.83L51.7699 118C51.3725 117.713 51.0764 117.307 50.924 116.841C50.7717 116.374 50.7711 115.872 50.9222 115.405C51.0732 114.939 51.3683 114.532 51.765 114.244C52.1617 113.955 52.6395 113.8 53.1299 113.8H73.2599C73.7513 113.8 74.2301 113.645 74.6273 113.355C75.0245 113.066 75.3195 112.658 75.4699 112.19L81.6899 93.0501C81.8396 92.5815 82.1343 92.1726 82.5316 91.8825C82.9288 91.5924 83.408 91.436 83.8999 91.436C84.3919 91.436 84.871 91.5924 85.2682 91.8825C85.6655 92.1726 85.9602 92.5815 86.1099 93.0501V93.0501Z" fill="#019C9C"/>
</svg>
