<svg width="50" height="50" viewBox="0 0 50 50" fill="none" xmlns="http://www.w3.org/2000/svg">
<path d="M24.9093 0.199984C20.0494 0.203943 15.2998 1.64905 11.2613 4.35257C7.22279 7.05609 4.07673 10.8965 2.22103 15.3882C0.365342 19.8799 -0.116583 24.821 0.836147 29.5866C1.78888 34.3523 4.13348 38.7283 7.57345 42.1612C11.0134 45.5942 15.3942 47.9299 20.1618 48.873C24.9293 49.816 29.8694 49.324 34.3573 47.4591C38.8452 45.5943 42.6792 42.4404 45.3745 38.3964C48.0698 34.3524 49.5053 29.5999 49.4994 24.74C49.498 21.5135 48.8608 18.3189 47.6239 15.3389C46.3871 12.3589 44.575 9.65198 42.2912 7.37284C40.0074 5.09369 37.2967 3.28708 34.3142 2.05631C31.3317 0.825533 28.1358 0.194727 24.9093 0.199984ZM24.9093 42.83C21.3329 42.8438 17.8328 41.7961 14.8523 39.8194C11.8717 37.8428 9.54469 35.026 8.16598 31.726C6.78727 28.426 6.41883 24.791 7.10733 21.2815C7.79583 17.7719 9.51033 14.5456 12.0337 12.0111C14.557 9.47654 17.7757 7.74773 21.2821 7.04367C24.7886 6.33962 28.4251 6.69194 31.7312 8.056C35.0373 9.42006 37.8643 11.7346 39.8542 14.7063C41.8441 17.6781 42.9073 21.1735 42.9093 24.75C42.9148 29.5174 41.035 34.0936 37.6799 37.4805C34.3248 40.8675 29.7666 42.7904 24.9994 42.83H24.9093Z" fill="#E1E8F5"/>
<path d="M32.6506 25.4999H23.5806V13.1699C23.5806 12.8464 23.4521 12.536 23.2233 12.3073C22.9945 12.0785 22.6842 11.95 22.3606 11.95C22.037 11.95 21.7267 12.0785 21.4979 12.3073C21.2691 12.536 21.1406 12.8464 21.1406 13.1699V26.2999C21.1406 26.2999 21.1406 26.3699 21.1406 26.4099C21.1406 26.4499 21.1406 26.48 21.1406 26.52C21.1406 26.7852 21.246 27.0395 21.4335 27.2271C21.6211 27.4146 21.8754 27.52 22.1406 27.52H32.6506C32.9159 27.52 33.1702 27.4146 33.3577 27.2271C33.5453 27.0395 33.6506 26.7852 33.6506 26.52C33.6506 26.2547 33.5453 26.0003 33.3577 25.8128C33.1702 25.6253 32.9159 25.52 32.6506 25.52V25.4999Z" fill="#F9F9F9"/>
</svg>
