<svg width="139" height="155" viewBox="0 0 139 155" fill="none" xmlns="http://www.w3.org/2000/svg">
<path d="M98.4001 32.1799L100.31 38.0699C100.358 38.2124 100.449 38.3362 100.571 38.4241C100.693 38.5119 100.84 38.5595 100.99 38.5599H107.19C107.341 38.5613 107.488 38.6102 107.61 38.6997C107.732 38.7892 107.822 38.9147 107.869 39.0585C107.915 39.2023 107.915 39.3571 107.869 39.501C107.822 39.6448 107.732 39.7704 107.61 39.8599L102.61 43.4999C102.487 43.5882 102.396 43.7134 102.349 43.8573C102.302 44.0012 102.303 44.1563 102.35 44.2999L104.26 50.1899C104.311 50.334 104.313 50.4906 104.268 50.6364C104.222 50.7821 104.131 50.9094 104.008 50.9992C103.884 51.089 103.735 51.1366 103.582 51.1349C103.43 51.1333 103.282 51.0824 103.16 50.9899L98.1601 47.3499C98.0396 47.2575 97.892 47.2074 97.7401 47.2074C97.5882 47.2074 97.4406 47.2575 97.3201 47.3499L92.3201 50.9899C92.1986 51.0824 92.0505 51.1333 91.8978 51.1349C91.7451 51.1366 91.5959 51.089 91.4724 50.9992C91.349 50.9094 91.2577 50.7821 91.2123 50.6364C91.1668 50.4906 91.1695 50.334 91.2201 50.1899L93.1301 44.2999C93.1777 44.1563 93.1781 44.0012 93.1313 43.8573C93.0846 43.7134 92.993 43.5882 92.8701 43.4999L87.8701 39.8599C87.7483 39.7704 87.6578 39.6448 87.6114 39.501C87.565 39.3571 87.5651 39.2023 87.6115 39.0585C87.658 38.9147 87.7485 38.7892 87.8703 38.6997C87.9921 38.6102 88.1389 38.5613 88.2901 38.5599H94.4801C94.6307 38.561 94.7779 38.5141 94.9001 38.426C95.0224 38.3379 95.1134 38.2132 95.1601 38.0699L97.0801 32.1799C97.1326 32.0477 97.2235 31.9342 97.3412 31.8543C97.4588 31.7744 97.5978 31.7317 97.7401 31.7317C97.8823 31.7317 98.0213 31.7744 98.139 31.8543C98.2567 31.9342 98.3477 32.0477 98.4001 32.1799V32.1799Z" fill="#019C9C"/>
<path d="M36.5401 101.11L38.4501 107.01C38.4981 107.152 38.5895 107.276 38.7114 107.364C38.8334 107.452 38.9798 107.499 39.1301 107.5H45.3301C45.4818 107.498 45.6302 107.544 45.7536 107.632C45.877 107.72 45.9689 107.846 46.0158 107.99C46.0628 108.134 46.0623 108.29 46.0145 108.434C45.9667 108.578 45.874 108.702 45.7501 108.79L40.7501 112.43C40.6284 112.519 40.5378 112.644 40.4911 112.788C40.4445 112.932 40.4441 113.086 40.4901 113.23L42.4001 119.13C42.4435 119.273 42.4412 119.426 42.3936 119.568C42.346 119.71 42.2554 119.833 42.1345 119.921C42.0135 120.009 41.8682 120.057 41.7187 120.059C41.5692 120.06 41.4229 120.015 41.3001 119.93L36.3001 116.28C36.1777 116.192 36.0308 116.145 35.8801 116.145C35.7294 116.145 35.5825 116.192 35.4601 116.28L30.4601 119.93C30.3373 120.015 30.191 120.06 30.0415 120.059C29.8919 120.057 29.7466 120.009 29.6256 119.921C29.5047 119.833 29.4142 119.71 29.3666 119.568C29.319 119.426 29.3167 119.273 29.3601 119.13L31.2701 113.23C31.3161 113.086 31.3157 112.932 31.2691 112.788C31.2224 112.644 31.1318 112.519 31.0101 112.43L26.0101 108.79C25.8862 108.702 25.7935 108.578 25.7457 108.434C25.6979 108.29 25.6974 108.134 25.7443 107.99C25.7913 107.846 25.8832 107.72 26.0066 107.632C26.13 107.544 26.2784 107.498 26.4301 107.5H32.6301C32.7804 107.499 32.9268 107.452 33.0487 107.364C33.1707 107.276 33.2621 107.152 33.3101 107.01L35.2201 101.11C35.2725 100.978 35.3635 100.864 35.4812 100.784C35.5988 100.704 35.7378 100.662 35.8801 100.662C36.0223 100.662 36.1613 100.704 36.279 100.784C36.3967 100.864 36.4876 100.978 36.5401 101.11V101.11Z" fill="#019C9C"/>
<path d="M39.1699 43.5901C39.1699 46.0852 38.6785 48.5558 37.7236 50.861C36.7688 53.1662 35.3693 55.2608 33.605 57.0251C31.8407 58.7894 29.7461 60.189 27.4409 61.1438C25.1357 62.0986 22.665 62.5901 20.1699 62.5901C17.6748 62.5901 15.2041 62.0986 12.8989 61.1438C10.5937 60.189 8.49924 58.7894 6.73492 57.0251C4.97061 55.2608 3.57105 53.1662 2.61621 50.861C1.66137 48.5558 1.16992 46.0852 1.16992 43.5901C1.16992 38.551 3.17173 33.7182 6.73492 30.155C10.2981 26.5918 15.1308 24.5901 20.1699 24.5901C25.209 24.5901 30.0418 26.5918 33.605 30.155C37.1682 33.7182 39.1699 38.551 39.1699 43.5901V43.5901Z" fill="#019C9C"/>
<path d="M39.61 88.0001H0.719971V82.2701C0.719971 77.1116 2.76917 72.1644 6.41675 68.5168C10.0643 64.8693 15.0115 62.8201 20.17 62.8201V62.8201C22.7237 62.8201 25.2525 63.3232 27.6117 64.3008C29.9709 65.2784 32.1144 66.7112 33.9197 68.5175C35.725 70.3237 37.1568 72.4679 38.1331 74.8276C39.1095 77.1874 39.6113 79.7163 39.61 82.2701V88.0001Z" fill="#019C9C"/>
<path d="M81.2239 35.2444C84.1944 21.8341 75.7314 8.55486 62.3211 5.58434C48.9109 2.61381 35.6316 11.0769 32.6611 24.4871C29.6906 37.8974 38.1536 51.1766 51.5639 54.1472C64.9741 57.1177 78.2534 48.6546 81.2239 35.2444Z" fill="#019C9C"/>
<path d="M85.3301 68.72C76.7265 68.72 68.4753 72.1378 62.3916 78.2214C56.3079 84.3051 52.8901 92.5563 52.8901 101.16C52.8928 109.762 56.3117 118.011 62.3951 124.092C68.4785 130.174 76.7282 133.59 85.3301 133.59C93.9311 133.59 102.18 130.173 108.262 124.091C114.343 118.01 117.76 109.761 117.76 101.16C117.761 96.9004 116.924 92.6823 115.294 88.7465C113.665 84.8108 111.277 81.2345 108.265 78.222C105.254 75.2096 101.678 72.8199 97.7429 71.1895C93.8076 69.5591 89.5897 68.72 85.3301 68.72ZM85.3301 123.94C79.2885 123.94 73.4943 121.54 69.2222 117.268C64.9502 112.996 62.5501 107.202 62.5501 101.16C62.5501 95.1183 64.9502 89.3242 69.2222 85.0521C73.4943 80.78 79.2885 78.38 85.3301 78.38C91.3718 78.38 97.1659 80.78 101.438 85.0521C105.71 89.3242 108.11 95.1183 108.11 101.16C108.11 107.202 105.71 112.996 101.438 117.268C97.1659 121.54 91.3718 123.94 85.3301 123.94V123.94Z" fill="#019C9C"/>
<path d="M113.951 118.449C110.698 115.196 105.424 115.196 102.17 118.449C98.9174 121.702 98.9174 126.976 102.17 130.229L120.781 148.84C124.035 152.093 129.309 152.093 132.562 148.84C135.815 145.587 135.815 140.313 132.562 137.06L113.951 118.449Z" fill="#019C9C"/>
<path d="M69.33 58.2601C65.5405 56.1428 61.2708 55.034 56.93 55.0401C50.1802 55.0401 43.7069 57.7214 38.9341 62.4942C34.1613 67.267 31.48 73.7403 31.48 80.4901V88.0001H43.9C45.3522 81.328 48.4348 75.1196 52.8724 69.9299C57.3101 64.7402 62.9644 60.7308 69.33 58.2601V58.2601Z" fill="#019C9C"/>
</svg>
