<svg width="27" height="32" viewBox="0 0 27 32" fill="none" xmlns="http://www.w3.org/2000/svg">
<path d="M26.3305 30V1.54001C26.3305 1.33693 26.2904 1.13589 26.2123 0.948397C26.1343 0.760901 26.02 0.590676 25.8759 0.447542C25.7319 0.304409 25.5609 0.191153 25.3729 0.114351C25.1849 0.0375497 24.9836 -0.00128621 24.7805 3.24899e-05H2.53052C2.32744 -0.00128621 2.12611 0.0375497 1.93811 0.114351C1.75011 0.191153 1.57912 0.304409 1.43506 0.447542C1.291 0.590676 1.17665 0.760901 1.09863 0.948397C1.02062 1.13589 0.980464 1.33693 0.980469 1.54001V30C0.980464 30.2031 1.02062 30.4042 1.09863 30.5917C1.17665 30.7792 1.291 30.9494 1.43506 31.0925C1.57912 31.2356 1.75011 31.3489 1.93811 31.4257C2.12611 31.5025 2.32744 31.5413 2.53052 31.54H24.7805C24.9836 31.5413 25.1849 31.5025 25.3729 31.4257C25.5609 31.3489 25.7319 31.2356 25.8759 31.0925C26.02 30.9494 26.1343 30.7792 26.2123 30.5917C26.2904 30.4042 26.3305 30.2031 26.3305 30ZM5.94049 3.42002H21.3605C21.5635 3.4187 21.7649 3.45759 21.9529 3.5344C22.1409 3.6112 22.3119 3.72439 22.4559 3.86753C22.6 4.01066 22.7143 4.18088 22.7923 4.36838C22.8703 4.55588 22.9105 4.75697 22.9105 4.96005V26.58C22.9118 26.784 22.8727 26.9861 22.7952 27.1748C22.7178 27.3634 22.6037 27.5348 22.4595 27.679C22.3153 27.8232 22.1439 27.9373 21.9552 28.0147C21.7665 28.0922 21.5644 28.1314 21.3605 28.13H5.94049C5.73741 28.13 5.53631 28.0899 5.34882 28.0119C5.16132 27.9339 4.99116 27.8195 4.84802 27.6754C4.70489 27.5314 4.59163 27.3605 4.51483 27.1725C4.43803 26.9845 4.39919 26.7831 4.40051 26.58V5.00003C4.39517 4.79446 4.43105 4.58989 4.50604 4.39841C4.58104 4.20693 4.69362 4.03243 4.83716 3.88516C4.9807 3.7379 5.1523 3.62087 5.3418 3.54099C5.53129 3.46111 5.73484 3.41995 5.94049 3.42002Z" fill="#EFEDED"/>
<path d="M8.63062 17.1001H17.8606C18.4294 17.1001 18.8906 16.639 18.8906 16.0701V14.8501C18.8906 14.2812 18.4294 13.8201 17.8606 13.8201L8.63062 13.8201C8.06176 13.8201 7.60059 14.2812 7.60059 14.8501V16.0701C7.60059 16.639 8.06176 17.1001 8.63062 17.1001Z" fill="#EFEDED"/>
<path d="M8.16919 17.1001H11.4492V13.8201H8.16919V17.1001Z" fill="#EFEDED"/>
<path d="M12.5306 10.3701H17.9706C18.4787 10.3701 18.8906 9.95818 18.8906 9.45007V8.01007C18.8906 7.50197 18.4787 7.09009 17.9706 7.09009L12.5306 7.09009C12.0225 7.09009 11.6106 7.50197 11.6106 8.01007V9.45007C11.6106 9.95818 12.0225 10.3701 12.5306 10.3701Z" fill="#EFEDED"/>
<path d="M18.0581 20.02H8.78809C8.25789 20.02 7.82812 20.4498 7.82812 20.98V24.65C7.82812 25.1802 8.25789 25.61 8.78809 25.61H18.0581C18.5883 25.61 19.0181 25.1802 19.0181 24.65V20.98C19.0181 20.4498 18.5883 20.02 18.0581 20.02Z" fill="#EFEDED"/>
</svg>
