<svg width="108" height="71" viewBox="0 0 108 71" fill="none" xmlns="http://www.w3.org/2000/svg">
<path d="M95.82 0H11.74C8.62635 0 5.64021 1.23689 3.43854 3.43857C1.23686 5.64025 0 8.62636 0 11.74V59.26C0 62.3736 1.23686 65.3598 3.43854 67.5614C5.64021 69.7631 8.62635 71 11.74 71H95.82C98.9336 71 101.92 69.7631 104.121 67.5614C106.323 65.3598 107.56 62.3736 107.56 59.26V11.74C107.56 8.62636 106.323 5.64025 104.121 3.43857C101.92 1.23689 98.9336 0 95.82 0ZM60.5 38.76H86.5C86.9502 38.7908 87.37 38.9984 87.6678 39.3375C87.9657 39.6765 88.1175 40.1195 88.09 40.57C88.1176 41.0215 87.9661 41.4657 87.6685 41.8063C87.3709 42.1469 86.9511 42.3567 86.5 42.39H60.5C60.0489 42.3567 59.6291 42.1469 59.3315 41.8063C59.0339 41.4657 58.8824 41.0215 58.91 40.57C58.8825 40.1195 59.0343 39.6765 59.3322 39.3375C59.63 38.9984 60.0498 38.7908 60.5 38.76V38.76ZM24.79 9.65C28.5606 9.66058 32.1735 11.1652 34.8369 13.8343C37.5004 16.5034 38.9974 20.1193 39 23.89C39 27.6667 37.4997 31.2887 34.8292 33.9592C32.1587 36.6297 28.5367 38.13 24.76 38.13C20.9833 38.13 17.3613 36.6297 14.6908 33.9592C12.0203 31.2887 10.52 27.6667 10.52 23.89C10.5213 22.0178 10.8915 20.1643 11.6095 18.4352C12.3275 16.7062 13.3791 15.1356 14.7043 13.8131C16.0296 12.4907 17.6024 11.4423 19.3329 10.728C21.0635 10.0137 22.9178 9.64737 24.79 9.65V9.65ZM39.89 60.84H10.74V56.55C10.7453 52.6875 12.2841 48.9852 15.0181 46.2568C17.7521 43.5285 21.4575 41.9973 25.32 42C27.2334 42 29.128 42.3769 30.8957 43.1091C32.6634 43.8413 34.2696 44.9145 35.6226 46.2675C36.9755 47.6204 38.0487 49.2266 38.7809 50.9943C39.5132 52.762 39.89 54.6566 39.89 56.57V60.84ZM96 60H60.5C60.0498 59.9692 59.63 59.7616 59.3322 59.4225C59.0343 59.0835 58.8825 58.6405 58.91 58.19C58.8798 57.7379 59.0303 57.2923 59.3284 56.951C59.6266 56.6098 60.0479 56.4008 60.5 56.37H96C96.4503 56.4033 96.8692 56.6134 97.1652 56.9543C97.4612 57.2953 97.6103 57.7395 97.58 58.19C97.6076 58.6388 97.4572 59.0805 97.1614 59.4192C96.8657 59.758 96.4484 59.9667 96 60V60ZM96 51.59H60.5C60.0489 51.5567 59.6291 51.3469 59.3315 51.0063C59.0339 50.6657 58.8824 50.2215 58.91 49.77C58.8933 49.3263 59.0499 48.8935 59.3467 48.5631C59.6434 48.2328 60.057 48.0308 60.5 48H96C96.4484 48.0333 96.8657 48.242 97.1614 48.5808C97.4572 48.9195 97.6076 49.3612 97.58 49.81C97.5969 50.2532 97.442 50.6857 97.1476 51.0174C96.8532 51.3491 96.442 51.5542 96 51.59V51.59Z" fill="#019C9C"/>
</svg>
