<svg width="109" height="72" viewBox="0 0 109 72" fill="none" xmlns="http://www.w3.org/2000/svg">
<path d="M90.2401 0.860107H18.6501C13.7877 0.860107 9.12437 2.79098 5.68524 6.22823C2.24611 9.66549 0.31271 14.3278 0.310059 19.1901V53.3801C0.310058 55.7881 0.784505 58.1725 1.7063 60.397C2.62809 62.6216 3.97915 64.6427 5.68231 66.3449C7.38547 68.0471 9.40733 69.3971 11.6324 70.3177C13.8574 71.2383 16.2421 71.7114 18.6501 71.7101H90.2401C92.648 71.7114 95.0326 71.2383 97.2577 70.3177C99.4827 69.3971 101.505 68.0471 103.208 66.3449C104.911 64.6427 106.262 62.6216 107.184 60.397C108.106 58.1725 108.58 55.7881 108.58 53.3801V19.1901C108.577 14.3278 106.644 9.66549 103.205 6.22823C99.7658 2.79098 95.1024 0.860107 90.2401 0.860107V0.860107ZM31.3901 15.0001C33.694 15.0028 35.9028 15.9192 37.5319 17.5483C39.161 19.1774 40.0774 21.3862 40.0801 23.6901C40.0774 25.994 39.161 28.2028 37.5319 29.8319C35.9028 31.4611 33.694 32.3775 31.3901 32.3801C29.0862 32.3775 26.8773 31.4611 25.2482 29.8319C23.6191 28.2028 22.7027 25.994 22.7001 23.6901C22.7027 21.3862 23.6191 19.1774 25.2482 17.5483C26.8773 15.9192 29.0862 15.0028 31.3901 15.0001V15.0001ZM87.3901 55.2601C87.2667 55.6006 87.0429 55.8957 86.7484 56.1064C86.4538 56.3171 86.1022 56.4334 85.7401 56.4401H18.8301C18.4642 56.4325 18.1093 56.3136 17.8127 56.0993C17.5162 55.8849 17.292 55.5852 17.17 55.2401C17.0258 54.8864 16.9859 54.4988 17.055 54.1231C17.1241 53.7474 17.2994 53.3993 17.5601 53.1201L32.8301 36.6601C32.9793 36.4926 33.1602 36.3562 33.3624 36.2589C33.5645 36.1616 33.784 36.1053 34.008 36.0932C34.232 36.0811 34.4563 36.1135 34.6677 36.1885C34.8792 36.2635 35.0737 36.3796 35.2401 36.5301L42.42 42.8501L59.2101 24.2701C59.3714 24.0897 59.5685 23.945 59.7889 23.8451C60.0093 23.7453 60.2481 23.6925 60.4901 23.6901V23.6901C60.7363 23.6929 60.9791 23.7488 61.2017 23.8541C61.4244 23.9594 61.6217 24.1115 61.7801 24.3001L87.0201 53.1601C87.281 53.4433 87.4568 53.7942 87.5276 54.1726C87.5983 54.5511 87.5611 54.9418 87.42 55.3001L87.3901 55.2601Z" fill="#019C9C"/>
</svg>
