<svg width="82" height="108" viewBox="0 0 82 108" fill="none" xmlns="http://www.w3.org/2000/svg">
<path d="M53.6446 26.2696C53.6428 29.7026 52.9647 33.1016 51.6493 36.2726C50.3338 39.4436 48.4067 42.3244 45.9779 44.7506C43.5491 47.1768 40.6662 49.1009 37.4939 50.4129C34.3215 51.725 30.9217 52.3993 27.4887 52.3975C24.0551 52.3984 20.655 51.7229 17.4825 50.4096C14.31 49.0962 11.4274 47.1708 8.99911 44.7432C6.57087 42.3156 4.64464 39.4334 3.33045 36.2613C2.01626 33.0892 1.33984 29.6892 1.33984 26.2556C1.34355 19.3236 4.10035 12.6768 9.00401 7.77707C13.9077 2.87733 20.5567 0.125836 27.4887 0.127689C30.9229 0.125854 34.3238 0.800679 37.4971 2.11361C40.6704 3.42654 43.5539 5.35184 45.9828 7.77952C48.4118 10.2072 50.3387 13.0897 51.6533 16.2623C52.9679 19.4349 53.6446 22.8354 53.6446 26.2696V26.2696Z" fill="#019C9C"/>
<path d="M19.6834 77.5406C19.2382 77.2198 18.9063 76.766 18.7356 76.2445C18.5648 75.723 18.5641 75.1608 18.7334 74.6388C18.9028 74.1169 19.2334 73.6621 19.6777 73.3401C20.1221 73.0182 20.6572 72.8456 21.2059 72.8472H43.716C44.2639 72.8472 44.7977 72.6734 45.2407 72.3509C45.6837 72.0284 46.0131 71.5737 46.1814 71.0523L48.7307 63.209C46.2359 59.9473 43.0222 57.3052 39.3397 55.4882C35.6572 53.6711 31.6051 52.7282 27.4987 52.7327C20.4024 52.7327 13.5968 55.5517 8.57896 60.5695C3.56114 65.5873 0.742188 72.3929 0.742188 79.4892V87.3674H33.1838L19.6834 77.5406Z" fill="#019C9C"/>
<path d="M60.389 65.004L64.7332 78.3717C64.8383 78.6985 65.0443 78.9834 65.3217 79.1855C65.5991 79.3876 65.9335 79.4964 66.2767 79.4962H80.336C80.6767 79.5005 81.0074 79.6121 81.2811 79.8151C81.5548 80.0182 81.7574 80.3024 81.8603 80.6272C81.9632 80.9521 81.961 81.3011 81.8541 81.6247C81.7472 81.9483 81.541 82.2299 81.2648 82.4296L69.8876 90.6919C69.6111 90.8942 69.4055 91.1787 69.3001 91.5048C69.1948 91.8309 69.195 92.1819 69.3009 92.5078L73.6451 105.883C73.7499 106.208 73.7492 106.558 73.6432 106.883C73.5371 107.208 73.331 107.491 73.0544 107.691C72.7778 107.892 72.4448 108 72.1031 108C71.7614 108 71.4284 107.892 71.1517 107.691L59.7744 99.4291C59.497 99.2286 59.1634 99.1206 58.8211 99.1206C58.4788 99.1206 58.1452 99.2286 57.8677 99.4291L46.4905 107.691C46.2138 107.892 45.8808 108 45.5391 108C45.1974 108 44.8644 107.892 44.5878 107.691C44.3112 107.491 44.1051 107.208 43.999 106.883C43.8929 106.558 43.8923 106.208 43.9971 105.883L48.3413 92.5078C48.4475 92.1812 48.4472 91.8294 48.3405 91.503C48.2338 91.1766 48.0262 90.8926 47.7476 90.6919L36.4053 82.4296C36.1277 82.2289 35.9209 81.9453 35.8145 81.6198C35.7081 81.2942 35.7077 80.9432 35.8132 80.6174C35.9187 80.2915 36.1248 80.0074 36.4018 79.806C36.6789 79.6046 37.0126 79.4961 37.3551 79.4962H51.4143C51.7575 79.4964 52.0919 79.3876 52.3693 79.1855C52.6467 78.9834 52.8528 78.6985 52.9578 78.3717L57.302 65.004C57.4066 64.6767 57.6124 64.3911 57.8899 64.1885C58.1673 63.9858 58.502 63.8766 58.8456 63.8766C59.1891 63.8766 59.5237 63.9858 59.8012 64.1885C60.0786 64.3911 60.2845 64.6767 60.389 65.004V65.004Z" fill="#019C9C"/>
</svg>
