<svg width="91" height="102" viewBox="0 0 91 102" fill="none" xmlns="http://www.w3.org/2000/svg">
<path d="M64.559 21.5648L65.8702 25.5183C65.9032 25.6139 65.9659 25.697 66.0496 25.756C66.1333 25.815 66.2338 25.8469 66.337 25.8472H70.5932C70.697 25.8481 70.7977 25.8809 70.8814 25.941C70.965 26.0011 71.0271 26.0853 71.059 26.1819C71.0909 26.2784 71.0909 26.3823 71.0591 26.4788C71.0272 26.5754 70.9651 26.6597 70.8815 26.7198L67.4491 29.163C67.3647 29.2222 67.3019 29.3063 67.2698 29.4029C67.2377 29.4995 67.238 29.6035 67.2706 29.7L68.5818 33.6534C68.6165 33.7501 68.6184 33.8552 68.5872 33.9531C68.556 34.0509 68.4933 34.1363 68.4086 34.1966C68.3238 34.2569 68.2214 34.2888 68.1166 34.2877C68.0117 34.2866 67.9101 34.2525 67.8267 34.1904L64.3942 31.7472C64.3115 31.6851 64.2102 31.6515 64.1059 31.6515C64.0017 31.6515 63.9003 31.6851 63.8176 31.7472L60.3852 34.1904C60.3018 34.2525 60.2001 34.2866 60.0953 34.2877C59.9905 34.2888 59.8881 34.2569 59.8033 34.1966C59.7185 34.1363 59.6559 34.0509 59.6247 33.9531C59.5935 33.8552 59.5953 33.7501 59.63 33.6534L60.9413 29.7C60.9739 29.6035 60.9742 29.4995 60.9421 29.4029C60.91 29.3063 60.8471 29.2222 60.7628 29.163L57.3303 26.7198C57.2468 26.6597 57.1846 26.5754 57.1528 26.4788C57.1209 26.3823 57.121 26.2784 57.1529 26.1819C57.1848 26.0853 57.2469 26.0011 57.3305 25.941C57.4141 25.8809 57.5149 25.8481 57.6187 25.8472H61.868C61.9714 25.8479 62.0724 25.8164 62.1563 25.7573C62.2403 25.6981 62.3027 25.6145 62.3348 25.5183L63.6529 21.5648C63.6889 21.4761 63.7513 21.3999 63.8321 21.3463C63.9129 21.2926 64.0083 21.264 64.1059 21.264C64.2036 21.264 64.299 21.2926 64.3798 21.3463C64.4606 21.3999 64.523 21.4761 64.559 21.5648V21.5648Z" fill="#019C9C"/>
<path d="M24.0634 67.1267L25.2863 70.8052C25.317 70.894 25.3755 70.9712 25.4536 71.0259C25.5317 71.0807 25.6254 71.1104 25.7217 71.1107H29.6913C29.7884 71.1092 29.8834 71.1382 29.9624 71.1932C30.0414 71.2481 30.1003 71.3263 30.1304 71.4162C30.1604 71.5061 30.1601 71.6031 30.1295 71.6928C30.0989 71.7826 30.0396 71.8604 29.9602 71.9149L26.7589 74.1844C26.6809 74.24 26.6229 74.3181 26.5931 74.4076C26.5632 74.4971 26.563 74.5935 26.5924 74.6831L27.8153 78.3616C27.8431 78.4508 27.8416 78.5463 27.8112 78.6347C27.7807 78.723 27.7227 78.8 27.6453 78.8548C27.5678 78.9097 27.4748 78.9397 27.3791 78.9407C27.2833 78.9417 27.1896 78.9136 27.111 78.8604L23.9097 76.5847C23.8313 76.5299 23.7373 76.5005 23.6408 76.5005C23.5443 76.5005 23.4503 76.5299 23.3719 76.5847L20.1706 78.8604C20.092 78.9136 19.9983 78.9417 19.9025 78.9407C19.8068 78.9397 19.7137 78.9097 19.6363 78.8548C19.5589 78.8 19.5009 78.723 19.4704 78.6347C19.44 78.5463 19.4385 78.4508 19.4663 78.3616L20.6892 74.6831C20.7186 74.5935 20.7184 74.4971 20.6885 74.4076C20.6586 74.3181 20.6006 74.24 20.5227 74.1844L17.3214 71.9149C17.242 71.8604 17.1827 71.7826 17.1521 71.6928C17.1215 71.6031 17.1212 71.5061 17.1512 71.4162C17.1813 71.3263 17.2401 71.2481 17.3192 71.1932C17.3982 71.1382 17.4932 71.1092 17.5903 71.1107H21.5599C21.6562 71.1104 21.7499 71.0807 21.828 71.0259C21.9061 70.9712 21.9646 70.894 21.9953 70.8052L23.2182 67.1267C23.2518 67.0442 23.31 66.9735 23.3854 66.9236C23.4607 66.8738 23.5497 66.8472 23.6408 66.8472C23.7319 66.8472 23.8209 66.8738 23.8962 66.9236C23.9716 66.9735 24.0298 67.0442 24.0634 67.1267V67.1267Z" fill="#019C9C"/>
<path d="M25.5001 29.1713C25.5001 30.8205 25.1753 32.4535 24.5441 33.9772C23.913 35.5009 22.988 36.8854 21.8218 38.0516C20.6556 39.2177 19.2711 40.1428 17.7474 40.774C16.2238 41.4051 14.5907 41.7299 12.9415 41.7299C11.2922 41.7299 9.65915 41.4051 8.13546 40.774C6.61178 40.1428 5.22735 39.2177 4.06117 38.0516C2.895 36.8854 1.96991 35.5009 1.33878 33.9772C0.707651 32.4535 0.382812 30.8205 0.382812 29.1713C0.382812 25.8405 1.70597 22.6462 4.06117 20.291C6.41638 17.9358 9.6107 16.6126 12.9415 16.6126C16.2722 16.6126 19.4666 17.9358 21.8218 20.291C24.177 22.6462 25.5001 25.8405 25.5001 29.1713V29.1713Z" fill="#019C9C"/>
<path d="M26.4304 58.4748H0.382812V54.6643C0.382812 51.2339 1.75531 47.944 4.19837 45.5183C6.64143 43.0926 9.95493 41.7299 13.4099 41.7299V41.7299C15.1204 41.7299 16.8141 42.0645 18.3942 42.7146C19.9744 43.3647 21.41 44.3176 22.6191 45.5187C23.8283 46.7199 24.7873 48.1458 25.4412 49.715C26.0951 51.2843 26.4312 52.9661 26.4304 54.6643V58.4748Z" fill="#019C9C"/>
<path d="M53.1934 23.8524C55.1362 15.0817 49.6011 6.39668 40.8304 4.45387C32.0597 2.51105 23.3747 8.04616 21.4318 16.8169C19.489 25.5876 25.0241 34.2726 33.7948 36.2154C42.5656 38.1583 51.2506 32.6231 53.1934 23.8524Z" fill="#019C9C"/>
<path d="M55.739 45.451C50.1869 45.451 44.8621 47.7056 40.9362 51.7188C37.0103 55.732 34.8047 61.175 34.8047 66.8505C34.8064 72.5249 37.0127 77.9662 40.9385 81.978C44.8642 85.9898 50.188 88.2434 55.739 88.2434C61.2894 88.2434 66.6125 85.9895 70.5372 81.9776C74.4619 77.9656 76.6668 72.5243 76.6668 66.8505C76.6677 64.0406 76.127 61.2581 75.0757 58.6618C74.0243 56.0655 72.4829 53.7064 70.5395 51.7192C68.5961 49.732 66.2887 48.1556 63.7492 47.0801C61.2097 46.0046 58.4878 45.451 55.739 45.451ZM55.739 81.8777C51.8402 81.8777 48.101 80.2944 45.3442 77.4763C42.5873 74.6582 41.0385 70.836 41.0385 66.8505C41.0385 62.8651 42.5873 59.0429 45.3442 56.2247C48.101 53.4066 51.8402 51.8234 55.739 51.8234C59.6378 51.8234 63.3769 53.4066 66.1338 56.2247C68.8906 59.0429 70.4394 62.8651 70.4394 66.8505C70.4394 70.836 68.8906 74.6582 66.1338 77.4763C63.3769 80.2944 59.6378 81.8777 55.739 81.8777V81.8777Z" fill="#019C9C"/>
<path d="M74.5961 78.2707C72.4685 76.1431 69.019 76.1431 66.8914 78.2707C64.7638 80.3983 64.7638 83.8478 66.8914 85.9754L79.0636 98.1476C81.1912 100.275 84.6407 100.275 86.7683 98.1476C88.8959 96.02 88.8959 92.5705 86.7683 90.4429L74.5961 78.2707Z" fill="#019C9C"/>
<path d="M45.0347 39.1689C42.6131 37.7944 39.8847 37.0747 37.1108 37.0786C32.7975 37.0786 28.661 38.8192 25.611 41.9175C22.5611 45.0158 20.8477 49.218 20.8477 53.5996V58.4748H28.7843C29.7123 54.1436 31.6822 50.1134 34.5179 46.7444C37.3536 43.3755 40.9669 40.7728 45.0347 39.1689V39.1689Z" fill="#019C9C"/>
</svg>
