<svg width="41" height="48" viewBox="0 0 41 48" fill="none" xmlns="http://www.w3.org/2000/svg">
<path d="M4 7C1.79086 7 0 8.79086 0 11V44C0 46.2091 1.79086 48 4 48H37C39.2091 48 41 46.2091 41 44V11C41 8.79086 39.2091 7 37 7H4ZM35.469 38.4663C35.469 40.6754 33.6781 42.4663 31.469 42.4663H9.53103C7.32189 42.4663 5.53102 40.6754 5.53102 38.4663V16.5337C5.53102 14.3246 7.32189 12.5337 9.53102 12.5337H31.469C33.6781 12.5337 35.469 14.3246 35.469 16.5337V38.4663Z" fill="#019C9C"/>
<path d="M27.5 20H26.5C25.1193 20 24 21.1193 24 22.5C24 23.8807 25.1193 25 26.5 25H27.5C28.8807 25 30 23.8807 30 22.5C30 21.1193 28.8807 20 27.5 20Z" fill="#019C9C"/>
<path d="M21.5 31H14.5C13.1193 31 12 32.1193 12 33.5C12 34.8807 13.1193 36 14.5 36H21.5C22.8807 36 24 34.8807 24 33.5C24 32.1193 22.8807 31 21.5 31Z" fill="#019C9C"/>
<path d="M15 6.5V2.5C15 1.11929 13.8807 0 12.5 0C11.1193 0 10 1.11929 10 2.5V6.5C10 7.88071 11.1193 9 12.5 9C13.8807 9 15 7.88071 15 6.5Z" fill="#019C9C"/>
<path d="M31 6.5V2.5C31 1.11929 29.8807 0 28.5 0C27.1193 0 26 1.11929 26 2.5V6.5C26 7.88071 27.1193 9 28.5 9C29.8807 9 31 7.88071 31 6.5Z" fill="#019C9C"/>
</svg>
