<svg width="156" height="76" viewBox="0 0 156 76" fill="none" xmlns="http://www.w3.org/2000/svg">
<path d="M86 44.12L104 19.53V18.45C104 13.5568 102.056 8.86392 98.5961 5.40387C95.1361 1.94382 90.4432 0 85.55 0H18.45C13.5568 0 8.86392 1.94382 5.40387 5.40387C1.94382 8.86392 0 13.5568 0 18.45V52.55C0 57.4432 1.94382 62.1361 5.40387 65.5961C8.86392 69.0562 13.5568 71 18.45 71H85.55H86V44.12ZM61 61H17V48H61V61ZM83 36H17V16H83V36Z" fill="#019C9C"/>
<path d="M133.21 6.84986L101 50.8499V75.1999L122.21 65.7799L156 23.3499C156 23.3499 149.71 4.48986 133.21 6.84986Z" fill="#019C9C"/>
</svg>
