<svg width="140" height="67" viewBox="0 0 140 67" fill="none" xmlns="http://www.w3.org/2000/svg">
<path d="M77.1084 39.3917L93.0978 17.5485V16.5891C93.0978 12.2425 91.3711 8.07381 88.2975 5.00026C85.224 1.92671 81.0553 0.200012 76.7087 0.200012H17.1039C12.7573 0.200012 8.58864 1.92671 5.51509 5.00026C2.44154 8.07381 0.714844 12.2425 0.714844 16.5891V46.88C0.714844 51.2267 2.44154 55.3953 5.51509 58.4689C8.58864 61.5424 12.7573 63.2691 17.1039 63.2691H76.7087H77.1084V39.3917ZM54.901 54.3862H15.8159V42.8383H54.901V54.3862ZM74.4435 32.1787H15.8159V14.4128H74.4435V32.1787Z" fill="#019C9C"/>
<path d="M119.046 6.28483L90.4336 45.3699V67L109.274 58.6322L139.29 20.9417C139.29 20.9417 133.703 4.18845 119.046 6.28483Z" fill="#019C9C"/>
</svg>
