<svg width="29" height="55" viewBox="0 0 29 55" fill="none" xmlns="http://www.w3.org/2000/svg">
<path d="M28.7818 15.4899C28.8393 13.6053 28.5187 11.7282 27.8391 9.96949C27.1595 8.21075 26.1346 6.60592 24.8247 5.2497C23.5149 3.89349 21.9467 2.81335 20.2127 2.073C18.4786 1.33266 16.6138 0.947107 14.7283 0.939092C12.8428 0.931078 10.9749 1.3008 9.23464 2.02637C7.49436 2.75195 5.91694 3.81867 4.5956 5.1637C3.27426 6.50873 2.2357 8.10483 1.54116 9.85773C0.84662 11.6106 0.510264 13.4849 0.55178 15.3699C0.55178 15.3699 -0.108215 20.2599 5.43179 28.2499C7.93179 31.8499 14.5418 42.5199 14.5418 42.5199C14.5418 42.5199 21.2518 31.9099 23.7818 28.3299C29.3918 20.3899 28.7818 15.4899 28.7818 15.4899ZM14.6217 25.9999C12.5901 25.9821 10.6091 25.3633 8.92861 24.2214C7.2481 23.0796 5.94323 21.4658 5.17849 19.5834C4.41374 17.7011 4.22329 15.6345 4.63125 13.6441C5.03921 11.6537 6.02737 9.82868 7.47097 8.39899C8.91457 6.9693 10.7491 5.99897 12.7433 5.6103C14.7375 5.22162 16.8022 5.43204 18.677 6.21497C20.5519 6.9979 22.1529 8.31834 23.2785 10.0098C24.404 11.7013 25.0036 13.6881 25.0017 15.7199C25.0005 17.0779 24.7304 18.4224 24.2071 19.6755C23.6837 20.9287 22.9175 22.0659 21.9525 23.0216C20.9876 23.9772 19.8431 24.7324 18.5849 25.2435C17.3267 25.7547 15.9797 26.0118 14.6217 25.9999Z" fill="#E1E8F5"/>
<path d="M14.3997 54.7C20.7841 54.7 25.9597 52.7569 25.9597 50.36C25.9597 47.9631 20.7841 46.02 14.3997 46.02C8.01525 46.02 2.83984 47.9631 2.83984 50.36C2.83984 52.7569 8.01525 54.7 14.3997 54.7Z" fill="#E1E8F5"/>
</svg>
