<svg width="51" height="50" viewBox="0 0 51 50" fill="none" xmlns="http://www.w3.org/2000/svg">
<path d="M37.4387 1.05998C30.5287 1.33998 4.09875 4.52998 1.57875 36.68C0.887414 37.8313 0.602325 39.1813 0.769123 40.5139C0.93592 41.8465 1.54494 43.0846 2.49874 44.03L6.49874 48.03C7.05703 48.5969 7.72251 49.0471 8.45644 49.3544C9.19036 49.6617 9.9781 49.8199 10.7738 49.8199C11.5694 49.8199 12.3571 49.6617 13.091 49.3544C13.8249 49.0471 14.4904 48.5969 15.0487 48.03L19.0487 44.03C19.6156 43.4717 20.0658 42.8062 20.3731 42.0723C20.6804 41.3384 20.8387 40.5507 20.8387 39.755C20.8387 38.9593 20.6804 38.1716 20.3731 37.4377C20.0658 36.7037 19.6156 36.0383 19.0487 35.48L15.0487 31.48C14.4095 30.8371 13.6329 30.3475 12.7773 30.0479C11.9217 29.7483 11.0093 29.6464 10.1087 29.75C10.6087 27.46 14.1988 14.21 30.2788 9.80998C30.2003 10.7265 30.3234 11.649 30.6395 12.5128C30.9557 13.3766 31.4572 14.1607 32.1087 14.81L35.6887 18.4C36.2781 18.9938 36.9791 19.4651 37.7514 19.7867C38.5238 20.1083 39.3521 20.2739 40.1887 20.2739C41.0254 20.2739 41.8537 20.1083 42.6261 19.7867C43.3984 19.4651 44.0994 18.9938 44.6887 18.4L48.2788 14.81C48.8726 14.2206 49.3439 13.5196 49.6655 12.7473C49.9871 11.975 50.1527 11.1466 50.1527 10.31C50.1527 9.47336 49.9871 8.64499 49.6655 7.87266C49.3439 7.10034 48.8726 6.39932 48.2788 5.80998L44.6887 2.22996C43.7519 1.30538 42.5502 0.695829 41.2508 0.486129C39.9513 0.276428 38.6188 0.477024 37.4387 1.05998Z" fill="#E1E8F5"/>
</svg>
