<svg width="128" height="82" viewBox="0 0 128 82" fill="none" xmlns="http://www.w3.org/2000/svg">
<path d="M127.32 60.8301L106.74 47.5601V53.1801H88.47C86.083 53.1801 83.7938 54.1283 82.106 55.8161C80.4182 57.5039 79.47 59.7931 79.47 62.1801V82.0001H94.76V71.4601C94.76 70.6644 95.0761 69.9014 95.6387 69.3387C96.2013 68.7761 96.9644 68.4601 97.76 68.4601H106.76V74.08L127.32 60.8301Z" fill="#019C9C"/>
<path d="M64.31 56.19C64.31 56.19 64.31 56.12 64.31 56.09H18.85C18.4837 56.0838 18.1283 55.9655 17.8314 55.7509C17.5346 55.5363 17.3107 55.2358 17.19 54.89C17.0458 54.5363 17.0058 54.1486 17.075 53.7729C17.1441 53.3972 17.3193 53.0492 17.58 52.77L32.85 36.31C33.1528 35.9739 33.5764 35.7716 34.0281 35.7472C34.4798 35.7229 34.9228 35.8785 35.26 36.18L42.44 42.5L59.23 23.93C59.3896 23.7468 59.5861 23.5995 59.8068 23.4978C60.0274 23.3961 60.2671 23.3423 60.51 23.34V23.34C60.7555 23.3472 60.9968 23.4051 61.2188 23.51C61.4408 23.615 61.6387 23.7648 61.8 23.95L75.3 39.38C77.6099 38.3766 80.1016 37.8592 82.62 37.86H108.55V18.8C108.547 13.9376 106.614 9.27534 103.175 5.83809C99.7357 2.40083 95.0724 0.46997 90.21 0.469971H18.62C13.7577 0.46997 9.09434 2.40083 5.65521 5.83809C2.21608 9.27534 0.282681 13.9376 0.280029 18.8V53C0.280029 57.864 2.21226 62.5289 5.65167 65.9683C9.09109 69.4077 13.7559 71.34 18.62 71.34H64.28L64.31 56.19ZM31.39 14.65C33.6939 14.6526 35.9027 15.569 37.5319 17.1981C39.161 18.8273 40.0774 21.036 40.08 23.34C40.0774 25.6439 39.161 27.8527 37.5319 29.4818C35.9027 31.1109 33.6939 32.0273 31.39 32.03C29.0861 32.0273 26.8773 31.1109 25.2482 29.4818C23.6191 27.8527 22.7027 25.6439 22.7 23.34C22.7027 21.036 23.6191 18.8273 25.2482 17.1981C26.8773 15.569 29.0861 14.6526 31.39 14.65V14.65Z" fill="#019C9C"/>
</svg>
