<svg width="27" height="35" viewBox="0 0 27 35" fill="none" xmlns="http://www.w3.org/2000/svg">
<path d="M18.2315 14.4128C20.8167 11.8276 20.8358 7.65492 18.274 5.09308C15.7121 2.53124 11.5395 2.55032 8.95422 5.13559C6.36895 7.72086 6.35022 11.8932 8.91206 14.455C11.4739 17.0168 15.6462 16.9981 18.2315 14.4128Z" fill="white"/>
<path d="M7.93896 20.4101H19.2393C21.2231 20.4101 23.1255 21.1982 24.5283 22.601C25.9311 24.0038 26.7192 25.9063 26.7192 27.8902C26.7192 29.569 26.0523 31.179 24.8652 32.3661C23.6781 33.5532 22.068 34.2201 20.3892 34.2201H6.77881C5.09999 34.2201 3.49033 33.5532 2.30322 32.3661C1.11612 31.179 0.449219 29.569 0.449219 27.8902C0.449219 25.9063 1.23688 24.0038 2.63965 22.601C4.04242 21.1982 5.94538 20.4101 7.9292 20.4101H7.93896Z" fill="white"/>
</svg>
